<?xml version="1.0" encoding="utf-8"?>
<!-- Generator: Adobe Illustrator 15.0.2, SVG Export Plug-In . SVG Version: 6.00 Build 0)  -->
<!DOCTYPE svg PUBLIC "-//W3C//DTD SVG 1.1//EN" "http://www.w3.org/Graphics/SVG/1.1/DTD/svg11.dtd">
<svg version="1.1" id="Layer_1" xmlns="http://www.w3.org/2000/svg" xmlns:xlink="http://www.w3.org/1999/xlink" x="0px" y="0px"
	 width="382.68px" height="794.488px" viewBox="0 0 382.68 794.488" enable-background="new 0 0 382.68 794.488"
	 xml:space="preserve">
<rect x="42.535" y="114.413" fill="none" stroke="#A54B9B" stroke-miterlimit="10" width="42.521" height="53.191"/>
<rect x="0.016" y="114.413" fill="none" stroke="#A54B9B" stroke-miterlimit="10" width="42.521" height="53.191"/>
<rect x="127.576" y="114.413" fill="none" stroke="#A54B9B" stroke-miterlimit="10" width="42.52" height="53.191"/>
<rect x="85.057" y="114.413" fill="none" stroke="#A54B9B" stroke-miterlimit="10" width="42.521" height="53.191"/>
<rect x="212.354" y="114.413" fill="none" stroke="#A54B9B" stroke-miterlimit="10" width="42.521" height="53.191"/>
<rect x="169.834" y="114.413" fill="none" stroke="#A54B9B" stroke-miterlimit="10" width="42.52" height="53.191"/>
<rect x="297.395" y="114.413" fill="none" stroke="#A54B9B" stroke-miterlimit="10" width="42.521" height="53.191"/>
<rect x="254.874" y="114.413" fill="none" stroke="#A54B9B" stroke-miterlimit="10" width="42.521" height="53.191"/>
<rect x="340.046" y="114.413" fill="none" stroke="#A54B9B" stroke-miterlimit="10" width="42.521" height="53.191"/>
<rect x="42.535" y="189.493" stroke="#A54B9B" stroke-miterlimit="10" width="42.521" height="17.009"/>
<rect x="0.016" y="189.493" fill="none" stroke="#A54B9B" stroke-miterlimit="10" width="42.521" height="17.009"/>
<rect x="127.576" y="189.493" stroke="#A54B9B" stroke-miterlimit="10" width="42.52" height="17.009"/>
<rect x="85.057" y="189.493" stroke="#A54B9B" stroke-miterlimit="10" width="42.521" height="17.009"/>
<rect x="212.354" y="189.493" fill="none" stroke="#A54B9B" stroke-miterlimit="10" width="42.521" height="17.009"/>
<rect x="169.834" y="189.493" fill="none" stroke="#A54B9B" stroke-miterlimit="10" width="42.52" height="17.009"/>
<rect x="297.395" y="189.493" fill="none" stroke="#A54B9B" stroke-miterlimit="10" width="42.521" height="17.009"/>
<rect x="254.874" y="189.493" fill="none" stroke="#A54B9B" stroke-miterlimit="10" width="42.521" height="17.009"/>
<rect x="340.046" y="189.493" fill="none" stroke="#A54B9B" stroke-miterlimit="10" width="42.521" height="17.009"/>
<rect x="42.535" y="246.484" fill="none" stroke="#A54B9B" stroke-miterlimit="10" width="42.521" height="17.008"/>
<rect x="0.016" y="246.484" fill="none" stroke="#A54B9B" stroke-miterlimit="10" width="42.521" height="17.008"/>
<rect x="127.576" y="246.484" fill="none" stroke="#A54B9B" stroke-miterlimit="10" width="42.52" height="17.008"/>
<rect x="85.057" y="246.484" stroke="#A54B9B" stroke-miterlimit="10" width="42.521" height="17.008"/>
<rect x="212.354" y="246.484" fill="none" stroke="#A54B9B" stroke-miterlimit="10" width="42.521" height="17.008"/>
<rect x="169.834" y="246.484" fill="none" stroke="#A54B9B" stroke-miterlimit="10" width="42.52" height="17.008"/>
<rect x="297.395" y="246.484" fill="none" stroke="#A54B9B" stroke-miterlimit="10" width="42.521" height="17.008"/>
<rect x="254.874" y="246.484" fill="none" stroke="#A54B9B" stroke-miterlimit="10" width="42.521" height="17.008"/>
<rect x="340.046" y="246.484" fill="none" stroke="#A54B9B" stroke-miterlimit="10" width="42.521" height="17.008"/>
<rect x="42.535" y="303.472" fill="none" stroke="#A54B9B" stroke-miterlimit="10" width="42.521" height="17.009"/>
<rect x="0.016" y="303.472" fill="none" stroke="#A54B9B" stroke-miterlimit="10" width="42.521" height="17.009"/>
<rect x="127.576" y="303.472" fill="none" stroke="#A54B9B" stroke-miterlimit="10" width="42.52" height="17.009"/>
<rect x="85.057" y="303.472" stroke="#A54B9B" stroke-miterlimit="10" width="42.521" height="17.009"/>
<rect x="212.354" y="303.472" fill="none" stroke="#A54B9B" stroke-miterlimit="10" width="42.521" height="17.009"/>
<rect x="169.834" y="303.472" fill="none" stroke="#A54B9B" stroke-miterlimit="10" width="42.52" height="17.009"/>
<rect x="297.395" y="303.472" fill="none" stroke="#A54B9B" stroke-miterlimit="10" width="42.521" height="17.009"/>
<rect x="254.874" y="303.472" fill="none" stroke="#A54B9B" stroke-miterlimit="10" width="42.521" height="17.009"/>
<rect x="340.046" y="303.472" fill="none" stroke="#A54B9B" stroke-miterlimit="10" width="42.521" height="17.009"/>
<rect x="42.535" y="360.463" fill="none" stroke="#A54B9B" stroke-miterlimit="10" width="42.521" height="17.008"/>
<rect x="0.016" y="360.463" fill="none" stroke="#A54B9B" stroke-miterlimit="10" width="42.521" height="17.008"/>
<rect x="127.576" y="360.463" fill="none" stroke="#A54B9B" stroke-miterlimit="10" width="42.52" height="17.008"/>
<rect x="85.057" y="360.463" stroke="#A54B9B" stroke-miterlimit="10" width="42.521" height="17.008"/>
<rect x="212.354" y="360.463" fill="none" stroke="#A54B9B" stroke-miterlimit="10" width="42.521" height="17.008"/>
<rect x="169.834" y="360.463" fill="none" stroke="#A54B9B" stroke-miterlimit="10" width="42.52" height="17.008"/>
<rect x="297.395" y="360.463" fill="none" stroke="#A54B9B" stroke-miterlimit="10" width="42.521" height="17.008"/>
<rect x="254.874" y="360.463" fill="none" stroke="#A54B9B" stroke-miterlimit="10" width="42.521" height="17.008"/>
<rect x="340.046" y="360.463" fill="none" stroke="#A54B9B" stroke-miterlimit="10" width="42.521" height="17.008"/>
<rect x="42.535" y="417.452" fill="none" stroke="#A54B9B" stroke-miterlimit="10" width="42.521" height="17.008"/>
<rect x="0.016" y="417.452" fill="none" stroke="#A54B9B" stroke-miterlimit="10" width="42.521" height="17.008"/>
<rect x="127.576" y="417.452" fill="none" stroke="#A54B9B" stroke-miterlimit="10" width="42.52" height="17.008"/>
<rect x="85.057" y="417.452" stroke="#A54B9B" stroke-miterlimit="10" width="42.521" height="17.008"/>
<rect x="212.354" y="417.452" fill="none" stroke="#A54B9B" stroke-miterlimit="10" width="42.521" height="17.008"/>
<rect x="169.834" y="417.452" fill="none" stroke="#A54B9B" stroke-miterlimit="10" width="42.52" height="17.008"/>
<rect x="297.395" y="417.452" fill="none" stroke="#A54B9B" stroke-miterlimit="10" width="42.521" height="17.008"/>
<rect x="254.874" y="417.452" fill="none" stroke="#A54B9B" stroke-miterlimit="10" width="42.521" height="17.008"/>
<rect x="340.046" y="417.452" fill="none" stroke="#A54B9B" stroke-miterlimit="10" width="42.521" height="17.008"/>
<rect x="42.535" y="474.442" fill="none" stroke="#A54B9B" stroke-miterlimit="10" width="42.521" height="17.009"/>
<rect x="0.016" y="474.442" fill="none" stroke="#A54B9B" stroke-miterlimit="10" width="42.521" height="17.009"/>
<rect x="127.576" y="474.442" fill="none" stroke="#A54B9B" stroke-miterlimit="10" width="42.52" height="17.009"/>
<rect x="85.057" y="474.442" stroke="#A54B9B" stroke-miterlimit="10" width="42.521" height="17.009"/>
<rect x="212.354" y="474.442" fill="none" stroke="#A54B9B" stroke-miterlimit="10" width="42.521" height="17.009"/>
<rect x="169.834" y="474.442" fill="none" stroke="#A54B9B" stroke-miterlimit="10" width="42.52" height="17.009"/>
<rect x="297.395" y="474.442" fill="none" stroke="#A54B9B" stroke-miterlimit="10" width="42.521" height="17.009"/>
<rect x="254.874" y="474.442" fill="none" stroke="#A54B9B" stroke-miterlimit="10" width="42.521" height="17.009"/>
<rect x="340.046" y="474.442" fill="none" stroke="#A54B9B" stroke-miterlimit="10" width="42.521" height="17.009"/>
<rect x="42.535" y="531.43" fill="none" stroke="#A54B9B" stroke-miterlimit="10" width="42.521" height="17.009"/>
<rect x="0.016" y="531.43" fill="none" stroke="#A54B9B" stroke-miterlimit="10" width="42.521" height="17.009"/>
<rect x="127.576" y="531.43" fill="none" stroke="#A54B9B" stroke-miterlimit="10" width="42.52" height="17.009"/>
<rect x="85.057" y="531.43" stroke="#A54B9B" stroke-miterlimit="10" width="42.521" height="17.009"/>
<rect x="212.354" y="531.43" fill="none" stroke="#A54B9B" stroke-miterlimit="10" width="42.521" height="17.009"/>
<rect x="169.834" y="531.43" fill="none" stroke="#A54B9B" stroke-miterlimit="10" width="42.52" height="17.009"/>
<rect x="297.395" y="531.43" fill="none" stroke="#A54B9B" stroke-miterlimit="10" width="42.521" height="17.009"/>
<rect x="254.874" y="531.43" fill="none" stroke="#A54B9B" stroke-miterlimit="10" width="42.521" height="17.009"/>
<rect x="340.046" y="531.43" fill="none" stroke="#A54B9B" stroke-miterlimit="10" width="42.521" height="17.009"/>
<rect x="42.535" y="588.42" fill="none" stroke="#A54B9B" stroke-miterlimit="10" width="42.521" height="17.01"/>
<rect x="0.016" y="588.42" fill="none" stroke="#A54B9B" stroke-miterlimit="10" width="42.521" height="17.01"/>
<rect x="127.576" y="588.42" fill="none" stroke="#A54B9B" stroke-miterlimit="10" width="42.52" height="17.01"/>
<rect x="85.057" y="588.42" stroke="#A54B9B" stroke-miterlimit="10" width="42.521" height="17.01"/>
<rect x="212.354" y="588.42" fill="none" stroke="#A54B9B" stroke-miterlimit="10" width="42.521" height="17.01"/>
<rect x="169.834" y="588.42" fill="none" stroke="#A54B9B" stroke-miterlimit="10" width="42.52" height="17.01"/>
<rect x="297.395" y="588.42" stroke="#A54B9B" stroke-miterlimit="10" width="42.521" height="17.01"/>
<rect x="254.874" y="588.42" fill="none" stroke="#A54B9B" stroke-miterlimit="10" width="42.521" height="17.01"/>
<rect x="340.046" y="588.42" fill="none" stroke="#A54B9B" stroke-miterlimit="10" width="42.521" height="17.01"/>
<rect x="42.535" y="645.412" stroke="#A54B9B" stroke-miterlimit="10" width="42.521" height="17.008"/>
<rect x="0.016" y="645.412" fill="none" stroke="#A54B9B" stroke-miterlimit="10" width="42.521" height="17.008"/>
<rect x="127.576" y="645.412" stroke="#A54B9B" stroke-miterlimit="10" width="42.52" height="17.008"/>
<rect x="85.057" y="645.412" stroke="#A54B9B" stroke-miterlimit="10" width="42.521" height="17.008"/>
<rect x="212.354" y="645.412" stroke="#A54B9B" stroke-miterlimit="10" width="42.521" height="17.008"/>
<rect x="169.834" y="645.412" stroke="#A54B9B" stroke-miterlimit="10" width="42.52" height="17.008"/>
<rect x="297.395" y="645.412" stroke="#A54B9B" stroke-miterlimit="10" width="42.521" height="17.008"/>
<rect x="254.874" y="645.412" stroke="#A54B9B" stroke-miterlimit="10" width="42.521" height="17.008"/>
<rect x="340.046" y="645.412" fill="none" stroke="#A54B9B" stroke-miterlimit="10" width="42.521" height="17.008"/>
<rect x="42.535" y="684.308" fill="none" stroke="#A54B9B" stroke-miterlimit="10" width="42.521" height="53.189"/>
<rect x="0.016" y="684.308" fill="none" stroke="#A54B9B" stroke-miterlimit="10" width="42.521" height="53.189"/>
<rect x="127.576" y="684.308" fill="none" stroke="#A54B9B" stroke-miterlimit="10" width="42.52" height="53.189"/>
<rect x="85.057" y="684.308" fill="none" stroke="#A54B9B" stroke-miterlimit="10" width="42.521" height="53.189"/>
<rect x="212.354" y="684.308" fill="none" stroke="#A54B9B" stroke-miterlimit="10" width="42.521" height="53.189"/>
<rect x="169.834" y="684.308" fill="none" stroke="#A54B9B" stroke-miterlimit="10" width="42.52" height="53.189"/>
<rect x="297.395" y="684.308" fill="none" stroke="#A54B9B" stroke-miterlimit="10" width="42.521" height="53.189"/>
<rect x="254.874" y="684.308" fill="none" stroke="#A54B9B" stroke-miterlimit="10" width="42.521" height="53.189"/>
<rect x="340.046" y="684.308" fill="none" stroke="#A54B9B" stroke-miterlimit="10" width="42.521" height="53.189"/>
<rect x="42.535" y="741.298" fill="none" stroke="#A54B9B" stroke-miterlimit="10" width="42.521" height="53.19"/>
<rect x="0.016" y="741.298" fill="none" stroke="#A54B9B" stroke-miterlimit="10" width="42.521" height="53.19"/>
<rect x="127.576" y="741.298" fill="none" stroke="#A54B9B" stroke-miterlimit="10" width="42.52" height="53.19"/>
<rect x="85.057" y="741.298" fill="none" stroke="#A54B9B" stroke-miterlimit="10" width="42.521" height="53.19"/>
<rect x="212.354" y="741.298" fill="none" stroke="#A54B9B" stroke-miterlimit="10" width="42.521" height="53.19"/>
<rect x="169.834" y="741.298" fill="none" stroke="#A54B9B" stroke-miterlimit="10" width="42.52" height="53.19"/>
<rect x="297.395" y="741.298" fill="none" stroke="#A54B9B" stroke-miterlimit="10" width="42.521" height="53.19"/>
<rect x="254.874" y="741.298" fill="none" stroke="#A54B9B" stroke-miterlimit="10" width="42.521" height="53.19"/>
<rect x="340.046" y="741.298" fill="none" stroke="#A54B9B" stroke-miterlimit="10" width="42.521" height="53.19"/>
</svg>
