<?xml version="1.0" encoding="utf-8"?>
<!-- Generator: Adobe Illustrator 15.0.2, SVG Export Plug-In . SVG Version: 6.00 Build 0)  -->
<!DOCTYPE svg PUBLIC "-//W3C//DTD SVG 1.1//EN" "http://www.w3.org/Graphics/SVG/1.1/DTD/svg11.dtd">
<svg version="1.1" id="Layer_1" xmlns="http://www.w3.org/2000/svg" xmlns:xlink="http://www.w3.org/1999/xlink" x="0px" y="0px"
	 width="382.68px" height="794.488px" viewBox="0 0 382.68 794.488" enable-background="new 0 0 382.68 794.488"
	 xml:space="preserve">
<rect x="43.061" y="114.413" fill="none" stroke="#A54B9B" stroke-miterlimit="10" width="42.521" height="53.191"/>
<rect x="0.541" y="114.413" fill="none" stroke="#A54B9B" stroke-miterlimit="10" width="42.52" height="53.191"/>
<rect x="128.102" y="114.413" fill="none" stroke="#A54B9B" stroke-miterlimit="10" width="42.521" height="53.191"/>
<rect x="85.582" y="114.413" fill="none" stroke="#A54B9B" stroke-miterlimit="10" width="42.52" height="53.191"/>
<rect x="212.879" y="114.413" fill="none" stroke="#A54B9B" stroke-miterlimit="10" width="42.52" height="53.191"/>
<rect x="170.359" y="114.413" fill="none" stroke="#A54B9B" stroke-miterlimit="10" width="42.521" height="53.191"/>
<rect x="297.92" y="114.413" fill="none" stroke="#A54B9B" stroke-miterlimit="10" width="42.52" height="53.191"/>
<rect x="255.399" y="114.413" fill="none" stroke="#A54B9B" stroke-miterlimit="10" width="42.521" height="53.191"/>
<rect x="340.571" y="114.413" fill="none" stroke="#A54B9B" stroke-miterlimit="10" width="42.521" height="53.191"/>
<rect x="43.061" y="189.493" stroke="#A54B9B" stroke-miterlimit="10" width="42.521" height="17.009"/>
<rect x="0.541" y="189.493" fill="none" stroke="#A54B9B" stroke-miterlimit="10" width="42.52" height="17.009"/>
<rect x="128.102" y="189.493" fill="none" stroke="#A54B9B" stroke-miterlimit="10" width="42.521" height="17.009"/>
<rect x="85.582" y="189.493" fill="none" stroke="#A54B9B" stroke-miterlimit="10" width="42.52" height="17.009"/>
<rect x="212.879" y="189.493" fill="none" stroke="#A54B9B" stroke-miterlimit="10" width="42.52" height="17.009"/>
<rect x="170.359" y="189.493" fill="none" stroke="#A54B9B" stroke-miterlimit="10" width="42.521" height="17.009"/>
<rect x="297.92" y="189.493" stroke="#A54B9B" stroke-miterlimit="10" width="42.52" height="17.009"/>
<rect x="255.399" y="189.493" fill="none" stroke="#A54B9B" stroke-miterlimit="10" width="42.521" height="17.009"/>
<rect x="340.571" y="189.493" fill="none" stroke="#A54B9B" stroke-miterlimit="10" width="42.521" height="17.009"/>
<rect x="43.061" y="246.484" stroke="#A54B9B" stroke-miterlimit="10" width="42.521" height="17.008"/>
<rect x="0.541" y="246.484" fill="none" stroke="#A54B9B" stroke-miterlimit="10" width="42.52" height="17.008"/>
<rect x="128.102" y="246.484" fill="none" stroke="#A54B9B" stroke-miterlimit="10" width="42.521" height="17.008"/>
<rect x="85.582" y="246.484" fill="none" stroke="#A54B9B" stroke-miterlimit="10" width="42.52" height="17.008"/>
<rect x="212.879" y="246.484" fill="none" stroke="#A54B9B" stroke-miterlimit="10" width="42.52" height="17.008"/>
<rect x="170.359" y="246.484" fill="none" stroke="#A54B9B" stroke-miterlimit="10" width="42.521" height="17.008"/>
<rect x="297.92" y="246.484" stroke="#A54B9B" stroke-miterlimit="10" width="42.52" height="17.008"/>
<rect x="255.399" y="246.484" fill="none" stroke="#A54B9B" stroke-miterlimit="10" width="42.521" height="17.008"/>
<rect x="340.571" y="246.484" fill="none" stroke="#A54B9B" stroke-miterlimit="10" width="42.521" height="17.008"/>
<rect x="43.061" y="303.472" stroke="#A54B9B" stroke-miterlimit="10" width="42.521" height="17.009"/>
<rect x="0.541" y="303.472" fill="none" stroke="#A54B9B" stroke-miterlimit="10" width="42.52" height="17.009"/>
<rect x="128.102" y="303.472" fill="none" stroke="#A54B9B" stroke-miterlimit="10" width="42.521" height="17.009"/>
<rect x="85.582" y="303.472" stroke="#A54B9B" stroke-miterlimit="10" width="42.52" height="17.009"/>
<rect x="212.879" y="303.472" fill="none" stroke="#A54B9B" stroke-miterlimit="10" width="42.52" height="17.009"/>
<rect x="170.359" y="303.472" fill="none" stroke="#A54B9B" stroke-miterlimit="10" width="42.521" height="17.009"/>
<rect x="297.92" y="303.472" stroke="#A54B9B" stroke-miterlimit="10" width="42.52" height="17.009"/>
<rect x="255.399" y="303.472" stroke="#A54B9B" stroke-miterlimit="10" width="42.521" height="17.009"/>
<rect x="340.571" y="303.472" fill="none" stroke="#A54B9B" stroke-miterlimit="10" width="42.521" height="17.009"/>
<rect x="43.061" y="360.463" stroke="#A54B9B" stroke-miterlimit="10" width="42.521" height="17.008"/>
<rect x="0.541" y="360.463" fill="none" stroke="#A54B9B" stroke-miterlimit="10" width="42.52" height="17.008"/>
<rect x="128.102" y="360.463" stroke="#A54B9B" stroke-miterlimit="10" width="42.521" height="17.008"/>
<rect x="85.582" y="360.463" fill="none" stroke="#A54B9B" stroke-miterlimit="10" width="42.52" height="17.008"/>
<rect x="212.879" y="360.463" stroke="#A54B9B" stroke-miterlimit="10" width="42.52" height="17.008"/>
<rect x="170.359" y="360.463" fill="none" stroke="#A54B9B" stroke-miterlimit="10" width="42.521" height="17.008"/>
<rect x="297.92" y="360.463" stroke="#A54B9B" stroke-miterlimit="10" width="42.52" height="17.008"/>
<rect x="255.399" y="360.463" fill="none" stroke="#A54B9B" stroke-miterlimit="10" width="42.521" height="17.008"/>
<rect x="340.571" y="360.463" fill="none" stroke="#A54B9B" stroke-miterlimit="10" width="42.521" height="17.008"/>
<rect x="43.061" y="417.452" stroke="#A54B9B" stroke-miterlimit="10" width="42.521" height="17.008"/>
<rect x="0.541" y="417.452" fill="none" stroke="#A54B9B" stroke-miterlimit="10" width="42.52" height="17.008"/>
<rect x="128.102" y="417.452" fill="none" stroke="#A54B9B" stroke-miterlimit="10" width="42.521" height="17.008"/>
<rect x="85.582" y="417.452" fill="none" stroke="#A54B9B" stroke-miterlimit="10" width="42.52" height="17.008"/>
<rect x="212.879" y="417.452" fill="none" stroke="#A54B9B" stroke-miterlimit="10" width="42.52" height="17.008"/>
<rect x="170.359" y="417.452" stroke="#A54B9B" stroke-miterlimit="10" width="42.521" height="17.008"/>
<rect x="297.92" y="417.452" stroke="#A54B9B" stroke-miterlimit="10" width="42.52" height="17.008"/>
<rect x="255.399" y="417.452" fill="none" stroke="#A54B9B" stroke-miterlimit="10" width="42.521" height="17.008"/>
<rect x="340.571" y="417.452" fill="none" stroke="#A54B9B" stroke-miterlimit="10" width="42.521" height="17.008"/>
<rect x="43.061" y="474.442" stroke="#A54B9B" stroke-miterlimit="10" width="42.521" height="17.009"/>
<rect x="0.541" y="474.442" fill="none" stroke="#A54B9B" stroke-miterlimit="10" width="42.52" height="17.009"/>
<rect x="128.102" y="474.442" fill="none" stroke="#A54B9B" stroke-miterlimit="10" width="42.521" height="17.009"/>
<rect x="85.582" y="474.442" fill="none" stroke="#A54B9B" stroke-miterlimit="10" width="42.52" height="17.009"/>
<rect x="212.879" y="474.442" fill="none" stroke="#A54B9B" stroke-miterlimit="10" width="42.52" height="17.009"/>
<rect x="170.359" y="474.442" fill="none" stroke="#A54B9B" stroke-miterlimit="10" width="42.521" height="17.009"/>
<rect x="297.92" y="474.442" stroke="#A54B9B" stroke-miterlimit="10" width="42.52" height="17.009"/>
<rect x="255.399" y="474.442" fill="none" stroke="#A54B9B" stroke-miterlimit="10" width="42.521" height="17.009"/>
<rect x="340.571" y="474.442" fill="none" stroke="#A54B9B" stroke-miterlimit="10" width="42.521" height="17.009"/>
<rect x="43.061" y="531.43" stroke="#A54B9B" stroke-miterlimit="10" width="42.521" height="17.009"/>
<rect x="0.541" y="531.43" fill="none" stroke="#A54B9B" stroke-miterlimit="10" width="42.52" height="17.009"/>
<rect x="128.102" y="531.43" fill="none" stroke="#A54B9B" stroke-miterlimit="10" width="42.521" height="17.009"/>
<rect x="85.582" y="531.43" fill="none" stroke="#A54B9B" stroke-miterlimit="10" width="42.52" height="17.009"/>
<rect x="212.879" y="531.43" fill="none" stroke="#A54B9B" stroke-miterlimit="10" width="42.52" height="17.009"/>
<rect x="170.359" y="531.43" fill="none" stroke="#A54B9B" stroke-miterlimit="10" width="42.521" height="17.009"/>
<rect x="297.92" y="531.43" stroke="#A54B9B" stroke-miterlimit="10" width="42.52" height="17.009"/>
<rect x="255.399" y="531.43" fill="none" stroke="#A54B9B" stroke-miterlimit="10" width="42.521" height="17.009"/>
<rect x="340.571" y="531.43" fill="none" stroke="#A54B9B" stroke-miterlimit="10" width="42.521" height="17.009"/>
<rect x="43.061" y="588.42" stroke="#A54B9B" stroke-miterlimit="10" width="42.521" height="17.01"/>
<rect x="0.541" y="588.42" fill="none" stroke="#A54B9B" stroke-miterlimit="10" width="42.52" height="17.01"/>
<rect x="128.102" y="588.42" fill="none" stroke="#A54B9B" stroke-miterlimit="10" width="42.521" height="17.01"/>
<rect x="85.582" y="588.42" fill="none" stroke="#A54B9B" stroke-miterlimit="10" width="42.52" height="17.01"/>
<rect x="212.879" y="588.42" fill="none" stroke="#A54B9B" stroke-miterlimit="10" width="42.52" height="17.01"/>
<rect x="170.359" y="588.42" fill="none" stroke="#A54B9B" stroke-miterlimit="10" width="42.521" height="17.01"/>
<rect x="297.92" y="588.42" stroke="#A54B9B" stroke-miterlimit="10" width="42.52" height="17.01"/>
<rect x="255.399" y="588.42" fill="none" stroke="#A54B9B" stroke-miterlimit="10" width="42.521" height="17.01"/>
<rect x="340.571" y="588.42" fill="none" stroke="#A54B9B" stroke-miterlimit="10" width="42.521" height="17.01"/>
<rect x="43.061" y="645.412" stroke="#A54B9B" stroke-miterlimit="10" width="42.521" height="17.008"/>
<rect x="0.541" y="645.412" fill="none" stroke="#A54B9B" stroke-miterlimit="10" width="42.52" height="17.008"/>
<rect x="128.102" y="645.412" fill="none" stroke="#A54B9B" stroke-miterlimit="10" width="42.521" height="17.008"/>
<rect x="85.582" y="645.412" fill="none" stroke="#A54B9B" stroke-miterlimit="10" width="42.52" height="17.008"/>
<rect x="212.879" y="645.412" fill="none" stroke="#A54B9B" stroke-miterlimit="10" width="42.52" height="17.008"/>
<rect x="170.359" y="645.412" fill="none" stroke="#A54B9B" stroke-miterlimit="10" width="42.521" height="17.008"/>
<rect x="297.92" y="645.412" stroke="#A54B9B" stroke-miterlimit="10" width="42.52" height="17.008"/>
<rect x="255.399" y="645.412" fill="none" stroke="#A54B9B" stroke-miterlimit="10" width="42.521" height="17.008"/>
<rect x="340.571" y="645.412" fill="none" stroke="#A54B9B" stroke-miterlimit="10" width="42.521" height="17.008"/>
<rect x="43.061" y="684.308" fill="none" stroke="#A54B9B" stroke-miterlimit="10" width="42.521" height="53.189"/>
<rect x="0.541" y="684.308" fill="none" stroke="#A54B9B" stroke-miterlimit="10" width="42.52" height="53.189"/>
<rect x="128.102" y="684.308" fill="none" stroke="#A54B9B" stroke-miterlimit="10" width="42.521" height="53.189"/>
<rect x="85.582" y="684.308" fill="none" stroke="#A54B9B" stroke-miterlimit="10" width="42.52" height="53.189"/>
<rect x="212.879" y="684.308" fill="none" stroke="#A54B9B" stroke-miterlimit="10" width="42.52" height="53.189"/>
<rect x="170.359" y="684.308" fill="none" stroke="#A54B9B" stroke-miterlimit="10" width="42.521" height="53.189"/>
<rect x="297.92" y="684.308" fill="none" stroke="#A54B9B" stroke-miterlimit="10" width="42.52" height="53.189"/>
<rect x="255.399" y="684.308" fill="none" stroke="#A54B9B" stroke-miterlimit="10" width="42.521" height="53.189"/>
<rect x="340.571" y="684.308" fill="none" stroke="#A54B9B" stroke-miterlimit="10" width="42.521" height="53.189"/>
<rect x="43.061" y="741.298" fill="none" stroke="#A54B9B" stroke-miterlimit="10" width="42.521" height="53.19"/>
<rect x="0.541" y="741.298" fill="none" stroke="#A54B9B" stroke-miterlimit="10" width="42.52" height="53.19"/>
<rect x="128.102" y="741.298" fill="none" stroke="#A54B9B" stroke-miterlimit="10" width="42.521" height="53.19"/>
<rect x="85.582" y="741.298" fill="none" stroke="#A54B9B" stroke-miterlimit="10" width="42.52" height="53.19"/>
<rect x="212.879" y="741.298" fill="none" stroke="#A54B9B" stroke-miterlimit="10" width="42.52" height="53.19"/>
<rect x="170.359" y="741.298" fill="none" stroke="#A54B9B" stroke-miterlimit="10" width="42.521" height="53.19"/>
<rect x="297.92" y="741.298" fill="none" stroke="#A54B9B" stroke-miterlimit="10" width="42.52" height="53.19"/>
<rect x="255.399" y="741.298" fill="none" stroke="#A54B9B" stroke-miterlimit="10" width="42.521" height="53.19"/>
<rect x="340.571" y="741.298" fill="none" stroke="#A54B9B" stroke-miterlimit="10" width="42.521" height="53.19"/>
</svg>
