<?xml version="1.0" encoding="utf-8"?>
<!-- Generator: Adobe Illustrator 15.0.2, SVG Export Plug-In . SVG Version: 6.00 Build 0)  -->
<!DOCTYPE svg PUBLIC "-//W3C//DTD SVG 1.1//EN" "http://www.w3.org/Graphics/SVG/1.1/DTD/svg11.dtd">
<svg version="1.1" id="Layer_1" xmlns="http://www.w3.org/2000/svg" xmlns:xlink="http://www.w3.org/1999/xlink" x="0px" y="0px"
	 width="382.68px" height="794.488px" viewBox="0 0 382.68 794.488" enable-background="new 0 0 382.68 794.488"
	 xml:space="preserve">
<rect x="42.768" y="124.478" fill="none" stroke="#A54B9B" stroke-miterlimit="10" width="42.521" height="17"/>
<rect x="0.248" y="124.478" fill="none" stroke="#A54B9B" stroke-miterlimit="10" width="42.52" height="17"/>
<rect x="127.809" y="124.478" fill="none" stroke="#A54B9B" stroke-miterlimit="10" width="42.521" height="17"/>
<rect x="85.289" y="124.478" fill="none" stroke="#A54B9B" stroke-miterlimit="10" width="42.52" height="17"/>
<rect x="212.586" y="124.478" fill="none" stroke="#A54B9B" stroke-miterlimit="10" width="42.52" height="17"/>
<rect x="170.066" y="124.478" fill="none" stroke="#A54B9B" stroke-miterlimit="10" width="42.521" height="17"/>
<rect x="297.627" y="124.478" fill="none" stroke="#A54B9B" stroke-miterlimit="10" width="42.521" height="17"/>
<rect x="255.105" y="124.478" fill="none" stroke="#A54B9B" stroke-miterlimit="10" width="42.521" height="17"/>
<rect x="340.278" y="124.478" fill="none" stroke="#A54B9B" stroke-miterlimit="10" width="42.521" height="17"/>
<rect x="42.768" y="189.493" fill="none" stroke="#A54B9B" stroke-miterlimit="10" width="42.521" height="17.009"/>
<rect x="0.248" y="189.493" fill="none" stroke="#A54B9B" stroke-miterlimit="10" width="42.52" height="17.009"/>
<rect x="127.809" y="189.493" stroke="#A54B9B" stroke-miterlimit="10" width="42.521" height="17.009"/>
<rect x="85.289" y="189.493" stroke="#A54B9B" stroke-miterlimit="10" width="42.52" height="17.009"/>
<rect x="212.586" y="189.493" stroke="#A54B9B" stroke-miterlimit="10" width="42.52" height="17.009"/>
<rect x="170.066" y="189.493" stroke="#A54B9B" stroke-miterlimit="10" width="42.521" height="17.009"/>
<rect x="297.627" y="189.493" fill="none" stroke="#A54B9B" stroke-miterlimit="10" width="42.521" height="17.009"/>
<rect x="255.105" y="189.493" stroke="#A54B9B" stroke-miterlimit="10" width="42.521" height="17.009"/>
<rect x="340.278" y="189.493" fill="none" stroke="#A54B9B" stroke-miterlimit="10" width="42.521" height="17.009"/>
<rect x="42.768" y="246.484" stroke="#A54B9B" stroke-miterlimit="10" width="42.521" height="17.008"/>
<rect x="0.248" y="246.484" fill="none" stroke="#A54B9B" stroke-miterlimit="10" width="42.52" height="17.008"/>
<rect x="127.809" y="246.484" fill="none" stroke="#A54B9B" stroke-miterlimit="10" width="42.521" height="17.008"/>
<rect x="85.289" y="246.484" fill="none" stroke="#A54B9B" stroke-miterlimit="10" width="42.52" height="17.008"/>
<rect x="212.586" y="246.484" fill="none" stroke="#A54B9B" stroke-miterlimit="10" width="42.52" height="17.008"/>
<rect x="170.066" y="246.484" fill="none" stroke="#A54B9B" stroke-miterlimit="10" width="42.521" height="17.008"/>
<rect x="297.627" y="246.484" stroke="#A54B9B" stroke-miterlimit="10" width="42.521" height="17.008"/>
<rect x="255.105" y="246.484" fill="none" stroke="#A54B9B" stroke-miterlimit="10" width="42.521" height="17.008"/>
<rect x="340.278" y="246.484" fill="none" stroke="#A54B9B" stroke-miterlimit="10" width="42.521" height="17.008"/>
<rect x="42.768" y="303.472" stroke="#A54B9B" stroke-miterlimit="10" width="42.521" height="17.009"/>
<rect x="0.248" y="303.472" fill="none" stroke="#A54B9B" stroke-miterlimit="10" width="42.52" height="17.009"/>
<rect x="127.809" y="303.472" fill="none" stroke="#A54B9B" stroke-miterlimit="10" width="42.521" height="17.009"/>
<rect x="85.289" y="303.472" fill="none" stroke="#A54B9B" stroke-miterlimit="10" width="42.52" height="17.009"/>
<rect x="212.586" y="303.472" fill="none" stroke="#A54B9B" stroke-miterlimit="10" width="42.52" height="17.009"/>
<rect x="170.066" y="303.472" fill="none" stroke="#A54B9B" stroke-miterlimit="10" width="42.521" height="17.009"/>
<rect x="297.627" y="303.472" stroke="#A54B9B" stroke-miterlimit="10" width="42.521" height="17.009"/>
<rect x="255.105" y="303.472" fill="none" stroke="#A54B9B" stroke-miterlimit="10" width="42.521" height="17.009"/>
<rect x="340.278" y="303.472" fill="none" stroke="#A54B9B" stroke-miterlimit="10" width="42.521" height="17.009"/>
<rect x="42.768" y="360.463" stroke="#A54B9B" stroke-miterlimit="10" width="42.521" height="17.008"/>
<rect x="0.248" y="360.463" fill="none" stroke="#A54B9B" stroke-miterlimit="10" width="42.52" height="17.008"/>
<rect x="127.809" y="360.463" fill="none" stroke="#A54B9B" stroke-miterlimit="10" width="42.521" height="17.008"/>
<rect x="85.289" y="360.463" fill="none" stroke="#A54B9B" stroke-miterlimit="10" width="42.52" height="17.008"/>
<rect x="212.586" y="360.463" fill="none" stroke="#A54B9B" stroke-miterlimit="10" width="42.52" height="17.008"/>
<rect x="170.066" y="360.463" fill="none" stroke="#A54B9B" stroke-miterlimit="10" width="42.521" height="17.008"/>
<rect x="297.627" y="360.463" stroke="#A54B9B" stroke-miterlimit="10" width="42.521" height="17.008"/>
<rect x="255.105" y="360.463" fill="none" stroke="#A54B9B" stroke-miterlimit="10" width="42.521" height="17.008"/>
<rect x="340.278" y="360.463" fill="none" stroke="#A54B9B" stroke-miterlimit="10" width="42.521" height="17.008"/>
<rect x="42.768" y="417.452" stroke="#A54B9B" stroke-miterlimit="10" width="42.521" height="17.008"/>
<rect x="0.248" y="417.452" fill="none" stroke="#A54B9B" stroke-miterlimit="10" width="42.52" height="17.008"/>
<rect x="127.809" y="417.452" fill="none" stroke="#A54B9B" stroke-miterlimit="10" width="42.521" height="17.008"/>
<rect x="85.289" y="417.452" fill="none" stroke="#A54B9B" stroke-miterlimit="10" width="42.52" height="17.008"/>
<rect x="212.586" y="417.452" fill="none" stroke="#A54B9B" stroke-miterlimit="10" width="42.52" height="17.008"/>
<rect x="170.066" y="417.452" fill="none" stroke="#A54B9B" stroke-miterlimit="10" width="42.521" height="17.008"/>
<rect x="297.627" y="417.452" stroke="#A54B9B" stroke-miterlimit="10" width="42.521" height="17.008"/>
<rect x="255.105" y="417.452" fill="none" stroke="#A54B9B" stroke-miterlimit="10" width="42.521" height="17.008"/>
<rect x="340.278" y="417.452" fill="none" stroke="#A54B9B" stroke-miterlimit="10" width="42.521" height="17.008"/>
<rect x="42.768" y="474.442" stroke="#A54B9B" stroke-miterlimit="10" width="42.521" height="17.009"/>
<rect x="0.248" y="474.442" fill="none" stroke="#A54B9B" stroke-miterlimit="10" width="42.52" height="17.009"/>
<rect x="127.809" y="474.442" fill="none" stroke="#A54B9B" stroke-miterlimit="10" width="42.521" height="17.009"/>
<rect x="85.289" y="474.442" fill="none" stroke="#A54B9B" stroke-miterlimit="10" width="42.52" height="17.009"/>
<rect x="212.586" y="474.442" fill="none" stroke="#A54B9B" stroke-miterlimit="10" width="42.52" height="17.009"/>
<rect x="170.066" y="474.442" fill="none" stroke="#A54B9B" stroke-miterlimit="10" width="42.521" height="17.009"/>
<rect x="297.627" y="474.442" stroke="#A54B9B" stroke-miterlimit="10" width="42.521" height="17.009"/>
<rect x="255.105" y="474.442" fill="none" stroke="#A54B9B" stroke-miterlimit="10" width="42.521" height="17.009"/>
<rect x="340.278" y="474.442" fill="none" stroke="#A54B9B" stroke-miterlimit="10" width="42.521" height="17.009"/>
<rect x="42.768" y="531.43" stroke="#A54B9B" stroke-miterlimit="10" width="42.521" height="17.011"/>
<rect x="0.248" y="531.43" fill="none" stroke="#A54B9B" stroke-miterlimit="10" width="42.52" height="17.011"/>
<rect x="127.809" y="531.43" fill="none" stroke="#A54B9B" stroke-miterlimit="10" width="42.521" height="17.011"/>
<rect x="85.289" y="531.43" fill="none" stroke="#A54B9B" stroke-miterlimit="10" width="42.52" height="17.011"/>
<rect x="212.586" y="531.43" fill="none" stroke="#A54B9B" stroke-miterlimit="10" width="42.52" height="17.011"/>
<rect x="170.066" y="531.43" fill="none" stroke="#A54B9B" stroke-miterlimit="10" width="42.521" height="17.011"/>
<rect x="297.627" y="531.43" stroke="#A54B9B" stroke-miterlimit="10" width="42.521" height="17.011"/>
<rect x="255.105" y="531.43" fill="none" stroke="#A54B9B" stroke-miterlimit="10" width="42.521" height="17.011"/>
<rect x="340.278" y="531.43" fill="none" stroke="#A54B9B" stroke-miterlimit="10" width="42.521" height="17.011"/>
<rect x="42.768" y="588.42" stroke="#A54B9B" stroke-miterlimit="10" width="42.521" height="17.01"/>
<rect x="0.248" y="588.42" fill="none" stroke="#A54B9B" stroke-miterlimit="10" width="42.52" height="17.01"/>
<rect x="127.809" y="588.42" fill="none" stroke="#A54B9B" stroke-miterlimit="10" width="42.521" height="17.01"/>
<rect x="85.289" y="588.42" fill="none" stroke="#A54B9B" stroke-miterlimit="10" width="42.52" height="17.01"/>
<rect x="212.586" y="588.42" fill="none" stroke="#A54B9B" stroke-miterlimit="10" width="42.52" height="17.01"/>
<rect x="170.066" y="588.42" fill="none" stroke="#A54B9B" stroke-miterlimit="10" width="42.521" height="17.01"/>
<rect x="297.627" y="588.42" stroke="#A54B9B" stroke-miterlimit="10" width="42.521" height="17.01"/>
<rect x="255.105" y="588.42" fill="none" stroke="#A54B9B" stroke-miterlimit="10" width="42.521" height="17.01"/>
<rect x="340.278" y="588.42" fill="none" stroke="#A54B9B" stroke-miterlimit="10" width="42.521" height="17.01"/>
<rect x="42.768" y="645.412" fill="none" stroke="#A54B9B" stroke-miterlimit="10" width="42.521" height="17.008"/>
<rect x="0.248" y="645.412" fill="none" stroke="#A54B9B" stroke-miterlimit="10" width="42.52" height="17.008"/>
<rect x="127.809" y="645.412" stroke="#A54B9B" stroke-miterlimit="10" width="42.521" height="17.008"/>
<rect x="85.289" y="645.412" stroke="#A54B9B" stroke-miterlimit="10" width="42.52" height="17.008"/>
<rect x="212.586" y="645.412" stroke="#A54B9B" stroke-miterlimit="10" width="42.52" height="17.008"/>
<rect x="170.066" y="645.412" stroke="#A54B9B" stroke-miterlimit="10" width="42.521" height="17.008"/>
<rect x="297.627" y="645.412" fill="none" stroke="#A54B9B" stroke-miterlimit="10" width="42.521" height="17.008"/>
<rect x="255.105" y="645.412" stroke="#A54B9B" stroke-miterlimit="10" width="42.521" height="17.008"/>
<rect x="340.278" y="645.412" fill="none" stroke="#A54B9B" stroke-miterlimit="10" width="42.521" height="17.008"/>
<rect x="42.768" y="684.308" fill="none" stroke="#A54B9B" stroke-miterlimit="10" width="42.521" height="53.189"/>
<rect x="0.248" y="684.308" fill="none" stroke="#A54B9B" stroke-miterlimit="10" width="42.52" height="53.189"/>
<rect x="127.809" y="684.308" fill="none" stroke="#A54B9B" stroke-miterlimit="10" width="42.521" height="53.189"/>
<rect x="85.289" y="684.308" fill="none" stroke="#A54B9B" stroke-miterlimit="10" width="42.52" height="53.189"/>
<rect x="212.586" y="684.308" fill="none" stroke="#A54B9B" stroke-miterlimit="10" width="42.52" height="53.189"/>
<rect x="170.066" y="684.308" fill="none" stroke="#A54B9B" stroke-miterlimit="10" width="42.521" height="53.189"/>
<rect x="297.627" y="684.308" fill="none" stroke="#A54B9B" stroke-miterlimit="10" width="42.521" height="53.189"/>
<rect x="255.105" y="684.308" fill="none" stroke="#A54B9B" stroke-miterlimit="10" width="42.521" height="53.189"/>
<rect x="340.278" y="684.308" fill="none" stroke="#A54B9B" stroke-miterlimit="10" width="42.521" height="53.189"/>
<rect x="42.768" y="741.298" fill="none" stroke="#A54B9B" stroke-miterlimit="10" width="42.521" height="53.19"/>
<rect x="0.248" y="741.298" fill="none" stroke="#A54B9B" stroke-miterlimit="10" width="42.52" height="53.19"/>
<rect x="127.809" y="741.298" fill="none" stroke="#A54B9B" stroke-miterlimit="10" width="42.521" height="53.19"/>
<rect x="85.289" y="741.298" fill="none" stroke="#A54B9B" stroke-miterlimit="10" width="42.52" height="53.19"/>
<rect x="212.586" y="741.298" fill="none" stroke="#A54B9B" stroke-miterlimit="10" width="42.52" height="53.19"/>
<rect x="170.066" y="741.298" fill="none" stroke="#A54B9B" stroke-miterlimit="10" width="42.521" height="53.19"/>
<rect x="297.627" y="741.298" fill="none" stroke="#A54B9B" stroke-miterlimit="10" width="42.521" height="53.19"/>
<rect x="255.105" y="741.298" fill="none" stroke="#A54B9B" stroke-miterlimit="10" width="42.521" height="53.19"/>
<rect x="340.278" y="741.298" fill="none" stroke="#A54B9B" stroke-miterlimit="10" width="42.521" height="53.19"/>
<rect x="42.571" y="71.286" fill="none" stroke="#A54B9B" stroke-miterlimit="10" width="42.521" height="17"/>
<rect x="0.051" y="71.286" fill="none" stroke="#A54B9B" stroke-miterlimit="10" width="42.52" height="17"/>
<rect x="127.612" y="71.286" fill="none" stroke="#A54B9B" stroke-miterlimit="10" width="42.521" height="17"/>
<rect x="85.092" y="71.286" fill="#231F20" stroke="#A54B9B" stroke-miterlimit="10" width="42.52" height="17"/>
<rect x="212.389" y="71.286" fill="none" stroke="#A54B9B" stroke-miterlimit="10" width="42.521" height="17"/>
<rect x="169.869" y="71.286" fill="none" stroke="#A54B9B" stroke-miterlimit="10" width="42.521" height="17"/>
<rect x="297.43" y="71.286" fill="none" stroke="#A54B9B" stroke-miterlimit="10" width="42.521" height="17"/>
<rect x="254.908" y="71.286" fill="#231F20" stroke="#A54B9B" stroke-miterlimit="10" width="42.521" height="17"/>
<rect x="340.081" y="71.286" fill="none" stroke="#A54B9B" stroke-miterlimit="10" width="42.521" height="17"/>
<rect x="42.585" y="18.096" fill="none" stroke="#A54B9B" stroke-miterlimit="10" width="42.521" height="17"/>
<rect x="0.065" y="18.096" fill="none" stroke="#A54B9B" stroke-miterlimit="10" width="42.52" height="17"/>
<rect x="127.626" y="18.096" fill="#231F20" stroke="#A54B9B" stroke-miterlimit="10" width="42.521" height="17"/>
<rect x="85.106" y="18.096" fill="none" stroke="#A54B9B" stroke-miterlimit="10" width="42.52" height="17"/>
<rect x="212.402" y="18.096" fill="#231F20" stroke="#A54B9B" stroke-miterlimit="10" width="42.52" height="17"/>
<rect x="169.883" y="18.096" fill="#231F20" stroke="#A54B9B" stroke-miterlimit="10" width="42.521" height="17"/>
<rect x="297.443" y="18.096" fill="none" stroke="#A54B9B" stroke-miterlimit="10" width="42.521" height="17"/>
<rect x="254.922" y="18.096" fill="none" stroke="#A54B9B" stroke-miterlimit="10" width="42.521" height="17"/>
<rect x="340.096" y="18.096" fill="none" stroke="#A54B9B" stroke-miterlimit="10" width="42.521" height="17"/>
</svg>
