<?xml version="1.0" encoding="utf-8"?>
<!-- Generator: Adobe Illustrator 15.0.2, SVG Export Plug-In . SVG Version: 6.00 Build 0)  -->
<!DOCTYPE svg PUBLIC "-//W3C//DTD SVG 1.1//EN" "http://www.w3.org/Graphics/SVG/1.1/DTD/svg11.dtd">
<svg version="1.1" id="Layer_1" xmlns="http://www.w3.org/2000/svg" xmlns:xlink="http://www.w3.org/1999/xlink" x="0px" y="0px"
	 width="382.68px" height="794.488px" viewBox="0 0 382.68 794.488" enable-background="new 0 0 382.68 794.488"
	 xml:space="preserve">
<rect x="41.867" y="114.414" fill="none" stroke="#A54B9C" stroke-miterlimit="10" width="42.521" height="53.191"/>
<rect x="-0.652" y="114.414" fill="none" stroke="#A54B9C" stroke-miterlimit="10" width="42.521" height="53.191"/>
<rect x="126.908" y="114.414" fill="none" stroke="#A54B9C" stroke-miterlimit="10" width="42.52" height="53.191"/>
<rect x="84.389" y="114.414" fill="none" stroke="#A54B9C" stroke-miterlimit="10" width="42.521" height="53.191"/>
<rect x="211.686" y="114.414" fill="none" stroke="#A54B9C" stroke-miterlimit="10" width="42.521" height="53.191"/>
<rect x="169.166" y="114.414" fill="none" stroke="#A54B9C" stroke-miterlimit="10" width="42.52" height="53.191"/>
<rect x="296.727" y="114.414" fill="none" stroke="#A54B9C" stroke-miterlimit="10" width="42.521" height="53.191"/>
<rect x="254.206" y="114.414" fill="none" stroke="#A54B9C" stroke-miterlimit="10" width="42.521" height="53.191"/>
<rect x="339.378" y="114.414" fill="none" stroke="#A54B9C" stroke-miterlimit="10" width="42.521" height="53.191"/>
<rect x="41.867" y="189.494" fill="none" stroke="#A54B9C" stroke-miterlimit="10" width="42.521" height="17.008"/>
<rect x="-0.652" y="189.494" fill="none" stroke="#A54B9C" stroke-miterlimit="10" width="42.521" height="17.008"/>
<rect x="126.908" y="189.494" stroke="#A54B9C" stroke-miterlimit="10" width="42.52" height="17.008"/>
<rect x="84.389" y="189.494" stroke="#A54B9C" stroke-miterlimit="10" width="42.521" height="17.008"/>
<rect x="211.686" y="189.494" stroke="#A54B9C" stroke-miterlimit="10" width="42.521" height="17.008"/>
<rect x="169.166" y="189.494" stroke="#A54B9C" stroke-miterlimit="10" width="42.52" height="17.008"/>
<rect x="296.727" y="189.494" fill="none" stroke="#A54B9C" stroke-miterlimit="10" width="42.521" height="17.008"/>
<rect x="254.206" y="189.494" stroke="#A54B9C" stroke-miterlimit="10" width="42.521" height="17.008"/>
<rect x="339.378" y="189.494" fill="none" stroke="#A54B9C" stroke-miterlimit="10" width="42.521" height="17.008"/>
<rect x="41.867" y="246.484" stroke="#A54B9C" stroke-miterlimit="10" width="42.521" height="17.008"/>
<rect x="-0.652" y="246.484" fill="none" stroke="#A54B9C" stroke-miterlimit="10" width="42.521" height="17.008"/>
<rect x="126.908" y="246.484" fill="none" stroke="#A54B9C" stroke-miterlimit="10" width="42.52" height="17.008"/>
<rect x="84.389" y="246.484" fill="none" stroke="#A54B9C" stroke-miterlimit="10" width="42.521" height="17.008"/>
<rect x="211.686" y="246.484" fill="none" stroke="#A54B9C" stroke-miterlimit="10" width="42.521" height="17.008"/>
<rect x="169.166" y="246.484" fill="none" stroke="#A54B9C" stroke-miterlimit="10" width="42.52" height="17.008"/>
<rect x="296.727" y="246.484" stroke="#A54B9C" stroke-miterlimit="10" width="42.521" height="17.008"/>
<rect x="254.206" y="246.484" fill="none" stroke="#A54B9C" stroke-miterlimit="10" width="42.521" height="17.008"/>
<rect x="339.378" y="246.484" fill="none" stroke="#A54B9C" stroke-miterlimit="10" width="42.521" height="17.008"/>
<rect x="41.867" y="303.474" stroke="#A54B9C" stroke-miterlimit="10" width="42.521" height="17.008"/>
<rect x="-0.652" y="303.474" fill="none" stroke="#A54B9C" stroke-miterlimit="10" width="42.521" height="17.008"/>
<rect x="126.908" y="303.474" fill="none" stroke="#A54B9C" stroke-miterlimit="10" width="42.52" height="17.008"/>
<rect x="84.389" y="303.474" fill="none" stroke="#A54B9C" stroke-miterlimit="10" width="42.521" height="17.008"/>
<rect x="211.686" y="303.474" fill="none" stroke="#A54B9C" stroke-miterlimit="10" width="42.521" height="17.008"/>
<rect x="169.166" y="303.474" fill="none" stroke="#A54B9C" stroke-miterlimit="10" width="42.52" height="17.008"/>
<rect x="296.727" y="303.474" stroke="#A54B9C" stroke-miterlimit="10" width="42.521" height="17.008"/>
<rect x="254.206" y="303.474" fill="none" stroke="#A54B9C" stroke-miterlimit="10" width="42.521" height="17.008"/>
<rect x="339.378" y="303.474" fill="none" stroke="#A54B9C" stroke-miterlimit="10" width="42.521" height="17.008"/>
<rect x="41.867" y="360.463" stroke="#A54B9C" stroke-miterlimit="10" width="42.521" height="17.01"/>
<rect x="-0.652" y="360.463" fill="none" stroke="#A54B9C" stroke-miterlimit="10" width="42.521" height="17.01"/>
<rect x="126.908" y="360.463" fill="none" stroke="#A54B9C" stroke-miterlimit="10" width="42.52" height="17.01"/>
<rect x="84.389" y="360.463" fill="none" stroke="#A54B9C" stroke-miterlimit="10" width="42.521" height="17.01"/>
<rect x="211.686" y="360.463" fill="none" stroke="#A54B9C" stroke-miterlimit="10" width="42.521" height="17.01"/>
<rect x="169.166" y="360.463" fill="none" stroke="#A54B9C" stroke-miterlimit="10" width="42.52" height="17.01"/>
<rect x="296.727" y="360.463" stroke="#A54B9C" stroke-miterlimit="10" width="42.521" height="17.01"/>
<rect x="254.206" y="360.463" fill="none" stroke="#A54B9C" stroke-miterlimit="10" width="42.521" height="17.01"/>
<rect x="339.378" y="360.463" fill="none" stroke="#A54B9C" stroke-miterlimit="10" width="42.521" height="17.01"/>
<rect x="41.867" y="417.452" stroke="#A54B9C" stroke-miterlimit="10" width="42.521" height="17.01"/>
<rect x="-0.652" y="417.452" fill="none" stroke="#A54B9C" stroke-miterlimit="10" width="42.521" height="17.01"/>
<rect x="126.908" y="417.452" fill="none" stroke="#A54B9C" stroke-miterlimit="10" width="42.52" height="17.01"/>
<rect x="84.389" y="417.452" fill="none" stroke="#A54B9C" stroke-miterlimit="10" width="42.521" height="17.01"/>
<rect x="211.686" y="417.452" fill="none" stroke="#A54B9C" stroke-miterlimit="10" width="42.521" height="17.01"/>
<rect x="169.166" y="417.452" fill="none" stroke="#A54B9C" stroke-miterlimit="10" width="42.52" height="17.01"/>
<rect x="296.727" y="417.452" stroke="#A54B9C" stroke-miterlimit="10" width="42.521" height="17.01"/>
<rect x="254.206" y="417.452" fill="none" stroke="#A54B9C" stroke-miterlimit="10" width="42.521" height="17.01"/>
<rect x="339.378" y="417.452" fill="none" stroke="#A54B9C" stroke-miterlimit="10" width="42.521" height="17.01"/>
<rect x="41.867" y="474.442" stroke="#A54B9C" stroke-miterlimit="10" width="42.521" height="17.009"/>
<rect x="-0.652" y="474.442" fill="none" stroke="#A54B9C" stroke-miterlimit="10" width="42.521" height="17.009"/>
<rect x="126.908" y="474.442" fill="none" stroke="#A54B9C" stroke-miterlimit="10" width="42.52" height="17.009"/>
<rect x="84.389" y="474.442" fill="none" stroke="#A54B9C" stroke-miterlimit="10" width="42.521" height="17.009"/>
<rect x="211.686" y="474.442" fill="none" stroke="#A54B9C" stroke-miterlimit="10" width="42.521" height="17.009"/>
<rect x="169.166" y="474.442" stroke="#A54B9C" stroke-miterlimit="10" width="42.52" height="17.009"/>
<rect x="296.727" y="474.442" stroke="#A54B9C" stroke-miterlimit="10" width="42.521" height="17.009"/>
<rect x="254.206" y="474.442" fill="none" stroke="#A54B9C" stroke-miterlimit="10" width="42.521" height="17.009"/>
<rect x="339.378" y="474.442" fill="none" stroke="#A54B9C" stroke-miterlimit="10" width="42.521" height="17.009"/>
<rect x="41.867" y="531.431" stroke="#A54B9C" stroke-miterlimit="10" width="42.521" height="17.009"/>
<rect x="-0.652" y="531.431" fill="none" stroke="#A54B9C" stroke-miterlimit="10" width="42.521" height="17.009"/>
<rect x="126.908" y="531.431" fill="none" stroke="#A54B9C" stroke-miterlimit="10" width="42.52" height="17.009"/>
<rect x="84.389" y="531.431" fill="none" stroke="#A54B9C" stroke-miterlimit="10" width="42.521" height="17.009"/>
<rect x="211.686" y="531.431" stroke="#A54B9C" stroke-miterlimit="10" width="42.521" height="17.009"/>
<rect x="169.166" y="531.431" fill="none" stroke="#A54B9C" stroke-miterlimit="10" width="42.52" height="17.009"/>
<rect x="296.727" y="531.431" stroke="#A54B9C" stroke-miterlimit="10" width="42.521" height="17.009"/>
<rect x="254.206" y="531.431" fill="none" stroke="#A54B9C" stroke-miterlimit="10" width="42.521" height="17.009"/>
<rect x="339.378" y="531.431" fill="none" stroke="#A54B9C" stroke-miterlimit="10" width="42.521" height="17.009"/>
<rect x="41.867" y="588.423" stroke="#A54B9C" stroke-miterlimit="10" width="42.521" height="17.008"/>
<rect x="-0.652" y="588.423" fill="none" stroke="#A54B9C" stroke-miterlimit="10" width="42.521" height="17.008"/>
<rect x="126.908" y="588.423" fill="none" stroke="#A54B9C" stroke-miterlimit="10" width="42.52" height="17.008"/>
<rect x="84.389" y="588.423" fill="none" stroke="#A54B9C" stroke-miterlimit="10" width="42.521" height="17.008"/>
<rect x="211.686" y="588.423" fill="none" stroke="#A54B9C" stroke-miterlimit="10" width="42.521" height="17.008"/>
<rect x="169.166" y="588.423" fill="none" stroke="#A54B9C" stroke-miterlimit="10" width="42.52" height="17.008"/>
<rect x="296.727" y="588.423" fill="none" stroke="#A54B9C" stroke-miterlimit="10" width="42.521" height="17.008"/>
<rect x="254.206" y="588.423" stroke="#A54B9C" stroke-miterlimit="10" width="42.521" height="17.008"/>
<rect x="339.378" y="588.423" fill="none" stroke="#A54B9C" stroke-miterlimit="10" width="42.521" height="17.008"/>
<rect x="41.867" y="645.412" fill="none" stroke="#A54B9C" stroke-miterlimit="10" width="42.521" height="17.01"/>
<rect x="-0.652" y="645.412" fill="none" stroke="#A54B9C" stroke-miterlimit="10" width="42.521" height="17.01"/>
<rect x="126.908" y="645.412" stroke="#A54B9C" stroke-miterlimit="10" width="42.52" height="17.01"/>
<rect x="84.389" y="645.412" stroke="#A54B9C" stroke-miterlimit="10" width="42.521" height="17.01"/>
<rect x="211.686" y="645.412" stroke="#A54B9C" stroke-miterlimit="10" width="42.521" height="17.01"/>
<rect x="169.166" y="645.412" stroke="#A54B9C" stroke-miterlimit="10" width="42.52" height="17.01"/>
<rect x="296.727" y="645.412" stroke="#A54B9C" stroke-miterlimit="10" width="42.521" height="17.01"/>
<rect x="254.206" y="645.412" stroke="#A54B9C" stroke-miterlimit="10" width="42.521" height="17.01"/>
<rect x="339.378" y="645.412" fill="none" stroke="#A54B9C" stroke-miterlimit="10" width="42.521" height="17.01"/>
<rect x="41.867" y="684.309" fill="none" stroke="#A54B9C" stroke-miterlimit="10" width="42.521" height="53.191"/>
<rect x="-0.652" y="684.309" fill="none" stroke="#A54B9C" stroke-miterlimit="10" width="42.521" height="53.191"/>
<rect x="126.908" y="684.309" fill="none" stroke="#A54B9C" stroke-miterlimit="10" width="42.52" height="53.191"/>
<rect x="84.389" y="684.309" fill="none" stroke="#A54B9C" stroke-miterlimit="10" width="42.521" height="53.191"/>
<rect x="211.686" y="684.309" fill="none" stroke="#A54B9C" stroke-miterlimit="10" width="42.521" height="53.191"/>
<rect x="169.166" y="684.309" fill="none" stroke="#A54B9C" stroke-miterlimit="10" width="42.52" height="53.191"/>
<rect x="296.727" y="684.309" fill="none" stroke="#A54B9C" stroke-miterlimit="10" width="42.521" height="53.191"/>
<rect x="254.206" y="684.309" fill="none" stroke="#A54B9C" stroke-miterlimit="10" width="42.521" height="53.191"/>
<rect x="339.378" y="684.309" fill="none" stroke="#A54B9C" stroke-miterlimit="10" width="42.521" height="53.191"/>
<rect x="41.867" y="741.3" fill="none" stroke="#A54B9C" stroke-miterlimit="10" width="42.521" height="53.188"/>
<rect x="-0.652" y="741.3" fill="none" stroke="#A54B9C" stroke-miterlimit="10" width="42.521" height="53.188"/>
<rect x="126.908" y="741.3" fill="none" stroke="#A54B9C" stroke-miterlimit="10" width="42.52" height="53.188"/>
<rect x="84.389" y="741.3" fill="none" stroke="#A54B9C" stroke-miterlimit="10" width="42.521" height="53.188"/>
<rect x="211.686" y="741.3" fill="none" stroke="#A54B9C" stroke-miterlimit="10" width="42.521" height="53.188"/>
<rect x="169.166" y="741.3" fill="none" stroke="#A54B9C" stroke-miterlimit="10" width="42.52" height="53.188"/>
<rect x="296.727" y="741.3" fill="none" stroke="#A54B9C" stroke-miterlimit="10" width="42.521" height="53.188"/>
<rect x="254.206" y="741.3" fill="none" stroke="#A54B9C" stroke-miterlimit="10" width="42.521" height="53.188"/>
<rect x="339.378" y="741.3" fill="none" stroke="#A54B9C" stroke-miterlimit="10" width="42.521" height="53.188"/>
</svg>
