<?xml version="1.0" encoding="utf-8"?>
<!-- Generator: Adobe Illustrator 15.0.2, SVG Export Plug-In . SVG Version: 6.00 Build 0)  -->
<!DOCTYPE svg PUBLIC "-//W3C//DTD SVG 1.1//EN" "http://www.w3.org/Graphics/SVG/1.1/DTD/svg11.dtd">
<svg version="1.1" id="Layer_1" xmlns="http://www.w3.org/2000/svg" xmlns:xlink="http://www.w3.org/1999/xlink" x="0px" y="0px"
	 width="382.68px" height="794.488px" viewBox="0 0 382.68 794.488" enable-background="new 0 0 382.68 794.488"
	 xml:space="preserve">
<rect x="42.19" y="114.414" fill="none" stroke="#A54B9C" stroke-miterlimit="10" width="42.521" height="53.191"/>
<rect x="-0.329" y="114.414" fill="none" stroke="#A54B9C" stroke-miterlimit="10" width="42.52" height="53.191"/>
<rect x="127.231" y="114.414" fill="none" stroke="#A54B9C" stroke-miterlimit="10" width="42.521" height="53.191"/>
<rect x="84.712" y="114.414" fill="none" stroke="#A54B9C" stroke-miterlimit="10" width="42.52" height="53.191"/>
<rect x="212.009" y="114.414" fill="none" stroke="#A54B9C" stroke-miterlimit="10" width="42.52" height="53.191"/>
<rect x="169.489" y="114.414" fill="none" stroke="#A54B9C" stroke-miterlimit="10" width="42.521" height="53.191"/>
<rect x="297.05" y="114.414" fill="none" stroke="#A54B9C" stroke-miterlimit="10" width="42.52" height="53.191"/>
<rect x="254.529" y="114.414" fill="none" stroke="#A54B9C" stroke-miterlimit="10" width="42.521" height="53.191"/>
<rect x="339.701" y="114.414" fill="none" stroke="#A54B9C" stroke-miterlimit="10" width="42.521" height="53.191"/>
<rect x="42.19" y="189.494" stroke="#A54B9C" stroke-miterlimit="10" width="42.521" height="17.008"/>
<rect x="-0.329" y="189.494" fill="none" stroke="#A54B9C" stroke-miterlimit="10" width="42.52" height="17.008"/>
<rect x="127.231" y="189.494" fill="none" stroke="#A54B9C" stroke-miterlimit="10" width="42.521" height="17.008"/>
<rect x="84.712" y="189.494" fill="none" stroke="#A54B9C" stroke-miterlimit="10" width="42.52" height="17.008"/>
<rect x="212.009" y="189.494" fill="none" stroke="#A54B9C" stroke-miterlimit="10" width="42.52" height="17.008"/>
<rect x="169.489" y="189.494" fill="none" stroke="#A54B9C" stroke-miterlimit="10" width="42.521" height="17.008"/>
<rect x="297.05" y="189.494" stroke="#A54B9C" stroke-miterlimit="10" width="42.52" height="17.008"/>
<rect x="254.529" y="189.494" fill="none" stroke="#A54B9C" stroke-miterlimit="10" width="42.521" height="17.008"/>
<rect x="339.701" y="189.494" fill="none" stroke="#A54B9C" stroke-miterlimit="10" width="42.521" height="17.008"/>
<rect x="42.19" y="246.484" stroke="#A54B9C" stroke-miterlimit="10" width="42.521" height="17.008"/>
<rect x="-0.329" y="246.484" fill="none" stroke="#A54B9C" stroke-miterlimit="10" width="42.52" height="17.008"/>
<rect x="127.231" y="246.484" fill="none" stroke="#A54B9C" stroke-miterlimit="10" width="42.521" height="17.008"/>
<rect x="84.712" y="246.484" fill="none" stroke="#A54B9C" stroke-miterlimit="10" width="42.52" height="17.008"/>
<rect x="212.009" y="246.484" fill="none" stroke="#A54B9C" stroke-miterlimit="10" width="42.52" height="17.008"/>
<rect x="169.489" y="246.484" fill="none" stroke="#A54B9C" stroke-miterlimit="10" width="42.521" height="17.008"/>
<rect x="297.05" y="246.484" stroke="#A54B9C" stroke-miterlimit="10" width="42.52" height="17.008"/>
<rect x="254.529" y="246.484" fill="none" stroke="#A54B9C" stroke-miterlimit="10" width="42.521" height="17.008"/>
<rect x="339.701" y="246.484" fill="none" stroke="#A54B9C" stroke-miterlimit="10" width="42.521" height="17.008"/>
<rect x="42.19" y="303.474" stroke="#A54B9C" stroke-miterlimit="10" width="42.521" height="17.008"/>
<rect x="-0.329" y="303.474" fill="none" stroke="#A54B9C" stroke-miterlimit="10" width="42.52" height="17.008"/>
<rect x="127.231" y="303.474" fill="none" stroke="#A54B9C" stroke-miterlimit="10" width="42.521" height="17.008"/>
<rect x="84.712" y="303.474" fill="none" stroke="#A54B9C" stroke-miterlimit="10" width="42.52" height="17.008"/>
<rect x="212.009" y="303.474" fill="none" stroke="#A54B9C" stroke-miterlimit="10" width="42.52" height="17.008"/>
<rect x="169.489" y="303.474" fill="none" stroke="#A54B9C" stroke-miterlimit="10" width="42.521" height="17.008"/>
<rect x="297.05" y="303.474" stroke="#A54B9C" stroke-miterlimit="10" width="42.52" height="17.008"/>
<rect x="254.529" y="303.474" fill="none" stroke="#A54B9C" stroke-miterlimit="10" width="42.521" height="17.008"/>
<rect x="339.701" y="303.474" fill="none" stroke="#A54B9C" stroke-miterlimit="10" width="42.521" height="17.008"/>
<rect x="42.19" y="360.463" stroke="#A54B9C" stroke-miterlimit="10" width="42.521" height="17.01"/>
<rect x="-0.329" y="360.463" fill="none" stroke="#A54B9C" stroke-miterlimit="10" width="42.52" height="17.01"/>
<rect x="127.231" y="360.463" fill="none" stroke="#A54B9C" stroke-miterlimit="10" width="42.521" height="17.01"/>
<rect x="84.712" y="360.463" fill="none" stroke="#A54B9C" stroke-miterlimit="10" width="42.52" height="17.01"/>
<rect x="212.009" y="360.463" fill="none" stroke="#A54B9C" stroke-miterlimit="10" width="42.52" height="17.01"/>
<rect x="169.489" y="360.463" fill="none" stroke="#A54B9C" stroke-miterlimit="10" width="42.521" height="17.01"/>
<rect x="297.05" y="360.463" stroke="#A54B9C" stroke-miterlimit="10" width="42.52" height="17.01"/>
<rect x="254.529" y="360.463" fill="none" stroke="#A54B9C" stroke-miterlimit="10" width="42.521" height="17.01"/>
<rect x="339.701" y="360.463" fill="none" stroke="#A54B9C" stroke-miterlimit="10" width="42.521" height="17.01"/>
<rect x="42.19" y="417.452" stroke="#A54B9C" stroke-miterlimit="10" width="42.521" height="17.01"/>
<rect x="-0.329" y="417.452" fill="none" stroke="#A54B9C" stroke-miterlimit="10" width="42.52" height="17.01"/>
<rect x="127.231" y="417.452" fill="none" stroke="#A54B9C" stroke-miterlimit="10" width="42.521" height="17.01"/>
<rect x="84.712" y="417.452" fill="none" stroke="#A54B9C" stroke-miterlimit="10" width="42.52" height="17.01"/>
<rect x="212.009" y="417.452" fill="none" stroke="#A54B9C" stroke-miterlimit="10" width="42.52" height="17.01"/>
<rect x="169.489" y="417.452" stroke="#A54B9C" stroke-miterlimit="10" width="42.521" height="17.01"/>
<rect x="297.05" y="417.452" stroke="#A54B9C" stroke-miterlimit="10" width="42.52" height="17.01"/>
<rect x="254.529" y="417.452" fill="none" stroke="#A54B9C" stroke-miterlimit="10" width="42.521" height="17.01"/>
<rect x="339.701" y="417.452" fill="none" stroke="#A54B9C" stroke-miterlimit="10" width="42.521" height="17.01"/>
<rect x="42.19" y="474.442" stroke="#A54B9C" stroke-miterlimit="10" width="42.521" height="17.009"/>
<rect x="-0.329" y="474.442" fill="none" stroke="#A54B9C" stroke-miterlimit="10" width="42.52" height="17.009"/>
<rect x="127.231" y="474.442" stroke="#A54B9C" stroke-miterlimit="10" width="42.521" height="17.009"/>
<rect x="84.712" y="474.442" fill="none" stroke="#A54B9C" stroke-miterlimit="10" width="42.52" height="17.009"/>
<rect x="212.009" y="474.442" stroke="#A54B9C" stroke-miterlimit="10" width="42.52" height="17.009"/>
<rect x="169.489" y="474.442" stroke="#A54B9C" stroke-miterlimit="10" width="42.521" height="17.009"/>
<rect x="297.05" y="474.442" stroke="#A54B9C" stroke-miterlimit="10" width="42.52" height="17.009"/>
<rect x="254.529" y="474.442" fill="none" stroke="#A54B9C" stroke-miterlimit="10" width="42.521" height="17.009"/>
<rect x="339.701" y="474.442" fill="none" stroke="#A54B9C" stroke-miterlimit="10" width="42.521" height="17.009"/>
<rect x="42.19" y="531.431" stroke="#A54B9C" stroke-miterlimit="10" width="42.521" height="17.009"/>
<rect x="-0.329" y="531.431" fill="none" stroke="#A54B9C" stroke-miterlimit="10" width="42.52" height="17.009"/>
<rect x="127.231" y="531.431" stroke="#A54B9C" stroke-miterlimit="10" width="42.521" height="17.009"/>
<rect x="84.712" y="531.431" stroke="#A54B9C" stroke-miterlimit="10" width="42.52" height="17.009"/>
<rect x="212.009" y="531.431" stroke="#A54B9C" stroke-miterlimit="10" width="42.52" height="17.009"/>
<rect x="169.489" y="531.431" fill="none" stroke="#A54B9C" stroke-miterlimit="10" width="42.521" height="17.009"/>
<rect x="297.05" y="531.431" stroke="#A54B9C" stroke-miterlimit="10" width="42.52" height="17.009"/>
<rect x="254.529" y="531.431" stroke="#A54B9C" stroke-miterlimit="10" width="42.521" height="17.009"/>
<rect x="339.701" y="531.431" fill="none" stroke="#A54B9C" stroke-miterlimit="10" width="42.521" height="17.009"/>
<rect x="42.19" y="588.423" stroke="#A54B9C" stroke-miterlimit="10" width="42.521" height="17.008"/>
<rect x="-0.329" y="588.423" fill="none" stroke="#A54B9C" stroke-miterlimit="10" width="42.52" height="17.008"/>
<rect x="127.231" y="588.423" fill="none" stroke="#A54B9C" stroke-miterlimit="10" width="42.521" height="17.008"/>
<rect x="84.712" y="588.423" stroke="#A54B9C" stroke-miterlimit="10" width="42.52" height="17.008"/>
<rect x="212.009" y="588.423" fill="none" stroke="#A54B9C" stroke-miterlimit="10" width="42.52" height="17.008"/>
<rect x="169.489" y="588.423" fill="none" stroke="#A54B9C" stroke-miterlimit="10" width="42.521" height="17.008"/>
<rect x="297.05" y="588.423" stroke="#A54B9C" stroke-miterlimit="10" width="42.52" height="17.008"/>
<rect x="254.529" y="588.423" stroke="#A54B9C" stroke-miterlimit="10" width="42.521" height="17.008"/>
<rect x="339.701" y="588.423" fill="none" stroke="#A54B9C" stroke-miterlimit="10" width="42.521" height="17.008"/>
<rect x="42.19" y="645.412" stroke="#A54B9C" stroke-miterlimit="10" width="42.521" height="17.01"/>
<rect x="-0.329" y="645.412" fill="none" stroke="#A54B9C" stroke-miterlimit="10" width="42.52" height="17.01"/>
<rect x="127.231" y="645.412" fill="none" stroke="#A54B9C" stroke-miterlimit="10" width="42.521" height="17.01"/>
<rect x="84.712" y="645.412" fill="none" stroke="#A54B9C" stroke-miterlimit="10" width="42.52" height="17.01"/>
<rect x="212.009" y="645.412" fill="none" stroke="#A54B9C" stroke-miterlimit="10" width="42.52" height="17.01"/>
<rect x="169.489" y="645.412" fill="none" stroke="#A54B9C" stroke-miterlimit="10" width="42.521" height="17.01"/>
<rect x="297.05" y="645.412" stroke="#A54B9C" stroke-miterlimit="10" width="42.52" height="17.01"/>
<rect x="254.529" y="645.412" fill="none" stroke="#A54B9C" stroke-miterlimit="10" width="42.521" height="17.01"/>
<rect x="339.701" y="645.412" fill="none" stroke="#A54B9C" stroke-miterlimit="10" width="42.521" height="17.01"/>
<rect x="42.19" y="684.309" fill="none" stroke="#A54B9C" stroke-miterlimit="10" width="42.521" height="53.191"/>
<rect x="-0.329" y="684.309" fill="none" stroke="#A54B9C" stroke-miterlimit="10" width="42.52" height="53.191"/>
<rect x="127.231" y="684.309" fill="none" stroke="#A54B9C" stroke-miterlimit="10" width="42.521" height="53.191"/>
<rect x="84.712" y="684.309" fill="none" stroke="#A54B9C" stroke-miterlimit="10" width="42.52" height="53.191"/>
<rect x="212.009" y="684.309" fill="none" stroke="#A54B9C" stroke-miterlimit="10" width="42.52" height="53.191"/>
<rect x="169.489" y="684.309" fill="none" stroke="#A54B9C" stroke-miterlimit="10" width="42.521" height="53.191"/>
<rect x="297.05" y="684.309" fill="none" stroke="#A54B9C" stroke-miterlimit="10" width="42.52" height="53.191"/>
<rect x="254.529" y="684.309" fill="none" stroke="#A54B9C" stroke-miterlimit="10" width="42.521" height="53.191"/>
<rect x="339.701" y="684.309" fill="none" stroke="#A54B9C" stroke-miterlimit="10" width="42.521" height="53.191"/>
<rect x="42.19" y="741.3" fill="none" stroke="#A54B9C" stroke-miterlimit="10" width="42.521" height="53.188"/>
<rect x="-0.329" y="741.3" fill="none" stroke="#A54B9C" stroke-miterlimit="10" width="42.52" height="53.188"/>
<rect x="127.231" y="741.3" fill="none" stroke="#A54B9C" stroke-miterlimit="10" width="42.521" height="53.188"/>
<rect x="84.712" y="741.3" fill="none" stroke="#A54B9C" stroke-miterlimit="10" width="42.52" height="53.188"/>
<rect x="212.009" y="741.3" fill="none" stroke="#A54B9C" stroke-miterlimit="10" width="42.52" height="53.188"/>
<rect x="169.489" y="741.3" fill="none" stroke="#A54B9C" stroke-miterlimit="10" width="42.521" height="53.188"/>
<rect x="297.05" y="741.3" fill="none" stroke="#A54B9C" stroke-miterlimit="10" width="42.52" height="53.188"/>
<rect x="254.529" y="741.3" fill="none" stroke="#A54B9C" stroke-miterlimit="10" width="42.521" height="53.188"/>
<rect x="339.701" y="741.3" fill="none" stroke="#A54B9C" stroke-miterlimit="10" width="42.521" height="53.188"/>
</svg>
