<?xml version="1.0" encoding="utf-8"?>
<!-- Generator: Adobe Illustrator 15.0.2, SVG Export Plug-In . SVG Version: 6.00 Build 0)  -->
<!DOCTYPE svg PUBLIC "-//W3C//DTD SVG 1.1//EN" "http://www.w3.org/Graphics/SVG/1.1/DTD/svg11.dtd">
<svg version="1.1" id="Layer_1" xmlns="http://www.w3.org/2000/svg" xmlns:xlink="http://www.w3.org/1999/xlink" x="0px" y="0px"
	 width="382.68px" height="794.488px" viewBox="0 0 382.68 794.488" enable-background="new 0 0 382.68 794.488"
	 xml:space="preserve">
<rect x="42.211" y="123.478" fill="none" stroke="#A54B9B" stroke-miterlimit="10" width="42.521" height="17"/>
<rect x="-0.308" y="123.478" fill="none" stroke="#A54B9B" stroke-miterlimit="10" width="42.521" height="17"/>
<rect x="127.252" y="123.478" fill="none" stroke="#A54B9B" stroke-miterlimit="10" width="42.521" height="17"/>
<rect x="84.733" y="123.478" fill="none" stroke="#A54B9B" stroke-miterlimit="10" width="42.521" height="17"/>
<rect x="212.029" y="123.478" fill="none" stroke="#A54B9B" stroke-miterlimit="10" width="42.521" height="17"/>
<rect x="169.511" y="123.478" fill="none" stroke="#A54B9B" stroke-miterlimit="10" width="42.52" height="17"/>
<rect x="297.07" y="123.478" fill="none" stroke="#A54B9B" stroke-miterlimit="10" width="42.521" height="17"/>
<rect x="254.551" y="123.478" fill="none" stroke="#A54B9B" stroke-miterlimit="10" width="42.521" height="17"/>
<rect x="339.723" y="123.478" fill="none" stroke="#A54B9B" stroke-miterlimit="10" width="42.521" height="17"/>
<rect x="42.211" y="189.493" stroke="#A54B9B" stroke-miterlimit="10" width="42.521" height="17.009"/>
<rect x="-0.308" y="189.493" fill="none" stroke="#A54B9B" stroke-miterlimit="10" width="42.521" height="17.009"/>
<rect x="127.252" y="189.493" fill="none" stroke="#A54B9B" stroke-miterlimit="10" width="42.521" height="17.009"/>
<rect x="84.733" y="189.493" fill="none" stroke="#A54B9B" stroke-miterlimit="10" width="42.521" height="17.009"/>
<rect x="212.029" y="189.493" fill="none" stroke="#A54B9B" stroke-miterlimit="10" width="42.521" height="17.009"/>
<rect x="169.511" y="189.493" fill="none" stroke="#A54B9B" stroke-miterlimit="10" width="42.52" height="17.009"/>
<rect x="297.07" y="189.493" stroke="#A54B9B" stroke-miterlimit="10" width="42.521" height="17.009"/>
<rect x="254.551" y="189.493" fill="none" stroke="#A54B9B" stroke-miterlimit="10" width="42.521" height="17.009"/>
<rect x="339.723" y="189.493" fill="none" stroke="#A54B9B" stroke-miterlimit="10" width="42.521" height="17.009"/>
<rect x="42.211" y="246.484" stroke="#A54B9B" stroke-miterlimit="10" width="42.521" height="17.008"/>
<rect x="-0.308" y="246.484" fill="none" stroke="#A54B9B" stroke-miterlimit="10" width="42.521" height="17.008"/>
<rect x="127.252" y="246.484" fill="none" stroke="#A54B9B" stroke-miterlimit="10" width="42.521" height="17.008"/>
<rect x="84.733" y="246.484" fill="none" stroke="#A54B9B" stroke-miterlimit="10" width="42.521" height="17.008"/>
<rect x="212.029" y="246.484" fill="none" stroke="#A54B9B" stroke-miterlimit="10" width="42.521" height="17.008"/>
<rect x="169.511" y="246.484" fill="none" stroke="#A54B9B" stroke-miterlimit="10" width="42.52" height="17.008"/>
<rect x="297.07" y="246.484" stroke="#A54B9B" stroke-miterlimit="10" width="42.521" height="17.008"/>
<rect x="254.551" y="246.484" fill="none" stroke="#A54B9B" stroke-miterlimit="10" width="42.521" height="17.008"/>
<rect x="339.723" y="246.484" fill="none" stroke="#A54B9B" stroke-miterlimit="10" width="42.521" height="17.008"/>
<rect x="42.211" y="303.472" fill="none" stroke="#A54B9B" stroke-miterlimit="10" width="42.521" height="17.009"/>
<rect x="-0.308" y="303.472" fill="none" stroke="#A54B9B" stroke-miterlimit="10" width="42.521" height="17.009"/>
<rect x="127.252" y="303.472" fill="none" stroke="#A54B9B" stroke-miterlimit="10" width="42.521" height="17.009"/>
<rect x="84.733" y="303.472" stroke="#A54B9B" stroke-miterlimit="10" width="42.521" height="17.009"/>
<rect x="212.029" y="303.472" fill="none" stroke="#A54B9B" stroke-miterlimit="10" width="42.521" height="17.009"/>
<rect x="169.511" y="303.472" fill="none" stroke="#A54B9B" stroke-miterlimit="10" width="42.52" height="17.009"/>
<rect x="297.07" y="303.472" fill="none" stroke="#A54B9B" stroke-miterlimit="10" width="42.521" height="17.009"/>
<rect x="254.551" y="303.472" stroke="#A54B9B" stroke-miterlimit="10" width="42.521" height="17.009"/>
<rect x="339.723" y="303.472" fill="none" stroke="#A54B9B" stroke-miterlimit="10" width="42.521" height="17.009"/>
<rect x="42.211" y="360.463" fill="none" stroke="#A54B9B" stroke-miterlimit="10" width="42.521" height="17.008"/>
<rect x="-0.308" y="360.463" fill="none" stroke="#A54B9B" stroke-miterlimit="10" width="42.521" height="17.008"/>
<rect x="127.252" y="360.463" stroke="#A54B9B" stroke-miterlimit="10" width="42.521" height="17.008"/>
<rect x="84.733" y="360.463" fill="none" stroke="#A54B9B" stroke-miterlimit="10" width="42.521" height="17.008"/>
<rect x="212.029" y="360.463" stroke="#A54B9B" stroke-miterlimit="10" width="42.521" height="17.008"/>
<rect x="169.511" y="360.463" fill="none" stroke="#A54B9B" stroke-miterlimit="10" width="42.52" height="17.008"/>
<rect x="297.07" y="360.463" fill="none" stroke="#A54B9B" stroke-miterlimit="10" width="42.521" height="17.008"/>
<rect x="254.551" y="360.463" fill="none" stroke="#A54B9B" stroke-miterlimit="10" width="42.521" height="17.008"/>
<rect x="339.723" y="360.463" fill="none" stroke="#A54B9B" stroke-miterlimit="10" width="42.521" height="17.008"/>
<rect x="42.211" y="417.452" fill="none" stroke="#A54B9B" stroke-miterlimit="10" width="42.521" height="17.008"/>
<rect x="-0.308" y="417.452" fill="none" stroke="#A54B9B" stroke-miterlimit="10" width="42.521" height="17.008"/>
<rect x="127.252" y="417.452" fill="none" stroke="#A54B9B" stroke-miterlimit="10" width="42.521" height="17.008"/>
<rect x="84.733" y="417.452" fill="none" stroke="#A54B9B" stroke-miterlimit="10" width="42.521" height="17.008"/>
<rect x="212.029" y="417.452" fill="none" stroke="#A54B9B" stroke-miterlimit="10" width="42.521" height="17.008"/>
<rect x="169.511" y="417.452" stroke="#A54B9B" stroke-miterlimit="10" width="42.52" height="17.008"/>
<rect x="297.07" y="417.452" fill="none" stroke="#A54B9B" stroke-miterlimit="10" width="42.521" height="17.008"/>
<rect x="254.551" y="417.452" fill="none" stroke="#A54B9B" stroke-miterlimit="10" width="42.521" height="17.008"/>
<rect x="339.723" y="417.452" fill="none" stroke="#A54B9B" stroke-miterlimit="10" width="42.521" height="17.008"/>
<rect x="42.211" y="474.442" fill="none" stroke="#A54B9B" stroke-miterlimit="10" width="42.521" height="17.009"/>
<rect x="-0.308" y="474.442" fill="none" stroke="#A54B9B" stroke-miterlimit="10" width="42.521" height="17.009"/>
<rect x="127.252" y="474.442" fill="none" stroke="#A54B9B" stroke-miterlimit="10" width="42.521" height="17.009"/>
<rect x="84.733" y="474.442" fill="none" stroke="#A54B9B" stroke-miterlimit="10" width="42.521" height="17.009"/>
<rect x="212.029" y="474.442" fill="none" stroke="#A54B9B" stroke-miterlimit="10" width="42.521" height="17.009"/>
<rect x="169.511" y="474.442" stroke="#A54B9B" stroke-miterlimit="10" width="42.52" height="17.009"/>
<rect x="297.07" y="474.442" fill="none" stroke="#A54B9B" stroke-miterlimit="10" width="42.521" height="17.009"/>
<rect x="254.551" y="474.442" fill="none" stroke="#A54B9B" stroke-miterlimit="10" width="42.521" height="17.009"/>
<rect x="339.723" y="474.442" fill="none" stroke="#A54B9B" stroke-miterlimit="10" width="42.521" height="17.009"/>
<rect x="42.211" y="531.43" fill="none" stroke="#A54B9B" stroke-miterlimit="10" width="42.521" height="17.01"/>
<rect x="-0.308" y="531.43" fill="none" stroke="#A54B9B" stroke-miterlimit="10" width="42.521" height="17.01"/>
<rect x="127.252" y="531.43" fill="none" stroke="#A54B9B" stroke-miterlimit="10" width="42.521" height="17.01"/>
<rect x="84.733" y="531.43" fill="none" stroke="#A54B9B" stroke-miterlimit="10" width="42.521" height="17.01"/>
<rect x="212.029" y="531.43" fill="none" stroke="#A54B9B" stroke-miterlimit="10" width="42.521" height="17.01"/>
<rect x="169.511" y="531.43" stroke="#A54B9B" stroke-miterlimit="10" width="42.52" height="17.01"/>
<rect x="297.07" y="531.43" fill="none" stroke="#A54B9B" stroke-miterlimit="10" width="42.521" height="17.01"/>
<rect x="254.551" y="531.43" fill="none" stroke="#A54B9B" stroke-miterlimit="10" width="42.521" height="17.01"/>
<rect x="339.723" y="531.43" fill="none" stroke="#A54B9B" stroke-miterlimit="10" width="42.521" height="17.01"/>
<rect x="42.211" y="588.42" fill="none" stroke="#A54B9B" stroke-miterlimit="10" width="42.521" height="17.01"/>
<rect x="-0.308" y="588.42" fill="none" stroke="#A54B9B" stroke-miterlimit="10" width="42.521" height="17.01"/>
<rect x="127.252" y="588.42" fill="none" stroke="#A54B9B" stroke-miterlimit="10" width="42.521" height="17.01"/>
<rect x="84.733" y="588.42" fill="none" stroke="#A54B9B" stroke-miterlimit="10" width="42.521" height="17.01"/>
<rect x="212.029" y="588.42" fill="none" stroke="#A54B9B" stroke-miterlimit="10" width="42.521" height="17.01"/>
<rect x="169.511" y="588.42" stroke="#A54B9B" stroke-miterlimit="10" width="42.52" height="17.01"/>
<rect x="297.07" y="588.42" fill="none" stroke="#A54B9B" stroke-miterlimit="10" width="42.521" height="17.01"/>
<rect x="254.551" y="588.42" fill="none" stroke="#A54B9B" stroke-miterlimit="10" width="42.521" height="17.01"/>
<rect x="339.723" y="588.42" fill="none" stroke="#A54B9B" stroke-miterlimit="10" width="42.521" height="17.01"/>
<rect x="42.211" y="645.412" fill="none" stroke="#A54B9B" stroke-miterlimit="10" width="42.521" height="17.008"/>
<rect x="-0.308" y="645.412" fill="none" stroke="#A54B9B" stroke-miterlimit="10" width="42.521" height="17.008"/>
<rect x="127.252" y="645.412" stroke="#A54B9B" stroke-miterlimit="10" width="42.521" height="17.008"/>
<rect x="84.733" y="645.412" fill="none" stroke="#A54B9B" stroke-miterlimit="10" width="42.521" height="17.008"/>
<rect x="212.029" y="645.412" stroke="#A54B9B" stroke-miterlimit="10" width="42.521" height="17.008"/>
<rect x="169.511" y="645.412" stroke="#A54B9B" stroke-miterlimit="10" width="42.52" height="17.008"/>
<rect x="297.07" y="645.412" fill="none" stroke="#A54B9B" stroke-miterlimit="10" width="42.521" height="17.008"/>
<rect x="254.551" y="645.412" fill="none" stroke="#A54B9B" stroke-miterlimit="10" width="42.521" height="17.008"/>
<rect x="339.723" y="645.412" fill="none" stroke="#A54B9B" stroke-miterlimit="10" width="42.521" height="17.008"/>
<rect x="42.211" y="684.308" fill="none" stroke="#A54B9B" stroke-miterlimit="10" width="42.521" height="53.189"/>
<rect x="-0.308" y="684.308" fill="none" stroke="#A54B9B" stroke-miterlimit="10" width="42.521" height="53.189"/>
<rect x="127.252" y="684.308" fill="none" stroke="#A54B9B" stroke-miterlimit="10" width="42.521" height="53.189"/>
<rect x="84.733" y="684.308" fill="none" stroke="#A54B9B" stroke-miterlimit="10" width="42.521" height="53.189"/>
<rect x="212.029" y="684.308" fill="none" stroke="#A54B9B" stroke-miterlimit="10" width="42.521" height="53.189"/>
<rect x="169.511" y="684.308" fill="none" stroke="#A54B9B" stroke-miterlimit="10" width="42.52" height="53.189"/>
<rect x="297.07" y="684.308" fill="none" stroke="#A54B9B" stroke-miterlimit="10" width="42.521" height="53.189"/>
<rect x="254.551" y="684.308" fill="none" stroke="#A54B9B" stroke-miterlimit="10" width="42.521" height="53.189"/>
<rect x="339.723" y="684.308" fill="none" stroke="#A54B9B" stroke-miterlimit="10" width="42.521" height="53.189"/>
<rect x="42.211" y="741.298" fill="none" stroke="#A54B9B" stroke-miterlimit="10" width="42.521" height="53.19"/>
<rect x="-0.308" y="741.298" fill="none" stroke="#A54B9B" stroke-miterlimit="10" width="42.521" height="53.19"/>
<rect x="127.252" y="741.298" fill="none" stroke="#A54B9B" stroke-miterlimit="10" width="42.521" height="53.19"/>
<rect x="84.733" y="741.298" fill="none" stroke="#A54B9B" stroke-miterlimit="10" width="42.521" height="53.19"/>
<rect x="212.029" y="741.298" fill="none" stroke="#A54B9B" stroke-miterlimit="10" width="42.521" height="53.19"/>
<rect x="169.511" y="741.298" fill="none" stroke="#A54B9B" stroke-miterlimit="10" width="42.52" height="53.19"/>
<rect x="297.07" y="741.298" fill="none" stroke="#A54B9B" stroke-miterlimit="10" width="42.521" height="53.19"/>
<rect x="254.551" y="741.298" fill="none" stroke="#A54B9B" stroke-miterlimit="10" width="42.521" height="53.19"/>
<rect x="339.723" y="741.298" fill="none" stroke="#A54B9B" stroke-miterlimit="10" width="42.521" height="53.19"/>
<rect x="42.583" y="70.286" fill="none" stroke="#A54B9B" stroke-miterlimit="10" width="42.521" height="17"/>
<rect x="0.064" y="70.286" fill="none" stroke="#A54B9B" stroke-miterlimit="10" width="42.521" height="17"/>
<rect x="127.624" y="70.286" fill="none" stroke="#A54B9B" stroke-miterlimit="10" width="42.521" height="17"/>
<rect x="85.105" y="70.286" fill="none" stroke="#A54B9B" stroke-miterlimit="10" width="42.521" height="17"/>
<rect x="212.401" y="70.286" fill="none" stroke="#A54B9B" stroke-miterlimit="10" width="42.521" height="17"/>
<rect x="169.883" y="70.286" fill="#231F20" stroke="#A54B9B" stroke-miterlimit="10" width="42.52" height="17"/>
<rect x="297.442" y="70.286" fill="none" stroke="#A54B9B" stroke-miterlimit="10" width="42.521" height="17"/>
<rect x="254.923" y="70.286" fill="none" stroke="#A54B9B" stroke-miterlimit="10" width="42.521" height="17"/>
<rect x="340.095" y="70.286" fill="none" stroke="#A54B9B" stroke-miterlimit="10" width="42.521" height="17"/>
<rect x="42.583" y="17.096" fill="none" stroke="#A54B9B" stroke-miterlimit="10" width="42.521" height="17"/>
<rect x="0.064" y="17.096" fill="none" stroke="#A54B9B" stroke-miterlimit="10" width="42.521" height="17"/>
<rect x="127.624" y="17.096" fill="none" stroke="#A54B9B" stroke-miterlimit="10" width="42.521" height="17"/>
<rect x="85.105" y="17.096" fill="none" stroke="#A54B9B" stroke-miterlimit="10" width="42.521" height="17"/>
<rect x="212.401" y="17.096" fill="#231F20" stroke="#A54B9B" stroke-miterlimit="10" width="42.521" height="17"/>
<rect x="169.883" y="17.096" fill="none" stroke="#A54B9B" stroke-miterlimit="10" width="42.52" height="17"/>
<rect x="297.442" y="17.096" fill="none" stroke="#A54B9B" stroke-miterlimit="10" width="42.521" height="17"/>
<rect x="254.923" y="17.096" fill="#231F20" stroke="#A54B9B" stroke-miterlimit="10" width="42.521" height="17"/>
<rect x="340.095" y="17.096" fill="none" stroke="#A54B9B" stroke-miterlimit="10" width="42.521" height="17"/>
</svg>
