<?xml version="1.0" encoding="utf-8"?>
<!-- Generator: Adobe Illustrator 15.0.2, SVG Export Plug-In . SVG Version: 6.00 Build 0)  -->
<!DOCTYPE svg PUBLIC "-//W3C//DTD SVG 1.1//EN" "http://www.w3.org/Graphics/SVG/1.1/DTD/svg11.dtd">
<svg version="1.1" id="Layer_1" xmlns="http://www.w3.org/2000/svg" xmlns:xlink="http://www.w3.org/1999/xlink" x="0px" y="0px"
	 width="382.68px" height="794.488px" viewBox="0 0 382.68 794.488" enable-background="new 0 0 382.68 794.488"
	 xml:space="preserve">
<rect x="43.099" y="114.413" fill="none" stroke="#A54B9B" stroke-miterlimit="10" width="42.521" height="53.19"/>
<rect x="0.581" y="114.413" fill="none" stroke="#A54B9B" stroke-miterlimit="10" width="42.519" height="53.19"/>
<rect x="128.139" y="114.413" fill="none" stroke="#A54B9B" stroke-miterlimit="10" width="42.521" height="53.19"/>
<rect x="85.622" y="114.413" fill="none" stroke="#A54B9B" stroke-miterlimit="10" width="42.518" height="53.19"/>
<rect x="212.918" y="114.413" fill="none" stroke="#A54B9B" stroke-miterlimit="10" width="42.52" height="53.19"/>
<rect x="170.398" y="114.413" fill="none" stroke="#A54B9B" stroke-miterlimit="10" width="42.521" height="53.19"/>
<rect x="297.957" y="114.413" fill="none" stroke="#A54B9B" stroke-miterlimit="10" width="42.521" height="53.19"/>
<rect x="255.438" y="114.413" fill="none" stroke="#A54B9B" stroke-miterlimit="10" width="42.521" height="53.19"/>
<rect x="340.609" y="114.413" fill="none" stroke="#A54B9B" stroke-miterlimit="10" width="42.521" height="53.19"/>
<rect x="43.099" y="171.4" fill="none" stroke="#A54B9B" stroke-miterlimit="10" width="42.521" height="53.189"/>
<rect x="0.581" y="171.4" fill="none" stroke="#A54B9B" stroke-miterlimit="10" width="42.519" height="53.189"/>
<rect x="128.139" y="171.4" fill="none" stroke="#A54B9B" stroke-miterlimit="10" width="42.521" height="53.189"/>
<rect x="85.622" y="171.4" fill="none" stroke="#A54B9B" stroke-miterlimit="10" width="42.518" height="53.189"/>
<rect x="212.918" y="171.4" fill="none" stroke="#A54B9B" stroke-miterlimit="10" width="42.52" height="53.189"/>
<rect x="170.398" y="171.4" fill="none" stroke="#A54B9B" stroke-miterlimit="10" width="42.521" height="53.189"/>
<rect x="297.957" y="171.4" fill="none" stroke="#A54B9B" stroke-miterlimit="10" width="42.521" height="53.189"/>
<rect x="255.438" y="171.4" fill="none" stroke="#A54B9B" stroke-miterlimit="10" width="42.521" height="53.189"/>
<rect x="340.609" y="171.4" fill="none" stroke="#A54B9B" stroke-miterlimit="10" width="42.521" height="53.189"/>
<rect x="43.099" y="246.482" stroke="#A54B9B" stroke-miterlimit="10" width="42.521" height="17.009"/>
<rect x="0.581" y="246.482" fill="none" stroke="#A54B9B" stroke-miterlimit="10" width="42.519" height="17.009"/>
<rect x="128.139" y="246.482" fill="none" stroke="#A54B9B" stroke-miterlimit="10" width="42.521" height="17.009"/>
<rect x="85.622" y="246.482" fill="none" stroke="#A54B9B" stroke-miterlimit="10" width="42.518" height="17.009"/>
<rect x="212.918" y="246.482" fill="none" stroke="#A54B9B" stroke-miterlimit="10" width="42.52" height="17.009"/>
<rect x="170.398" y="246.482" fill="none" stroke="#A54B9B" stroke-miterlimit="10" width="42.521" height="17.009"/>
<rect x="297.957" y="246.482" fill="none" stroke="#A54B9B" stroke-miterlimit="10" width="42.521" height="17.009"/>
<rect x="255.438" y="246.482" fill="none" stroke="#A54B9B" stroke-miterlimit="10" width="42.521" height="17.009"/>
<rect x="340.609" y="246.482" fill="none" stroke="#A54B9B" stroke-miterlimit="10" width="42.521" height="17.009"/>
<rect x="43.099" y="303.472" fill="none" stroke="#A54B9B" stroke-miterlimit="10" width="42.521" height="17.008"/>
<rect x="0.581" y="303.472" fill="none" stroke="#A54B9B" stroke-miterlimit="10" width="42.519" height="17.008"/>
<rect x="128.139" y="303.472" fill="none" stroke="#A54B9B" stroke-miterlimit="10" width="42.521" height="17.008"/>
<rect x="85.622" y="303.472" stroke="#A54B9B" stroke-miterlimit="10" width="42.518" height="17.008"/>
<rect x="212.918" y="303.472" fill="none" stroke="#A54B9B" stroke-miterlimit="10" width="42.52" height="17.008"/>
<rect x="170.398" y="303.472" fill="none" stroke="#A54B9B" stroke-miterlimit="10" width="42.521" height="17.008"/>
<rect x="297.957" y="303.472" fill="none" stroke="#A54B9B" stroke-miterlimit="10" width="42.521" height="17.008"/>
<rect x="255.438" y="303.472" fill="none" stroke="#A54B9B" stroke-miterlimit="10" width="42.521" height="17.008"/>
<rect x="340.609" y="303.472" fill="none" stroke="#A54B9B" stroke-miterlimit="10" width="42.521" height="17.008"/>
<rect x="43.099" y="360.462" fill="none" stroke="#A54B9B" stroke-miterlimit="10" width="42.521" height="17.01"/>
<rect x="0.581" y="360.462" fill="none" stroke="#A54B9B" stroke-miterlimit="10" width="42.519" height="17.01"/>
<rect x="128.139" y="360.462" stroke="#A54B9B" stroke-miterlimit="10" width="42.521" height="17.01"/>
<rect x="85.622" y="360.462" fill="none" stroke="#A54B9B" stroke-miterlimit="10" width="42.518" height="17.01"/>
<rect x="212.918" y="360.462" fill="none" stroke="#A54B9B" stroke-miterlimit="10" width="42.52" height="17.01"/>
<rect x="170.398" y="360.462" fill="none" stroke="#A54B9B" stroke-miterlimit="10" width="42.521" height="17.01"/>
<rect x="297.957" y="360.462" fill="none" stroke="#A54B9B" stroke-miterlimit="10" width="42.521" height="17.01"/>
<rect x="255.438" y="360.462" fill="none" stroke="#A54B9B" stroke-miterlimit="10" width="42.521" height="17.01"/>
<rect x="340.609" y="360.462" fill="none" stroke="#A54B9B" stroke-miterlimit="10" width="42.521" height="17.01"/>
<rect x="43.099" y="417.451" fill="none" stroke="#A54B9B" stroke-miterlimit="10" width="42.521" height="17.008"/>
<rect x="0.581" y="417.451" fill="none" stroke="#A54B9B" stroke-miterlimit="10" width="42.519" height="17.008"/>
<rect x="128.139" y="417.451" fill="none" stroke="#A54B9B" stroke-miterlimit="10" width="42.521" height="17.008"/>
<rect x="85.622" y="417.451" fill="none" stroke="#A54B9B" stroke-miterlimit="10" width="42.518" height="17.008"/>
<rect x="212.918" y="417.451" fill="none" stroke="#A54B9B" stroke-miterlimit="10" width="42.52" height="17.008"/>
<rect x="170.398" y="417.451" stroke="#A54B9B" stroke-miterlimit="10" width="42.521" height="17.008"/>
<rect x="297.957" y="417.451" fill="none" stroke="#A54B9B" stroke-miterlimit="10" width="42.521" height="17.008"/>
<rect x="255.438" y="417.451" fill="none" stroke="#A54B9B" stroke-miterlimit="10" width="42.521" height="17.008"/>
<rect x="340.609" y="417.451" fill="none" stroke="#A54B9B" stroke-miterlimit="10" width="42.521" height="17.008"/>
<rect x="43.099" y="474.441" fill="none" stroke="#A54B9B" stroke-miterlimit="10" width="42.521" height="17.009"/>
<rect x="0.581" y="474.441" fill="none" stroke="#A54B9B" stroke-miterlimit="10" width="42.519" height="17.009"/>
<rect x="128.139" y="474.441" fill="none" stroke="#A54B9B" stroke-miterlimit="10" width="42.521" height="17.009"/>
<rect x="85.622" y="474.441" fill="none" stroke="#A54B9B" stroke-miterlimit="10" width="42.518" height="17.009"/>
<rect x="212.918" y="474.441" stroke="#A54B9B" stroke-miterlimit="10" width="42.52" height="17.009"/>
<rect x="170.398" y="474.441" fill="none" stroke="#A54B9B" stroke-miterlimit="10" width="42.521" height="17.009"/>
<rect x="297.957" y="474.441" fill="none" stroke="#A54B9B" stroke-miterlimit="10" width="42.521" height="17.009"/>
<rect x="255.438" y="474.441" fill="none" stroke="#A54B9B" stroke-miterlimit="10" width="42.521" height="17.009"/>
<rect x="340.609" y="474.441" fill="none" stroke="#A54B9B" stroke-miterlimit="10" width="42.521" height="17.009"/>
<rect x="43.099" y="531.427" fill="none" stroke="#A54B9B" stroke-miterlimit="10" width="42.521" height="17.012"/>
<rect x="0.581" y="531.427" fill="none" stroke="#A54B9B" stroke-miterlimit="10" width="42.519" height="17.012"/>
<rect x="128.139" y="531.427" fill="none" stroke="#A54B9B" stroke-miterlimit="10" width="42.521" height="17.012"/>
<rect x="85.622" y="531.427" fill="none" stroke="#A54B9B" stroke-miterlimit="10" width="42.518" height="17.012"/>
<rect x="212.918" y="531.427" fill="none" stroke="#A54B9B" stroke-miterlimit="10" width="42.52" height="17.012"/>
<rect x="170.398" y="531.427" fill="none" stroke="#A54B9B" stroke-miterlimit="10" width="42.521" height="17.012"/>
<rect x="297.957" y="531.427" fill="none" stroke="#A54B9B" stroke-miterlimit="10" width="42.521" height="17.012"/>
<rect x="255.438" y="531.427" stroke="#A54B9B" stroke-miterlimit="10" width="42.521" height="17.012"/>
<rect x="340.609" y="531.427" fill="none" stroke="#A54B9B" stroke-miterlimit="10" width="42.521" height="17.012"/>
<rect x="43.099" y="588.42" fill="none" stroke="#A54B9B" stroke-miterlimit="10" width="42.521" height="17.008"/>
<rect x="0.581" y="588.42" fill="none" stroke="#A54B9B" stroke-miterlimit="10" width="42.519" height="17.008"/>
<rect x="128.139" y="588.42" fill="none" stroke="#A54B9B" stroke-miterlimit="10" width="42.521" height="17.008"/>
<rect x="85.622" y="588.42" fill="none" stroke="#A54B9B" stroke-miterlimit="10" width="42.518" height="17.008"/>
<rect x="212.918" y="588.42" fill="none" stroke="#A54B9B" stroke-miterlimit="10" width="42.52" height="17.008"/>
<rect x="170.398" y="588.42" fill="none" stroke="#A54B9B" stroke-miterlimit="10" width="42.521" height="17.008"/>
<rect x="297.957" y="588.42" stroke="#A54B9B" stroke-miterlimit="10" width="42.521" height="17.008"/>
<rect x="255.438" y="588.42" fill="none" stroke="#A54B9B" stroke-miterlimit="10" width="42.521" height="17.008"/>
<rect x="340.609" y="588.42" fill="none" stroke="#A54B9B" stroke-miterlimit="10" width="42.521" height="17.008"/>
<rect x="43.099" y="627.319" fill="none" stroke="#A54B9B" stroke-miterlimit="10" width="42.521" height="53.188"/>
<rect x="0.581" y="627.319" fill="none" stroke="#A54B9B" stroke-miterlimit="10" width="42.519" height="53.188"/>
<rect x="128.139" y="627.319" fill="none" stroke="#A54B9B" stroke-miterlimit="10" width="42.521" height="53.188"/>
<rect x="85.622" y="627.319" fill="none" stroke="#A54B9B" stroke-miterlimit="10" width="42.518" height="53.188"/>
<rect x="212.918" y="627.319" fill="none" stroke="#A54B9B" stroke-miterlimit="10" width="42.52" height="53.188"/>
<rect x="170.398" y="627.319" fill="none" stroke="#A54B9B" stroke-miterlimit="10" width="42.521" height="53.188"/>
<rect x="297.957" y="627.319" fill="none" stroke="#A54B9B" stroke-miterlimit="10" width="42.521" height="53.188"/>
<rect x="255.438" y="627.319" fill="none" stroke="#A54B9B" stroke-miterlimit="10" width="42.521" height="53.188"/>
<rect x="340.609" y="627.319" fill="none" stroke="#A54B9B" stroke-miterlimit="10" width="42.521" height="53.188"/>
<rect x="43.099" y="684.305" fill="none" stroke="#A54B9B" stroke-miterlimit="10" width="42.521" height="53.191"/>
<rect x="0.581" y="684.305" fill="none" stroke="#A54B9B" stroke-miterlimit="10" width="42.519" height="53.191"/>
<rect x="128.139" y="684.305" fill="none" stroke="#A54B9B" stroke-miterlimit="10" width="42.521" height="53.191"/>
<rect x="85.622" y="684.305" fill="none" stroke="#A54B9B" stroke-miterlimit="10" width="42.518" height="53.191"/>
<rect x="212.918" y="684.305" fill="none" stroke="#A54B9B" stroke-miterlimit="10" width="42.52" height="53.191"/>
<rect x="170.398" y="684.305" fill="none" stroke="#A54B9B" stroke-miterlimit="10" width="42.521" height="53.191"/>
<rect x="297.957" y="684.305" fill="none" stroke="#A54B9B" stroke-miterlimit="10" width="42.521" height="53.191"/>
<rect x="255.438" y="684.305" fill="none" stroke="#A54B9B" stroke-miterlimit="10" width="42.521" height="53.191"/>
<rect x="340.609" y="684.305" fill="none" stroke="#A54B9B" stroke-miterlimit="10" width="42.521" height="53.191"/>
<rect x="43.099" y="741.298" fill="none" stroke="#A54B9B" stroke-miterlimit="10" width="42.521" height="53.19"/>
<rect x="0.581" y="741.298" fill="none" stroke="#A54B9B" stroke-miterlimit="10" width="42.519" height="53.19"/>
<rect x="128.139" y="741.298" fill="none" stroke="#A54B9B" stroke-miterlimit="10" width="42.521" height="53.19"/>
<rect x="85.622" y="741.298" fill="none" stroke="#A54B9B" stroke-miterlimit="10" width="42.518" height="53.19"/>
<rect x="212.918" y="741.298" fill="none" stroke="#A54B9B" stroke-miterlimit="10" width="42.52" height="53.19"/>
<rect x="170.398" y="741.298" fill="none" stroke="#A54B9B" stroke-miterlimit="10" width="42.521" height="53.19"/>
<rect x="297.957" y="741.298" fill="none" stroke="#A54B9B" stroke-miterlimit="10" width="42.521" height="53.19"/>
<rect x="255.438" y="741.298" fill="none" stroke="#A54B9B" stroke-miterlimit="10" width="42.521" height="53.19"/>
<rect x="340.609" y="741.298" fill="none" stroke="#A54B9B" stroke-miterlimit="10" width="42.521" height="53.19"/>
</svg>
