<?xml version="1.0" encoding="utf-8"?>
<!-- Generator: Adobe Illustrator 15.0.2, SVG Export Plug-In . SVG Version: 6.00 Build 0)  -->
<!DOCTYPE svg PUBLIC "-//W3C//DTD SVG 1.1//EN" "http://www.w3.org/Graphics/SVG/1.1/DTD/svg11.dtd">
<svg version="1.1" id="Layer_1" xmlns="http://www.w3.org/2000/svg" xmlns:xlink="http://www.w3.org/1999/xlink" x="0px" y="0px"
	 width="382.68px" height="794.488px" viewBox="0 0 382.68 794.488" enable-background="new 0 0 382.68 794.488"
	 xml:space="preserve">
<rect x="42.121" y="114.414" fill="none" stroke="#A54B9B" stroke-miterlimit="10" width="42.52" height="53.191"/>
<rect x="-0.398" y="114.414" fill="none" stroke="#A54B9B" stroke-miterlimit="10" width="42.521" height="53.191"/>
<rect x="127.162" y="114.414" fill="none" stroke="#A54B9B" stroke-miterlimit="10" width="42.52" height="53.191"/>
<rect x="84.643" y="114.414" fill="none" stroke="#A54B9B" stroke-miterlimit="10" width="42.521" height="53.191"/>
<rect x="211.939" y="114.414" fill="none" stroke="#A54B9B" stroke-miterlimit="10" width="42.521" height="53.191"/>
<rect x="169.42" y="114.414" fill="none" stroke="#A54B9B" stroke-miterlimit="10" width="42.52" height="53.191"/>
<rect x="296.98" y="114.414" fill="none" stroke="#A54B9B" stroke-miterlimit="10" width="42.521" height="53.191"/>
<rect x="254.46" y="114.414" fill="none" stroke="#A54B9B" stroke-miterlimit="10" width="42.521" height="53.191"/>
<rect x="339.632" y="114.414" fill="none" stroke="#A54B9B" stroke-miterlimit="10" width="42.521" height="53.191"/>
<rect x="42.121" y="189.494" fill="none" stroke="#A54B9B" stroke-miterlimit="10" width="42.52" height="17.01"/>
<rect x="-0.398" y="189.494" fill="none" stroke="#A54B9B" stroke-miterlimit="10" width="42.521" height="17.01"/>
<rect x="127.162" y="189.494" stroke="#A54B9B" stroke-miterlimit="10" width="42.52" height="17.01"/>
<rect x="84.643" y="189.494" fill="none" stroke="#A54B9B" stroke-miterlimit="10" width="42.521" height="17.01"/>
<rect x="211.939" y="189.494" stroke="#A54B9B" stroke-miterlimit="10" width="42.521" height="17.01"/>
<rect x="169.42" y="189.494" stroke="#A54B9B" stroke-miterlimit="10" width="42.52" height="17.01"/>
<rect x="296.98" y="189.494" fill="none" stroke="#A54B9B" stroke-miterlimit="10" width="42.521" height="17.01"/>
<rect x="254.46" y="189.494" fill="none" stroke="#A54B9B" stroke-miterlimit="10" width="42.521" height="17.01"/>
<rect x="339.632" y="189.494" fill="none" stroke="#A54B9B" stroke-miterlimit="10" width="42.521" height="17.01"/>
<rect x="42.121" y="246.485" fill="none" stroke="#A54B9B" stroke-miterlimit="10" width="42.52" height="17.008"/>
<rect x="-0.398" y="246.485" fill="none" stroke="#A54B9B" stroke-miterlimit="10" width="42.521" height="17.008"/>
<rect x="127.162" y="246.485" fill="none" stroke="#A54B9B" stroke-miterlimit="10" width="42.52" height="17.008"/>
<rect x="84.643" y="246.485" fill="none" stroke="#A54B9B" stroke-miterlimit="10" width="42.521" height="17.008"/>
<rect x="211.939" y="246.485" stroke="#A54B9B" stroke-miterlimit="10" width="42.521" height="17.008"/>
<rect x="169.42" y="246.485" fill="none" stroke="#A54B9B" stroke-miterlimit="10" width="42.52" height="17.008"/>
<rect x="296.98" y="246.485" fill="none" stroke="#A54B9B" stroke-miterlimit="10" width="42.521" height="17.008"/>
<rect x="254.46" y="246.485" fill="none" stroke="#A54B9B" stroke-miterlimit="10" width="42.521" height="17.008"/>
<rect x="339.632" y="246.485" fill="none" stroke="#A54B9B" stroke-miterlimit="10" width="42.521" height="17.008"/>
<rect x="42.121" y="303.473" fill="none" stroke="#A54B9B" stroke-miterlimit="10" width="42.52" height="17.009"/>
<rect x="-0.398" y="303.473" fill="none" stroke="#A54B9B" stroke-miterlimit="10" width="42.521" height="17.009"/>
<rect x="127.162" y="303.473" fill="none" stroke="#A54B9B" stroke-miterlimit="10" width="42.52" height="17.009"/>
<rect x="84.643" y="303.473" fill="none" stroke="#A54B9B" stroke-miterlimit="10" width="42.521" height="17.009"/>
<rect x="211.939" y="303.473" stroke="#A54B9B" stroke-miterlimit="10" width="42.521" height="17.009"/>
<rect x="169.42" y="303.473" fill="none" stroke="#A54B9B" stroke-miterlimit="10" width="42.52" height="17.009"/>
<rect x="296.98" y="303.473" fill="none" stroke="#A54B9B" stroke-miterlimit="10" width="42.521" height="17.009"/>
<rect x="254.46" y="303.473" fill="none" stroke="#A54B9B" stroke-miterlimit="10" width="42.521" height="17.009"/>
<rect x="339.632" y="303.473" fill="none" stroke="#A54B9B" stroke-miterlimit="10" width="42.521" height="17.009"/>
<rect x="42.121" y="360.464" fill="none" stroke="#A54B9B" stroke-miterlimit="10" width="42.52" height="17.008"/>
<rect x="-0.398" y="360.464" fill="none" stroke="#A54B9B" stroke-miterlimit="10" width="42.521" height="17.008"/>
<rect x="127.162" y="360.464" fill="none" stroke="#A54B9B" stroke-miterlimit="10" width="42.52" height="17.008"/>
<rect x="84.643" y="360.464" fill="none" stroke="#A54B9B" stroke-miterlimit="10" width="42.521" height="17.008"/>
<rect x="211.939" y="360.464" stroke="#A54B9B" stroke-miterlimit="10" width="42.521" height="17.008"/>
<rect x="169.42" y="360.464" fill="none" stroke="#A54B9B" stroke-miterlimit="10" width="42.52" height="17.008"/>
<rect x="296.98" y="360.464" fill="none" stroke="#A54B9B" stroke-miterlimit="10" width="42.521" height="17.008"/>
<rect x="254.46" y="360.464" fill="none" stroke="#A54B9B" stroke-miterlimit="10" width="42.521" height="17.008"/>
<rect x="339.632" y="360.464" fill="none" stroke="#A54B9B" stroke-miterlimit="10" width="42.521" height="17.008"/>
<rect x="42.121" y="417.453" fill="none" stroke="#A54B9B" stroke-miterlimit="10" width="42.52" height="17.008"/>
<rect x="-0.398" y="417.453" fill="none" stroke="#A54B9B" stroke-miterlimit="10" width="42.521" height="17.008"/>
<rect x="127.162" y="417.453" fill="none" stroke="#A54B9B" stroke-miterlimit="10" width="42.52" height="17.008"/>
<rect x="84.643" y="417.453" fill="none" stroke="#A54B9B" stroke-miterlimit="10" width="42.521" height="17.008"/>
<rect x="211.939" y="417.453" stroke="#A54B9B" stroke-miterlimit="10" width="42.521" height="17.008"/>
<rect x="169.42" y="417.453" fill="none" stroke="#A54B9B" stroke-miterlimit="10" width="42.52" height="17.008"/>
<rect x="296.98" y="417.453" fill="none" stroke="#A54B9B" stroke-miterlimit="10" width="42.521" height="17.008"/>
<rect x="254.46" y="417.453" fill="none" stroke="#A54B9B" stroke-miterlimit="10" width="42.521" height="17.008"/>
<rect x="339.632" y="417.453" fill="none" stroke="#A54B9B" stroke-miterlimit="10" width="42.521" height="17.008"/>
<rect x="42.121" y="474.443" fill="none" stroke="#A54B9B" stroke-miterlimit="10" width="42.52" height="17.009"/>
<rect x="-0.398" y="474.443" fill="none" stroke="#A54B9B" stroke-miterlimit="10" width="42.521" height="17.009"/>
<rect x="127.162" y="474.443" fill="none" stroke="#A54B9B" stroke-miterlimit="10" width="42.52" height="17.009"/>
<rect x="84.643" y="474.443" fill="none" stroke="#A54B9B" stroke-miterlimit="10" width="42.521" height="17.009"/>
<rect x="211.939" y="474.443" stroke="#A54B9B" stroke-miterlimit="10" width="42.521" height="17.009"/>
<rect x="169.42" y="474.443" fill="none" stroke="#A54B9B" stroke-miterlimit="10" width="42.52" height="17.009"/>
<rect x="296.98" y="474.443" fill="none" stroke="#A54B9B" stroke-miterlimit="10" width="42.521" height="17.009"/>
<rect x="254.46" y="474.443" fill="none" stroke="#A54B9B" stroke-miterlimit="10" width="42.521" height="17.009"/>
<rect x="339.632" y="474.443" fill="none" stroke="#A54B9B" stroke-miterlimit="10" width="42.521" height="17.009"/>
<rect x="42.121" y="531.431" fill="none" stroke="#A54B9B" stroke-miterlimit="10" width="42.52" height="17.009"/>
<rect x="-0.398" y="531.431" fill="none" stroke="#A54B9B" stroke-miterlimit="10" width="42.521" height="17.009"/>
<rect x="127.162" y="531.431" fill="none" stroke="#A54B9B" stroke-miterlimit="10" width="42.52" height="17.009"/>
<rect x="84.643" y="531.431" fill="none" stroke="#A54B9B" stroke-miterlimit="10" width="42.521" height="17.009"/>
<rect x="211.939" y="531.431" stroke="#A54B9B" stroke-miterlimit="10" width="42.521" height="17.009"/>
<rect x="169.42" y="531.431" fill="none" stroke="#A54B9B" stroke-miterlimit="10" width="42.52" height="17.009"/>
<rect x="296.98" y="531.431" fill="none" stroke="#A54B9B" stroke-miterlimit="10" width="42.521" height="17.009"/>
<rect x="254.46" y="531.431" fill="none" stroke="#A54B9B" stroke-miterlimit="10" width="42.521" height="17.009"/>
<rect x="339.632" y="531.431" fill="none" stroke="#A54B9B" stroke-miterlimit="10" width="42.521" height="17.009"/>
<rect x="42.121" y="588.42" fill="none" stroke="#A54B9B" stroke-miterlimit="10" width="42.52" height="17.011"/>
<rect x="-0.398" y="588.42" fill="none" stroke="#A54B9B" stroke-miterlimit="10" width="42.521" height="17.011"/>
<rect x="127.162" y="588.42" fill="none" stroke="#A54B9B" stroke-miterlimit="10" width="42.52" height="17.011"/>
<rect x="84.643" y="588.42" fill="none" stroke="#A54B9B" stroke-miterlimit="10" width="42.521" height="17.011"/>
<rect x="211.939" y="588.42" stroke="#A54B9B" stroke-miterlimit="10" width="42.521" height="17.011"/>
<rect x="169.42" y="588.42" fill="none" stroke="#A54B9B" stroke-miterlimit="10" width="42.52" height="17.011"/>
<rect x="296.98" y="588.42" fill="none" stroke="#A54B9B" stroke-miterlimit="10" width="42.521" height="17.011"/>
<rect x="254.46" y="588.42" fill="none" stroke="#A54B9B" stroke-miterlimit="10" width="42.521" height="17.011"/>
<rect x="339.632" y="588.42" fill="none" stroke="#A54B9B" stroke-miterlimit="10" width="42.521" height="17.011"/>
<rect x="42.121" y="645.413" fill="none" stroke="#A54B9B" stroke-miterlimit="10" width="42.52" height="17.008"/>
<rect x="-0.398" y="645.413" fill="none" stroke="#A54B9B" stroke-miterlimit="10" width="42.521" height="17.008"/>
<rect x="127.162" y="645.413" stroke="#A54B9B" stroke-miterlimit="10" width="42.52" height="17.008"/>
<rect x="84.643" y="645.413" fill="none" stroke="#A54B9B" stroke-miterlimit="10" width="42.521" height="17.008"/>
<rect x="211.939" y="645.413" stroke="#A54B9B" stroke-miterlimit="10" width="42.521" height="17.008"/>
<rect x="169.42" y="645.413" stroke="#A54B9B" stroke-miterlimit="10" width="42.52" height="17.008"/>
<rect x="296.98" y="645.413" fill="none" stroke="#A54B9B" stroke-miterlimit="10" width="42.521" height="17.008"/>
<rect x="254.46" y="645.413" fill="none" stroke="#A54B9B" stroke-miterlimit="10" width="42.521" height="17.008"/>
<rect x="339.632" y="645.413" fill="none" stroke="#A54B9B" stroke-miterlimit="10" width="42.521" height="17.008"/>
<rect x="42.121" y="684.309" fill="none" stroke="#A54B9B" stroke-miterlimit="10" width="42.52" height="53.188"/>
<rect x="-0.398" y="684.309" fill="none" stroke="#A54B9B" stroke-miterlimit="10" width="42.521" height="53.188"/>
<rect x="127.162" y="684.309" fill="none" stroke="#A54B9B" stroke-miterlimit="10" width="42.52" height="53.188"/>
<rect x="84.643" y="684.309" fill="none" stroke="#A54B9B" stroke-miterlimit="10" width="42.521" height="53.188"/>
<rect x="211.939" y="684.309" fill="none" stroke="#A54B9B" stroke-miterlimit="10" width="42.521" height="53.188"/>
<rect x="169.42" y="684.309" fill="none" stroke="#A54B9B" stroke-miterlimit="10" width="42.52" height="53.188"/>
<rect x="296.98" y="684.309" fill="none" stroke="#A54B9B" stroke-miterlimit="10" width="42.521" height="53.188"/>
<rect x="254.46" y="684.309" fill="none" stroke="#A54B9B" stroke-miterlimit="10" width="42.521" height="53.188"/>
<rect x="339.632" y="684.309" fill="none" stroke="#A54B9B" stroke-miterlimit="10" width="42.521" height="53.188"/>
<rect x="42.121" y="741.298" fill="none" stroke="#A54B9B" stroke-miterlimit="10" width="42.52" height="53.19"/>
<rect x="-0.398" y="741.298" fill="none" stroke="#A54B9B" stroke-miterlimit="10" width="42.521" height="53.19"/>
<rect x="127.162" y="741.298" fill="none" stroke="#A54B9B" stroke-miterlimit="10" width="42.52" height="53.19"/>
<rect x="84.643" y="741.298" fill="none" stroke="#A54B9B" stroke-miterlimit="10" width="42.521" height="53.19"/>
<rect x="211.939" y="741.298" fill="none" stroke="#A54B9B" stroke-miterlimit="10" width="42.521" height="53.19"/>
<rect x="169.42" y="741.298" fill="none" stroke="#A54B9B" stroke-miterlimit="10" width="42.52" height="53.19"/>
<rect x="296.98" y="741.298" fill="none" stroke="#A54B9B" stroke-miterlimit="10" width="42.521" height="53.19"/>
<rect x="254.46" y="741.298" fill="none" stroke="#A54B9B" stroke-miterlimit="10" width="42.521" height="53.19"/>
<rect x="339.632" y="741.298" fill="none" stroke="#A54B9B" stroke-miterlimit="10" width="42.521" height="53.19"/>
</svg>
