<?xml version="1.0" encoding="utf-8"?>
<!-- Generator: Adobe Illustrator 15.0.2, SVG Export Plug-In . SVG Version: 6.00 Build 0)  -->
<!DOCTYPE svg PUBLIC "-//W3C//DTD SVG 1.1//EN" "http://www.w3.org/Graphics/SVG/1.1/DTD/svg11.dtd">
<svg version="1.1" id="Layer_1" xmlns="http://www.w3.org/2000/svg" xmlns:xlink="http://www.w3.org/1999/xlink" x="0px" y="0px"
	 width="382.68px" height="794.488px" viewBox="0 0 382.68 794.488" enable-background="new 0 0 382.68 794.488"
	 xml:space="preserve">
<rect x="42.384" y="111.982" fill="none" stroke="#A54B9B" stroke-miterlimit="10" width="42.521" height="53.189"/>
<rect x="-0.136" y="111.982" fill="none" stroke="#A54B9B" stroke-miterlimit="10" width="42.521" height="53.189"/>
<rect x="127.425" y="111.982" fill="none" stroke="#A54B9B" stroke-miterlimit="10" width="42.52" height="53.189"/>
<rect x="84.905" y="111.982" fill="none" stroke="#A54B9B" stroke-miterlimit="10" width="42.521" height="53.189"/>
<rect x="212.202" y="111.982" fill="none" stroke="#A54B9B" stroke-miterlimit="10" width="42.52" height="53.189"/>
<rect x="169.683" y="111.982" fill="none" stroke="#A54B9B" stroke-miterlimit="10" width="42.521" height="53.189"/>
<rect x="297.243" y="111.982" fill="none" stroke="#A54B9B" stroke-miterlimit="10" width="42.52" height="53.189"/>
<rect x="254.723" y="111.982" fill="none" stroke="#A54B9B" stroke-miterlimit="10" width="42.521" height="53.189"/>
<rect x="339.895" y="111.982" fill="none" stroke="#A54B9B" stroke-miterlimit="10" width="42.521" height="53.189"/>
<rect x="42.384" y="168.971" fill="none" stroke="#A54B9B" stroke-miterlimit="10" width="42.521" height="53.188"/>
<rect x="-0.136" y="168.971" fill="none" stroke="#A54B9B" stroke-miterlimit="10" width="42.521" height="53.188"/>
<rect x="127.425" y="168.971" fill="none" stroke="#A54B9B" stroke-miterlimit="10" width="42.52" height="53.188"/>
<rect x="84.905" y="168.971" fill="none" stroke="#A54B9B" stroke-miterlimit="10" width="42.521" height="53.188"/>
<rect x="212.202" y="168.971" fill="none" stroke="#A54B9B" stroke-miterlimit="10" width="42.52" height="53.188"/>
<rect x="169.683" y="168.971" fill="none" stroke="#A54B9B" stroke-miterlimit="10" width="42.521" height="53.188"/>
<rect x="297.243" y="168.971" fill="none" stroke="#A54B9B" stroke-miterlimit="10" width="42.52" height="53.188"/>
<rect x="254.723" y="168.971" fill="none" stroke="#A54B9B" stroke-miterlimit="10" width="42.521" height="53.188"/>
<rect x="339.895" y="168.971" fill="none" stroke="#A54B9B" stroke-miterlimit="10" width="42.521" height="53.188"/>
<rect x="42.384" y="225.962" fill="none" stroke="#A54B9B" stroke-miterlimit="10" width="42.521" height="53.191"/>
<rect x="-0.136" y="225.962" fill="none" stroke="#A54B9B" stroke-miterlimit="10" width="42.521" height="53.191"/>
<rect x="127.425" y="225.962" fill="none" stroke="#A54B9B" stroke-miterlimit="10" width="42.52" height="53.191"/>
<rect x="84.905" y="225.962" fill="none" stroke="#A54B9B" stroke-miterlimit="10" width="42.521" height="53.191"/>
<rect x="212.202" y="225.962" fill="none" stroke="#A54B9B" stroke-miterlimit="10" width="42.52" height="53.191"/>
<rect x="169.683" y="225.962" fill="none" stroke="#A54B9B" stroke-miterlimit="10" width="42.521" height="53.191"/>
<rect x="297.243" y="225.962" fill="none" stroke="#A54B9B" stroke-miterlimit="10" width="42.52" height="53.191"/>
<rect x="254.723" y="225.962" fill="none" stroke="#A54B9B" stroke-miterlimit="10" width="42.521" height="53.191"/>
<rect x="339.895" y="225.962" fill="none" stroke="#A54B9B" stroke-miterlimit="10" width="42.521" height="53.191"/>
<rect x="42.384" y="301.044" fill="none" stroke="#A54B9B" stroke-miterlimit="10" width="42.521" height="17.009"/>
<rect x="-0.136" y="301.044" fill="none" stroke="#A54B9B" stroke-miterlimit="10" width="42.521" height="17.009"/>
<rect x="127.425" y="301.044" fill="none" stroke="#A54B9B" stroke-miterlimit="10" width="42.52" height="17.009"/>
<rect x="84.905" y="301.044" fill="none" stroke="#A54B9B" stroke-miterlimit="10" width="42.521" height="17.009"/>
<rect x="212.202" y="301.044" stroke="#A54B9B" stroke-miterlimit="10" width="42.52" height="17.009"/>
<rect x="169.683" y="301.044" stroke="#A54B9B" stroke-miterlimit="10" width="42.521" height="17.009"/>
<rect x="297.243" y="301.044" fill="none" stroke="#A54B9B" stroke-miterlimit="10" width="42.52" height="17.009"/>
<rect x="254.723" y="301.044" fill="none" stroke="#A54B9B" stroke-miterlimit="10" width="42.521" height="17.009"/>
<rect x="339.895" y="301.044" fill="none" stroke="#A54B9B" stroke-miterlimit="10" width="42.521" height="17.009"/>
<rect x="42.384" y="358.032" fill="none" stroke="#A54B9B" stroke-miterlimit="10" width="42.521" height="17.008"/>
<rect x="-0.136" y="358.032" fill="none" stroke="#A54B9B" stroke-miterlimit="10" width="42.521" height="17.008"/>
<rect x="127.425" y="358.032" fill="none" stroke="#A54B9B" stroke-miterlimit="10" width="42.52" height="17.008"/>
<rect x="84.905" y="358.032" fill="none" stroke="#A54B9B" stroke-miterlimit="10" width="42.521" height="17.008"/>
<rect x="212.202" y="358.032" stroke="#A54B9B" stroke-miterlimit="10" width="42.52" height="17.008"/>
<rect x="169.683" y="358.032" stroke="#A54B9B" stroke-miterlimit="10" width="42.521" height="17.008"/>
<rect x="297.243" y="358.032" fill="none" stroke="#A54B9B" stroke-miterlimit="10" width="42.52" height="17.008"/>
<rect x="254.723" y="358.032" fill="none" stroke="#A54B9B" stroke-miterlimit="10" width="42.521" height="17.008"/>
<rect x="339.895" y="358.032" fill="none" stroke="#A54B9B" stroke-miterlimit="10" width="42.521" height="17.008"/>
<rect x="42.384" y="396.93" fill="none" stroke="#A54B9B" stroke-miterlimit="10" width="42.521" height="53.189"/>
<rect x="-0.136" y="396.93" fill="none" stroke="#A54B9B" stroke-miterlimit="10" width="42.521" height="53.189"/>
<rect x="127.425" y="396.93" fill="none" stroke="#A54B9B" stroke-miterlimit="10" width="42.52" height="53.189"/>
<rect x="84.905" y="396.93" fill="none" stroke="#A54B9B" stroke-miterlimit="10" width="42.521" height="53.189"/>
<rect x="212.202" y="396.93" fill="none" stroke="#A54B9B" stroke-miterlimit="10" width="42.52" height="53.189"/>
<rect x="169.683" y="396.93" fill="none" stroke="#A54B9B" stroke-miterlimit="10" width="42.521" height="53.189"/>
<rect x="297.243" y="396.93" fill="none" stroke="#A54B9B" stroke-miterlimit="10" width="42.52" height="53.189"/>
<rect x="254.723" y="396.93" fill="none" stroke="#A54B9B" stroke-miterlimit="10" width="42.521" height="53.189"/>
<rect x="339.895" y="396.93" fill="none" stroke="#A54B9B" stroke-miterlimit="10" width="42.521" height="53.189"/>
<rect x="42.384" y="453.922" fill="none" stroke="#A54B9B" stroke-miterlimit="10" width="42.521" height="53.188"/>
<rect x="-0.136" y="453.922" fill="none" stroke="#A54B9B" stroke-miterlimit="10" width="42.521" height="53.188"/>
<rect x="127.425" y="453.922" fill="none" stroke="#A54B9B" stroke-miterlimit="10" width="42.52" height="53.188"/>
<rect x="84.905" y="453.922" fill="none" stroke="#A54B9B" stroke-miterlimit="10" width="42.521" height="53.188"/>
<rect x="212.202" y="453.922" fill="none" stroke="#A54B9B" stroke-miterlimit="10" width="42.52" height="53.188"/>
<rect x="169.683" y="453.922" fill="none" stroke="#A54B9B" stroke-miterlimit="10" width="42.521" height="53.188"/>
<rect x="297.243" y="453.922" fill="none" stroke="#A54B9B" stroke-miterlimit="10" width="42.52" height="53.188"/>
<rect x="254.723" y="453.922" fill="none" stroke="#A54B9B" stroke-miterlimit="10" width="42.521" height="53.188"/>
<rect x="339.895" y="453.922" fill="none" stroke="#A54B9B" stroke-miterlimit="10" width="42.521" height="53.188"/>
<rect x="42.384" y="510.907" fill="none" stroke="#A54B9B" stroke-miterlimit="10" width="42.521" height="53.19"/>
<rect x="-0.136" y="510.907" fill="none" stroke="#A54B9B" stroke-miterlimit="10" width="42.521" height="53.19"/>
<rect x="127.425" y="510.907" fill="none" stroke="#A54B9B" stroke-miterlimit="10" width="42.52" height="53.19"/>
<rect x="84.905" y="510.907" fill="none" stroke="#A54B9B" stroke-miterlimit="10" width="42.521" height="53.19"/>
<rect x="212.202" y="510.907" fill="none" stroke="#A54B9B" stroke-miterlimit="10" width="42.52" height="53.19"/>
<rect x="169.683" y="510.907" fill="none" stroke="#A54B9B" stroke-miterlimit="10" width="42.521" height="53.19"/>
<rect x="297.243" y="510.907" fill="none" stroke="#A54B9B" stroke-miterlimit="10" width="42.52" height="53.19"/>
<rect x="254.723" y="510.907" fill="none" stroke="#A54B9B" stroke-miterlimit="10" width="42.521" height="53.19"/>
<rect x="339.895" y="510.907" fill="none" stroke="#A54B9B" stroke-miterlimit="10" width="42.521" height="53.19"/>
<rect x="42.384" y="585.988" fill="none" stroke="#A54B9B" stroke-miterlimit="10" width="42.521" height="17.011"/>
<rect x="-0.136" y="585.988" fill="none" stroke="#A54B9B" stroke-miterlimit="10" width="42.521" height="17.011"/>
<rect x="127.425" y="585.988" fill="none" stroke="#A54B9B" stroke-miterlimit="10" width="42.52" height="17.011"/>
<rect x="84.905" y="585.988" fill="none" stroke="#A54B9B" stroke-miterlimit="10" width="42.521" height="17.011"/>
<rect x="212.202" y="585.988" stroke="#A54B9B" stroke-miterlimit="10" width="42.52" height="17.011"/>
<rect x="169.683" y="585.988" stroke="#A54B9B" stroke-miterlimit="10" width="42.521" height="17.011"/>
<rect x="297.243" y="585.988" fill="none" stroke="#A54B9B" stroke-miterlimit="10" width="42.52" height="17.011"/>
<rect x="254.723" y="585.988" fill="none" stroke="#A54B9B" stroke-miterlimit="10" width="42.521" height="17.011"/>
<rect x="339.895" y="585.988" fill="none" stroke="#A54B9B" stroke-miterlimit="10" width="42.521" height="17.011"/>
<rect x="42.384" y="642.981" fill="none" stroke="#A54B9B" stroke-miterlimit="10" width="42.521" height="17.008"/>
<rect x="-0.136" y="642.981" fill="none" stroke="#A54B9B" stroke-miterlimit="10" width="42.521" height="17.008"/>
<rect x="127.425" y="642.981" fill="none" stroke="#A54B9B" stroke-miterlimit="10" width="42.52" height="17.008"/>
<rect x="84.905" y="642.981" fill="none" stroke="#A54B9B" stroke-miterlimit="10" width="42.521" height="17.008"/>
<rect x="212.202" y="642.981" stroke="#A54B9B" stroke-miterlimit="10" width="42.52" height="17.008"/>
<rect x="169.683" y="642.981" stroke="#A54B9B" stroke-miterlimit="10" width="42.521" height="17.008"/>
<rect x="297.243" y="642.981" fill="none" stroke="#A54B9B" stroke-miterlimit="10" width="42.52" height="17.008"/>
<rect x="254.723" y="642.981" fill="none" stroke="#A54B9B" stroke-miterlimit="10" width="42.521" height="17.008"/>
<rect x="339.895" y="642.981" fill="none" stroke="#A54B9B" stroke-miterlimit="10" width="42.521" height="17.008"/>
<rect x="42.384" y="681.88" fill="none" stroke="#A54B9B" stroke-miterlimit="10" width="42.521" height="53.188"/>
<rect x="-0.136" y="681.88" fill="none" stroke="#A54B9B" stroke-miterlimit="10" width="42.521" height="53.188"/>
<rect x="127.425" y="681.88" fill="none" stroke="#A54B9B" stroke-miterlimit="10" width="42.52" height="53.188"/>
<rect x="84.905" y="681.88" fill="none" stroke="#A54B9B" stroke-miterlimit="10" width="42.521" height="53.188"/>
<rect x="212.202" y="681.88" fill="none" stroke="#A54B9B" stroke-miterlimit="10" width="42.52" height="53.188"/>
<rect x="169.683" y="681.88" fill="none" stroke="#A54B9B" stroke-miterlimit="10" width="42.521" height="53.188"/>
<rect x="297.243" y="681.88" fill="none" stroke="#A54B9B" stroke-miterlimit="10" width="42.52" height="53.188"/>
<rect x="254.723" y="681.88" fill="none" stroke="#A54B9B" stroke-miterlimit="10" width="42.521" height="53.188"/>
<rect x="339.895" y="681.88" fill="none" stroke="#A54B9B" stroke-miterlimit="10" width="42.521" height="53.188"/>
<rect x="42.384" y="738.866" fill="none" stroke="#A54B9B" stroke-miterlimit="10" width="42.521" height="53.19"/>
<rect x="-0.136" y="738.866" fill="none" stroke="#A54B9B" stroke-miterlimit="10" width="42.521" height="53.19"/>
<rect x="127.425" y="738.866" fill="none" stroke="#A54B9B" stroke-miterlimit="10" width="42.52" height="53.19"/>
<rect x="84.905" y="738.866" fill="none" stroke="#A54B9B" stroke-miterlimit="10" width="42.521" height="53.19"/>
<rect x="212.202" y="738.866" fill="none" stroke="#A54B9B" stroke-miterlimit="10" width="42.52" height="53.19"/>
<rect x="169.683" y="738.866" fill="none" stroke="#A54B9B" stroke-miterlimit="10" width="42.521" height="53.19"/>
<rect x="297.243" y="738.866" fill="none" stroke="#A54B9B" stroke-miterlimit="10" width="42.52" height="53.19"/>
<rect x="254.723" y="738.866" fill="none" stroke="#A54B9B" stroke-miterlimit="10" width="42.521" height="53.19"/>
<rect x="339.895" y="738.866" fill="none" stroke="#A54B9B" stroke-miterlimit="10" width="42.521" height="53.19"/>
</svg>
