<?xml version="1.0" encoding="utf-8"?>
<!-- Generator: Adobe Illustrator 15.0.2, SVG Export Plug-In . SVG Version: 6.00 Build 0)  -->
<!DOCTYPE svg PUBLIC "-//W3C//DTD SVG 1.1//EN" "http://www.w3.org/Graphics/SVG/1.1/DTD/svg11.dtd">
<svg version="1.1" id="Layer_1" xmlns="http://www.w3.org/2000/svg" xmlns:xlink="http://www.w3.org/1999/xlink" x="0px" y="0px"
	 width="382.68px" height="794.488px" viewBox="0 0 382.68 794.488" enable-background="new 0 0 382.68 794.488"
	 xml:space="preserve">
<rect x="42.648" y="114.413" fill="none" stroke="#A54B9B" stroke-miterlimit="10" width="42.521" height="53.19"/>
<rect x="0.128" y="114.413" fill="none" stroke="#A54B9B" stroke-miterlimit="10" width="42.52" height="53.19"/>
<rect x="127.689" y="114.413" fill="none" stroke="#A54B9B" stroke-miterlimit="10" width="42.521" height="53.19"/>
<rect x="85.169" y="114.413" fill="none" stroke="#A54B9B" stroke-miterlimit="10" width="42.52" height="53.19"/>
<rect x="212.467" y="114.413" fill="none" stroke="#A54B9B" stroke-miterlimit="10" width="42.52" height="53.19"/>
<rect x="169.947" y="114.413" fill="none" stroke="#A54B9B" stroke-miterlimit="10" width="42.521" height="53.19"/>
<rect x="297.508" y="114.413" fill="none" stroke="#A54B9B" stroke-miterlimit="10" width="42.518" height="53.19"/>
<rect x="254.986" y="114.413" fill="none" stroke="#A54B9B" stroke-miterlimit="10" width="42.521" height="53.19"/>
<rect x="340.158" y="114.413" fill="none" stroke="#A54B9B" stroke-miterlimit="10" width="42.521" height="53.19"/>
<rect x="42.648" y="189.493" fill="none" stroke="#A54B9B" stroke-miterlimit="10" width="42.521" height="17.008"/>
<rect x="0.128" y="189.493" fill="none" stroke="#A54B9B" stroke-miterlimit="10" width="42.52" height="17.008"/>
<rect x="127.689" y="189.493" stroke="#A54B9B" stroke-miterlimit="10" width="42.521" height="17.008"/>
<rect x="85.169" y="189.493" stroke="#A54B9B" stroke-miterlimit="10" width="42.52" height="17.008"/>
<rect x="212.467" y="189.493" fill="none" stroke="#A54B9B" stroke-miterlimit="10" width="42.52" height="17.008"/>
<rect x="169.947" y="189.493" stroke="#A54B9B" stroke-miterlimit="10" width="42.521" height="17.008"/>
<rect x="297.508" y="189.493" fill="none" stroke="#A54B9B" stroke-miterlimit="10" width="42.518" height="17.008"/>
<rect x="254.986" y="189.493" fill="none" stroke="#A54B9B" stroke-miterlimit="10" width="42.521" height="17.008"/>
<rect x="340.158" y="189.493" fill="none" stroke="#A54B9B" stroke-miterlimit="10" width="42.521" height="17.008"/>
<rect x="42.648" y="246.482" fill="none" stroke="#A54B9B" stroke-miterlimit="10" width="42.521" height="17.009"/>
<rect x="0.128" y="246.482" fill="none" stroke="#A54B9B" stroke-miterlimit="10" width="42.52" height="17.009"/>
<rect x="127.689" y="246.482" fill="none" stroke="#A54B9B" stroke-miterlimit="10" width="42.521" height="17.009"/>
<rect x="85.169" y="246.482" fill="none" stroke="#A54B9B" stroke-miterlimit="10" width="42.52" height="17.009"/>
<rect x="212.467" y="246.482" stroke="#A54B9B" stroke-miterlimit="10" width="42.52" height="17.009"/>
<rect x="169.947" y="246.482" fill="none" stroke="#A54B9B" stroke-miterlimit="10" width="42.521" height="17.009"/>
<rect x="297.508" y="246.482" fill="none" stroke="#A54B9B" stroke-miterlimit="10" width="42.518" height="17.009"/>
<rect x="254.986" y="246.482" fill="none" stroke="#A54B9B" stroke-miterlimit="10" width="42.521" height="17.009"/>
<rect x="340.158" y="246.482" fill="none" stroke="#A54B9B" stroke-miterlimit="10" width="42.521" height="17.009"/>
<rect x="42.648" y="303.472" fill="none" stroke="#A54B9B" stroke-miterlimit="10" width="42.521" height="17.008"/>
<rect x="0.128" y="303.472" fill="none" stroke="#A54B9B" stroke-miterlimit="10" width="42.52" height="17.008"/>
<rect x="127.689" y="303.472" fill="none" stroke="#A54B9B" stroke-miterlimit="10" width="42.521" height="17.008"/>
<rect x="85.169" y="303.472" fill="none" stroke="#A54B9B" stroke-miterlimit="10" width="42.52" height="17.008"/>
<rect x="212.467" y="303.472" stroke="#A54B9B" stroke-miterlimit="10" width="42.52" height="17.008"/>
<rect x="169.947" y="303.472" fill="none" stroke="#A54B9B" stroke-miterlimit="10" width="42.521" height="17.008"/>
<rect x="297.508" y="303.472" fill="none" stroke="#A54B9B" stroke-miterlimit="10" width="42.518" height="17.008"/>
<rect x="254.986" y="303.472" fill="none" stroke="#A54B9B" stroke-miterlimit="10" width="42.521" height="17.008"/>
<rect x="340.158" y="303.472" fill="none" stroke="#A54B9B" stroke-miterlimit="10" width="42.521" height="17.008"/>
<rect x="42.648" y="360.462" fill="none" stroke="#A54B9B" stroke-miterlimit="10" width="42.521" height="17.01"/>
<rect x="0.128" y="360.462" fill="none" stroke="#A54B9B" stroke-miterlimit="10" width="42.52" height="17.01"/>
<rect x="127.689" y="360.462" fill="none" stroke="#A54B9B" stroke-miterlimit="10" width="42.521" height="17.01"/>
<rect x="85.169" y="360.462" fill="none" stroke="#A54B9B" stroke-miterlimit="10" width="42.52" height="17.01"/>
<rect x="212.467" y="360.462" stroke="#A54B9B" stroke-miterlimit="10" width="42.52" height="17.01"/>
<rect x="169.947" y="360.462" fill="none" stroke="#A54B9B" stroke-miterlimit="10" width="42.521" height="17.01"/>
<rect x="297.508" y="360.462" fill="none" stroke="#A54B9B" stroke-miterlimit="10" width="42.518" height="17.01"/>
<rect x="254.986" y="360.462" fill="none" stroke="#A54B9B" stroke-miterlimit="10" width="42.521" height="17.01"/>
<rect x="340.158" y="360.462" fill="none" stroke="#A54B9B" stroke-miterlimit="10" width="42.521" height="17.01"/>
<rect x="42.648" y="417.451" fill="none" stroke="#A54B9B" stroke-miterlimit="10" width="42.521" height="17.008"/>
<rect x="0.128" y="417.451" fill="none" stroke="#A54B9B" stroke-miterlimit="10" width="42.52" height="17.008"/>
<rect x="127.689" y="417.451" fill="none" stroke="#A54B9B" stroke-miterlimit="10" width="42.521" height="17.008"/>
<rect x="85.169" y="417.451" fill="none" stroke="#A54B9B" stroke-miterlimit="10" width="42.52" height="17.008"/>
<rect x="212.467" y="417.451" fill="none" stroke="#A54B9B" stroke-miterlimit="10" width="42.52" height="17.008"/>
<rect x="169.947" y="417.451" fill="none" stroke="#A54B9B" stroke-miterlimit="10" width="42.521" height="17.008"/>
<rect x="297.508" y="417.451" fill="none" stroke="#A54B9B" stroke-miterlimit="10" width="42.518" height="17.008"/>
<rect x="254.986" y="417.451" stroke="#A54B9B" stroke-miterlimit="10" width="42.521" height="17.008"/>
<rect x="340.158" y="417.451" fill="none" stroke="#A54B9B" stroke-miterlimit="10" width="42.521" height="17.008"/>
<rect x="42.648" y="474.441" fill="none" stroke="#A54B9B" stroke-miterlimit="10" width="42.521" height="17.009"/>
<rect x="0.128" y="474.441" fill="none" stroke="#A54B9B" stroke-miterlimit="10" width="42.52" height="17.009"/>
<rect x="127.689" y="474.441" fill="none" stroke="#A54B9B" stroke-miterlimit="10" width="42.521" height="17.009"/>
<rect x="85.169" y="474.441" fill="none" stroke="#A54B9B" stroke-miterlimit="10" width="42.52" height="17.009"/>
<rect x="212.467" y="474.441" stroke="#A54B9B" stroke-miterlimit="10" width="42.52" height="17.009"/>
<rect x="169.947" y="474.441" fill="none" stroke="#A54B9B" stroke-miterlimit="10" width="42.521" height="17.009"/>
<rect x="297.508" y="474.441" fill="none" stroke="#A54B9B" stroke-miterlimit="10" width="42.518" height="17.009"/>
<rect x="254.986" y="474.441" fill="none" stroke="#A54B9B" stroke-miterlimit="10" width="42.521" height="17.009"/>
<rect x="340.158" y="474.441" fill="none" stroke="#A54B9B" stroke-miterlimit="10" width="42.521" height="17.009"/>
<rect x="42.648" y="531.427" fill="none" stroke="#A54B9B" stroke-miterlimit="10" width="42.521" height="17.012"/>
<rect x="0.128" y="531.427" fill="none" stroke="#A54B9B" stroke-miterlimit="10" width="42.52" height="17.012"/>
<rect x="127.689" y="531.427" fill="none" stroke="#A54B9B" stroke-miterlimit="10" width="42.521" height="17.012"/>
<rect x="85.169" y="531.427" fill="none" stroke="#A54B9B" stroke-miterlimit="10" width="42.52" height="17.012"/>
<rect x="212.467" y="531.427" stroke="#A54B9B" stroke-miterlimit="10" width="42.52" height="17.012"/>
<rect x="169.947" y="531.427" fill="none" stroke="#A54B9B" stroke-miterlimit="10" width="42.521" height="17.012"/>
<rect x="297.508" y="531.427" fill="none" stroke="#A54B9B" stroke-miterlimit="10" width="42.518" height="17.012"/>
<rect x="254.986" y="531.427" fill="none" stroke="#A54B9B" stroke-miterlimit="10" width="42.521" height="17.012"/>
<rect x="340.158" y="531.427" fill="none" stroke="#A54B9B" stroke-miterlimit="10" width="42.521" height="17.012"/>
<rect x="42.648" y="588.42" fill="none" stroke="#A54B9B" stroke-miterlimit="10" width="42.521" height="17.008"/>
<rect x="0.128" y="588.42" fill="none" stroke="#A54B9B" stroke-miterlimit="10" width="42.52" height="17.008"/>
<rect x="127.689" y="588.42" fill="none" stroke="#A54B9B" stroke-miterlimit="10" width="42.521" height="17.008"/>
<rect x="85.169" y="588.42" fill="none" stroke="#A54B9B" stroke-miterlimit="10" width="42.52" height="17.008"/>
<rect x="212.467" y="588.42" stroke="#A54B9B" stroke-miterlimit="10" width="42.52" height="17.008"/>
<rect x="169.947" y="588.42" fill="none" stroke="#A54B9B" stroke-miterlimit="10" width="42.521" height="17.008"/>
<rect x="297.508" y="588.42" fill="none" stroke="#A54B9B" stroke-miterlimit="10" width="42.518" height="17.008"/>
<rect x="254.986" y="588.42" fill="none" stroke="#A54B9B" stroke-miterlimit="10" width="42.521" height="17.008"/>
<rect x="340.158" y="588.42" fill="none" stroke="#A54B9B" stroke-miterlimit="10" width="42.521" height="17.008"/>
<rect x="42.648" y="645.411" fill="none" stroke="#A54B9B" stroke-miterlimit="10" width="42.521" height="17.008"/>
<rect x="0.128" y="645.411" fill="none" stroke="#A54B9B" stroke-miterlimit="10" width="42.52" height="17.008"/>
<rect x="127.689" y="645.411" stroke="#A54B9B" stroke-miterlimit="10" width="42.521" height="17.008"/>
<rect x="85.169" y="645.411" stroke="#A54B9B" stroke-miterlimit="10" width="42.52" height="17.008"/>
<rect x="212.467" y="645.411" fill="none" stroke="#A54B9B" stroke-miterlimit="10" width="42.52" height="17.008"/>
<rect x="169.947" y="645.411" stroke="#A54B9B" stroke-miterlimit="10" width="42.521" height="17.008"/>
<rect x="297.508" y="645.411" fill="none" stroke="#A54B9B" stroke-miterlimit="10" width="42.518" height="17.008"/>
<rect x="254.986" y="645.411" fill="none" stroke="#A54B9B" stroke-miterlimit="10" width="42.521" height="17.008"/>
<rect x="340.158" y="645.411" fill="none" stroke="#A54B9B" stroke-miterlimit="10" width="42.521" height="17.008"/>
<rect x="42.648" y="684.305" fill="none" stroke="#A54B9B" stroke-miterlimit="10" width="42.521" height="53.191"/>
<rect x="0.128" y="684.305" fill="none" stroke="#A54B9B" stroke-miterlimit="10" width="42.52" height="53.191"/>
<rect x="127.689" y="684.305" fill="none" stroke="#A54B9B" stroke-miterlimit="10" width="42.521" height="53.191"/>
<rect x="85.169" y="684.305" fill="none" stroke="#A54B9B" stroke-miterlimit="10" width="42.52" height="53.191"/>
<rect x="212.467" y="684.305" fill="none" stroke="#A54B9B" stroke-miterlimit="10" width="42.52" height="53.191"/>
<rect x="169.947" y="684.305" fill="none" stroke="#A54B9B" stroke-miterlimit="10" width="42.521" height="53.191"/>
<rect x="297.508" y="684.305" fill="none" stroke="#A54B9B" stroke-miterlimit="10" width="42.518" height="53.191"/>
<rect x="254.986" y="684.305" fill="none" stroke="#A54B9B" stroke-miterlimit="10" width="42.521" height="53.191"/>
<rect x="340.158" y="684.305" fill="none" stroke="#A54B9B" stroke-miterlimit="10" width="42.521" height="53.191"/>
<rect x="42.648" y="741.298" fill="none" stroke="#A54B9B" stroke-miterlimit="10" width="42.521" height="53.19"/>
<rect x="0.128" y="741.298" fill="none" stroke="#A54B9B" stroke-miterlimit="10" width="42.52" height="53.19"/>
<rect x="127.689" y="741.298" fill="none" stroke="#A54B9B" stroke-miterlimit="10" width="42.521" height="53.19"/>
<rect x="85.169" y="741.298" fill="none" stroke="#A54B9B" stroke-miterlimit="10" width="42.52" height="53.19"/>
<rect x="212.467" y="741.298" fill="none" stroke="#A54B9B" stroke-miterlimit="10" width="42.52" height="53.19"/>
<rect x="169.947" y="741.298" fill="none" stroke="#A54B9B" stroke-miterlimit="10" width="42.521" height="53.19"/>
<rect x="297.508" y="741.298" fill="none" stroke="#A54B9B" stroke-miterlimit="10" width="42.518" height="53.19"/>
<rect x="254.986" y="741.298" fill="none" stroke="#A54B9B" stroke-miterlimit="10" width="42.521" height="53.19"/>
<rect x="340.158" y="741.298" fill="none" stroke="#A54B9B" stroke-miterlimit="10" width="42.521" height="53.19"/>
</svg>
