<?xml version="1.0" encoding="utf-8"?>
<!-- Generator: Adobe Illustrator 15.1.0, SVG Export Plug-In . SVG Version: 6.00 Build 0)  -->
<!DOCTYPE svg PUBLIC "-//W3C//DTD SVG 1.1//EN" "http://www.w3.org/Graphics/SVG/1.1/DTD/svg11.dtd">
<svg version="1.1" id="Layer_1" xmlns="http://www.w3.org/2000/svg" xmlns:xlink="http://www.w3.org/1999/xlink" x="0px" y="0px"
	 width="382.68px" height="794.488px" viewBox="0 0 382.68 794.488" enable-background="new 0 0 382.68 794.488"
	 xml:space="preserve">
<rect x="42.668" y="132.274" fill="none" stroke="#A54B9C" stroke-miterlimit="10" width="42.52" height="17.008"/>
<rect x="0.148" y="132.274" fill="none" stroke="#A54B9C" stroke-miterlimit="10" width="42.521" height="17.008"/>
<rect x="127.709" y="132.274" fill="none" stroke="#A54B9C" stroke-miterlimit="10" width="42.52" height="17.008"/>
<rect x="85.189" y="132.274" fill="none" stroke="#A54B9C" stroke-miterlimit="10" width="42.521" height="17.008"/>
<rect x="212.486" y="132.274" fill="none" stroke="#A54B9C" stroke-miterlimit="10" width="42.521" height="17.008"/>
<rect x="169.967" y="132.274" fill="none" stroke="#A54B9C" stroke-miterlimit="10" width="42.52" height="17.008"/>
<rect x="297.527" y="132.274" fill="none" stroke="#A54B9C" stroke-miterlimit="10" width="42.521" height="17.008"/>
<rect x="255.006" y="132.274" fill="none" stroke="#A54B9C" stroke-miterlimit="10" width="42.521" height="17.008"/>
<rect x="340.178" y="132.274" fill="none" stroke="#A54B9C" stroke-miterlimit="10" width="42.521" height="17.008"/>
<rect x="42.668" y="189.284" fill="none" stroke="#A54B9C" stroke-miterlimit="10" width="42.52" height="17.008"/>
<rect x="0.148" y="189.284" fill="none" stroke="#A54B9C" stroke-miterlimit="10" width="42.521" height="17.008"/>
<rect x="127.709" y="189.284" stroke="#A54B9C" stroke-miterlimit="10" width="42.52" height="17.008"/>
<rect x="85.189" y="189.284" fill="none" stroke="#A54B9C" stroke-miterlimit="10" width="42.521" height="17.008"/>
<rect x="212.486" y="189.284" fill="none" stroke="#A54B9C" stroke-miterlimit="10" width="42.521" height="17.008"/>
<rect x="169.967" y="189.284" stroke="#A54B9C" stroke-miterlimit="10" width="42.52" height="17.008"/>
<rect x="297.527" y="189.284" fill="none" stroke="#A54B9C" stroke-miterlimit="10" width="42.521" height="17.008"/>
<rect x="255.006" y="189.284" fill="none" stroke="#A54B9C" stroke-miterlimit="10" width="42.521" height="17.008"/>
<rect x="340.178" y="189.284" fill="none" stroke="#A54B9C" stroke-miterlimit="10" width="42.521" height="17.008"/>
<rect x="42.668" y="246.294" fill="none" stroke="#A54B9C" stroke-miterlimit="10" width="42.52" height="17.009"/>
<rect x="0.148" y="246.294" fill="none" stroke="#A54B9C" stroke-miterlimit="10" width="42.521" height="17.009"/>
<rect x="127.709" y="246.294" stroke="#A54B9C" stroke-miterlimit="10" width="42.52" height="17.009"/>
<rect x="85.189" y="246.294" fill="none" stroke="#A54B9C" stroke-miterlimit="10" width="42.521" height="17.009"/>
<rect x="212.486" y="246.294" fill="none" stroke="#A54B9C" stroke-miterlimit="10" width="42.521" height="17.009"/>
<rect x="169.967" y="246.294" stroke="#A54B9C" stroke-miterlimit="10" width="42.52" height="17.009"/>
<rect x="297.527" y="246.294" fill="none" stroke="#A54B9C" stroke-miterlimit="10" width="42.521" height="17.009"/>
<rect x="255.006" y="246.294" fill="none" stroke="#A54B9C" stroke-miterlimit="10" width="42.521" height="17.009"/>
<rect x="340.178" y="246.294" fill="none" stroke="#A54B9C" stroke-miterlimit="10" width="42.521" height="17.009"/>
<rect x="42.668" y="303.302" fill="none" stroke="#A54B9C" stroke-miterlimit="10" width="42.52" height="17.009"/>
<rect x="0.148" y="303.302" fill="none" stroke="#A54B9C" stroke-miterlimit="10" width="42.521" height="17.009"/>
<rect x="127.709" y="303.302" stroke="#A54B9C" stroke-miterlimit="10" width="42.52" height="17.009"/>
<rect x="85.189" y="303.302" fill="none" stroke="#A54B9C" stroke-miterlimit="10" width="42.521" height="17.009"/>
<rect x="212.486" y="303.302" fill="none" stroke="#A54B9C" stroke-miterlimit="10" width="42.521" height="17.009"/>
<rect x="169.967" y="303.302" stroke="#A54B9C" stroke-miterlimit="10" width="42.52" height="17.009"/>
<rect x="297.527" y="303.302" fill="none" stroke="#A54B9C" stroke-miterlimit="10" width="42.521" height="17.009"/>
<rect x="255.006" y="303.302" fill="none" stroke="#A54B9C" stroke-miterlimit="10" width="42.521" height="17.009"/>
<rect x="340.178" y="303.302" fill="none" stroke="#A54B9C" stroke-miterlimit="10" width="42.521" height="17.009"/>
<rect x="42.668" y="360.312" fill="none" stroke="#A54B9C" stroke-miterlimit="10" width="42.52" height="17.008"/>
<rect x="0.148" y="360.312" fill="none" stroke="#A54B9C" stroke-miterlimit="10" width="42.521" height="17.008"/>
<rect x="127.709" y="360.312" fill="none" stroke="#A54B9C" stroke-miterlimit="10" width="42.52" height="17.008"/>
<rect x="85.189" y="360.312" fill="none" stroke="#A54B9C" stroke-miterlimit="10" width="42.521" height="17.008"/>
<rect x="212.486" y="360.312" fill="none" stroke="#A54B9C" stroke-miterlimit="10" width="42.521" height="17.008"/>
<rect x="169.967" y="360.312" stroke="#A54B9C" stroke-miterlimit="10" width="42.52" height="17.008"/>
<rect x="297.527" y="360.312" fill="none" stroke="#A54B9C" stroke-miterlimit="10" width="42.521" height="17.008"/>
<rect x="255.006" y="360.312" fill="none" stroke="#A54B9C" stroke-miterlimit="10" width="42.521" height="17.008"/>
<rect x="340.178" y="360.312" fill="none" stroke="#A54B9C" stroke-miterlimit="10" width="42.521" height="17.008"/>
<rect x="42.668" y="417.322" fill="none" stroke="#A54B9C" stroke-miterlimit="10" width="42.52" height="17.008"/>
<rect x="0.148" y="417.322" fill="none" stroke="#A54B9C" stroke-miterlimit="10" width="42.521" height="17.008"/>
<rect x="127.709" y="417.322" fill="none" stroke="#A54B9C" stroke-miterlimit="10" width="42.52" height="17.008"/>
<rect x="85.189" y="417.322" fill="none" stroke="#A54B9C" stroke-miterlimit="10" width="42.521" height="17.008"/>
<rect x="212.486" y="417.322" stroke="#A54B9C" stroke-miterlimit="10" width="42.521" height="17.008"/>
<rect x="169.967" y="417.322" fill="none" stroke="#A54B9C" stroke-miterlimit="10" width="42.52" height="17.008"/>
<rect x="297.527" y="417.322" fill="none" stroke="#A54B9C" stroke-miterlimit="10" width="42.521" height="17.008"/>
<rect x="255.006" y="417.322" fill="none" stroke="#A54B9C" stroke-miterlimit="10" width="42.521" height="17.008"/>
<rect x="340.178" y="417.322" fill="none" stroke="#A54B9C" stroke-miterlimit="10" width="42.521" height="17.008"/>
<g>
	<rect x="42.668" y="474.334" fill="none" stroke="#A54B9C" stroke-miterlimit="10" width="42.52" height="17.009"/>
	<rect x="0.148" y="474.334" fill="none" stroke="#A54B9C" stroke-miterlimit="10" width="42.521" height="17.009"/>
	<rect x="127.709" y="474.334" fill="none" stroke="#A54B9C" stroke-miterlimit="10" width="42.52" height="17.009"/>
	<rect x="85.189" y="474.334" fill="none" stroke="#A54B9C" stroke-miterlimit="10" width="42.521" height="17.009"/>
	<rect x="212.486" y="474.334" fill="none" stroke="#A54B9C" stroke-miterlimit="10" width="42.521" height="17.009"/>
	<rect x="169.967" y="474.334" fill="none" stroke="#A54B9C" stroke-miterlimit="10" width="42.52" height="17.009"/>
	<rect x="297.527" y="474.334" fill="none" stroke="#A54B9C" stroke-miterlimit="10" width="42.521" height="17.009"/>
	<rect x="255.006" y="474.334" fill="none" stroke="#A54B9C" stroke-miterlimit="10" width="42.521" height="17.009"/>
	<rect x="340.178" y="474.334" fill="none" stroke="#A54B9C" stroke-miterlimit="10" width="42.521" height="17.009"/>
</g>
<g>
	<rect x="42.668" y="531.344" fill="none" stroke="#A54B9C" stroke-miterlimit="10" width="42.52" height="17.009"/>
	<rect x="0.148" y="531.344" fill="none" stroke="#A54B9C" stroke-miterlimit="10" width="42.521" height="17.009"/>
	<rect x="127.709" y="531.344" fill="none" stroke="#A54B9C" stroke-miterlimit="10" width="42.52" height="17.009"/>
	<rect x="85.189" y="531.344" fill="none" stroke="#A54B9C" stroke-miterlimit="10" width="42.521" height="17.009"/>
	<rect x="212.486" y="531.344" fill="none" stroke="#A54B9C" stroke-miterlimit="10" width="42.521" height="17.009"/>
	<rect x="169.967" y="531.344" fill="none" stroke="#A54B9C" stroke-miterlimit="10" width="42.52" height="17.009"/>
	<rect x="297.527" y="531.344" fill="none" stroke="#A54B9C" stroke-miterlimit="10" width="42.521" height="17.009"/>
	<rect x="255.006" y="531.344" fill="none" stroke="#A54B9C" stroke-miterlimit="10" width="42.521" height="17.009"/>
	<rect x="340.178" y="531.344" fill="none" stroke="#A54B9C" stroke-miterlimit="10" width="42.521" height="17.009"/>
</g>
<g>
	<rect x="42.668" y="588.352" fill="none" stroke="#A54B9C" stroke-miterlimit="10" width="42.52" height="17.009"/>
	<rect x="0.148" y="588.352" fill="none" stroke="#A54B9C" stroke-miterlimit="10" width="42.521" height="17.009"/>
	<rect x="127.709" y="588.352" fill="none" stroke="#A54B9C" stroke-miterlimit="10" width="42.52" height="17.009"/>
	<rect x="85.189" y="588.352" fill="none" stroke="#A54B9C" stroke-miterlimit="10" width="42.521" height="17.009"/>
	<rect x="212.486" y="588.352" fill="none" stroke="#A54B9C" stroke-miterlimit="10" width="42.521" height="17.009"/>
	<rect x="169.967" y="588.352" fill="none" stroke="#A54B9C" stroke-miterlimit="10" width="42.52" height="17.009"/>
	<rect x="297.527" y="588.352" fill="none" stroke="#A54B9C" stroke-miterlimit="10" width="42.521" height="17.009"/>
	<rect x="255.006" y="588.352" fill="none" stroke="#A54B9C" stroke-miterlimit="10" width="42.521" height="17.009"/>
	<rect x="340.178" y="588.352" fill="none" stroke="#A54B9C" stroke-miterlimit="10" width="42.521" height="17.009"/>
</g>
<g>
	<rect x="42.668" y="645.361" fill="none" stroke="#A54B9C" stroke-miterlimit="10" width="42.52" height="17.008"/>
	<rect x="0.148" y="645.361" fill="none" stroke="#A54B9C" stroke-miterlimit="10" width="42.521" height="17.008"/>
	<rect x="127.709" y="645.361" fill="none" stroke="#A54B9C" stroke-miterlimit="10" width="42.52" height="17.008"/>
	<rect x="85.189" y="645.361" fill="none" stroke="#A54B9C" stroke-miterlimit="10" width="42.521" height="17.008"/>
	<rect x="212.486" y="645.361" fill="none" stroke="#A54B9C" stroke-miterlimit="10" width="42.521" height="17.008"/>
	<rect x="169.967" y="645.361" fill="none" stroke="#A54B9C" stroke-miterlimit="10" width="42.52" height="17.008"/>
	<rect x="297.527" y="645.361" fill="none" stroke="#A54B9C" stroke-miterlimit="10" width="42.521" height="17.008"/>
	<rect x="255.006" y="645.361" fill="none" stroke="#A54B9C" stroke-miterlimit="10" width="42.521" height="17.008"/>
	<rect x="340.178" y="645.361" fill="none" stroke="#A54B9C" stroke-miterlimit="10" width="42.521" height="17.008"/>
</g>
<g>
	<rect x="42.668" y="702.371" fill="none" stroke="#A54B9C" stroke-miterlimit="10" width="42.52" height="17.008"/>
	<rect x="0.148" y="702.371" fill="none" stroke="#A54B9C" stroke-miterlimit="10" width="42.521" height="17.008"/>
	<rect x="127.709" y="702.371" fill="none" stroke="#A54B9C" stroke-miterlimit="10" width="42.52" height="17.008"/>
	<rect x="85.189" y="702.371" fill="none" stroke="#A54B9C" stroke-miterlimit="10" width="42.521" height="17.008"/>
	<rect x="212.486" y="702.371" fill="none" stroke="#A54B9C" stroke-miterlimit="10" width="42.521" height="17.008"/>
	<rect x="169.967" y="702.371" fill="none" stroke="#A54B9C" stroke-miterlimit="10" width="42.52" height="17.008"/>
	<rect x="297.527" y="702.371" fill="none" stroke="#A54B9C" stroke-miterlimit="10" width="42.521" height="17.008"/>
	<rect x="255.006" y="702.371" fill="none" stroke="#A54B9C" stroke-miterlimit="10" width="42.521" height="17.008"/>
	<rect x="340.178" y="702.371" fill="none" stroke="#A54B9C" stroke-miterlimit="10" width="42.521" height="17.008"/>
</g>
<g>
	<rect x="42.668" y="759.38" fill="none" stroke="#A54B9C" stroke-miterlimit="10" width="42.52" height="17.008"/>
	<rect x="0.148" y="759.38" fill="none" stroke="#A54B9C" stroke-miterlimit="10" width="42.521" height="17.008"/>
	<rect x="127.709" y="759.38" fill="none" stroke="#A54B9C" stroke-miterlimit="10" width="42.52" height="17.008"/>
	<rect x="85.189" y="759.38" fill="none" stroke="#A54B9C" stroke-miterlimit="10" width="42.521" height="17.008"/>
	<rect x="212.486" y="759.38" fill="none" stroke="#A54B9C" stroke-miterlimit="10" width="42.521" height="17.008"/>
	<rect x="169.967" y="759.38" fill="none" stroke="#A54B9C" stroke-miterlimit="10" width="42.52" height="17.008"/>
	<rect x="297.527" y="759.38" fill="none" stroke="#A54B9C" stroke-miterlimit="10" width="42.521" height="17.008"/>
	<rect x="255.006" y="759.38" fill="none" stroke="#A54B9C" stroke-miterlimit="10" width="42.521" height="17.008"/>
	<rect x="340.178" y="759.38" fill="none" stroke="#A54B9C" stroke-miterlimit="10" width="42.521" height="17.008"/>
</g>
<g>
	<rect x="42.585" y="18.101" fill="none" stroke="#A54B9C" stroke-miterlimit="10" width="42.52" height="17.008"/>
	<rect x="0.064" y="18.101" fill="none" stroke="#A54B9C" stroke-miterlimit="10" width="42.521" height="17.008"/>
	<rect x="127.626" y="18.101" fill="none" stroke="#A54B9C" stroke-miterlimit="10" width="42.52" height="17.008"/>
	<rect x="85.105" y="18.101" fill="none" stroke="#A54B9C" stroke-miterlimit="10" width="42.521" height="17.008"/>
	<rect x="212.402" y="18.101" fill="none" stroke="#A54B9C" stroke-miterlimit="10" width="42.521" height="17.008"/>
	<rect x="169.884" y="18.101" fill="none" stroke="#A54B9C" stroke-miterlimit="10" width="42.519" height="17.008"/>
	<rect x="297.443" y="18.101" fill="none" stroke="#A54B9C" stroke-miterlimit="10" width="42.521" height="17.008"/>
	<rect x="254.922" y="18.101" fill="none" stroke="#A54B9C" stroke-miterlimit="10" width="42.521" height="17.008"/>
	<rect x="340.094" y="18.101" fill="none" stroke="#A54B9C" stroke-miterlimit="10" width="42.521" height="17.008"/>
</g>
<g>
	<rect x="42.585" y="75.11" fill="none" stroke="#A54B9C" stroke-miterlimit="10" width="42.52" height="17.008"/>
	<rect x="0.064" y="75.11" fill="none" stroke="#A54B9C" stroke-miterlimit="10" width="42.521" height="17.008"/>
	<rect x="127.626" y="75.11" fill="none" stroke="#A54B9C" stroke-miterlimit="10" width="42.52" height="17.008"/>
	<rect x="85.105" y="75.11" fill="none" stroke="#A54B9C" stroke-miterlimit="10" width="42.521" height="17.008"/>
	<rect x="212.402" y="75.11" fill="none" stroke="#A54B9C" stroke-miterlimit="10" width="42.521" height="17.008"/>
	<rect x="169.884" y="75.11" fill="none" stroke="#A54B9C" stroke-miterlimit="10" width="42.519" height="17.008"/>
	<rect x="297.443" y="75.11" fill="none" stroke="#A54B9C" stroke-miterlimit="10" width="42.521" height="17.008"/>
	<rect x="254.922" y="75.11" fill="none" stroke="#A54B9C" stroke-miterlimit="10" width="42.521" height="17.008"/>
	<rect x="340.094" y="75.11" fill="none" stroke="#A54B9C" stroke-miterlimit="10" width="42.521" height="17.008"/>
</g>
</svg>
