<?xml version="1.0" encoding="utf-8"?>
<!-- Generator: Adobe Illustrator 15.0.2, SVG Export Plug-In . SVG Version: 6.00 Build 0)  -->
<!DOCTYPE svg PUBLIC "-//W3C//DTD SVG 1.1//EN" "http://www.w3.org/Graphics/SVG/1.1/DTD/svg11.dtd">
<svg version="1.1" id="Layer_1" xmlns="http://www.w3.org/2000/svg" xmlns:xlink="http://www.w3.org/1999/xlink" x="0px" y="0px"
	 width="382.68px" height="794.488px" viewBox="0 0 382.68 794.488" enable-background="new 0 0 382.68 794.488"
	 xml:space="preserve">
<rect x="42.648" y="114.415" fill="none" stroke="#A54B9B" stroke-miterlimit="10" width="42.521" height="53.189"/>
<rect x="0.131" y="114.415" fill="none" stroke="#A54B9B" stroke-miterlimit="10" width="42.518" height="53.189"/>
<rect x="127.689" y="114.415" fill="none" stroke="#A54B9B" stroke-miterlimit="10" width="42.521" height="53.189"/>
<rect x="85.171" y="114.415" fill="none" stroke="#A54B9B" stroke-miterlimit="10" width="42.519" height="53.189"/>
<rect x="212.467" y="114.415" fill="none" stroke="#A54B9B" stroke-miterlimit="10" width="42.521" height="53.189"/>
<rect x="169.948" y="114.415" fill="none" stroke="#A54B9B" stroke-miterlimit="10" width="42.521" height="53.189"/>
<rect x="297.508" y="114.415" fill="none" stroke="#A54B9B" stroke-miterlimit="10" width="42.521" height="53.189"/>
<rect x="254.988" y="114.415" fill="none" stroke="#A54B9B" stroke-miterlimit="10" width="42.521" height="53.189"/>
<rect x="340.16" y="114.415" fill="none" stroke="#A54B9B" stroke-miterlimit="10" width="42.52" height="53.189"/>
<rect x="42.648" y="189.495" fill="none" stroke="#A54B9B" stroke-miterlimit="10" width="42.521" height="17.008"/>
<rect x="0.131" y="189.495" fill="none" stroke="#A54B9B" stroke-miterlimit="10" width="42.518" height="17.008"/>
<rect x="127.689" y="189.495" fill="none" stroke="#A54B9B" stroke-miterlimit="10" width="42.521" height="17.008"/>
<rect x="85.171" y="189.495" stroke="#A54B9B" stroke-miterlimit="10" width="42.519" height="17.008"/>
<rect x="212.467" y="189.495" fill="none" stroke="#A54B9B" stroke-miterlimit="10" width="42.521" height="17.008"/>
<rect x="169.948" y="189.495" fill="none" stroke="#A54B9B" stroke-miterlimit="10" width="42.521" height="17.008"/>
<rect x="297.508" y="189.495" fill="none" stroke="#A54B9B" stroke-miterlimit="10" width="42.521" height="17.008"/>
<rect x="254.988" y="189.495" fill="none" stroke="#A54B9B" stroke-miterlimit="10" width="42.521" height="17.008"/>
<rect x="340.16" y="189.495" fill="none" stroke="#A54B9B" stroke-miterlimit="10" width="42.52" height="17.008"/>
<rect x="42.648" y="246.486" fill="none" stroke="#A54B9B" stroke-miterlimit="10" width="42.521" height="17.01"/>
<rect x="0.131" y="246.486" fill="none" stroke="#A54B9B" stroke-miterlimit="10" width="42.518" height="17.01"/>
<rect x="127.689" y="246.486" stroke="#A54B9B" stroke-miterlimit="10" width="42.521" height="17.01"/>
<rect x="85.171" y="246.486" fill="none" stroke="#A54B9B" stroke-miterlimit="10" width="42.519" height="17.01"/>
<rect x="212.467" y="246.486" fill="none" stroke="#A54B9B" stroke-miterlimit="10" width="42.521" height="17.01"/>
<rect x="169.948" y="246.486" fill="none" stroke="#A54B9B" stroke-miterlimit="10" width="42.521" height="17.01"/>
<rect x="297.508" y="246.486" fill="none" stroke="#A54B9B" stroke-miterlimit="10" width="42.521" height="17.01"/>
<rect x="254.988" y="246.486" fill="none" stroke="#A54B9B" stroke-miterlimit="10" width="42.521" height="17.01"/>
<rect x="340.16" y="246.486" fill="none" stroke="#A54B9B" stroke-miterlimit="10" width="42.52" height="17.01"/>
<rect x="42.648" y="303.475" fill="none" stroke="#A54B9B" stroke-miterlimit="10" width="42.521" height="17.008"/>
<rect x="0.131" y="303.475" fill="none" stroke="#A54B9B" stroke-miterlimit="10" width="42.518" height="17.008"/>
<rect x="127.689" y="303.475" fill="none" stroke="#A54B9B" stroke-miterlimit="10" width="42.521" height="17.008"/>
<rect x="85.171" y="303.475" fill="none" stroke="#A54B9B" stroke-miterlimit="10" width="42.519" height="17.008"/>
<rect x="212.467" y="303.475" fill="none" stroke="#A54B9B" stroke-miterlimit="10" width="42.521" height="17.008"/>
<rect x="169.948" y="303.475" stroke="#A54B9B" stroke-miterlimit="10" width="42.521" height="17.008"/>
<rect x="297.508" y="303.475" fill="none" stroke="#A54B9B" stroke-miterlimit="10" width="42.521" height="17.008"/>
<rect x="254.988" y="303.475" fill="none" stroke="#A54B9B" stroke-miterlimit="10" width="42.521" height="17.008"/>
<rect x="340.16" y="303.475" fill="none" stroke="#A54B9B" stroke-miterlimit="10" width="42.52" height="17.008"/>
<rect x="42.648" y="360.464" fill="none" stroke="#A54B9B" stroke-miterlimit="10" width="42.521" height="17.009"/>
<rect x="0.131" y="360.464" fill="none" stroke="#A54B9B" stroke-miterlimit="10" width="42.518" height="17.009"/>
<rect x="127.689" y="360.464" fill="none" stroke="#A54B9B" stroke-miterlimit="10" width="42.521" height="17.009"/>
<rect x="85.171" y="360.464" fill="none" stroke="#A54B9B" stroke-miterlimit="10" width="42.519" height="17.009"/>
<rect x="212.467" y="360.464" stroke="#A54B9B" stroke-miterlimit="10" width="42.521" height="17.009"/>
<rect x="169.948" y="360.464" fill="none" stroke="#A54B9B" stroke-miterlimit="10" width="42.521" height="17.009"/>
<rect x="297.508" y="360.464" fill="none" stroke="#A54B9B" stroke-miterlimit="10" width="42.521" height="17.009"/>
<rect x="254.988" y="360.464" fill="none" stroke="#A54B9B" stroke-miterlimit="10" width="42.521" height="17.009"/>
<rect x="340.16" y="360.464" fill="none" stroke="#A54B9B" stroke-miterlimit="10" width="42.52" height="17.009"/>
<rect x="42.648" y="417.452" fill="none" stroke="#A54B9B" stroke-miterlimit="10" width="42.521" height="17.011"/>
<rect x="0.131" y="417.452" fill="none" stroke="#A54B9B" stroke-miterlimit="10" width="42.518" height="17.011"/>
<rect x="127.689" y="417.452" fill="none" stroke="#A54B9B" stroke-miterlimit="10" width="42.521" height="17.011"/>
<rect x="85.171" y="417.452" fill="none" stroke="#A54B9B" stroke-miterlimit="10" width="42.519" height="17.011"/>
<rect x="212.467" y="417.452" fill="none" stroke="#A54B9B" stroke-miterlimit="10" width="42.521" height="17.011"/>
<rect x="169.948" y="417.452" fill="none" stroke="#A54B9B" stroke-miterlimit="10" width="42.521" height="17.011"/>
<rect x="297.508" y="417.452" fill="none" stroke="#A54B9B" stroke-miterlimit="10" width="42.521" height="17.011"/>
<rect x="254.988" y="417.452" stroke="#A54B9B" stroke-miterlimit="10" width="42.521" height="17.011"/>
<rect x="340.16" y="417.452" fill="none" stroke="#A54B9B" stroke-miterlimit="10" width="42.52" height="17.011"/>
<rect x="42.648" y="474.444" fill="none" stroke="#A54B9B" stroke-miterlimit="10" width="42.521" height="17.009"/>
<rect x="0.131" y="474.444" fill="none" stroke="#A54B9B" stroke-miterlimit="10" width="42.518" height="17.009"/>
<rect x="127.689" y="474.444" fill="none" stroke="#A54B9B" stroke-miterlimit="10" width="42.521" height="17.009"/>
<rect x="85.171" y="474.444" fill="none" stroke="#A54B9B" stroke-miterlimit="10" width="42.519" height="17.009"/>
<rect x="212.467" y="474.444" stroke="#A54B9B" stroke-miterlimit="10" width="42.521" height="17.009"/>
<rect x="169.948" y="474.444" fill="none" stroke="#A54B9B" stroke-miterlimit="10" width="42.521" height="17.009"/>
<rect x="297.508" y="474.444" fill="none" stroke="#A54B9B" stroke-miterlimit="10" width="42.521" height="17.009"/>
<rect x="254.988" y="474.444" fill="none" stroke="#A54B9B" stroke-miterlimit="10" width="42.521" height="17.009"/>
<rect x="340.16" y="474.444" fill="none" stroke="#A54B9B" stroke-miterlimit="10" width="42.52" height="17.009"/>
<rect x="42.648" y="531.432" fill="none" stroke="#A54B9B" stroke-miterlimit="10" width="42.521" height="17.009"/>
<rect x="0.131" y="531.432" fill="none" stroke="#A54B9B" stroke-miterlimit="10" width="42.518" height="17.009"/>
<rect x="127.689" y="531.432" fill="none" stroke="#A54B9B" stroke-miterlimit="10" width="42.521" height="17.009"/>
<rect x="85.171" y="531.432" fill="none" stroke="#A54B9B" stroke-miterlimit="10" width="42.519" height="17.009"/>
<rect x="212.467" y="531.432" fill="none" stroke="#A54B9B" stroke-miterlimit="10" width="42.521" height="17.009"/>
<rect x="169.948" y="531.432" stroke="#A54B9B" stroke-miterlimit="10" width="42.521" height="17.009"/>
<rect x="297.508" y="531.432" fill="none" stroke="#A54B9B" stroke-miterlimit="10" width="42.521" height="17.009"/>
<rect x="254.988" y="531.432" fill="none" stroke="#A54B9B" stroke-miterlimit="10" width="42.521" height="17.009"/>
<rect x="340.16" y="531.432" fill="none" stroke="#A54B9B" stroke-miterlimit="10" width="42.52" height="17.009"/>
<rect x="42.648" y="588.423" fill="none" stroke="#A54B9B" stroke-miterlimit="10" width="42.521" height="17.008"/>
<rect x="0.131" y="588.423" fill="none" stroke="#A54B9B" stroke-miterlimit="10" width="42.518" height="17.008"/>
<rect x="127.689" y="588.423" stroke="#A54B9B" stroke-miterlimit="10" width="42.521" height="17.008"/>
<rect x="85.171" y="588.423" fill="none" stroke="#A54B9B" stroke-miterlimit="10" width="42.519" height="17.008"/>
<rect x="212.467" y="588.423" fill="none" stroke="#A54B9B" stroke-miterlimit="10" width="42.521" height="17.008"/>
<rect x="169.948" y="588.423" fill="none" stroke="#A54B9B" stroke-miterlimit="10" width="42.521" height="17.008"/>
<rect x="297.508" y="588.423" fill="none" stroke="#A54B9B" stroke-miterlimit="10" width="42.521" height="17.008"/>
<rect x="254.988" y="588.423" fill="none" stroke="#A54B9B" stroke-miterlimit="10" width="42.521" height="17.008"/>
<rect x="340.16" y="588.423" fill="none" stroke="#A54B9B" stroke-miterlimit="10" width="42.52" height="17.008"/>
<rect x="42.648" y="645.415" fill="none" stroke="#A54B9B" stroke-miterlimit="10" width="42.521" height="17.008"/>
<rect x="0.131" y="645.415" fill="none" stroke="#A54B9B" stroke-miterlimit="10" width="42.518" height="17.008"/>
<rect x="127.689" y="645.415" fill="none" stroke="#A54B9B" stroke-miterlimit="10" width="42.521" height="17.008"/>
<rect x="85.171" y="645.415" stroke="#A54B9B" stroke-miterlimit="10" width="42.519" height="17.008"/>
<rect x="212.467" y="645.415" fill="none" stroke="#A54B9B" stroke-miterlimit="10" width="42.521" height="17.008"/>
<rect x="169.948" y="645.415" fill="none" stroke="#A54B9B" stroke-miterlimit="10" width="42.521" height="17.008"/>
<rect x="297.508" y="645.415" fill="none" stroke="#A54B9B" stroke-miterlimit="10" width="42.521" height="17.008"/>
<rect x="254.988" y="645.415" fill="none" stroke="#A54B9B" stroke-miterlimit="10" width="42.521" height="17.008"/>
<rect x="340.16" y="645.415" fill="none" stroke="#A54B9B" stroke-miterlimit="10" width="42.52" height="17.008"/>
<rect x="42.648" y="684.31" fill="none" stroke="#A54B9B" stroke-miterlimit="10" width="42.521" height="53.191"/>
<rect x="0.131" y="684.31" fill="none" stroke="#A54B9B" stroke-miterlimit="10" width="42.518" height="53.191"/>
<rect x="127.689" y="684.31" fill="none" stroke="#A54B9B" stroke-miterlimit="10" width="42.521" height="53.191"/>
<rect x="85.171" y="684.31" fill="none" stroke="#A54B9B" stroke-miterlimit="10" width="42.519" height="53.191"/>
<rect x="212.467" y="684.31" fill="none" stroke="#A54B9B" stroke-miterlimit="10" width="42.521" height="53.191"/>
<rect x="169.948" y="684.31" fill="none" stroke="#A54B9B" stroke-miterlimit="10" width="42.521" height="53.191"/>
<rect x="297.508" y="684.31" fill="none" stroke="#A54B9B" stroke-miterlimit="10" width="42.521" height="53.191"/>
<rect x="254.988" y="684.31" fill="none" stroke="#A54B9B" stroke-miterlimit="10" width="42.521" height="53.191"/>
<rect x="340.16" y="684.31" fill="none" stroke="#A54B9B" stroke-miterlimit="10" width="42.52" height="53.191"/>
<rect x="42.648" y="741.301" fill="none" stroke="#A54B9B" stroke-miterlimit="10" width="42.521" height="53.188"/>
<rect x="0.131" y="741.301" fill="none" stroke="#A54B9B" stroke-miterlimit="10" width="42.518" height="53.188"/>
<rect x="127.689" y="741.301" fill="none" stroke="#A54B9B" stroke-miterlimit="10" width="42.521" height="53.188"/>
<rect x="85.171" y="741.301" fill="none" stroke="#A54B9B" stroke-miterlimit="10" width="42.519" height="53.188"/>
<rect x="212.467" y="741.301" fill="none" stroke="#A54B9B" stroke-miterlimit="10" width="42.521" height="53.188"/>
<rect x="169.948" y="741.301" fill="none" stroke="#A54B9B" stroke-miterlimit="10" width="42.521" height="53.188"/>
<rect x="297.508" y="741.301" fill="none" stroke="#A54B9B" stroke-miterlimit="10" width="42.521" height="53.188"/>
<rect x="254.988" y="741.301" fill="none" stroke="#A54B9B" stroke-miterlimit="10" width="42.521" height="53.188"/>
<rect x="340.16" y="741.301" fill="none" stroke="#A54B9B" stroke-miterlimit="10" width="42.52" height="53.188"/>
</svg>
