<?xml version="1.0" encoding="utf-8"?>
<!-- Generator: Adobe Illustrator 15.1.0, SVG Export Plug-In . SVG Version: 6.00 Build 0)  -->
<!DOCTYPE svg PUBLIC "-//W3C//DTD SVG 1.1//EN" "http://www.w3.org/Graphics/SVG/1.1/DTD/svg11.dtd">
<svg version="1.1" id="Layer_1" xmlns="http://www.w3.org/2000/svg" xmlns:xlink="http://www.w3.org/1999/xlink" x="0px" y="0px"
	 width="382.68px" height="794.488px" viewBox="0 0 382.68 794.488" enable-background="new 0 0 382.68 794.488"
	 xml:space="preserve">
<g>
	<rect x="297.64" y="684.299" fill="none" stroke="#A54B9B" stroke-miterlimit="10" width="42.521" height="53.189"/>
	<rect x="340.159" y="684.299" fill="none" stroke="#A54B9B" stroke-miterlimit="10" width="42.521" height="53.189"/>
	<rect x="212.599" y="684.299" fill="none" stroke="#A54B9B" stroke-miterlimit="10" width="42.521" height="53.189"/>
	<rect x="255.118" y="684.299" fill="none" stroke="#A54B9B" stroke-miterlimit="10" width="42.521" height="53.189"/>
	<rect x="127.822" y="684.299" fill="none" stroke="#A54B9B" stroke-miterlimit="10" width="42.52" height="53.189"/>
	<rect x="170.341" y="684.299" fill="none" stroke="#A54B9B" stroke-miterlimit="10" width="42.521" height="53.189"/>
	<rect x="42.78" y="684.299" fill="none" stroke="#A54B9B" stroke-miterlimit="10" width="42.521" height="53.189"/>
	<rect x="85.301" y="684.299" fill="none" stroke="#A54B9B" stroke-miterlimit="10" width="42.521" height="53.189"/>
	<rect x="0.129" y="684.298" fill="none" stroke="#A54B9B" stroke-miterlimit="10" width="42.521" height="53.19"/>
	<rect x="297.64" y="645.4" fill="none" stroke="#A54B9B" stroke-miterlimit="10" width="42.521" height="17.008"/>
	<rect x="340.16" y="645.4" fill="none" stroke="#A54B9B" stroke-miterlimit="10" width="42.521" height="17.008"/>
	<rect x="212.599" y="645.4" fill="none" stroke="#A54B9B" stroke-miterlimit="10" width="42.521" height="17.008"/>
	<rect x="255.118" y="645.4" fill="none" stroke="#A54B9B" stroke-miterlimit="10" width="42.521" height="17.008"/>
	<rect x="127.822" y="645.4" fill="none" stroke="#A54B9B" stroke-miterlimit="10" width="42.52" height="17.008"/>
	<rect x="170.341" y="645.4" stroke="#A54B9B" stroke-miterlimit="10" width="42.521" height="17.008"/>
	<rect x="42.78" y="645.4" fill="none" stroke="#A54B9B" stroke-miterlimit="10" width="42.521" height="17.008"/>
	<rect x="85.301" y="645.4" fill="none" stroke="#A54B9B" stroke-miterlimit="10" width="42.521" height="17.008"/>
	<rect x="0.129" y="645.4" fill="none" stroke="#A54B9B" stroke-miterlimit="10" width="42.521" height="17.008"/>
	<rect x="297.64" y="588.408" fill="none" stroke="#A54B9B" stroke-miterlimit="10" width="42.521" height="17.01"/>
	<rect x="340.16" y="588.408" fill="none" stroke="#A54B9B" stroke-miterlimit="10" width="42.52" height="17.01"/>
	<rect x="212.599" y="588.408" stroke="#A54B9B" stroke-miterlimit="10" width="42.521" height="17.01"/>
	<rect x="255.119" y="588.408" fill="none" stroke="#A54B9B" stroke-miterlimit="10" width="42.521" height="17.01"/>
	<rect x="127.822" y="588.408" stroke="#A54B9B" stroke-miterlimit="10" width="42.52" height="17.009"/>
	<rect x="170.341" y="588.409" stroke="#A54B9B" stroke-miterlimit="10" width="42.521" height="17.009"/>
	<rect x="42.78" y="588.408" fill="none" stroke="#A54B9B" stroke-miterlimit="10" width="42.521" height="17.009"/>
	<rect x="85.301" y="588.408" fill="none" stroke="#A54B9B" stroke-miterlimit="10" width="42.521" height="17.009"/>
	<rect x="0.129" y="588.408" fill="none" stroke="#A54B9B" stroke-miterlimit="10" width="42.521" height="17.009"/>
	<rect x="297.64" y="531.42" fill="none" stroke="#A54B9B" stroke-miterlimit="10" width="42.521" height="17.008"/>
	<rect x="340.16" y="531.42" fill="none" stroke="#A54B9B" stroke-miterlimit="10" width="42.52" height="17.008"/>
	<rect x="212.599" y="531.42" stroke="#A54B9B" stroke-miterlimit="10" width="42.521" height="17.008"/>
	<rect x="255.119" y="531.42" fill="none" stroke="#A54B9B" stroke-miterlimit="10" width="42.52" height="17.008"/>
	<rect x="127.822" y="531.42" stroke="#A54B9B" stroke-miterlimit="10" width="42.52" height="17.008"/>
	<rect x="170.341" y="531.42" stroke="#A54B9B" stroke-miterlimit="10" width="42.521" height="17.008"/>
	<rect x="42.78" y="531.42" fill="none" stroke="#A54B9B" stroke-miterlimit="10" width="42.521" height="17.008"/>
	<rect x="85.301" y="531.42" fill="none" stroke="#A54B9B" stroke-miterlimit="10" width="42.521" height="17.008"/>
	<rect x="0.129" y="531.42" fill="none" stroke="#A54B9B" stroke-miterlimit="10" width="42.521" height="17.008"/>
	<rect x="297.64" y="474.432" fill="none" stroke="#A54B9B" stroke-miterlimit="10" width="42.521" height="17.008"/>
	<rect x="340.16" y="474.432" fill="none" stroke="#A54B9B" stroke-miterlimit="10" width="42.52" height="17.008"/>
	<rect x="212.599" y="474.432" stroke="#A54B9B" stroke-miterlimit="10" width="42.521" height="17.008"/>
	<rect x="255.119" y="474.432" fill="none" stroke="#A54B9B" stroke-miterlimit="10" width="42.52" height="17.008"/>
	<rect x="127.822" y="474.431" stroke="#A54B9B" stroke-miterlimit="10" width="42.52" height="17.009"/>
	<rect x="170.341" y="474.431" stroke="#A54B9B" stroke-miterlimit="10" width="42.521" height="17.009"/>
	<rect x="42.78" y="474.431" fill="none" stroke="#A54B9B" stroke-miterlimit="10" width="42.521" height="17.009"/>
	<rect x="85.301" y="474.431" fill="none" stroke="#A54B9B" stroke-miterlimit="10" width="42.521" height="17.009"/>
	<rect x="0.129" y="474.431" fill="none" stroke="#A54B9B" stroke-miterlimit="10" width="42.521" height="17.009"/>
	<rect x="297.64" y="417.441" fill="none" stroke="#A54B9B" stroke-miterlimit="10" width="42.521" height="17.009"/>
	<rect x="340.16" y="417.441" fill="none" stroke="#A54B9B" stroke-miterlimit="10" width="42.52" height="17.009"/>
	<rect x="212.599" y="417.441" fill="none" stroke="#A54B9B" stroke-miterlimit="10" width="42.521" height="17.009"/>
	<rect x="255.119" y="417.441" fill="none" stroke="#A54B9B" stroke-miterlimit="10" width="42.52" height="17.009"/>
	<rect x="127.822" y="417.441" fill="none" stroke="#A54B9B" stroke-miterlimit="10" width="42.52" height="17.009"/>
	<rect x="170.341" y="417.441" stroke="#A54B9B" stroke-miterlimit="10" width="42.521" height="17.009"/>
	<rect x="42.78" y="417.441" fill="none" stroke="#A54B9B" stroke-miterlimit="10" width="42.521" height="17.009"/>
	<rect x="85.301" y="417.441" fill="none" stroke="#A54B9B" stroke-miterlimit="10" width="42.521" height="17.009"/>
	<rect x="0.129" y="417.441" fill="none" stroke="#A54B9B" stroke-miterlimit="10" width="42.521" height="17.009"/>
	<rect x="297.64" y="360.45" fill="none" stroke="#A54B9B" stroke-miterlimit="10" width="42.521" height="17.009"/>
	<rect x="340.16" y="360.45" fill="none" stroke="#A54B9B" stroke-miterlimit="10" width="42.52" height="17.009"/>
	<rect x="212.599" y="360.45" fill="none" stroke="#A54B9B" stroke-miterlimit="10" width="42.521" height="17.009"/>
	<rect x="255.119" y="360.45" fill="none" stroke="#A54B9B" stroke-miterlimit="10" width="42.52" height="17.009"/>
	<rect x="127.822" y="360.45" fill="none" stroke="#A54B9B" stroke-miterlimit="10" width="42.52" height="17.009"/>
	<rect x="170.341" y="360.45" stroke="#A54B9B" stroke-miterlimit="10" width="42.521" height="17.009"/>
	<rect x="42.78" y="360.45" fill="none" stroke="#A54B9B" stroke-miterlimit="10" width="42.521" height="17.009"/>
	<rect x="85.301" y="360.45" fill="none" stroke="#A54B9B" stroke-miterlimit="10" width="42.521" height="17.009"/>
	<rect x="0.129" y="360.45" fill="none" stroke="#A54B9B" stroke-miterlimit="10" width="42.521" height="17.009"/>
	<rect x="297.64" y="285.373" fill="none" stroke="#A54B9B" stroke-miterlimit="10" width="42.521" height="53.189"/>
	<rect x="340.16" y="285.373" fill="none" stroke="#A54B9B" stroke-miterlimit="10" width="42.52" height="53.189"/>
	<rect x="212.599" y="285.373" fill="none" stroke="#A54B9B" stroke-miterlimit="10" width="42.521" height="53.189"/>
	<rect x="255.119" y="285.373" fill="none" stroke="#A54B9B" stroke-miterlimit="10" width="42.52" height="53.189"/>
	<rect x="127.822" y="285.373" fill="none" stroke="#A54B9B" stroke-miterlimit="10" width="42.52" height="53.189"/>
	<rect x="170.341" y="285.373" fill="none" stroke="#A54B9B" stroke-miterlimit="10" width="42.521" height="53.189"/>
	<rect x="42.78" y="285.373" fill="none" stroke="#A54B9B" stroke-miterlimit="10" width="42.521" height="53.189"/>
	<rect x="85.301" y="285.373" fill="none" stroke="#A54B9B" stroke-miterlimit="10" width="42.521" height="53.189"/>
	<rect x="0.129" y="285.373" fill="none" stroke="#A54B9B" stroke-miterlimit="10" width="42.521" height="53.189"/>
	<rect x="297.64" y="246.474" fill="none" stroke="#A54B9B" stroke-miterlimit="10" width="42.521" height="17.008"/>
	<rect x="340.16" y="246.474" fill="none" stroke="#A54B9B" stroke-miterlimit="10" width="42.52" height="17.008"/>
	<rect x="212.599" y="246.474" fill="none" stroke="#A54B9B" stroke-miterlimit="10" width="42.521" height="17.008"/>
	<rect x="255.119" y="246.474" fill="none" stroke="#A54B9B" stroke-miterlimit="10" width="42.52" height="17.008"/>
	<rect x="127.822" y="246.474" fill="none" stroke="#A54B9B" stroke-miterlimit="10" width="42.52" height="17.008"/>
	<rect x="170.341" y="246.474" stroke="#A54B9B" stroke-miterlimit="10" width="42.521" height="17.008"/>
	<rect x="42.78" y="246.474" fill="none" stroke="#A54B9B" stroke-miterlimit="10" width="42.521" height="17.008"/>
	<rect x="85.301" y="246.474" fill="none" stroke="#A54B9B" stroke-miterlimit="10" width="42.521" height="17.008"/>
	<rect x="0.129" y="246.474" fill="none" stroke="#A54B9B" stroke-miterlimit="10" width="42.521" height="17.008"/>
	<rect x="297.64" y="189.481" fill="none" stroke="#A54B9B" stroke-miterlimit="10" width="42.521" height="17.008"/>
	<rect x="340.16" y="189.481" fill="none" stroke="#A54B9B" stroke-miterlimit="10" width="42.52" height="17.008"/>
	<rect x="212.599" y="189.481" fill="none" stroke="#A54B9B" stroke-miterlimit="10" width="42.521" height="17.008"/>
	<rect x="255.119" y="189.481" fill="none" stroke="#A54B9B" stroke-miterlimit="10" width="42.52" height="17.008"/>
	<rect x="127.822" y="189.481" fill="none" stroke="#A54B9B" stroke-miterlimit="10" width="42.52" height="17.008"/>
	<rect x="170.341" y="189.481" stroke="#A54B9B" stroke-miterlimit="10" width="42.521" height="17.008"/>
	<rect x="42.78" y="189.481" fill="none" stroke="#A54B9B" stroke-miterlimit="10" width="42.521" height="17.008"/>
	<rect x="85.301" y="189.481" fill="none" stroke="#A54B9B" stroke-miterlimit="10" width="42.521" height="17.008"/>
	<rect x="0.129" y="189.481" fill="none" stroke="#A54B9B" stroke-miterlimit="10" width="42.521" height="17.008"/>
	<rect x="297.64" y="114.402" fill="none" stroke="#A54B9B" stroke-miterlimit="10" width="42.521" height="53.19"/>
	<rect x="340.16" y="114.402" fill="none" stroke="#A54B9B" stroke-miterlimit="10" width="42.52" height="53.19"/>
	<rect x="212.599" y="114.402" fill="none" stroke="#A54B9B" stroke-miterlimit="10" width="42.521" height="53.19"/>
	<rect x="255.119" y="114.402" fill="none" stroke="#A54B9B" stroke-miterlimit="10" width="42.52" height="53.19"/>
	<rect x="127.822" y="114.402" fill="none" stroke="#A54B9B" stroke-miterlimit="10" width="42.52" height="53.19"/>
	<rect x="170.341" y="114.402" fill="none" stroke="#A54B9B" stroke-miterlimit="10" width="42.521" height="53.19"/>
	<rect x="42.78" y="114.402" fill="none" stroke="#A54B9B" stroke-miterlimit="10" width="42.521" height="53.19"/>
	<rect x="85.301" y="114.402" fill="none" stroke="#A54B9B" stroke-miterlimit="10" width="42.521" height="53.19"/>
	<rect x="0.129" y="114.402" fill="none" stroke="#A54B9B" stroke-miterlimit="10" width="42.521" height="53.19"/>
	<rect x="297.64" y="57.414" fill="none" stroke="#A54B9B" stroke-miterlimit="10" width="42.521" height="53.189"/>
	<rect x="340.16" y="57.414" fill="none" stroke="#A54B9B" stroke-miterlimit="10" width="42.52" height="53.189"/>
	<rect x="212.599" y="57.414" fill="none" stroke="#A54B9B" stroke-miterlimit="10" width="42.521" height="53.189"/>
	<rect x="255.119" y="57.414" fill="none" stroke="#A54B9B" stroke-miterlimit="10" width="42.52" height="53.189"/>
	<rect x="127.822" y="57.414" fill="none" stroke="#A54B9B" stroke-miterlimit="10" width="42.52" height="53.189"/>
	<rect x="170.341" y="57.414" fill="none" stroke="#A54B9B" stroke-miterlimit="10" width="42.521" height="53.189"/>
	<rect x="42.78" y="57.414" fill="none" stroke="#A54B9B" stroke-miterlimit="10" width="42.521" height="53.189"/>
	<rect x="85.301" y="57.414" fill="none" stroke="#A54B9B" stroke-miterlimit="10" width="42.521" height="53.189"/>
	<rect x="0.129" y="57.414" fill="none" stroke="#A54B9B" stroke-miterlimit="10" width="42.521" height="53.189"/>
</g>
</svg>
