<?xml version="1.0" encoding="utf-8"?>
<!-- Generator: Adobe Illustrator 15.0.2, SVG Export Plug-In . SVG Version: 6.00 Build 0)  -->
<!DOCTYPE svg PUBLIC "-//W3C//DTD SVG 1.1//EN" "http://www.w3.org/Graphics/SVG/1.1/DTD/svg11.dtd">
<svg version="1.1" id="Layer_1" xmlns="http://www.w3.org/2000/svg" xmlns:xlink="http://www.w3.org/1999/xlink" x="0px" y="0px"
	 width="382.68px" height="794.488px" viewBox="0 0 382.68 794.488" enable-background="new 0 0 382.68 794.488"
	 xml:space="preserve">
<rect x="42.52" y="114.173" fill="none" stroke="#A54B9C" stroke-miterlimit="10" width="42.521" height="53.21"/>
<rect x="0" y="114.173" fill="none" stroke="#A54B9C" stroke-miterlimit="10" width="42.52" height="53.21"/>
<rect x="127.561" y="114.173" fill="none" stroke="#A54B9C" stroke-miterlimit="10" width="42.521" height="53.21"/>
<rect x="85.04" y="114.173" fill="none" stroke="#A54B9C" stroke-miterlimit="10" width="42.521" height="53.21"/>
<rect x="212.337" y="114.173" fill="none" stroke="#A54B9C" stroke-miterlimit="10" width="42.521" height="53.21"/>
<rect x="169.818" y="114.173" fill="none" stroke="#A54B9C" stroke-miterlimit="10" width="42.521" height="53.21"/>
<rect x="297.378" y="114.173" fill="none" stroke="#A54B9C" stroke-miterlimit="10" width="42.521" height="53.21"/>
<rect x="254.858" y="114.173" fill="none" stroke="#A54B9C" stroke-miterlimit="10" width="42.521" height="53.21"/>
<rect x="340.029" y="114.173" fill="none" stroke="#A54B9C" stroke-miterlimit="10" width="42.521" height="53.21"/>
<g>
	<rect x="42.52" y="189.284" fill="none" stroke="#A54B9C" stroke-miterlimit="10" width="42.521" height="17.008"/>
	<rect x="0" y="189.284" fill="none" stroke="#A54B9C" stroke-miterlimit="10" width="42.52" height="17.008"/>
	<rect x="127.561" y="189.284" stroke="#A54B9C" stroke-miterlimit="10" width="42.521" height="17.008"/>
	<rect x="85.04" y="189.284" stroke="#A54B9C" stroke-miterlimit="10" width="42.521" height="17.008"/>
	<rect x="212.337" y="189.284" stroke="#A54B9C" stroke-miterlimit="10" width="42.521" height="17.008"/>
	<rect x="169.818" y="189.284" stroke="#A54B9C" stroke-miterlimit="10" width="42.521" height="17.008"/>
	<rect x="297.378" y="189.284" fill="none" stroke="#A54B9C" stroke-miterlimit="10" width="42.521" height="17.008"/>
	<rect x="254.858" y="189.284" stroke="#A54B9C" stroke-miterlimit="10" width="42.521" height="17.008"/>
	<rect x="340.029" y="189.284" fill="none" stroke="#A54B9C" stroke-miterlimit="10" width="42.521" height="17.008"/>
</g>
<g>
	<rect x="42.52" y="246.294" stroke="#A54B9C" stroke-miterlimit="10" width="42.521" height="17.008"/>
	<rect x="0" y="246.294" fill="none" stroke="#A54B9C" stroke-miterlimit="10" width="42.52" height="17.008"/>
	<rect x="127.561" y="246.294" fill="none" stroke="#A54B9C" stroke-miterlimit="10" width="42.521" height="17.008"/>
	<rect x="85.04" y="246.294" fill="none" stroke="#A54B9C" stroke-miterlimit="10" width="42.521" height="17.008"/>
	<rect x="212.337" y="246.294" fill="none" stroke="#A54B9C" stroke-miterlimit="10" width="42.521" height="17.008"/>
	<rect x="169.818" y="246.294" fill="none" stroke="#A54B9C" stroke-miterlimit="10" width="42.521" height="17.008"/>
	<rect x="297.378" y="246.294" stroke="#A54B9C" stroke-miterlimit="10" width="42.521" height="17.008"/>
	<rect x="254.858" y="246.294" fill="none" stroke="#A54B9C" stroke-miterlimit="10" width="42.521" height="17.008"/>
	<rect x="340.029" y="246.294" fill="none" stroke="#A54B9C" stroke-miterlimit="10" width="42.521" height="17.008"/>
</g>
<g>
	<rect x="42.52" y="303.302" stroke="#A54B9C" stroke-miterlimit="10" width="42.521" height="17.009"/>
	<rect x="0" y="303.302" fill="none" stroke="#A54B9C" stroke-miterlimit="10" width="42.52" height="17.009"/>
	<rect x="127.561" y="303.302" fill="none" stroke="#A54B9C" stroke-miterlimit="10" width="42.521" height="17.009"/>
	<rect x="85.04" y="303.302" fill="none" stroke="#A54B9C" stroke-miterlimit="10" width="42.521" height="17.009"/>
	<rect x="212.337" y="303.302" fill="none" stroke="#A54B9C" stroke-miterlimit="10" width="42.521" height="17.009"/>
	<rect x="169.818" y="303.302" fill="none" stroke="#A54B9C" stroke-miterlimit="10" width="42.521" height="17.009"/>
	<rect x="297.378" y="303.302" stroke="#A54B9C" stroke-miterlimit="10" width="42.521" height="17.009"/>
	<rect x="254.858" y="303.302" fill="none" stroke="#A54B9C" stroke-miterlimit="10" width="42.521" height="17.009"/>
	<rect x="340.029" y="303.302" fill="none" stroke="#A54B9C" stroke-miterlimit="10" width="42.521" height="17.009"/>
</g>
<g>
	<rect x="42.52" y="360.312" stroke="#A54B9C" stroke-miterlimit="10" width="42.521" height="17.008"/>
	<rect x="0" y="360.312" fill="none" stroke="#A54B9C" stroke-miterlimit="10" width="42.52" height="17.008"/>
	<rect x="127.561" y="360.312" fill="none" stroke="#A54B9C" stroke-miterlimit="10" width="42.521" height="17.008"/>
	<rect x="85.04" y="360.312" fill="none" stroke="#A54B9C" stroke-miterlimit="10" width="42.521" height="17.008"/>
	<rect x="212.337" y="360.312" fill="none" stroke="#A54B9C" stroke-miterlimit="10" width="42.521" height="17.008"/>
	<rect x="169.818" y="360.312" fill="none" stroke="#A54B9C" stroke-miterlimit="10" width="42.521" height="17.008"/>
	<rect x="297.378" y="360.312" stroke="#A54B9C" stroke-miterlimit="10" width="42.521" height="17.008"/>
	<rect x="254.858" y="360.312" fill="none" stroke="#A54B9C" stroke-miterlimit="10" width="42.521" height="17.008"/>
	<rect x="340.029" y="360.312" fill="none" stroke="#A54B9C" stroke-miterlimit="10" width="42.521" height="17.008"/>
</g>
<g>
	<rect x="42.52" y="417.322" fill="none" stroke="#A54B9C" stroke-miterlimit="10" width="42.521" height="17.008"/>
	<rect x="0" y="417.322" fill="none" stroke="#A54B9C" stroke-miterlimit="10" width="42.52" height="17.008"/>
	<rect x="127.561" y="417.322" stroke="#A54B9C" stroke-miterlimit="10" width="42.521" height="17.008"/>
	<rect x="85.04" y="417.322" stroke="#A54B9C" stroke-miterlimit="10" width="42.521" height="17.008"/>
	<rect x="212.337" y="417.322" stroke="#A54B9C" stroke-miterlimit="10" width="42.521" height="17.008"/>
	<rect x="169.818" y="417.322" stroke="#A54B9C" stroke-miterlimit="10" width="42.521" height="17.008"/>
	<rect x="297.378" y="417.322" fill="none" stroke="#A54B9C" stroke-miterlimit="10" width="42.521" height="17.008"/>
	<rect x="254.858" y="417.322" stroke="#A54B9C" stroke-miterlimit="10" width="42.521" height="17.008"/>
	<rect x="340.029" y="417.322" fill="none" stroke="#A54B9C" stroke-miterlimit="10" width="42.521" height="17.008"/>
</g>
<g>
	<rect x="42.52" y="474.333" stroke="#A54B9C" stroke-miterlimit="10" width="42.521" height="17.009"/>
	<rect x="0" y="474.333" fill="none" stroke="#A54B9C" stroke-miterlimit="10" width="42.52" height="17.009"/>
	<rect x="127.561" y="474.333" fill="none" stroke="#A54B9C" stroke-miterlimit="10" width="42.521" height="17.009"/>
	<rect x="85.04" y="474.333" fill="none" stroke="#A54B9C" stroke-miterlimit="10" width="42.521" height="17.009"/>
	<rect x="212.337" y="474.333" fill="none" stroke="#A54B9C" stroke-miterlimit="10" width="42.521" height="17.009"/>
	<rect x="169.818" y="474.333" fill="none" stroke="#A54B9C" stroke-miterlimit="10" width="42.521" height="17.009"/>
	<rect x="297.378" y="474.333" stroke="#A54B9C" stroke-miterlimit="10" width="42.521" height="17.009"/>
	<rect x="254.858" y="474.333" fill="none" stroke="#A54B9C" stroke-miterlimit="10" width="42.521" height="17.009"/>
	<rect x="340.029" y="474.333" fill="none" stroke="#A54B9C" stroke-miterlimit="10" width="42.521" height="17.009"/>
</g>
<g>
	<rect x="42.52" y="531.344" stroke="#A54B9C" stroke-miterlimit="10" width="42.521" height="17.009"/>
	<rect x="0" y="531.344" fill="none" stroke="#A54B9C" stroke-miterlimit="10" width="42.52" height="17.009"/>
	<rect x="127.561" y="531.344" fill="none" stroke="#A54B9C" stroke-miterlimit="10" width="42.521" height="17.009"/>
	<rect x="85.04" y="531.344" fill="none" stroke="#A54B9C" stroke-miterlimit="10" width="42.521" height="17.009"/>
	<rect x="212.337" y="531.344" fill="none" stroke="#A54B9C" stroke-miterlimit="10" width="42.521" height="17.009"/>
	<rect x="169.818" y="531.344" fill="none" stroke="#A54B9C" stroke-miterlimit="10" width="42.521" height="17.009"/>
	<rect x="297.378" y="531.344" stroke="#A54B9C" stroke-miterlimit="10" width="42.521" height="17.009"/>
	<rect x="254.858" y="531.344" fill="none" stroke="#A54B9C" stroke-miterlimit="10" width="42.521" height="17.009"/>
	<rect x="340.029" y="531.344" fill="none" stroke="#A54B9C" stroke-miterlimit="10" width="42.521" height="17.009"/>
</g>
<g>
	<rect x="42.52" y="588.352" stroke="#A54B9C" stroke-miterlimit="10" width="42.521" height="17.008"/>
	<rect x="0" y="588.352" fill="none" stroke="#A54B9C" stroke-miterlimit="10" width="42.52" height="17.008"/>
	<rect x="127.561" y="588.352" fill="none" stroke="#A54B9C" stroke-miterlimit="10" width="42.521" height="17.008"/>
	<rect x="85.04" y="588.352" fill="none" stroke="#A54B9C" stroke-miterlimit="10" width="42.521" height="17.008"/>
	<rect x="212.337" y="588.352" fill="none" stroke="#A54B9C" stroke-miterlimit="10" width="42.521" height="17.008"/>
	<rect x="169.818" y="588.352" fill="none" stroke="#A54B9C" stroke-miterlimit="10" width="42.521" height="17.008"/>
	<rect x="297.378" y="588.352" stroke="#A54B9C" stroke-miterlimit="10" width="42.521" height="17.008"/>
	<rect x="254.858" y="588.352" fill="none" stroke="#A54B9C" stroke-miterlimit="10" width="42.521" height="17.008"/>
	<rect x="340.029" y="588.352" fill="none" stroke="#A54B9C" stroke-miterlimit="10" width="42.521" height="17.008"/>
</g>
<g>
	<rect x="42.52" y="645.361" fill="none" stroke="#A54B9C" stroke-miterlimit="10" width="42.521" height="17.008"/>
	<rect x="0" y="645.361" fill="none" stroke="#A54B9C" stroke-miterlimit="10" width="42.52" height="17.008"/>
	<rect x="127.561" y="645.361" stroke="#A54B9C" stroke-miterlimit="10" width="42.521" height="17.008"/>
	<rect x="85.04" y="645.361" stroke="#A54B9C" stroke-miterlimit="10" width="42.521" height="17.008"/>
	<rect x="212.337" y="645.361" stroke="#A54B9C" stroke-miterlimit="10" width="42.521" height="17.008"/>
	<rect x="169.818" y="645.361" stroke="#A54B9C" stroke-miterlimit="10" width="42.521" height="17.008"/>
	<rect x="297.378" y="645.361" fill="none" stroke="#A54B9C" stroke-miterlimit="10" width="42.521" height="17.008"/>
	<rect x="254.858" y="645.361" stroke="#A54B9C" stroke-miterlimit="10" width="42.521" height="17.008"/>
	<rect x="340.029" y="645.361" fill="none" stroke="#A54B9C" stroke-miterlimit="10" width="42.521" height="17.008"/>
</g>
<rect x="42.52" y="684.269" fill="none" stroke="#A54B9C" stroke-miterlimit="10" width="42.521" height="53.21"/>
<rect x="0" y="684.269" fill="none" stroke="#A54B9C" stroke-miterlimit="10" width="42.52" height="53.21"/>
<rect x="127.561" y="684.269" fill="none" stroke="#A54B9C" stroke-miterlimit="10" width="42.521" height="53.21"/>
<rect x="85.04" y="684.269" fill="none" stroke="#A54B9C" stroke-miterlimit="10" width="42.521" height="53.21"/>
<rect x="212.337" y="684.269" fill="none" stroke="#A54B9C" stroke-miterlimit="10" width="42.521" height="53.21"/>
<rect x="169.818" y="684.269" fill="none" stroke="#A54B9C" stroke-miterlimit="10" width="42.521" height="53.21"/>
<rect x="297.378" y="684.269" fill="none" stroke="#A54B9C" stroke-miterlimit="10" width="42.521" height="53.21"/>
<rect x="254.858" y="684.269" fill="none" stroke="#A54B9C" stroke-miterlimit="10" width="42.521" height="53.21"/>
<rect x="340.029" y="684.269" fill="none" stroke="#A54B9C" stroke-miterlimit="10" width="42.521" height="53.21"/>
<rect x="42.52" y="741.279" fill="none" stroke="#A54B9C" stroke-miterlimit="10" width="42.521" height="53.209"/>
<rect x="0" y="741.279" fill="none" stroke="#A54B9C" stroke-miterlimit="10" width="42.52" height="53.209"/>
<rect x="127.561" y="741.279" fill="none" stroke="#A54B9C" stroke-miterlimit="10" width="42.521" height="53.209"/>
<rect x="85.04" y="741.279" fill="none" stroke="#A54B9C" stroke-miterlimit="10" width="42.521" height="53.209"/>
<rect x="212.337" y="741.279" fill="none" stroke="#A54B9C" stroke-miterlimit="10" width="42.521" height="53.209"/>
<rect x="169.818" y="741.279" fill="none" stroke="#A54B9C" stroke-miterlimit="10" width="42.521" height="53.209"/>
<rect x="297.378" y="741.279" fill="none" stroke="#A54B9C" stroke-miterlimit="10" width="42.521" height="53.209"/>
<rect x="254.858" y="741.279" fill="none" stroke="#A54B9C" stroke-miterlimit="10" width="42.521" height="53.209"/>
<rect x="340.029" y="741.279" fill="none" stroke="#A54B9C" stroke-miterlimit="10" width="42.521" height="53.209"/>
</svg>
