<?xml version="1.0" encoding="utf-8"?>
<!-- Generator: Adobe Illustrator 15.0.2, SVG Export Plug-In . SVG Version: 6.00 Build 0)  -->
<!DOCTYPE svg PUBLIC "-//W3C//DTD SVG 1.1//EN" "http://www.w3.org/Graphics/SVG/1.1/DTD/svg11.dtd">
<svg version="1.1" id="Layer_1" xmlns="http://www.w3.org/2000/svg" xmlns:xlink="http://www.w3.org/1999/xlink" x="0px" y="0px"
	 width="382.68px" height="794.488px" viewBox="0 0 382.68 794.488" enable-background="new 0 0 382.68 794.488"
	 xml:space="preserve">
<rect x="42.668" y="114.173" fill="none" stroke="#A54B9C" stroke-miterlimit="10" width="42.52" height="53.21"/>
<rect x="0.148" y="114.173" fill="none" stroke="#A54B9C" stroke-miterlimit="10" width="42.521" height="53.21"/>
<rect x="127.709" y="114.173" fill="none" stroke="#A54B9C" stroke-miterlimit="10" width="42.52" height="53.21"/>
<rect x="85.189" y="114.173" fill="none" stroke="#A54B9C" stroke-miterlimit="10" width="42.521" height="53.21"/>
<rect x="212.486" y="114.173" fill="none" stroke="#A54B9C" stroke-miterlimit="10" width="42.521" height="53.21"/>
<rect x="169.967" y="114.173" fill="none" stroke="#A54B9C" stroke-miterlimit="10" width="42.52" height="53.21"/>
<rect x="297.527" y="114.173" fill="none" stroke="#A54B9C" stroke-miterlimit="10" width="42.521" height="53.21"/>
<rect x="255.006" y="114.173" fill="none" stroke="#A54B9C" stroke-miterlimit="10" width="42.521" height="53.21"/>
<rect x="340.178" y="114.173" fill="none" stroke="#A54B9C" stroke-miterlimit="10" width="42.521" height="53.21"/>
<g>
	<rect x="42.668" y="189.284" fill="none" stroke="#A54B9C" stroke-miterlimit="10" width="42.52" height="17.008"/>
	<rect x="0.148" y="189.284" fill="none" stroke="#A54B9C" stroke-miterlimit="10" width="42.521" height="17.008"/>
	<rect x="127.709" y="189.284" stroke="#A54B9C" stroke-miterlimit="10" width="42.52" height="17.008"/>
	<rect x="85.189" y="189.284" stroke="#A54B9C" stroke-miterlimit="10" width="42.521" height="17.008"/>
	<rect x="212.486" y="189.284" stroke="#A54B9C" stroke-miterlimit="10" width="42.521" height="17.008"/>
	<rect x="169.967" y="189.284" stroke="#A54B9C" stroke-miterlimit="10" width="42.52" height="17.008"/>
	<rect x="297.527" y="189.284" fill="none" stroke="#A54B9C" stroke-miterlimit="10" width="42.521" height="17.008"/>
	<rect x="255.006" y="189.284" stroke="#A54B9C" stroke-miterlimit="10" width="42.521" height="17.008"/>
	<rect x="340.178" y="189.284" fill="none" stroke="#A54B9C" stroke-miterlimit="10" width="42.521" height="17.008"/>
</g>
<g>
	<rect x="42.668" y="246.294" stroke="#A54B9C" stroke-miterlimit="10" width="42.52" height="17.008"/>
	<rect x="0.148" y="246.294" fill="none" stroke="#A54B9C" stroke-miterlimit="10" width="42.521" height="17.008"/>
	<rect x="127.709" y="246.294" fill="none" stroke="#A54B9C" stroke-miterlimit="10" width="42.52" height="17.008"/>
	<rect x="85.189" y="246.294" fill="none" stroke="#A54B9C" stroke-miterlimit="10" width="42.521" height="17.008"/>
	<rect x="212.486" y="246.294" fill="none" stroke="#A54B9C" stroke-miterlimit="10" width="42.521" height="17.008"/>
	<rect x="169.967" y="246.294" fill="none" stroke="#A54B9C" stroke-miterlimit="10" width="42.52" height="17.008"/>
	<rect x="297.527" y="246.294" stroke="#A54B9C" stroke-miterlimit="10" width="42.521" height="17.008"/>
	<rect x="255.006" y="246.294" fill="none" stroke="#A54B9C" stroke-miterlimit="10" width="42.521" height="17.008"/>
	<rect x="340.178" y="246.294" fill="none" stroke="#A54B9C" stroke-miterlimit="10" width="42.521" height="17.008"/>
</g>
<g>
	<rect x="42.668" y="303.302" stroke="#A54B9C" stroke-miterlimit="10" width="42.52" height="17.009"/>
	<rect x="0.148" y="303.302" fill="none" stroke="#A54B9C" stroke-miterlimit="10" width="42.521" height="17.009"/>
	<rect x="127.709" y="303.302" fill="none" stroke="#A54B9C" stroke-miterlimit="10" width="42.52" height="17.009"/>
	<rect x="85.189" y="303.302" fill="none" stroke="#A54B9C" stroke-miterlimit="10" width="42.521" height="17.009"/>
	<rect x="212.486" y="303.302" fill="none" stroke="#A54B9C" stroke-miterlimit="10" width="42.521" height="17.009"/>
	<rect x="169.967" y="303.302" fill="none" stroke="#A54B9C" stroke-miterlimit="10" width="42.52" height="17.009"/>
	<rect x="297.527" y="303.302" stroke="#A54B9C" stroke-miterlimit="10" width="42.521" height="17.009"/>
	<rect x="255.006" y="303.302" fill="none" stroke="#A54B9C" stroke-miterlimit="10" width="42.521" height="17.009"/>
	<rect x="340.178" y="303.302" fill="none" stroke="#A54B9C" stroke-miterlimit="10" width="42.521" height="17.009"/>
</g>
<g>
	<rect x="42.668" y="360.312" stroke="#A54B9C" stroke-miterlimit="10" width="42.52" height="17.008"/>
	<rect x="0.148" y="360.312" fill="none" stroke="#A54B9C" stroke-miterlimit="10" width="42.521" height="17.008"/>
	<rect x="127.709" y="360.312" fill="none" stroke="#A54B9C" stroke-miterlimit="10" width="42.52" height="17.008"/>
	<rect x="85.189" y="360.312" fill="none" stroke="#A54B9C" stroke-miterlimit="10" width="42.521" height="17.008"/>
	<rect x="212.486" y="360.312" fill="none" stroke="#A54B9C" stroke-miterlimit="10" width="42.521" height="17.008"/>
	<rect x="169.967" y="360.312" fill="none" stroke="#A54B9C" stroke-miterlimit="10" width="42.52" height="17.008"/>
	<rect x="297.527" y="360.312" stroke="#A54B9C" stroke-miterlimit="10" width="42.521" height="17.008"/>
	<rect x="255.006" y="360.312" fill="none" stroke="#A54B9C" stroke-miterlimit="10" width="42.521" height="17.008"/>
	<rect x="340.178" y="360.312" fill="none" stroke="#A54B9C" stroke-miterlimit="10" width="42.521" height="17.008"/>
</g>
<g>
	<rect x="42.668" y="417.322" fill="none" stroke="#A54B9C" stroke-miterlimit="10" width="42.52" height="17.008"/>
	<rect x="0.148" y="417.322" fill="none" stroke="#A54B9C" stroke-miterlimit="10" width="42.521" height="17.008"/>
	<rect x="127.709" y="417.322" stroke="#A54B9C" stroke-miterlimit="10" width="42.52" height="17.008"/>
	<rect x="85.189" y="417.322" stroke="#A54B9C" stroke-miterlimit="10" width="42.521" height="17.008"/>
	<rect x="212.486" y="417.322" stroke="#A54B9C" stroke-miterlimit="10" width="42.521" height="17.008"/>
	<rect x="169.967" y="417.322" stroke="#A54B9C" stroke-miterlimit="10" width="42.52" height="17.008"/>
	<rect x="297.527" y="417.322" stroke="#A54B9C" stroke-miterlimit="10" width="42.521" height="17.008"/>
	<rect x="255.006" y="417.322" stroke="#A54B9C" stroke-miterlimit="10" width="42.521" height="17.008"/>
	<rect x="340.178" y="417.322" fill="none" stroke="#A54B9C" stroke-miterlimit="10" width="42.521" height="17.008"/>
</g>
<g>
	<rect x="42.668" y="474.333" fill="none" stroke="#A54B9C" stroke-miterlimit="10" width="42.52" height="17.009"/>
	<rect x="0.148" y="474.333" fill="none" stroke="#A54B9C" stroke-miterlimit="10" width="42.521" height="17.009"/>
	<rect x="127.709" y="474.333" fill="none" stroke="#A54B9C" stroke-miterlimit="10" width="42.52" height="17.009"/>
	<rect x="85.189" y="474.333" fill="none" stroke="#A54B9C" stroke-miterlimit="10" width="42.521" height="17.009"/>
	<rect x="212.486" y="474.333" fill="none" stroke="#A54B9C" stroke-miterlimit="10" width="42.521" height="17.009"/>
	<rect x="169.967" y="474.333" fill="none" stroke="#A54B9C" stroke-miterlimit="10" width="42.52" height="17.009"/>
	<rect x="297.527" y="474.333" stroke="#A54B9C" stroke-miterlimit="10" width="42.521" height="17.009"/>
	<rect x="255.006" y="474.333" fill="none" stroke="#A54B9C" stroke-miterlimit="10" width="42.521" height="17.009"/>
	<rect x="340.178" y="474.333" fill="none" stroke="#A54B9C" stroke-miterlimit="10" width="42.521" height="17.009"/>
</g>
<g>
	<rect x="42.668" y="531.344" fill="none" stroke="#A54B9C" stroke-miterlimit="10" width="42.52" height="17.009"/>
	<rect x="0.148" y="531.344" fill="none" stroke="#A54B9C" stroke-miterlimit="10" width="42.521" height="17.009"/>
	<rect x="127.709" y="531.344" fill="none" stroke="#A54B9C" stroke-miterlimit="10" width="42.52" height="17.009"/>
	<rect x="85.189" y="531.344" fill="none" stroke="#A54B9C" stroke-miterlimit="10" width="42.521" height="17.009"/>
	<rect x="212.486" y="531.344" fill="none" stroke="#A54B9C" stroke-miterlimit="10" width="42.521" height="17.009"/>
	<rect x="169.967" y="531.344" fill="none" stroke="#A54B9C" stroke-miterlimit="10" width="42.52" height="17.009"/>
	<rect x="297.527" y="531.344" stroke="#A54B9C" stroke-miterlimit="10" width="42.521" height="17.009"/>
	<rect x="255.006" y="531.344" fill="none" stroke="#A54B9C" stroke-miterlimit="10" width="42.521" height="17.009"/>
	<rect x="340.178" y="531.344" fill="none" stroke="#A54B9C" stroke-miterlimit="10" width="42.521" height="17.009"/>
</g>
<g>
	<rect x="42.668" y="588.352" stroke="#A54B9C" stroke-miterlimit="10" width="42.52" height="17.008"/>
	<rect x="0.148" y="588.352" fill="none" stroke="#A54B9C" stroke-miterlimit="10" width="42.521" height="17.008"/>
	<rect x="127.709" y="588.352" fill="none" stroke="#A54B9C" stroke-miterlimit="10" width="42.52" height="17.008"/>
	<rect x="85.189" y="588.352" fill="none" stroke="#A54B9C" stroke-miterlimit="10" width="42.521" height="17.008"/>
	<rect x="212.486" y="588.352" fill="none" stroke="#A54B9C" stroke-miterlimit="10" width="42.521" height="17.008"/>
	<rect x="169.967" y="588.352" fill="none" stroke="#A54B9C" stroke-miterlimit="10" width="42.52" height="17.008"/>
	<rect x="297.527" y="588.352" stroke="#A54B9C" stroke-miterlimit="10" width="42.521" height="17.008"/>
	<rect x="255.006" y="588.352" fill="none" stroke="#A54B9C" stroke-miterlimit="10" width="42.521" height="17.008"/>
	<rect x="340.178" y="588.352" fill="none" stroke="#A54B9C" stroke-miterlimit="10" width="42.521" height="17.008"/>
</g>
<g>
	<rect x="42.668" y="645.361" fill="none" stroke="#A54B9C" stroke-miterlimit="10" width="42.52" height="17.008"/>
	<rect x="0.148" y="645.361" fill="none" stroke="#A54B9C" stroke-miterlimit="10" width="42.521" height="17.008"/>
	<rect x="127.709" y="645.361" stroke="#A54B9C" stroke-miterlimit="10" width="42.52" height="17.008"/>
	<rect x="85.189" y="645.361" stroke="#A54B9C" stroke-miterlimit="10" width="42.521" height="17.008"/>
	<rect x="212.486" y="645.361" stroke="#A54B9C" stroke-miterlimit="10" width="42.521" height="17.008"/>
	<rect x="169.967" y="645.361" stroke="#A54B9C" stroke-miterlimit="10" width="42.52" height="17.008"/>
	<rect x="297.527" y="645.361" fill="none" stroke="#A54B9C" stroke-miterlimit="10" width="42.521" height="17.008"/>
	<rect x="255.006" y="645.361" stroke="#A54B9C" stroke-miterlimit="10" width="42.521" height="17.008"/>
	<rect x="340.178" y="645.361" fill="none" stroke="#A54B9C" stroke-miterlimit="10" width="42.521" height="17.008"/>
</g>
<rect x="42.668" y="684.269" fill="none" stroke="#A54B9C" stroke-miterlimit="10" width="42.52" height="53.21"/>
<rect x="0.148" y="684.269" fill="none" stroke="#A54B9C" stroke-miterlimit="10" width="42.521" height="53.21"/>
<rect x="127.709" y="684.269" fill="none" stroke="#A54B9C" stroke-miterlimit="10" width="42.52" height="53.21"/>
<rect x="85.189" y="684.269" fill="none" stroke="#A54B9C" stroke-miterlimit="10" width="42.521" height="53.21"/>
<rect x="212.486" y="684.269" fill="none" stroke="#A54B9C" stroke-miterlimit="10" width="42.521" height="53.21"/>
<rect x="169.967" y="684.269" fill="none" stroke="#A54B9C" stroke-miterlimit="10" width="42.52" height="53.21"/>
<rect x="297.527" y="684.269" fill="none" stroke="#A54B9C" stroke-miterlimit="10" width="42.521" height="53.21"/>
<rect x="255.006" y="684.269" fill="none" stroke="#A54B9C" stroke-miterlimit="10" width="42.521" height="53.21"/>
<rect x="340.178" y="684.269" fill="none" stroke="#A54B9C" stroke-miterlimit="10" width="42.521" height="53.21"/>
<rect x="42.668" y="741.279" fill="none" stroke="#A54B9C" stroke-miterlimit="10" width="42.52" height="53.209"/>
<rect x="0.148" y="741.279" fill="none" stroke="#A54B9C" stroke-miterlimit="10" width="42.521" height="53.209"/>
<rect x="127.709" y="741.279" fill="none" stroke="#A54B9C" stroke-miterlimit="10" width="42.52" height="53.209"/>
<rect x="85.189" y="741.279" fill="none" stroke="#A54B9C" stroke-miterlimit="10" width="42.521" height="53.209"/>
<rect x="212.486" y="741.279" fill="none" stroke="#A54B9C" stroke-miterlimit="10" width="42.521" height="53.209"/>
<rect x="169.967" y="741.279" fill="none" stroke="#A54B9C" stroke-miterlimit="10" width="42.52" height="53.209"/>
<rect x="297.527" y="741.279" fill="none" stroke="#A54B9C" stroke-miterlimit="10" width="42.521" height="53.209"/>
<rect x="255.006" y="741.279" fill="none" stroke="#A54B9C" stroke-miterlimit="10" width="42.521" height="53.209"/>
<rect x="340.178" y="741.279" fill="none" stroke="#A54B9C" stroke-miterlimit="10" width="42.521" height="53.209"/>
</svg>
