<?xml version="1.0" standalone="no"?>
<!DOCTYPE svg PUBLIC "-//W3C//DTD SVG 1.1//EN" "http://www.w3.org/Graphics/SVG/1.1/DTD/svg11.dtd" >
<svg xmlns="http://www.w3.org/2000/svg">
<metadata>
This is a custom SVG font generated by IcoMoon.
<iconset grid="16"></iconset>
</metadata>
<defs>
<font id="icomoon" horiz-adv-x="512" >
<font-face units-per-em="512" ascent="480" descent="-32" />
<missing-glyph horiz-adv-x="512" />
<glyph class="hidden" unicode="&#xf000;" d="M0,480L 512 -32L0 -32 z" horiz-adv-x="0" />
<glyph unicode="&#x3a;" d="M 136.609,285.995L 164.010,285.995L 164.010,275.034L 136.609,275.034zM 109.208,285.995L 136.61,285.995L 136.61,275.034L 109.208,275.034zM 136.609,249.27L 164.010,249.27L 164.010,238.309L 136.609,238.309zM 109.208,249.27L 136.61,249.27L 136.61,238.309L 109.208,238.309zM 136.609,102.366L 164.010,102.366L 164.010,91.403L 136.609,91.403zM 109.208,102.366L 136.61,102.366L 136.61,91.403L 109.208,91.403zM 136.609,65.637L 164.010,65.637L 164.010,54.676L 136.609,54.676zM 109.208,65.637L 136.61,65.637L 136.61,54.676L 109.208,54.676z" horiz-adv-x="246.327" data-tags="colon" />
<glyph unicode="&#x5a;" d="M 27.398,357.882L 54.801,357.882L 54.801,346.921L 27.398,346.921zM 82.202,357.882L 109.604,357.882L 109.604,346.921L 82.202,346.921zM 54.801,357.882L 82.203,357.882L 82.203,346.921L 54.801,346.921zM 136.836,357.882L 164.239,357.882L 164.239,346.921L 136.836,346.921zM 109.435,357.882L 136.836,357.882L 136.836,346.921L 109.435,346.921zM 191.64,357.882L 219.042,357.882L 219.042,346.921L 191.64,346.921zM 164.238,357.882L 191.64,357.882L 191.64,346.921L 164.238,346.921zM 27.398,321.155L 54.801,321.155L 54.801,310.195L 27.398,310.195zM 191.64,321.155L 219.042,321.155L 219.042,310.195L 191.64,310.195zM 164.238,284.43L 191.64,284.43L 191.64,273.469L 164.238,273.469zM 136.836,247.702L 164.239,247.702L 164.239,236.742L 136.836,236.742zM 109.435,210.976L 136.836,210.976L 136.836,200.016L 109.435,200.016zM 82.202,174.25L 109.604,174.25L 109.604,163.289L 82.202,163.289zM 54.801,137.524L 82.203,137.524L 82.203,126.563L 54.801,126.563zM 27.398,100.798L 54.801,100.798L 54.801,89.836L 27.398,89.836zM 191.64,100.798L 219.042,100.798L 219.042,89.836L 191.64,89.836zM 27.398,64.070L 54.801,64.070L 54.801,53.109L 27.398,53.109zM 82.202,64.070L 109.604,64.070L 109.604,53.109L 82.202,53.109zM 54.801,64.070L 82.203,64.070L 82.203,53.109L 54.801,53.109zM 136.836,64.070L 164.239,64.070L 164.239,53.109L 136.836,53.109zM 109.435,64.070L 136.836,64.070L 136.836,53.109L 109.435,53.109zM 191.64,64.070L 219.042,64.070L 219.042,53.109L 191.64,53.109zM 164.238,64.070L 191.64,64.070L 191.64,53.109L 164.238,53.109z" horiz-adv-x="246.327" />
<glyph unicode="&#x58;" d="M 27.059,357.883L 54.462,357.883L 54.462,346.922L 27.059,346.922zM 191.302,357.883L 218.703,357.883L 218.703,346.922L 191.302,346.922zM 27.059,321.156L 54.462,321.156L 54.462,310.195L 27.059,310.195zM 191.302,321.156L 218.703,321.156L 218.703,310.195L 191.302,310.195zM 54.462,284.43L 81.865,284.43L 81.865,273.469L 54.462,273.469zM 163.9,284.43L 191.302,284.43L 191.302,273.469L 163.9,273.469zM 81.863,247.703L 109.266,247.703L 109.266,236.743L 81.863,236.743zM 136.498,247.703L 163.9,247.703L 163.9,236.743L 136.498,236.743zM 109.097,210.977L 136.498,210.977L 136.498,200.017L 109.097,200.017zM 81.863,174.25L 109.266,174.25L 109.266,163.289L 81.863,163.289zM 136.498,174.25L 163.9,174.25L 163.9,163.289L 136.498,163.289zM 54.462,137.525L 81.865,137.525L 81.865,126.564L 54.462,126.564zM 163.9,137.525L 191.302,137.525L 191.302,126.564L 163.9,126.564zM 27.059,100.798L 54.462,100.798L 54.462,89.837L 27.059,89.837zM 191.302,100.798L 218.703,100.798L 218.703,89.837L 191.302,89.837zM 27.059,64.070L 54.462,64.070L 54.462,53.11L 27.059,53.11zM 191.302,64.070L 218.703,64.070L 218.703,53.11L 191.302,53.11z" horiz-adv-x="246.327" />
<glyph unicode="&#x57;" d="M 27.046,357.882L 54.448,357.882L 54.448,346.922L 27.046,346.922zM 191.288,357.882L 218.689,357.882L 218.689,346.922L 191.288,346.922zM 27.046,321.156L 54.448,321.156L 54.448,310.195L 27.046,310.195zM 191.288,321.156L 218.689,321.156L 218.689,310.195L 191.288,310.195zM 27.046,284.429L 54.448,284.429L 54.448,273.469L 27.046,273.469zM 191.288,284.429L 218.689,284.429L 218.689,273.469L 191.288,273.469zM 27.046,247.703L 54.448,247.703L 54.448,236.741L 27.046,236.741zM 191.288,247.703L 218.689,247.703L 218.689,236.741L 191.288,236.741zM 27.046,210.977L 54.448,210.977L 54.448,200.015L 27.046,200.015zM 109.082,210.977L 136.485,210.977L 136.485,200.015L 109.082,200.015zM 191.288,210.977L 218.689,210.977L 218.689,200.015L 191.288,200.015zM 27.046,174.25L 54.448,174.25L 54.448,163.289L 27.046,163.289zM 81.85,174.25L 109.252,174.25L 109.252,163.289L 81.85,163.289zM 136.484,174.25L 163.886,174.25L 163.886,163.289L 136.484,163.289zM 109.082,174.25L 136.485,174.25L 136.485,163.289L 109.082,163.289zM 191.288,174.25L 218.689,174.25L 218.689,163.289L 191.288,163.289zM 27.046,137.524L 54.448,137.524L 54.448,126.563L 27.046,126.563zM 81.85,137.524L 109.252,137.524L 109.252,126.563L 81.85,126.563zM 54.449,137.524L 81.85,137.524L 81.85,126.563L 54.449,126.563zM 136.484,137.524L 163.886,137.524L 163.886,126.563L 136.484,126.563zM 191.288,137.524L 218.689,137.524L 218.689,126.563L 191.288,126.563zM 163.886,137.524L 191.288,137.524L 191.288,126.563L 163.886,126.563zM 27.046,100.796L 54.448,100.796L 54.448,89.836L 27.046,89.836zM 54.449,100.796L 81.85,100.796L 81.85,89.836L 54.449,89.836zM 191.288,100.796L 218.689,100.796L 218.689,89.836L 191.288,89.836zM 163.886,100.796L 191.288,100.796L 191.288,89.836L 163.886,89.836zM 27.046,64.070L 54.448,64.070L 54.448,53.109L 27.046,53.109zM 191.288,64.070L 218.689,64.070L 218.689,53.109L 191.288,53.109z" horiz-adv-x="246.327" />
<glyph unicode="&#x56;" d="M 27.587,357.883L 54.989,357.883L 54.989,346.922L 27.587,346.922zM 191.829,357.883L 219.231,357.883L 219.231,346.922L 191.829,346.922zM 27.587,321.156L 54.989,321.156L 54.989,310.195L 27.587,310.195zM 191.829,321.156L 219.231,321.156L 219.231,310.195L 191.829,310.195zM 27.587,284.43L 54.989,284.43L 54.989,273.469L 27.587,273.469zM 191.829,284.43L 219.231,284.43L 219.231,273.469L 191.829,273.469zM 27.587,247.703L 54.989,247.703L 54.989,236.743L 27.587,236.743zM 191.829,247.703L 219.231,247.703L 219.231,236.743L 191.829,236.743zM 27.587,210.977L 54.989,210.977L 54.989,200.017L 27.587,200.017zM 191.829,210.977L 219.231,210.977L 219.231,200.017L 191.829,200.017zM 27.587,174.25L 54.989,174.25L 54.989,163.289L 27.587,163.289zM 191.829,174.25L 219.231,174.25L 219.231,163.289L 191.829,163.289zM 54.99,137.525L 82.391,137.525L 82.391,126.564L 54.99,126.564zM 164.427,137.525L 191.829,137.525L 191.829,126.564L 164.427,126.564zM 82.391,100.798L 109.793,100.798L 109.793,89.837L 82.391,89.837zM 137.025,100.798L 164.427,100.798L 164.427,89.837L 137.025,89.837zM 109.623,64.070L 137.025,64.070L 137.025,53.11L 109.623,53.11z" horiz-adv-x="246.327" />
<glyph unicode="&#x47;" d="M 82.26,357.883L 109.662,357.883L 109.662,346.922L 82.26,346.922zM 136.894,357.883L 164.297,357.883L 164.297,346.922L 136.894,346.922zM 109.494,357.883L 136.895,357.883L 136.895,346.922L 109.494,346.922zM 164.297,357.883L 191.699,357.883L 191.699,346.922L 164.297,346.922zM 54.86,321.156L 82.262,321.156L 82.262,310.195L 54.86,310.195zM 191.699,321.156L 219.101,321.156L 219.101,310.195L 191.699,310.195zM 27.457,284.43L 54.859,284.43L 54.859,273.469L 27.457,273.469zM 27.457,247.703L 54.859,247.703L 54.859,236.743L 27.457,236.743zM 27.457,210.977L 54.859,210.977L 54.859,200.017L 27.457,200.017zM 136.894,210.977L 164.297,210.977L 164.297,200.017L 136.894,200.017zM 191.699,210.977L 219.101,210.977L 219.101,200.017L 191.699,200.017zM 164.297,210.977L 191.699,210.977L 191.699,200.017L 164.297,200.017zM 27.457,174.25L 54.859,174.25L 54.859,163.289L 27.457,163.289zM 191.699,174.25L 219.101,174.25L 219.101,163.289L 191.699,163.289zM 27.457,137.525L 54.859,137.525L 54.859,126.564L 27.457,126.564zM 191.699,137.525L 219.101,137.525L 219.101,126.564L 191.699,126.564zM 54.86,100.798L 82.262,100.798L 82.262,89.837L 54.86,89.837zM 191.699,100.798L 219.101,100.798L 219.101,89.837L 191.699,89.837zM 82.26,64.070L 109.662,64.070L 109.662,53.11L 82.26,53.11zM 136.894,64.070L 164.297,64.070L 164.297,53.11L 136.894,53.11zM 109.494,64.070L 136.895,64.070L 136.895,53.11L 109.494,53.11zM 164.297,64.070L 191.699,64.070L 191.699,53.11L 164.297,53.11z" horiz-adv-x="246.327" />
<glyph unicode="&#x46;" d="M 27.021,357.883L 54.423,357.883L 54.423,346.922L 27.021,346.922zM 81.824,357.883L 109.226,357.883L 109.226,346.922L 81.824,346.922zM 54.424,357.883L 81.825,357.883L 81.825,346.922L 54.424,346.922zM 136.459,357.883L 163.861,357.883L 163.861,346.922L 136.459,346.922zM 109.057,357.883L 136.459,357.883L 136.459,346.922L 109.057,346.922zM 191.262,357.883L 218.664,357.883L 218.664,346.922L 191.262,346.922zM 163.861,357.883L 191.262,357.883L 191.262,346.922L 163.861,346.922zM 27.021,321.156L 54.423,321.156L 54.423,310.195L 27.021,310.195zM 27.021,284.43L 54.423,284.43L 54.423,273.469L 27.021,273.469zM 27.021,247.703L 54.423,247.703L 54.423,236.743L 27.021,236.743zM 27.021,210.977L 54.423,210.977L 54.423,200.017L 27.021,200.017zM 81.824,210.977L 109.226,210.977L 109.226,200.017L 81.824,200.017zM 54.424,210.977L 81.825,210.977L 81.825,200.017L 54.424,200.017zM 109.057,210.977L 136.459,210.977L 136.459,200.017L 109.057,200.017zM 27.021,174.25L 54.423,174.25L 54.423,163.289L 27.021,163.289zM 27.021,137.525L 54.423,137.525L 54.423,126.564L 27.021,126.564zM 27.021,100.798L 54.423,100.798L 54.423,89.837L 27.021,89.837zM 27.021,64.070L 54.423,64.070L 54.423,53.11L 27.021,53.11z" horiz-adv-x="246.327" />
<glyph unicode="&#x45;" d="M 27.255,357.882L 54.657,357.882L 54.657,346.922L 27.255,346.922zM 82.059,357.882L 109.461,357.882L 109.461,346.922L 82.059,346.922zM 54.657,357.882L 82.059,357.882L 82.059,346.922L 54.657,346.922zM 136.692,357.882L 164.093,357.882L 164.093,346.922L 136.692,346.922zM 109.291,357.882L 136.693,357.882L 136.693,346.922L 109.291,346.922zM 191.496,357.882L 218.897,357.882L 218.897,346.922L 191.496,346.922zM 164.094,357.882L 191.496,357.882L 191.496,346.922L 164.094,346.922zM 27.255,321.156L 54.657,321.156L 54.657,310.195L 27.255,310.195zM 27.255,284.429L 54.657,284.429L 54.657,273.469L 27.255,273.469zM 27.255,247.703L 54.657,247.703L 54.657,236.741L 27.255,236.741zM 27.255,210.977L 54.657,210.977L 54.657,200.015L 27.255,200.015zM 82.059,210.977L 109.461,210.977L 109.461,200.015L 82.059,200.015zM 54.657,210.977L 82.059,210.977L 82.059,200.015L 54.657,200.015zM 136.692,210.977L 164.093,210.977L 164.093,200.015L 136.692,200.015zM 109.291,210.977L 136.693,210.977L 136.693,200.015L 109.291,200.015zM 27.255,174.25L 54.657,174.25L 54.657,163.289L 27.255,163.289zM 27.255,137.524L 54.657,137.524L 54.657,126.563L 27.255,126.563zM 27.255,100.796L 54.657,100.796L 54.657,89.836L 27.255,89.836zM 27.255,64.070L 54.657,64.070L 54.657,53.109L 27.255,53.109zM 82.059,64.070L 109.461,64.070L 109.461,53.109L 82.059,53.109zM 54.657,64.070L 82.059,64.070L 82.059,53.109L 54.657,53.109zM 136.692,64.070L 164.093,64.070L 164.093,53.109L 136.692,53.109zM 109.291,64.070L 136.693,64.070L 136.693,53.109L 109.291,53.109zM 191.496,64.070L 218.897,64.070L 218.897,53.109L 191.496,53.109zM 164.094,64.070L 191.496,64.070L 191.496,53.109L 164.094,53.109z" horiz-adv-x="246.327" />
<glyph unicode="&#x44;" d="M 27.23,357.883L 54.632,357.883L 54.632,346.922L 27.23,346.922zM 82.033,357.883L 109.436,357.883L 109.436,346.922L 82.033,346.922zM 54.632,357.883L 82.033,357.883L 82.033,346.922L 54.632,346.922zM 136.667,357.883L 164.068,357.883L 164.068,346.922L 136.667,346.922zM 109.266,357.883L 136.668,357.883L 136.668,346.922L 109.266,346.922zM 54.632,321.156L 82.033,321.156L 82.033,310.195L 54.632,310.195zM 164.068,321.156L 191.471,321.156L 191.471,310.195L 164.068,310.195zM 54.632,284.43L 82.033,284.43L 82.033,273.469L 54.632,273.469zM 191.471,284.43L 218.872,284.43L 218.872,273.469L 191.471,273.469zM 54.632,247.703L 82.033,247.703L 82.033,236.743L 54.632,236.743zM 191.471,247.703L 218.872,247.703L 218.872,236.743L 191.471,236.743zM 54.632,210.977L 82.033,210.977L 82.033,200.017L 54.632,200.017zM 191.471,210.977L 218.872,210.977L 218.872,200.017L 191.471,200.017zM 54.632,174.25L 82.033,174.25L 82.033,163.289L 54.632,163.289zM 191.471,174.25L 218.872,174.25L 218.872,163.289L 191.471,163.289zM 54.632,137.525L 82.033,137.525L 82.033,126.564L 54.632,126.564zM 191.471,137.525L 218.872,137.525L 218.872,126.564L 191.471,126.564zM 54.632,100.798L 82.033,100.798L 82.033,89.837L 54.632,89.837zM 164.068,100.798L 191.471,100.798L 191.471,89.837L 164.068,89.837zM 27.23,64.070L 54.632,64.070L 54.632,53.11L 27.23,53.11zM 82.033,64.070L 109.436,64.070L 109.436,53.11L 82.033,53.11zM 54.632,64.070L 82.033,64.070L 82.033,53.11L 54.632,53.11zM 136.667,64.070L 164.068,64.070L 164.068,53.11L 136.667,53.11zM 109.266,64.070L 136.668,64.070L 136.668,53.11L 109.266,53.11z" horiz-adv-x="246.327" />
<glyph unicode="&#x43;" d="M 81.955,357.883L 109.358,357.883L 109.358,346.922L 81.955,346.922zM 136.589,357.883L 163.991,357.883L 163.991,346.922L 136.589,346.922zM 109.188,357.883L 136.59,357.883L 136.59,346.922L 109.188,346.922zM 163.991,357.883L 191.393,357.883L 191.393,346.922L 163.991,346.922zM 54.554,321.156L 81.955,321.156L 81.955,310.195L 54.554,310.195zM 191.393,321.156L 218.794,321.156L 218.794,310.195L 191.393,310.195zM 27.151,284.43L 54.554,284.43L 54.554,273.469L 27.151,273.469zM 27.151,247.703L 54.554,247.703L 54.554,236.743L 27.151,236.743zM 27.151,210.977L 54.554,210.977L 54.554,200.017L 27.151,200.017zM 27.151,174.25L 54.554,174.25L 54.554,163.289L 27.151,163.289zM 27.151,137.525L 54.554,137.525L 54.554,126.564L 27.151,126.564zM 54.554,100.798L 81.955,100.798L 81.955,89.837L 54.554,89.837zM 191.393,100.798L 218.794,100.798L 218.794,89.837L 191.393,89.837zM 81.955,64.070L 109.358,64.070L 109.358,53.11L 81.955,53.11zM 136.589,64.070L 163.991,64.070L 163.991,53.11L 136.589,53.11zM 109.188,64.070L 136.59,64.070L 136.59,53.11L 109.188,53.11zM 163.991,64.070L 191.393,64.070L 191.393,53.11L 163.991,53.11z" horiz-adv-x="246.327" />
<glyph unicode="&#x23;" d="M 81.955,321.155L 109.358,321.155L 109.358,310.195L 81.955,310.195zM 136.589,321.155L 163.991,321.155L 163.991,310.195L 136.589,310.195zM 81.955,284.43L 109.358,284.43L 109.358,273.469L 81.955,273.469zM 136.589,284.43L 163.991,284.43L 163.991,273.469L 136.589,273.469zM 81.955,247.702L 109.358,247.702L 109.358,236.742L 81.955,236.742zM 54.554,247.702L 81.955,247.702L 81.955,236.742L 54.554,236.742zM 136.589,247.702L 163.991,247.702L 163.991,236.742L 136.589,236.742zM 109.188,247.702L 136.59,247.702L 136.59,236.742L 109.188,236.742zM 163.991,247.702L 191.393,247.702L 191.393,236.742L 163.991,236.742zM 81.955,210.976L 109.358,210.976L 109.358,200.016L 81.955,200.016zM 136.589,210.976L 163.991,210.976L 163.991,200.016L 136.589,200.016zM 81.955,174.25L 109.358,174.25L 109.358,163.289L 81.955,163.289zM 136.589,174.25L 163.991,174.25L 163.991,163.289L 136.589,163.289zM 81.955,137.524L 109.358,137.524L 109.358,126.563L 81.955,126.563zM 54.554,137.524L 81.955,137.524L 81.955,126.563L 54.554,126.563zM 136.589,137.524L 163.991,137.524L 163.991,126.563L 136.589,126.563zM 109.188,137.524L 136.59,137.524L 136.59,126.563L 109.188,126.563zM 163.991,137.524L 191.393,137.524L 191.393,126.563L 163.991,126.563zM 81.955,100.798L 109.358,100.798L 109.358,89.836L 81.955,89.836zM 136.589,100.798L 163.991,100.798L 163.991,89.836L 136.589,89.836zM 81.955,64.070L 109.358,64.070L 109.358,53.109L 81.955,53.109zM 136.589,64.070L 163.991,64.070L 163.991,53.109L 136.589,53.109z" horiz-adv-x="246.327" data-tags="hash" />
<glyph unicode="&#x3c;" d="M 164.097,357.882L 191.5,357.882L 191.5,346.921L 164.097,346.921zM 136.696,321.154L 164.097,321.154L 164.097,310.193L 136.696,310.193zM 109.295,284.428L 136.697,284.428L 136.697,273.468L 109.295,273.468zM 82.063,247.702L 109.465,247.702L 109.465,236.741L 82.063,236.741zM 54.661,210.977L 82.063,210.977L 82.063,200.015L 54.661,200.015zM 82.063,174.249L 109.465,174.249L 109.465,163.288L 82.063,163.288zM 109.295,137.524L 136.697,137.524L 136.697,126.563L 109.295,126.563zM 136.696,100.796L 164.097,100.796L 164.097,89.836L 136.696,89.836zM 164.097,64.068L 191.5,64.068L 191.5,53.108L 164.097,53.108z" horiz-adv-x="246.327" data-tags="greaterthan" />
<glyph unicode="&#x2f;" d="M 191.747,321.157L 219.148,321.157L 219.148,310.196L 191.747,310.196zM 164.344,284.43L 191.746,284.43L 191.746,273.47L 164.344,273.47zM 136.943,247.704L 164.344,247.704L 164.344,236.742L 136.943,236.742zM 109.54,210.978L 136.943,210.978L 136.943,200.017L 109.54,200.017zM 82.309,174.251L 109.711,174.251L 109.711,163.29L 82.309,163.29zM 54.908,137.527L 82.309,137.527L 82.309,126.564L 54.908,126.564zM 27.505,100.798L 54.908,100.798L 54.908,89.838L 27.505,89.838z" horiz-adv-x="246.327" data-tags="f-slash" />
<glyph unicode="&#x21;" d="M 109.378,358.527L 136.779,358.527L 136.779,347.566L 109.378,347.566zM 82.145,321.8L 109.547,321.8L 109.547,310.838L 82.145,310.838zM 136.779,321.8L 164.18,321.8L 164.18,310.838L 136.779,310.838zM 109.378,321.8L 136.779,321.8L 136.779,310.838L 109.378,310.838zM 82.145,285.074L 109.547,285.074L 109.547,274.113L 82.145,274.113zM 136.779,285.074L 164.18,285.074L 164.18,274.113L 136.779,274.113zM 109.378,285.074L 136.779,285.074L 136.779,274.113L 109.378,274.113zM 82.145,248.348L 109.547,248.348L 109.547,237.386L 82.145,237.386zM 136.779,248.348L 164.18,248.348L 164.18,237.386L 136.779,237.386zM 109.378,248.348L 136.779,248.348L 136.779,237.386L 109.378,237.386zM 109.378,211.622L 136.779,211.622L 136.779,200.66L 109.378,200.66zM 109.378,174.894L 136.779,174.894L 136.779,163.933L 109.378,163.933zM 109.378,101.442L 136.779,101.442L 136.779,90.481L 109.378,90.481zM 109.378,64.714L 136.779,64.714L 136.779,53.753L 109.378,53.753z" horiz-adv-x="246.327" data-tags="exclaimation" />
<glyph unicode="&#x3d;" d="M 27.341,249.703L 54.743,249.703L 54.743,238.742L 27.341,238.742zM 82.145,249.703L 109.547,249.703L 109.547,238.742L 82.145,238.742zM 54.744,249.703L 82.146,249.703L 82.146,238.742L 54.744,238.742zM 136.779,249.703L 164.18,249.703L 164.18,238.742L 136.779,238.742zM 109.378,249.703L 136.779,249.703L 136.779,238.742L 109.378,238.742zM 191.583,249.703L 218.984,249.703L 218.984,238.742L 191.583,238.742zM 164.18,249.703L 191.583,249.703L 191.583,238.742L 164.18,238.742zM 27.341,176.249L 54.743,176.249L 54.743,165.288L 27.341,165.288zM 82.145,176.249L 109.547,176.249L 109.547,165.288L 82.145,165.288zM 54.744,176.249L 82.146,176.249L 82.146,165.288L 54.744,165.288zM 136.779,176.249L 164.18,176.249L 164.18,165.288L 136.779,165.288zM 109.378,176.249L 136.779,176.249L 136.779,165.288L 109.378,165.288zM 191.583,176.249L 218.984,176.249L 218.984,165.288L 191.583,165.288zM 164.18,176.249L 191.583,176.249L 191.583,165.288L 164.18,165.288z" horiz-adv-x="246.327" data-tags="equal" />
<glyph unicode="&#x2a;" d="M 54.593,284.092L 81.995,284.092L 81.995,273.131L 54.593,273.131zM 109.227,284.092L 136.629,284.092L 136.629,273.131L 109.227,273.131zM 164.030,284.092L 191.432,284.092L 191.432,273.131L 164.030,273.131zM 81.994,247.366L 109.396,247.366L 109.396,236.403L 81.994,236.403zM 136.628,247.366L 164.030,247.366L 164.030,236.403L 136.628,236.403zM 109.227,247.366L 136.629,247.366L 136.629,236.403L 109.227,236.403zM 27.19,210.64L 54.592,210.64L 54.592,199.679L 27.19,199.679zM 81.994,210.64L 109.396,210.64L 109.396,199.679L 81.994,199.679zM 54.593,210.64L 81.995,210.64L 81.995,199.679L 54.593,199.679zM 136.628,210.64L 164.030,210.64L 164.030,199.679L 136.628,199.679zM 109.227,210.64L 136.629,210.64L 136.629,199.679L 109.227,199.679zM 191.431,210.64L 218.834,210.64L 218.834,199.679L 191.431,199.679zM 164.030,210.64L 191.432,210.64L 191.432,199.679L 164.030,199.679zM 81.994,173.912L 109.396,173.912L 109.396,162.951L 81.994,162.951zM 136.628,173.912L 164.030,173.912L 164.030,162.951L 136.628,162.951zM 109.227,173.912L 136.629,173.912L 136.629,162.951L 109.227,162.951zM 54.593,137.188L 81.995,137.188L 81.995,126.225L 54.593,126.225zM 109.227,137.188L 136.629,137.188L 136.629,126.225L 109.227,126.225zM 164.030,137.188L 191.432,137.188L 191.432,126.225L 164.030,126.225z" horiz-adv-x="246.327" data-tags="asterix" />
<glyph unicode="&#x26;" d="M 82.222,357.883L 109.624,357.883L 109.624,346.923L 82.222,346.923zM 109.455,357.883L 136.856,357.883L 136.856,346.923L 109.455,346.923zM 54.821,321.157L 82.222,321.157L 82.222,310.196L 54.821,310.196zM 136.856,321.157L 164.257,321.157L 164.257,310.196L 136.856,310.196zM 54.821,284.43L 82.222,284.43L 82.222,273.47L 54.821,273.47zM 136.856,284.43L 164.257,284.43L 164.257,273.47L 136.856,273.47zM 82.222,247.704L 109.624,247.704L 109.624,236.742L 82.222,236.742zM 109.455,247.704L 136.856,247.704L 136.856,236.742L 109.455,236.742zM 82.222,210.978L 109.624,210.978L 109.624,200.017L 82.222,200.017zM 54.821,210.978L 82.222,210.978L 82.222,200.017L 54.821,200.017zM 109.455,210.978L 136.856,210.978L 136.856,200.017L 109.455,200.017zM 27.418,174.251L 54.821,174.251L 54.821,163.29L 27.418,163.29zM 136.856,174.251L 164.257,174.251L 164.257,163.29L 136.856,163.29zM 191.66,174.251L 219.061,174.251L 219.061,163.29L 191.66,163.29zM 164.257,174.251L 191.66,174.251L 191.66,163.29L 164.257,163.29zM 27.418,137.527L 54.821,137.527L 54.821,126.564L 27.418,126.564zM 164.257,137.527L 191.66,137.527L 191.66,126.564L 164.257,126.564zM 27.418,100.798L 54.821,100.798L 54.821,89.838L 27.418,89.838zM 164.257,100.798L 191.66,100.798L 191.66,89.838L 164.257,89.838zM 82.222,64.071L 109.624,64.071L 109.624,53.111L 82.222,53.111zM 54.821,64.071L 82.222,64.071L 82.222,53.111L 54.821,53.111zM 136.856,64.071L 164.257,64.071L 164.257,53.111L 136.856,53.111zM 109.455,64.071L 136.856,64.071L 136.856,53.111L 109.455,53.111zM 191.66,64.071L 219.061,64.071L 219.061,53.111L 191.66,53.111zM 164.257,64.071L 191.66,64.071L 191.66,53.111L 164.257,53.111z" horiz-adv-x="246.327" data-tags="and" />
<glyph unicode="&#x39;" d="M 82.158,358.018L 109.559,358.018L 109.559,347.057L 82.158,347.057zM 54.756,358.018L 82.159,358.018L 82.159,347.057L 54.756,347.057zM 136.791,358.018L 164.193,358.018L 164.193,347.057L 136.791,347.057zM 109.391,358.018L 136.792,358.018L 136.792,347.057L 109.391,347.057zM 164.193,358.018L 191.595,358.018L 191.595,347.057L 164.193,347.057zM 27.354,321.278L 54.756,321.278L 54.756,310.318L 27.354,310.318zM 191.595,321.278L 218.997,321.278L 218.997,310.318L 191.595,310.318zM 27.354,284.54L 54.756,284.54L 54.756,273.579L 27.354,273.579zM 191.595,284.54L 218.997,284.54L 218.997,273.579L 191.595,273.579zM 27.354,247.8L 54.756,247.8L 54.756,236.84L 27.354,236.84zM 191.595,247.8L 218.997,247.8L 218.997,236.84L 191.595,236.84zM 82.158,211.061L 109.559,211.061L 109.559,200.1L 82.158,200.1zM 54.756,211.061L 82.159,211.061L 82.159,200.1L 54.756,200.1zM 136.791,211.061L 164.193,211.061L 164.193,200.1L 136.791,200.1zM 109.391,211.061L 136.792,211.061L 136.792,200.1L 109.391,200.1zM 191.595,211.061L 218.997,211.061L 218.997,200.1L 191.595,200.1zM 164.193,211.061L 191.595,211.061L 191.595,200.1L 164.193,200.1zM 191.595,174.321L 218.997,174.321L 218.997,163.36L 191.595,163.36zM 191.595,137.58L 218.997,137.58L 218.997,126.619L 191.595,126.619zM 27.354,100.842L 54.756,100.842L 54.756,89.882L 27.354,89.882zM 191.595,100.842L 218.997,100.842L 218.997,89.882L 191.595,89.882zM 82.158,64.103L 109.559,64.103L 109.559,53.143L 82.158,53.143zM 54.756,64.103L 82.159,64.103L 82.159,53.143L 54.756,53.143zM 136.791,64.103L 164.193,64.103L 164.193,53.143L 136.791,53.143zM 109.391,64.103L 136.792,64.103L 136.792,53.143L 109.391,53.143zM 164.193,64.103L 191.595,64.103L 191.595,53.143L 164.193,53.143z" horiz-adv-x="246.327" />
<glyph unicode="&#x38;" d="M 82.063,358.018L 109.465,358.018L 109.465,347.057L 82.063,347.057zM 54.66,358.018L 82.063,358.018L 82.063,347.057L 54.66,347.057zM 136.696,358.018L 164.097,358.018L 164.097,347.057L 136.696,347.057zM 109.295,358.018L 136.697,358.018L 136.697,347.057L 109.295,347.057zM 164.097,358.018L 191.5,358.018L 191.5,347.057L 164.097,347.057zM 27.259,321.278L 54.661,321.278L 54.661,310.318L 27.259,310.318zM 191.499,321.278L 218.901,321.278L 218.901,310.318L 191.499,310.318zM 27.259,284.54L 54.661,284.54L 54.661,273.579L 27.259,273.579zM 191.499,284.54L 218.901,284.54L 218.901,273.579L 191.499,273.579zM 27.259,247.8L 54.661,247.8L 54.661,236.84L 27.259,236.84zM 191.499,247.8L 218.901,247.8L 218.901,236.84L 191.499,236.84zM 82.063,211.061L 109.465,211.061L 109.465,200.1L 82.063,200.1zM 54.66,211.061L 82.063,211.061L 82.063,200.1L 54.66,200.1zM 136.696,211.061L 164.097,211.061L 164.097,200.1L 136.696,200.1zM 109.295,211.061L 136.697,211.061L 136.697,200.1L 109.295,200.1zM 164.097,211.061L 191.5,211.061L 191.5,200.1L 164.097,200.1zM 27.259,174.321L 54.661,174.321L 54.661,163.36L 27.259,163.36zM 191.499,174.321L 218.901,174.321L 218.901,163.36L 191.499,163.36zM 27.259,137.58L 54.661,137.58L 54.661,126.619L 27.259,126.619zM 191.499,137.58L 218.901,137.58L 218.901,126.619L 191.499,126.619zM 27.259,100.842L 54.661,100.842L 54.661,89.882L 27.259,89.882zM 191.499,100.842L 218.901,100.842L 218.901,89.882L 191.499,89.882zM 82.063,64.103L 109.465,64.103L 109.465,53.143L 82.063,53.143zM 54.66,64.103L 82.063,64.103L 82.063,53.143L 54.66,53.143zM 136.696,64.103L 164.097,64.103L 164.097,53.143L 136.696,53.143zM 109.295,64.103L 136.697,64.103L 136.697,53.143L 109.295,53.143zM 164.097,64.103L 191.5,64.103L 191.5,53.143L 164.097,53.143z" horiz-adv-x="246.327" />
<glyph unicode="&#x37;" d="M 27.354,358.018L 54.756,358.018L 54.756,347.057L 27.354,347.057zM 82.158,358.018L 109.559,358.018L 109.559,347.057L 82.158,347.057zM 54.756,358.018L 82.159,358.018L 82.159,347.057L 54.756,347.057zM 136.791,358.018L 164.193,358.018L 164.193,347.057L 136.791,347.057zM 109.391,358.018L 136.792,358.018L 136.792,347.057L 109.391,347.057zM 191.595,358.018L 218.997,358.018L 218.997,347.057L 191.595,347.057zM 164.193,358.018L 191.595,358.018L 191.595,347.057L 164.193,347.057zM 191.595,321.278L 218.997,321.278L 218.997,310.318L 191.595,310.318zM 191.595,284.54L 218.997,284.54L 218.997,273.579L 191.595,273.579zM 164.193,247.8L 191.595,247.8L 191.595,236.84L 164.193,236.84zM 136.791,211.061L 164.193,211.061L 164.193,200.1L 136.791,200.1zM 109.391,174.321L 136.792,174.321L 136.792,163.36L 109.391,163.36zM 109.391,137.58L 136.792,137.58L 136.792,126.619L 109.391,126.619zM 109.391,100.842L 136.792,100.842L 136.792,89.882L 109.391,89.882zM 109.391,64.103L 136.792,64.103L 136.792,53.143L 109.391,53.143z" horiz-adv-x="246.327" />
<glyph unicode="&#x73;" d="M 82.104,247.081L 109.505,247.081L 109.505,236.12L 82.104,236.12zM 54.703,247.081L 82.105,247.081L 82.105,236.12L 54.703,236.12zM 136.738,247.081L 164.14,247.081L 164.14,236.12L 136.738,236.12zM 109.337,247.081L 136.739,247.081L 136.739,236.12L 109.337,236.12zM 164.14,247.081L 191.542,247.081L 191.542,236.12L 164.14,236.12zM 27.3,210.656L 54.703,210.656L 54.703,199.695L 27.3,199.695zM 191.541,210.656L 218.943,210.656L 218.943,199.695L 191.541,199.695zM 82.104,174.233L 109.505,174.233L 109.505,163.273L 82.104,163.273zM 54.703,174.233L 82.105,174.233L 82.105,163.273L 54.703,163.273zM 136.738,137.164L 164.14,137.164L 164.14,126.203L 136.738,126.203zM 109.337,137.164L 136.739,137.164L 136.739,126.203L 109.337,126.203zM 164.14,137.164L 191.542,137.164L 191.542,126.203L 164.14,126.203zM 27.3,100.096L 54.703,100.096L 54.703,89.134L 27.3,89.134zM 191.541,100.096L 218.943,100.096L 218.943,89.134L 191.541,89.134zM 82.104,63.672L 109.505,63.672L 109.505,52.711L 82.104,52.711zM 54.703,63.672L 82.105,63.672L 82.105,52.711L 54.703,52.711zM 136.738,63.672L 164.14,63.672L 164.14,52.711L 136.738,52.711zM 109.337,63.672L 136.739,63.672L 136.739,52.711L 109.337,52.711zM 164.14,63.672L 191.542,63.672L 191.542,52.711L 164.14,52.711z" horiz-adv-x="246.327" />
<glyph unicode="&#x72;" d="M 27.3,247.295L 54.703,247.295L 54.703,236.334L 27.3,236.334zM 136.738,247.295L 164.14,247.295L 164.14,236.334L 136.738,236.334zM 109.337,247.295L 136.739,247.295L 136.739,236.334L 109.337,236.334zM 164.14,247.295L 191.542,247.295L 191.542,236.334L 164.14,236.334zM 82.104,210.871L 109.506,210.871L 109.506,199.91L 82.104,199.91zM 54.702,210.871L 82.104,210.871L 82.104,199.91L 54.702,199.91zM 191.542,210.871L 218.944,210.871L 218.944,199.91L 191.542,199.91zM 54.702,173.803L 82.104,173.803L 82.104,162.842L 54.702,162.842zM 54.702,137.379L 82.104,137.379L 82.104,126.418L 54.702,126.418zM 54.702,100.311L 82.104,100.311L 82.104,89.349L 54.702,89.349zM 54.702,64.531L 82.104,64.531L 82.104,53.57L 54.702,53.57z" horiz-adv-x="246.327" />
<glyph unicode="&#x71;" d="M 82.104,247.295L 109.505,247.295L 109.505,236.334L 82.104,236.334zM 54.702,247.295L 82.104,247.295L 82.104,236.334L 54.702,236.334zM 136.738,247.295L 164.14,247.295L 164.14,236.334L 136.738,236.334zM 109.337,247.295L 136.738,247.295L 136.738,236.334L 109.337,236.334zM 191.542,247.295L 218.944,247.295L 218.944,236.334L 191.542,236.334zM 164.139,247.295L 191.541,247.295L 191.541,236.334L 164.139,236.334zM 27.3,210.871L 54.702,210.871L 54.702,199.91L 27.3,199.91zM 191.542,210.871L 218.944,210.871L 218.944,199.91L 191.542,199.91zM 27.3,174.448L 54.702,174.448L 54.702,163.487L 27.3,163.487zM 191.542,174.448L 218.944,174.448L 218.944,163.487L 191.542,163.487zM 27.3,137.379L 54.702,137.379L 54.702,126.418L 27.3,126.418zM 191.542,137.379L 218.944,137.379L 218.944,126.418L 191.542,126.418zM 27.3,100.311L 54.702,100.311L 54.702,89.349L 27.3,89.349zM 191.542,100.311L 218.944,100.311L 218.944,89.349L 191.542,89.349zM 82.104,64.531L 109.505,64.531L 109.505,53.57L 82.104,53.57zM 54.702,64.531L 82.104,64.531L 82.104,53.57L 54.702,53.57zM 136.738,64.531L 164.14,64.531L 164.14,53.57L 136.738,53.57zM 109.337,64.531L 136.738,64.531L 136.738,53.57L 109.337,53.57zM 191.542,64.531L 218.944,64.531L 218.944,53.57L 191.542,53.57zM 164.139,64.531L 191.541,64.531L 191.541,53.57L 164.139,53.57zM 191.542,28.108L 218.944,28.108L 218.944,17.146L 191.542,17.146zM 191.542-8.311L 218.944-8.311L 218.944-19.271L 191.542-19.271z" horiz-adv-x="246.327" />
<glyph unicode="&#x70;" d="M 27.353,247.94L 54.756,247.94L 54.756,236.979L 27.353,236.979zM 82.157,247.94L 109.559,247.94L 109.559,236.979L 82.157,236.979zM 54.756,247.94L 82.158,247.94L 82.158,236.979L 54.756,236.979zM 136.79,247.94L 164.193,247.94L 164.193,236.979L 136.79,236.979zM 109.39,247.94L 136.792,247.94L 136.792,236.979L 109.39,236.979zM 164.193,247.94L 191.596,247.94L 191.596,236.979L 164.193,236.979zM 27.353,210.871L 54.756,210.871L 54.756,199.91L 27.353,199.91zM 191.594,210.871L 218.997,210.871L 218.997,199.91L 191.594,199.91zM 27.353,174.448L 54.756,174.448L 54.756,163.487L 27.353,163.487zM 191.594,174.448L 218.997,174.448L 218.997,163.487L 191.594,163.487zM 27.353,138.023L 54.756,138.023L 54.756,127.062L 27.353,127.062zM 191.594,138.023L 218.997,138.023L 218.997,127.062L 191.594,127.062zM 27.353,100.955L 54.756,100.955L 54.756,89.993L 27.353,89.993zM 191.594,100.955L 218.997,100.955L 218.997,89.993L 191.594,89.993zM 27.353,64.531L 54.756,64.531L 54.756,53.57L 27.353,53.57zM 82.157,64.531L 109.559,64.531L 109.559,53.57L 82.157,53.57zM 54.756,64.531L 82.158,64.531L 82.158,53.57L 54.756,53.57zM 136.79,64.531L 164.193,64.531L 164.193,53.57L 136.79,53.57zM 109.39,64.531L 136.792,64.531L 136.792,53.57L 109.39,53.57zM 164.193,64.531L 191.596,64.531L 191.596,53.57L 164.193,53.57zM 27.353,27.463L 54.756,27.463L 54.756,16.501L 27.353,16.501zM 27.353-9.599L 54.756-9.599L 54.756-20.56L 27.353-20.56z" horiz-adv-x="246.327" />
<glyph unicode="&#x6f;" d="M 82.104,247.295L 109.506,247.295L 109.506,236.334L 82.104,236.334zM 54.702,247.295L 82.104,247.295L 82.104,236.334L 54.702,236.334zM 136.738,247.295L 164.14,247.295L 164.14,236.334L 136.738,236.334zM 109.337,247.295L 136.739,247.295L 136.739,236.334L 109.337,236.334zM 164.14,247.295L 191.542,247.295L 191.542,236.334L 164.14,236.334zM 27.3,210.871L 54.703,210.871L 54.703,199.91L 27.3,199.91zM 191.542,210.871L 218.944,210.871L 218.944,199.91L 191.542,199.91zM 27.3,174.448L 54.703,174.448L 54.703,163.487L 27.3,163.487zM 191.542,174.448L 218.944,174.448L 218.944,163.487L 191.542,163.487zM 27.3,137.379L 54.703,137.379L 54.703,126.418L 27.3,126.418zM 191.542,137.379L 218.944,137.379L 218.944,126.418L 191.542,126.418zM 27.3,100.955L 54.703,100.955L 54.703,89.993L 27.3,89.993zM 191.542,100.955L 218.944,100.955L 218.944,89.993L 191.542,89.993zM 82.104,63.887L 109.506,63.887L 109.506,52.926L 82.104,52.926zM 54.702,63.887L 82.104,63.887L 82.104,52.926L 54.702,52.926zM 136.738,63.887L 164.14,63.887L 164.14,52.926L 136.738,52.926zM 109.337,63.887L 136.739,63.887L 136.739,52.926L 109.337,52.926zM 164.14,63.887L 191.542,63.887L 191.542,52.926L 164.14,52.926z" horiz-adv-x="246.327" />
<glyph unicode="&#xe7;" d="M 82.157,247.94L 109.559,247.94L 109.559,236.979L 82.157,236.979zM 54.756,247.94L 82.158,247.94L 82.158,236.979L 54.756,236.979zM 136.79,247.94L 164.193,247.94L 164.193,236.979L 136.79,236.979zM 109.39,247.94L 136.792,247.94L 136.792,236.979L 109.39,236.979zM 164.193,247.94L 191.596,247.94L 191.596,236.979L 164.193,236.979zM 27.353,211.515L 54.756,211.515L 54.756,200.554L 27.353,200.554zM 191.594,211.515L 218.997,211.515L 218.997,200.554L 191.594,200.554zM 27.353,173.803L 54.756,173.803L 54.756,162.842L 27.353,162.842zM 27.353,137.379L 54.756,137.379L 54.756,126.418L 27.353,126.418zM 27.353,100.955L 54.756,100.955L 54.756,89.993L 27.353,89.993zM 191.594,100.955L 218.997,100.955L 218.997,89.993L 191.594,89.993zM 82.157,64.531L 109.559,64.531L 109.559,53.57L 82.157,53.57zM 54.756,64.531L 82.158,64.531L 82.158,53.57L 54.756,53.57zM 136.79,64.531L 164.193,64.531L 164.193,53.57L 136.79,53.57zM 109.39,64.531L 136.792,64.531L 136.792,53.57L 109.39,53.57zM 164.193,64.531L 191.596,64.531L 191.596,53.57L 164.193,53.57zM 164.193,26.819L 191.596,26.819L 191.596,15.857L 164.193,15.857zM 82.157-9.599L 109.559-9.599L 109.559-20.56L 82.157-20.56zM 54.756-9.599L 82.158-9.599L 82.158-20.56L 54.756-20.56zM 136.79-9.599L 164.193-9.599L 164.193-20.56L 136.79-20.56zM 109.39-9.599L 136.792-9.599L 136.792-20.56L 109.39-20.56z" horiz-adv-x="246.327" data-tags="c-tail" />
<glyph unicode="&#x62;" d="M 27.353,357.854L 54.756,357.854L 54.756,346.892L 27.353,346.892zM 27.353,321.431L 54.756,321.431L 54.756,310.469L 27.353,310.469zM 27.353,284.362L 54.756,284.362L 54.756,273.4L 27.353,273.4zM 27.353,247.94L 54.756,247.94L 54.756,236.979L 27.353,236.979zM 82.157,247.94L 109.559,247.94L 109.559,236.979L 82.157,236.979zM 136.79,247.94L 164.193,247.94L 164.193,236.979L 136.79,236.979zM 109.39,247.94L 136.792,247.94L 136.792,236.979L 109.39,236.979zM 164.193,247.94L 191.596,247.94L 191.596,236.979L 164.193,236.979zM 27.353,211.515L 54.756,211.515L 54.756,200.554L 27.353,200.554zM 54.756,211.515L 82.158,211.515L 82.158,200.554L 54.756,200.554zM 191.594,211.515L 218.997,211.515L 218.997,200.554L 191.594,200.554zM 27.353,174.448L 54.756,174.448L 54.756,163.487L 27.353,163.487zM 191.594,174.448L 218.997,174.448L 218.997,163.487L 191.594,163.487zM 27.353,138.023L 54.756,138.023L 54.756,127.062L 27.353,127.062zM 191.594,138.023L 218.997,138.023L 218.997,127.062L 191.594,127.062zM 27.353,100.955L 54.756,100.955L 54.756,89.993L 27.353,89.993zM 191.594,100.955L 218.997,100.955L 218.997,89.993L 191.594,89.993zM 27.353,64.531L 54.756,64.531L 54.756,53.57L 27.353,53.57zM 82.157,64.531L 109.559,64.531L 109.559,53.57L 82.157,53.57zM 54.756,64.531L 82.158,64.531L 82.158,53.57L 54.756,53.57zM 136.79,64.531L 164.193,64.531L 164.193,53.57L 136.79,53.57zM 109.39,64.531L 136.792,64.531L 136.792,53.57L 109.39,53.57zM 164.193,64.531L 191.596,64.531L 191.596,53.57L 164.193,53.57z" horiz-adv-x="246.327" />
<glyph unicode="&#x61;" d="M 82.157,247.942L 109.559,247.942L 109.559,236.982L 82.157,236.982zM 54.756,247.942L 82.158,247.942L 82.158,236.982L 54.756,236.982zM 136.79,247.942L 164.193,247.942L 164.193,236.982L 136.79,236.982zM 109.39,247.942L 136.792,247.942L 136.792,236.982L 109.39,236.982zM 164.193,211.519L 191.596,211.519L 191.596,200.558L 164.193,200.558zM 82.157,173.805L 109.559,173.805L 109.559,162.844L 82.157,162.844zM 54.756,173.805L 82.158,173.805L 82.158,162.844L 54.756,162.844zM 136.79,173.805L 164.193,173.805L 164.193,162.844L 136.79,162.844zM 109.39,173.805L 136.792,173.805L 136.792,162.844L 109.39,162.844zM 164.193,173.805L 191.596,173.805L 191.596,162.844L 164.193,162.844zM 27.353,137.381L 54.756,137.381L 54.756,126.42L 27.353,126.42zM 164.193,137.381L 191.596,137.381L 191.596,126.42L 164.193,126.42zM 27.353,100.956L 54.756,100.956L 54.756,89.993L 27.353,89.993zM 164.193,100.956L 191.596,100.956L 191.596,89.993L 164.193,89.993zM 82.157,63.888L 109.559,63.888L 109.559,52.927L 82.157,52.927zM 54.756,63.888L 82.158,63.888L 82.158,52.927L 54.756,52.927zM 136.79,63.888L 164.193,63.888L 164.193,52.927L 136.79,52.927zM 109.39,63.888L 136.792,63.888L 136.792,52.927L 109.39,52.927zM 191.594,63.888L 218.997,63.888L 218.997,52.927L 191.594,52.927z" horiz-adv-x="246.327" />
<glyph unicode="&#xe0;" d="M 82.157,357.214L 109.559,357.214L 109.559,346.252L 82.157,346.252zM 54.756,357.214L 82.158,357.214L 82.158,346.252L 54.756,346.252zM 109.39,320.79L 136.792,320.79L 136.792,309.827L 109.39,309.827zM 82.157,247.299L 109.559,247.299L 109.559,236.339L 82.157,236.339zM 54.756,247.299L 82.158,247.299L 82.158,236.339L 54.756,236.339zM 136.79,247.299L 164.193,247.299L 164.193,236.339L 136.79,236.339zM 109.39,247.299L 136.792,247.299L 136.792,236.339L 109.39,236.339zM 164.193,210.876L 191.596,210.876L 191.596,199.915L 164.193,199.915zM 82.157,173.807L 109.559,173.807L 109.559,162.846L 82.157,162.846zM 54.756,173.807L 82.158,173.807L 82.158,162.846L 54.756,162.846zM 136.79,173.807L 164.193,173.807L 164.193,162.846L 136.79,162.846zM 109.39,173.807L 136.792,173.807L 136.792,162.846L 109.39,162.846zM 164.193,173.807L 191.596,173.807L 191.596,162.846L 164.193,162.846zM 27.353,137.382L 54.756,137.382L 54.756,126.421L 27.353,126.421zM 164.193,137.382L 191.596,137.382L 191.596,126.421L 164.193,126.421zM 27.353,100.313L 54.756,100.313L 54.756,89.35L 27.353,89.35zM 164.193,100.313L 191.596,100.313L 191.596,89.35L 164.193,89.35zM 82.157,63.244L 109.559,63.244L 109.559,52.284L 82.157,52.284zM 54.756,63.244L 82.158,63.244L 82.158,52.284L 54.756,52.284zM 136.79,63.244L 164.193,63.244L 164.193,52.284L 136.79,52.284zM 109.39,63.244L 136.792,63.244L 136.792,52.284L 109.39,52.284zM 191.594,63.244L 218.997,63.244L 218.997,52.284L 191.594,52.284z" horiz-adv-x="246.327" data-tags="a-left" />
<glyph unicode="&#xe4;" d="M 27.353,321.434L 54.756,321.434L 54.756,310.473L 27.353,310.473zM 54.756,321.434L 82.158,321.434L 82.158,310.473L 54.756,310.473zM 136.79,321.434L 164.193,321.434L 164.193,310.473L 136.79,310.473zM 164.193,321.434L 191.596,321.434L 191.596,310.473L 164.193,310.473zM 82.157,247.943L 109.559,247.943L 109.559,236.984L 82.157,236.984zM 54.756,247.943L 82.158,247.943L 82.158,236.984L 54.756,236.984zM 136.79,247.943L 164.193,247.943L 164.193,236.984L 136.79,236.984zM 109.39,247.943L 136.792,247.943L 136.792,236.984L 109.39,236.984zM 164.193,211.52L 191.596,211.52L 191.596,200.559L 164.193,200.559zM 82.157,174.451L 109.559,174.451L 109.559,163.49L 82.157,163.49zM 54.756,174.451L 82.158,174.451L 82.158,163.49L 54.756,163.49zM 136.79,174.451L 164.193,174.451L 164.193,163.49L 136.79,163.49zM 109.39,174.451L 136.792,174.451L 136.792,163.49L 109.39,163.49zM 164.193,174.451L 191.596,174.451L 191.596,163.49L 164.193,163.49zM 27.353,138.027L 54.756,138.027L 54.756,127.066L 27.353,127.066zM 164.193,138.027L 191.596,138.027L 191.596,127.066L 164.193,127.066zM 27.353,100.313L 54.756,100.313L 54.756,89.351L 27.353,89.351zM 164.193,100.313L 191.596,100.313L 191.596,89.351L 164.193,89.351zM 82.157,64.533L 109.559,64.533L 109.559,53.572L 82.157,53.572zM 54.756,64.533L 82.158,64.533L 82.158,53.572L 54.756,53.572zM 136.79,64.533L 164.193,64.533L 164.193,53.572L 136.79,53.572zM 109.39,64.533L 136.792,64.533L 136.792,53.572L 109.39,53.572zM 191.594,64.533L 218.997,64.533L 218.997,53.572L 191.594,53.572z" horiz-adv-x="246.327" data-tags="a-dots" />
<glyph unicode="&#x55;" d="M 27.19,357.883L 54.592,357.883L 54.592,346.922L 27.19,346.922zM 191.431,357.883L 218.834,357.883L 218.834,346.922L 191.431,346.922zM 27.19,321.156L 54.592,321.156L 54.592,310.195L 27.19,310.195zM 191.431,321.156L 218.834,321.156L 218.834,310.195L 191.431,310.195zM 27.19,284.43L 54.592,284.43L 54.592,273.469L 27.19,273.469zM 191.431,284.43L 218.834,284.43L 218.834,273.469L 191.431,273.469zM 27.19,247.703L 54.592,247.703L 54.592,236.743L 27.19,236.743zM 191.431,247.703L 218.834,247.703L 218.834,236.743L 191.431,236.743zM 27.19,210.977L 54.592,210.977L 54.592,200.017L 27.19,200.017zM 191.431,210.977L 218.834,210.977L 218.834,200.017L 191.431,200.017zM 27.19,174.25L 54.592,174.25L 54.592,163.289L 27.19,163.289zM 191.431,174.25L 218.834,174.25L 218.834,163.289L 191.431,163.289zM 27.19,137.525L 54.592,137.525L 54.592,126.564L 27.19,126.564zM 191.431,137.525L 218.834,137.525L 218.834,126.564L 191.431,126.564zM 27.19,100.798L 54.592,100.798L 54.592,89.837L 27.19,89.837zM 191.431,100.798L 218.834,100.798L 218.834,89.837L 191.431,89.837zM 81.994,64.070L 109.396,64.070L 109.396,53.11L 81.994,53.11zM 54.593,64.070L 81.995,64.070L 81.995,53.11L 54.593,53.11zM 136.628,64.070L 164.030,64.070L 164.030,53.11L 136.628,53.11zM 109.227,64.070L 136.629,64.070L 136.629,53.11L 109.227,53.11zM 164.030,64.070L 191.432,64.070L 191.432,53.11L 164.030,53.11z" horiz-adv-x="246.327" />
<glyph unicode="&#x54;" d="M 27.607,357.883L 55.009,357.883L 55.009,346.922L 27.607,346.922zM 82.411,357.883L 109.813,357.883L 109.813,346.922L 82.411,346.922zM 55.009,357.883L 82.411,357.883L 82.411,346.922L 55.009,346.922zM 137.044,357.883L 164.446,357.883L 164.446,346.922L 137.044,346.922zM 109.643,357.883L 137.045,357.883L 137.045,346.922L 109.643,346.922zM 191.848,357.883L 219.25,357.883L 219.25,346.922L 191.848,346.922zM 164.446,357.883L 191.848,357.883L 191.848,346.922L 164.446,346.922zM 27.607,321.156L 55.009,321.156L 55.009,310.195L 27.607,310.195zM 109.643,321.156L 137.045,321.156L 137.045,310.195L 109.643,310.195zM 191.848,321.156L 219.25,321.156L 219.25,310.195L 191.848,310.195zM 109.643,284.43L 137.045,284.43L 137.045,273.469L 109.643,273.469zM 109.643,247.703L 137.045,247.703L 137.045,236.743L 109.643,236.743zM 109.643,210.977L 137.045,210.977L 137.045,200.017L 109.643,200.017zM 109.643,174.25L 137.045,174.25L 137.045,163.289L 109.643,163.289zM 109.643,137.525L 137.045,137.525L 137.045,126.564L 109.643,126.564zM 109.643,100.798L 137.045,100.798L 137.045,89.837L 109.643,89.837zM 82.411,64.070L 109.813,64.070L 109.813,53.11L 82.411,53.11zM 137.044,64.070L 164.446,64.070L 164.446,53.11L 137.044,53.11zM 109.643,64.070L 137.045,64.070L 137.045,53.11L 109.643,53.11z" horiz-adv-x="246.327" />
<glyph unicode="&#x53;" d="M 82.241,357.883L 109.642,357.883L 109.642,346.922L 82.241,346.922zM 54.84,357.883L 82.242,357.883L 82.242,346.922L 54.84,346.922zM 136.875,357.883L 164.277,357.883L 164.277,346.922L 136.875,346.922zM 109.474,357.883L 136.876,357.883L 136.876,346.922L 109.474,346.922zM 164.277,357.883L 191.68,357.883L 191.68,346.922L 164.277,346.922zM 27.438,321.156L 54.84,321.156L 54.84,310.195L 27.438,310.195zM 191.679,321.156L 219.080,321.156L 219.080,310.195L 191.679,310.195zM 27.438,284.43L 54.84,284.43L 54.84,273.469L 27.438,273.469zM 27.438,247.703L 54.84,247.703L 54.84,236.743L 27.438,236.743zM 54.84,247.703L 82.242,247.703L 82.242,236.743L 54.84,236.743zM 82.241,210.977L 109.642,210.977L 109.642,200.017L 82.241,200.017zM 136.875,210.977L 164.277,210.977L 164.277,200.017L 136.875,200.017zM 109.474,210.977L 136.876,210.977L 136.876,200.017L 109.474,200.017zM 191.679,174.25L 219.080,174.25L 219.080,163.289L 191.679,163.289zM 164.277,174.25L 191.68,174.25L 191.68,163.289L 164.277,163.289zM 191.679,137.525L 219.080,137.525L 219.080,126.564L 191.679,126.564zM 27.438,100.798L 54.84,100.798L 54.84,89.837L 27.438,89.837zM 191.679,100.798L 219.080,100.798L 219.080,89.837L 191.679,89.837zM 82.241,64.070L 109.642,64.070L 109.642,53.11L 82.241,53.11zM 54.84,64.070L 82.242,64.070L 82.242,53.11L 54.84,53.11zM 136.875,64.070L 164.277,64.070L 164.277,53.11L 136.875,53.11zM 109.474,64.070L 136.876,64.070L 136.876,53.11L 109.474,53.11zM 164.277,64.070L 191.68,64.070L 191.68,53.11L 164.277,53.11z" horiz-adv-x="246.327" />
<glyph unicode="&#x52;" d="M 27.274,357.882L 54.676,357.882L 54.676,346.922L 27.274,346.922zM 82.078,357.882L 109.48,357.882L 109.48,346.922L 82.078,346.922zM 54.676,357.882L 82.079,357.882L 82.079,346.922L 54.676,346.922zM 136.712,357.882L 164.113,357.882L 164.113,346.922L 136.712,346.922zM 109.311,357.882L 136.712,357.882L 136.712,346.922L 109.311,346.922zM 164.113,357.882L 191.516,357.882L 191.516,346.922L 164.113,346.922zM 27.274,321.156L 54.676,321.156L 54.676,310.195L 27.274,310.195zM 191.515,321.156L 218.917,321.156L 218.917,310.195L 191.515,310.195zM 27.274,284.429L 54.676,284.429L 54.676,273.469L 27.274,273.469zM 191.515,284.429L 218.917,284.429L 218.917,273.469L 191.515,273.469zM 27.274,247.703L 54.676,247.703L 54.676,236.741L 27.274,236.741zM 191.515,247.703L 218.917,247.703L 218.917,236.741L 191.515,236.741zM 27.274,210.977L 54.676,210.977L 54.676,200.015L 27.274,200.015zM 82.078,210.977L 109.48,210.977L 109.48,200.015L 82.078,200.015zM 54.676,210.977L 82.079,210.977L 82.079,200.015L 54.676,200.015zM 136.712,210.977L 164.113,210.977L 164.113,200.015L 136.712,200.015zM 109.311,210.977L 136.712,210.977L 136.712,200.015L 109.311,200.015zM 164.113,210.977L 191.516,210.977L 191.516,200.015L 164.113,200.015zM 27.274,174.25L 54.676,174.25L 54.676,163.289L 27.274,163.289zM 109.311,174.25L 136.712,174.25L 136.712,163.289L 109.311,163.289zM 27.274,137.524L 54.676,137.524L 54.676,126.563L 27.274,126.563zM 136.712,137.524L 164.113,137.524L 164.113,126.563L 136.712,126.563zM 27.274,100.796L 54.676,100.796L 54.676,89.836L 27.274,89.836zM 164.113,100.796L 191.516,100.796L 191.516,89.836L 164.113,89.836zM 27.274,64.070L 54.676,64.070L 54.676,53.109L 27.274,53.109zM 191.515,64.070L 218.917,64.070L 218.917,53.109L 191.515,53.109z" horiz-adv-x="246.327" />
<glyph unicode="&#x51;" d="M 81.641,357.882L 109.043,357.882L 109.043,346.922L 81.641,346.922zM 54.24,357.882L 81.643,357.882L 81.643,346.922L 54.24,346.922zM 136.276,357.882L 163.678,357.882L 163.678,346.922L 136.276,346.922zM 108.874,357.882L 136.276,357.882L 136.276,346.922L 108.874,346.922zM 163.678,357.882L 191.080,357.882L 191.080,346.922L 163.678,346.922zM 26.837,321.156L 54.24,321.156L 54.24,310.195L 26.837,310.195zM 191.080,321.156L 218.482,321.156L 218.482,310.195L 191.080,310.195zM 26.837,284.429L 54.24,284.429L 54.24,273.469L 26.837,273.469zM 191.080,284.429L 218.482,284.429L 218.482,273.469L 191.080,273.469zM 26.837,247.703L 54.24,247.703L 54.24,236.741L 26.837,236.741zM 191.080,247.703L 218.482,247.703L 218.482,236.741L 191.080,236.741zM 26.837,210.977L 54.24,210.977L 54.24,200.015L 26.837,200.015zM 191.080,210.977L 218.482,210.977L 218.482,200.015L 191.080,200.015zM 26.837,174.25L 54.24,174.25L 54.24,163.289L 26.837,163.289zM 108.874,174.25L 136.276,174.25L 136.276,163.289L 108.874,163.289zM 191.080,174.25L 218.482,174.25L 218.482,163.289L 191.080,163.289zM 26.837,137.524L 54.24,137.524L 54.24,126.563L 26.837,126.563zM 136.276,137.524L 163.678,137.524L 163.678,126.563L 136.276,126.563zM 191.080,137.524L 218.482,137.524L 218.482,126.563L 191.080,126.563zM 26.837,100.796L 54.24,100.796L 54.24,89.836L 26.837,89.836zM 163.678,100.796L 191.080,100.796L 191.080,89.836L 163.678,89.836zM 81.641,64.070L 109.043,64.070L 109.043,53.109L 81.641,53.109zM 54.24,64.070L 81.643,64.070L 81.643,53.109L 54.24,53.109zM 136.276,64.070L 163.678,64.070L 163.678,53.109L 136.276,53.109zM 108.874,64.070L 136.276,64.070L 136.276,53.109L 108.874,53.109zM 191.080,64.070L 218.482,64.070L 218.482,53.109L 191.080,53.109zM 163.678,64.070L 191.080,64.070L 191.080,53.109L 163.678,53.109z" horiz-adv-x="246.327" />
<glyph unicode="&#x4f;" d="M 82.222,357.883L 109.624,357.883L 109.624,346.922L 82.222,346.922zM 54.821,357.883L 82.222,357.883L 82.222,346.922L 54.821,346.922zM 136.856,357.883L 164.257,357.883L 164.257,346.922L 136.856,346.922zM 109.455,357.883L 136.856,357.883L 136.856,346.922L 109.455,346.922zM 164.257,357.883L 191.66,357.883L 191.66,346.922L 164.257,346.922zM 27.418,321.156L 54.821,321.156L 54.821,310.195L 27.418,310.195zM 191.66,321.156L 219.061,321.156L 219.061,310.195L 191.66,310.195zM 27.418,284.43L 54.821,284.43L 54.821,273.469L 27.418,273.469zM 191.66,284.43L 219.061,284.43L 219.061,273.469L 191.66,273.469zM 27.418,247.703L 54.821,247.703L 54.821,236.743L 27.418,236.743zM 191.66,247.703L 219.061,247.703L 219.061,236.743L 191.66,236.743zM 27.418,210.977L 54.821,210.977L 54.821,200.017L 27.418,200.017zM 191.66,210.977L 219.061,210.977L 219.061,200.017L 191.66,200.017zM 27.418,174.25L 54.821,174.25L 54.821,163.289L 27.418,163.289zM 191.66,174.25L 219.061,174.25L 219.061,163.289L 191.66,163.289zM 27.418,137.525L 54.821,137.525L 54.821,126.564L 27.418,126.564zM 191.66,137.525L 219.061,137.525L 219.061,126.564L 191.66,126.564zM 27.418,100.798L 54.821,100.798L 54.821,89.837L 27.418,89.837zM 191.66,100.798L 219.061,100.798L 219.061,89.837L 191.66,89.837zM 82.222,64.070L 109.624,64.070L 109.624,53.11L 82.222,53.11zM 54.821,64.070L 82.222,64.070L 82.222,53.11L 54.821,53.11zM 136.856,64.070L 164.257,64.070L 164.257,53.11L 136.856,53.11zM 109.455,64.070L 136.856,64.070L 136.856,53.11L 109.455,53.11zM 164.257,64.070L 191.66,64.070L 191.66,53.11L 164.257,53.11z" horiz-adv-x="246.327" />
<glyph unicode="&#x4e;" d="M 27.171,357.883L 54.573,357.883L 54.573,346.922L 27.171,346.922zM 191.412,357.883L 218.814,357.883L 218.814,346.922L 191.412,346.922zM 27.171,321.156L 54.573,321.156L 54.573,310.195L 27.171,310.195zM 191.412,321.156L 218.814,321.156L 218.814,310.195L 191.412,310.195zM 27.171,284.43L 54.573,284.43L 54.573,273.469L 27.171,273.469zM 54.573,284.43L 81.975,284.43L 81.975,273.469L 54.573,273.469zM 191.412,284.43L 218.814,284.43L 218.814,273.469L 191.412,273.469zM 27.171,247.703L 54.573,247.703L 54.573,236.743L 27.171,236.743zM 81.975,247.703L 109.376,247.703L 109.376,236.743L 81.975,236.743zM 191.412,247.703L 218.814,247.703L 218.814,236.743L 191.412,236.743zM 27.171,210.977L 54.573,210.977L 54.573,200.017L 27.171,200.017zM 109.208,210.977L 136.61,210.977L 136.61,200.017L 109.208,200.017zM 191.412,210.977L 218.814,210.977L 218.814,200.017L 191.412,200.017zM 27.171,174.25L 54.573,174.25L 54.573,163.289L 27.171,163.289zM 136.609,174.25L 164.010,174.25L 164.010,163.289L 136.609,163.289zM 191.412,174.25L 218.814,174.25L 218.814,163.289L 191.412,163.289zM 27.171,137.525L 54.573,137.525L 54.573,126.564L 27.171,126.564zM 191.412,137.525L 218.814,137.525L 218.814,126.564L 191.412,126.564zM 164.011,137.525L 191.413,137.525L 191.413,126.564L 164.011,126.564zM 27.171,100.798L 54.573,100.798L 54.573,89.837L 27.171,89.837zM 191.412,100.798L 218.814,100.798L 218.814,89.837L 191.412,89.837zM 27.171,64.070L 54.573,64.070L 54.573,53.11L 27.171,53.11zM 191.412,64.070L 218.814,64.070L 218.814,53.11L 191.412,53.11z" horiz-adv-x="246.327" />
<glyph unicode="&#x4d;" d="M 27.607,357.883L 55.009,357.883L 55.009,346.922L 27.607,346.922zM 191.848,357.883L 219.25,357.883L 219.25,346.922L 191.848,346.922zM 27.607,321.156L 55.009,321.156L 55.009,310.195L 27.607,310.195zM 191.848,321.156L 219.25,321.156L 219.25,310.195L 191.848,310.195zM 27.607,284.43L 55.009,284.43L 55.009,273.469L 27.607,273.469zM 55.009,284.43L 82.411,284.43L 82.411,273.469L 55.009,273.469zM 191.848,284.43L 219.25,284.43L 219.25,273.469L 191.848,273.469zM 164.446,284.43L 191.848,284.43L 191.848,273.469L 164.446,273.469zM 27.607,247.703L 55.009,247.703L 55.009,236.743L 27.607,236.743zM 82.411,247.703L 109.813,247.703L 109.813,236.743L 82.411,236.743zM 137.044,247.703L 164.446,247.703L 164.446,236.743L 137.044,236.743zM 191.848,247.703L 219.25,247.703L 219.25,236.743L 191.848,236.743zM 27.607,210.977L 55.009,210.977L 55.009,200.017L 27.607,200.017zM 109.643,210.977L 137.045,210.977L 137.045,200.017L 109.643,200.017zM 191.848,210.977L 219.25,210.977L 219.25,200.017L 191.848,200.017zM 27.607,174.25L 55.009,174.25L 55.009,163.289L 27.607,163.289zM 191.848,174.25L 219.25,174.25L 219.25,163.289L 191.848,163.289zM 27.607,137.525L 55.009,137.525L 55.009,126.564L 27.607,126.564zM 191.848,137.525L 219.25,137.525L 219.25,126.564L 191.848,126.564zM 27.607,100.798L 55.009,100.798L 55.009,89.837L 27.607,89.837zM 191.848,100.798L 219.25,100.798L 219.25,89.837L 191.848,89.837zM 27.607,64.070L 55.009,64.070L 55.009,53.11L 27.607,53.11zM 191.848,64.070L 219.25,64.070L 219.25,53.11L 191.848,53.11z" horiz-adv-x="246.327" />
<glyph unicode="&#x4c;" d="M 27.268,357.883L 54.671,357.883L 54.671,346.922L 27.268,346.922zM 82.072,357.883L 109.474,357.883L 109.474,346.922L 82.072,346.922zM 54.671,357.883L 82.073,357.883L 82.073,346.922L 54.671,346.922zM 54.671,321.156L 82.073,321.156L 82.073,310.195L 54.671,310.195zM 54.671,284.43L 82.073,284.43L 82.073,273.469L 54.671,273.469zM 54.671,247.703L 82.073,247.703L 82.073,236.743L 54.671,236.743zM 54.671,210.977L 82.073,210.977L 82.073,200.017L 54.671,200.017zM 54.671,174.25L 82.073,174.25L 82.073,163.289L 54.671,163.289zM 54.671,137.525L 82.073,137.525L 82.073,126.564L 54.671,126.564zM 54.671,100.798L 82.073,100.798L 82.073,89.837L 54.671,89.837zM 191.51,100.798L 218.912,100.798L 218.912,89.837L 191.51,89.837zM 27.268,64.070L 54.671,64.070L 54.671,53.11L 27.268,53.11zM 82.072,64.070L 109.474,64.070L 109.474,53.11L 82.072,53.11zM 54.671,64.070L 82.073,64.070L 82.073,53.11L 54.671,53.11zM 136.707,64.070L 164.108,64.070L 164.108,53.11L 136.707,53.11zM 109.305,64.070L 136.707,64.070L 136.707,53.11L 109.305,53.11zM 191.51,64.070L 218.912,64.070L 218.912,53.11L 191.51,53.11zM 164.108,64.070L 191.51,64.070L 191.51,53.11L 164.108,53.11z" horiz-adv-x="246.327" />
<glyph unicode="&#x4b;" d="M 27.476,357.883L 54.878,357.883L 54.878,346.922L 27.476,346.922zM 54.879,357.883L 82.28,357.883L 82.28,346.922L 54.879,346.922zM 191.718,357.883L 219.12,357.883L 219.12,346.922L 191.718,346.922zM 54.879,321.156L 82.28,321.156L 82.28,310.195L 54.879,310.195zM 191.718,321.156L 219.12,321.156L 219.12,310.195L 191.718,310.195zM 54.879,284.43L 82.28,284.43L 82.28,273.469L 54.879,273.469zM 164.316,284.43L 191.718,284.43L 191.718,273.469L 164.316,273.469zM 54.879,247.703L 82.28,247.703L 82.28,236.743L 54.879,236.743zM 136.914,247.703L 164.316,247.703L 164.316,236.743L 136.914,236.743zM 82.279,210.977L 109.681,210.977L 109.681,200.017L 82.279,200.017zM 54.879,210.977L 82.28,210.977L 82.28,200.017L 54.879,200.017zM 109.513,210.977L 136.914,210.977L 136.914,200.017L 109.513,200.017zM 54.879,174.25L 82.28,174.25L 82.28,163.289L 54.879,163.289zM 136.914,174.25L 164.316,174.25L 164.316,163.289L 136.914,163.289zM 54.879,137.525L 82.28,137.525L 82.28,126.564L 54.879,126.564zM 164.316,137.525L 191.718,137.525L 191.718,126.564L 164.316,126.564zM 54.879,100.798L 82.28,100.798L 82.28,89.837L 54.879,89.837zM 191.718,100.798L 219.12,100.798L 219.12,89.837L 191.718,89.837zM 27.476,64.070L 54.878,64.070L 54.878,53.11L 27.476,53.11zM 54.879,64.070L 82.28,64.070L 82.28,53.11L 54.879,53.11zM 191.718,64.070L 219.12,64.070L 219.12,53.11L 191.718,53.11z" horiz-adv-x="246.327" />
<glyph unicode="&#x4a;" d="M 27.041,357.883L 54.443,357.883L 54.443,346.922L 27.041,346.922zM 81.845,357.883L 109.247,357.883L 109.247,346.922L 81.845,346.922zM 54.443,357.883L 81.845,357.883L 81.845,346.922L 54.443,346.922zM 136.478,357.883L 163.88,357.883L 163.88,346.922L 136.478,346.922zM 109.077,357.883L 136.479,357.883L 136.479,346.922L 109.077,346.922zM 191.282,357.883L 218.683,357.883L 218.683,346.922L 191.282,346.922zM 163.881,357.883L 191.283,357.883L 191.283,346.922L 163.881,346.922zM 136.478,321.156L 163.88,321.156L 163.88,310.195L 136.478,310.195zM 136.478,284.43L 163.88,284.43L 163.88,273.469L 136.478,273.469zM 136.478,247.703L 163.88,247.703L 163.88,236.743L 136.478,236.743zM 136.478,210.977L 163.88,210.977L 163.88,200.017L 136.478,200.017zM 136.478,174.25L 163.88,174.25L 163.88,163.289L 136.478,163.289zM 27.041,137.525L 54.443,137.525L 54.443,126.564L 27.041,126.564zM 136.478,137.525L 163.88,137.525L 163.88,126.564L 136.478,126.564zM 27.041,100.798L 54.443,100.798L 54.443,89.837L 27.041,89.837zM 136.478,100.798L 163.88,100.798L 163.88,89.837L 136.478,89.837zM 81.845,64.070L 109.247,64.070L 109.247,53.11L 81.845,53.11zM 54.443,64.070L 81.845,64.070L 81.845,53.11L 54.443,53.11zM 109.077,64.070L 136.479,64.070L 136.479,53.11L 109.077,53.11z" horiz-adv-x="246.327" />
<glyph unicode="&#x49;" d="M 81.786,357.883L 109.188,357.883L 109.188,346.922L 81.786,346.922zM 136.42,357.883L 163.821,357.883L 163.821,346.922L 136.42,346.922zM 109.019,357.883L 136.421,357.883L 136.421,346.922L 109.019,346.922zM 109.019,321.156L 136.421,321.156L 136.421,310.195L 109.019,310.195zM 109.019,284.43L 136.421,284.43L 136.421,273.469L 109.019,273.469zM 109.019,247.703L 136.421,247.703L 136.421,236.743L 109.019,236.743zM 109.019,210.977L 136.421,210.977L 136.421,200.017L 109.019,200.017zM 109.019,174.25L 136.421,174.25L 136.421,163.289L 109.019,163.289zM 109.019,137.525L 136.421,137.525L 136.421,126.564L 109.019,126.564zM 109.019,100.798L 136.421,100.798L 136.421,89.837L 109.019,89.837zM 81.786,64.070L 109.188,64.070L 109.188,53.11L 81.786,53.11zM 136.42,64.070L 163.821,64.070L 163.821,53.11L 136.42,53.11zM 109.019,64.070L 136.421,64.070L 136.421,53.11L 109.019,53.11z" horiz-adv-x="246.327" />
<glyph unicode="&#x48;" d="M 27.249,357.883L 54.651,357.883L 54.651,346.922L 27.249,346.922zM 191.49,357.883L 218.892,357.883L 218.892,346.922L 191.49,346.922zM 27.249,321.156L 54.651,321.156L 54.651,310.195L 27.249,310.195zM 191.49,321.156L 218.892,321.156L 218.892,310.195L 191.49,310.195zM 27.249,284.43L 54.651,284.43L 54.651,273.469L 27.249,273.469zM 191.49,284.43L 218.892,284.43L 218.892,273.469L 191.49,273.469zM 27.249,247.703L 54.651,247.703L 54.651,236.743L 27.249,236.743zM 191.49,247.703L 218.892,247.703L 218.892,236.743L 191.49,236.743zM 27.249,210.977L 54.651,210.977L 54.651,200.017L 27.249,200.017zM 82.053,210.977L 109.455,210.977L 109.455,200.017L 82.053,200.017zM 54.651,210.977L 82.053,210.977L 82.053,200.017L 54.651,200.017zM 136.686,210.977L 164.088,210.977L 164.088,200.017L 136.686,200.017zM 109.286,210.977L 136.687,210.977L 136.687,200.017L 109.286,200.017zM 191.49,210.977L 218.892,210.977L 218.892,200.017L 191.49,200.017zM 164.088,210.977L 191.491,210.977L 191.491,200.017L 164.088,200.017zM 27.249,174.25L 54.651,174.25L 54.651,163.289L 27.249,163.289zM 191.49,174.25L 218.892,174.25L 218.892,163.289L 191.49,163.289zM 27.249,137.525L 54.651,137.525L 54.651,126.564L 27.249,126.564zM 191.49,137.525L 218.892,137.525L 218.892,126.564L 191.49,126.564zM 27.249,100.798L 54.651,100.798L 54.651,89.837L 27.249,89.837zM 191.49,100.798L 218.892,100.798L 218.892,89.837L 191.49,89.837zM 27.249,64.070L 54.651,64.070L 54.651,53.11L 27.249,53.11zM 191.49,64.070L 218.892,64.070L 218.892,53.11L 191.49,53.11z" horiz-adv-x="246.327" />
<glyph unicode="&#x42;" d="M 27.379,357.883L 54.781,357.883L 54.781,346.922L 27.379,346.922zM 82.183,357.883L 109.584,357.883L 109.584,346.922L 82.183,346.922zM 54.782,357.883L 82.184,357.883L 82.184,346.922L 54.782,346.922zM 136.816,357.883L 164.219,357.883L 164.219,346.922L 136.816,346.922zM 109.416,357.883L 136.817,357.883L 136.817,346.922L 109.416,346.922zM 164.219,357.883L 191.621,357.883L 191.621,346.922L 164.219,346.922zM 27.379,321.156L 54.781,321.156L 54.781,310.195L 27.379,310.195zM 191.62,321.156L 219.023,321.156L 219.023,310.195L 191.62,310.195zM 27.379,284.43L 54.781,284.43L 54.781,273.469L 27.379,273.469zM 191.62,284.43L 219.023,284.43L 219.023,273.469L 191.62,273.469zM 27.379,247.703L 54.781,247.703L 54.781,236.743L 27.379,236.743zM 191.62,247.703L 219.023,247.703L 219.023,236.743L 191.62,236.743zM 27.379,210.977L 54.781,210.977L 54.781,200.017L 27.379,200.017zM 82.183,210.977L 109.584,210.977L 109.584,200.017L 82.183,200.017zM 54.782,210.977L 82.184,210.977L 82.184,200.017L 54.782,200.017zM 136.816,210.977L 164.219,210.977L 164.219,200.017L 136.816,200.017zM 109.416,210.977L 136.817,210.977L 136.817,200.017L 109.416,200.017zM 164.219,210.977L 191.621,210.977L 191.621,200.017L 164.219,200.017zM 27.379,174.25L 54.781,174.25L 54.781,163.289L 27.379,163.289zM 191.62,174.25L 219.023,174.25L 219.023,163.289L 191.62,163.289zM 27.379,137.525L 54.781,137.525L 54.781,126.564L 27.379,126.564zM 191.62,137.525L 219.023,137.525L 219.023,126.564L 191.62,126.564zM 27.379,100.798L 54.781,100.798L 54.781,89.837L 27.379,89.837zM 191.62,100.798L 219.023,100.798L 219.023,89.837L 191.62,89.837zM 27.379,64.070L 54.781,64.070L 54.781,53.11L 27.379,53.11zM 82.183,64.070L 109.584,64.070L 109.584,53.11L 82.183,53.11zM 54.782,64.070L 82.184,64.070L 82.184,53.11L 54.782,53.11zM 136.816,64.070L 164.219,64.070L 164.219,53.11L 136.816,53.11zM 109.416,64.070L 136.817,64.070L 136.817,53.11L 109.416,53.11zM 164.219,64.070L 191.621,64.070L 191.621,53.11L 164.219,53.11z" horiz-adv-x="246.327" />
<glyph unicode="&#x41;" d="M 81.805,357.989L 109.207,357.989L 109.207,347.028L 81.805,347.028zM 54.404,357.989L 81.807,357.989L 81.807,347.028L 54.404,347.028zM 136.439,357.989L 163.841,357.989L 163.841,347.028L 136.439,347.028zM 109.038,357.989L 136.44,357.989L 136.44,347.028L 109.038,347.028zM 163.841,357.989L 191.244,357.989L 191.244,347.028L 163.841,347.028zM 27.001,321.262L 54.403,321.262L 54.403,310.302L 27.001,310.302zM 191.243,321.262L 218.645,321.262L 218.645,310.302L 191.243,310.302zM 27.001,284.537L 54.403,284.537L 54.403,273.576L 27.001,273.576zM 191.243,284.537L 218.645,284.537L 218.645,273.576L 191.243,273.576zM 27.001,247.809L 54.403,247.809L 54.403,236.848L 27.001,236.848zM 191.243,247.809L 218.645,247.809L 218.645,236.848L 191.243,236.848zM 27.001,211.083L 54.403,211.083L 54.403,200.122L 27.001,200.122zM 81.805,211.083L 109.207,211.083L 109.207,200.122L 81.805,200.122zM 54.404,211.083L 81.807,211.083L 81.807,200.122L 54.404,200.122zM 136.439,211.083L 163.841,211.083L 163.841,200.122L 136.439,200.122zM 109.038,211.083L 136.44,211.083L 136.44,200.122L 109.038,200.122zM 191.243,211.083L 218.645,211.083L 218.645,200.122L 191.243,200.122zM 163.841,211.083L 191.244,211.083L 191.244,200.122L 163.841,200.122zM 27.001,174.357L 54.403,174.357L 54.403,163.396L 27.001,163.396zM 191.243,174.357L 218.645,174.357L 218.645,163.396L 191.243,163.396zM 27.001,137.631L 54.403,137.631L 54.403,126.67L 27.001,126.67zM 191.243,137.631L 218.645,137.631L 218.645,126.67L 191.243,126.67zM 27.001,100.905L 54.403,100.905L 54.403,89.942L 27.001,89.942zM 191.243,100.905L 218.645,100.905L 218.645,89.942L 191.243,89.942zM 27.001,64.177L 54.403,64.177L 54.403,53.216L 27.001,53.216zM 191.243,64.177L 218.645,64.177L 218.645,53.216L 191.243,53.216z" horiz-adv-x="246.327" />
<glyph unicode="&#x7c;" d="M 109.435,357.882L 136.836,357.882L 136.836,346.919L 109.435,346.919zM 109.435,321.154L 136.836,321.154L 136.836,310.194L 109.435,310.194zM 109.435,284.429L 136.836,284.429L 136.836,273.468L 109.435,273.468zM 109.435,247.702L 136.836,247.702L 136.836,236.741L 109.435,236.741zM 109.435,174.249L 136.836,174.249L 136.836,163.288L 109.435,163.288zM 109.435,137.524L 136.836,137.524L 136.836,126.563L 109.435,126.563zM 109.435,100.798L 136.836,100.798L 136.836,89.835L 109.435,89.835zM 109.435,64.069L 136.836,64.069L 136.836,53.109L 109.435,53.109z" horiz-adv-x="246.327" data-tags="vpipe" />
<glyph unicode="&#x5f;" d="M 27.607,64.070L 55.009,64.070L 55.009,53.109L 27.607,53.109zM 82.411,64.070L 109.813,64.070L 109.813,53.109L 82.411,53.109zM 55.009,64.070L 82.411,64.070L 82.411,53.109L 55.009,53.109zM 137.044,64.070L 164.446,64.070L 164.446,53.109L 137.044,53.109zM 109.643,64.070L 137.045,64.070L 137.045,53.109L 109.643,53.109zM 191.848,64.070L 219.25,64.070L 219.25,53.109L 191.848,53.109zM 164.446,64.070L 191.848,64.070L 191.848,53.109L 164.446,53.109z" horiz-adv-x="246.327" data-tags="underscore" />
<glyph unicode="&#x3b;" d="M 136.816,358.224L 164.219,358.224L 164.219,347.263L 136.816,347.263zM 109.416,358.224L 136.817,358.224L 136.817,347.263L 109.416,347.263zM 136.816,321.497L 164.219,321.497L 164.219,310.537L 136.816,310.537zM 109.416,321.497L 136.817,321.497L 136.817,310.537L 109.416,310.537zM 136.816,174.593L 164.219,174.593L 164.219,163.631L 136.816,163.631zM 109.416,174.593L 136.817,174.593L 136.817,163.631L 109.416,163.631zM 136.816,137.865L 164.219,137.865L 164.219,126.904L 136.816,126.904zM 109.416,137.865L 136.817,137.865L 136.817,126.904L 109.416,126.904zM 109.416,101.139L 136.817,101.139L 136.817,90.179L 109.416,90.179zM 82.183,64.413L 109.584,64.413L 109.584,53.452L 82.183,53.452z" horiz-adv-x="246.327" data-tags="semicolon" />
<glyph unicode="&#x27;" d="M 137.025,394.95L 164.427,394.95L 164.427,383.99L 137.025,383.99zM 109.623,394.95L 137.025,394.95L 137.025,383.99L 109.623,383.99zM 137.025,358.224L 164.427,358.224L 164.427,347.262L 137.025,347.262zM 109.623,358.224L 137.025,358.224L 137.025,347.262L 109.623,347.262zM 137.025,321.497L 164.427,321.497L 164.427,310.536L 137.025,310.536zM 109.623,321.497L 137.025,321.497L 137.025,310.536L 109.623,310.536zM 109.623,284.771L 137.025,284.771L 137.025,273.81L 109.623,273.81zM 82.391,248.045L 109.793,248.045L 109.793,237.084L 82.391,237.084z" horiz-adv-x="246.327" data-tags="quote" />
<glyph unicode="&#x3f;" d="M 82.144,358.722L 109.546,358.722L 109.546,347.761L 82.144,347.761zM 54.745,358.722L 82.145,358.722L 82.145,347.761L 54.745,347.761zM 136.779,358.722L 164.18,358.722L 164.18,347.761L 136.779,347.761zM 109.378,358.722L 136.779,358.722L 136.779,347.761L 109.378,347.761zM 164.18,358.722L 191.583,358.722L 191.583,347.761L 164.18,347.761zM 27.341,321.994L 54.743,321.994L 54.743,311.034L 27.341,311.034zM 191.582,321.994L 218.984,321.994L 218.984,311.034L 191.582,311.034zM 27.341,285.268L 54.743,285.268L 54.743,274.308L 27.341,274.308zM 191.582,285.268L 218.984,285.268L 218.984,274.308L 191.582,274.308zM 164.18,248.542L 191.583,248.542L 191.583,237.581L 164.18,237.581zM 136.779,211.816L 164.18,211.816L 164.18,200.855L 136.779,200.855zM 109.378,175.089L 136.779,175.089L 136.779,164.128L 109.378,164.128zM 109.378,138.364L 136.779,138.364L 136.779,127.402L 109.378,127.402zM 109.378,64.909L 136.779,64.909L 136.779,53.948L 109.378,53.948zM 109.378,28.184L 136.779,28.184L 136.779,17.223L 109.378,17.223z" horiz-adv-x="246.327" data-tags="question" />
<glyph unicode="&#xa3;" d="M 136.425,395.533L 163.827,395.533L 163.827,384.571L 136.425,384.571zM 109.024,395.533L 136.426,395.533L 136.426,384.571L 109.024,384.571zM 81.792,358.807L 109.194,358.807L 109.194,347.846L 81.792,347.846zM 163.827,358.807L 191.229,358.807L 191.229,347.846L 163.827,347.846zM 81.792,322.079L 109.194,322.079L 109.194,311.117L 81.792,311.117zM 81.792,285.353L 109.194,285.353L 109.194,274.392L 81.792,274.392zM 81.792,248.628L 109.194,248.628L 109.194,237.666L 81.792,237.666zM 54.39,248.628L 81.792,248.628L 81.792,237.666L 54.39,237.666zM 109.024,248.628L 136.426,248.628L 136.426,237.666L 109.024,237.666zM 81.792,211.902L 109.194,211.902L 109.194,200.939L 81.792,200.939zM 81.792,175.174L 109.194,175.174L 109.194,164.212L 81.792,164.212zM 81.792,138.448L 109.194,138.448L 109.194,127.487L 81.792,127.487zM 81.792,101.722L 109.194,101.722L 109.194,90.761L 81.792,90.761zM 54.39,101.722L 81.792,101.722L 81.792,90.761L 54.39,90.761zM 109.024,101.722L 136.426,101.722L 136.426,90.761L 109.024,90.761zM 191.229,101.722L 218.63,101.722L 218.63,90.761L 191.229,90.761zM 81.792,64.994L 109.194,64.994L 109.194,54.033L 81.792,54.033zM 54.39,64.994L 81.792,64.994L 81.792,54.033L 54.39,54.033zM 136.425,64.994L 163.827,64.994L 163.827,54.033L 136.425,54.033zM 109.024,64.994L 136.426,64.994L 136.426,54.033L 109.024,54.033zM 163.827,64.994L 191.229,64.994L 191.229,54.033L 163.827,54.033z" horiz-adv-x="246.327" data-tags="pound" />
<glyph unicode="&#x2b;" d="M 109.643,321.802L 137.045,321.802L 137.045,310.84L 109.643,310.84zM 109.643,285.075L 137.045,285.075L 137.045,274.114L 109.643,274.114zM 109.643,248.348L 137.045,248.348L 137.045,237.386L 109.643,237.386zM 82.411,211.622L 109.813,211.622L 109.813,200.661L 82.411,200.661zM 55.009,211.622L 82.411,211.622L 82.411,200.661L 55.009,200.661zM 137.044,211.622L 164.446,211.622L 164.446,200.661L 137.044,200.661zM 109.643,211.622L 137.045,211.622L 137.045,200.661L 109.643,200.661zM 164.446,211.622L 191.848,211.622L 191.848,200.661L 164.446,200.661zM 109.643,174.896L 137.045,174.896L 137.045,163.934L 109.643,163.934zM 109.643,138.172L 137.045,138.172L 137.045,127.208L 109.643,127.208zM 109.643,101.443L 137.045,101.443L 137.045,90.482L 109.643,90.482z" horiz-adv-x="246.327" data-tags="plus" />
<glyph unicode="&#x2e;" d="M 136.816,101.443L 164.219,101.443L 164.219,90.482L 136.816,90.482zM 109.416,101.443L 136.817,101.443L 136.817,90.482L 109.416,90.482zM 136.816,64.716L 164.219,64.716L 164.219,53.755L 136.816,53.755zM 109.416,64.716L 136.817,64.716L 136.817,53.755L 109.416,53.755z" horiz-adv-x="246.327" data-tags="period" />
<glyph unicode="&#x25;" d="M 81.786,358.528L 109.188,358.528L 109.188,347.567L 81.786,347.567zM 54.384,358.528L 81.787,358.528L 81.787,347.567L 54.384,347.567zM 26.982,321.802L 54.384,321.802L 54.384,310.84L 26.982,310.84zM 109.019,321.802L 136.421,321.802L 136.421,310.84L 109.019,310.84zM 191.224,321.802L 218.625,321.802L 218.625,310.84L 191.224,310.84zM 26.982,285.075L 54.384,285.075L 54.384,274.114L 26.982,274.114zM 109.019,285.075L 136.421,285.075L 136.421,274.114L 109.019,274.114zM 163.822,285.075L 191.224,285.075L 191.224,274.114L 163.822,274.114zM 81.786,248.348L 109.188,248.348L 109.188,237.386L 81.786,237.386zM 54.384,248.348L 81.787,248.348L 81.787,237.386L 54.384,237.386zM 136.42,248.348L 163.821,248.348L 163.821,237.386L 136.42,237.386zM 109.019,211.622L 136.421,211.622L 136.421,200.661L 109.019,200.661zM 81.786,174.896L 109.188,174.896L 109.188,163.934L 81.786,163.934zM 136.42,174.896L 163.821,174.896L 163.821,163.934L 136.42,163.934zM 163.822,174.896L 191.224,174.896L 191.224,163.934L 163.822,163.934zM 54.384,138.172L 81.787,138.172L 81.787,127.208L 54.384,127.208zM 109.019,138.172L 136.421,138.172L 136.421,127.208L 109.019,127.208zM 191.224,138.172L 218.625,138.172L 218.625,127.208L 191.224,127.208zM 26.982,101.443L 54.384,101.443L 54.384,90.482L 26.982,90.482zM 109.019,101.443L 136.421,101.443L 136.421,90.482L 109.019,90.482zM 191.224,101.443L 218.625,101.443L 218.625,90.482L 191.224,90.482zM 136.42,64.716L 163.821,64.716L 163.821,53.755L 136.42,53.755zM 163.822,64.716L 191.224,64.716L 191.224,53.755L 163.822,53.755z" horiz-adv-x="246.327" data-tags="percent" />
<glyph unicode="&#xa2;" d="M 109.455,394.95L 136.856,394.95L 136.856,383.99L 109.455,383.99zM 109.455,358.224L 136.856,358.224L 136.856,347.262L 109.455,347.262zM 82.222,321.497L 109.624,321.497L 109.624,310.536L 82.222,310.536zM 54.821,321.497L 82.222,321.497L 82.222,310.536L 54.821,310.536zM 136.856,321.497L 164.257,321.497L 164.257,310.536L 136.856,310.536zM 109.455,321.497L 136.856,321.497L 136.856,310.536L 109.455,310.536zM 164.257,321.497L 191.66,321.497L 191.66,310.536L 164.257,310.536zM 27.418,284.771L 54.821,284.771L 54.821,273.81L 27.418,273.81zM 191.66,284.771L 219.061,284.771L 219.061,273.81L 191.66,273.81zM 27.418,248.045L 54.821,248.045L 54.821,237.084L 27.418,237.084zM 27.418,211.318L 54.821,211.318L 54.821,200.358L 27.418,200.358zM 27.418,174.591L 54.821,174.591L 54.821,163.63L 27.418,163.63zM 191.66,174.591L 219.061,174.591L 219.061,163.63L 191.66,163.63zM 82.222,137.866L 109.624,137.866L 109.624,126.905L 82.222,126.905zM 54.821,137.866L 82.222,137.866L 82.222,126.905L 54.821,126.905zM 136.856,137.866L 164.257,137.866L 164.257,126.905L 136.856,126.905zM 109.455,137.866L 136.856,137.866L 136.856,126.905L 109.455,126.905zM 164.257,137.866L 191.66,137.866L 191.66,126.905L 164.257,126.905zM 109.455,101.141L 136.856,101.141L 136.856,90.178L 109.455,90.178zM 109.455,64.411L 136.856,64.411L 136.856,53.451L 109.455,53.451z" horiz-adv-x="246.327" data-tags="noidea2" />
<glyph unicode="&#xac;" d="M 27.341,211.621L 54.743,211.621L 54.743,200.66L 27.341,200.66zM 82.145,211.621L 109.546,211.621L 109.546,200.66L 82.145,200.66zM 54.743,211.621L 82.145,211.621L 82.145,200.66L 54.743,200.66zM 136.778,211.621L 164.18,211.621L 164.18,200.66L 136.778,200.66zM 109.378,211.621L 136.779,211.621L 136.779,200.66L 109.378,200.66zM 191.582,211.621L 218.984,211.621L 218.984,200.66L 191.582,200.66zM 164.18,211.621L 191.583,211.621L 191.583,200.66L 164.18,200.66zM 191.582,174.894L 218.984,174.894L 218.984,163.933L 191.582,163.933zM 191.582,138.169L 218.984,138.169L 218.984,127.207L 191.582,127.207z" horiz-adv-x="246.327" data-tags="noidea" />
<glyph unicode="&#x3e;" d="M 54.745,357.882L 82.146,357.882L 82.146,346.921L 54.745,346.921zM 82.145,321.154L 109.547,321.154L 109.547,310.193L 82.145,310.193zM 109.378,284.428L 136.78,284.428L 136.78,273.468L 109.378,273.468zM 136.779,247.702L 164.181,247.702L 164.181,236.741L 136.779,236.741zM 164.181,210.977L 191.583,210.977L 191.583,200.015L 164.181,200.015zM 136.779,174.249L 164.181,174.249L 164.181,163.288L 136.779,163.288zM 109.378,137.524L 136.78,137.524L 136.78,126.563L 109.378,126.563zM 82.145,100.796L 109.547,100.796L 109.547,89.836L 82.145,89.836zM 54.745,64.068L 82.146,64.068L 82.146,53.108L 54.745,53.108z" horiz-adv-x="246.327" data-tags="lessthan" />
<glyph unicode="&#x22;" d="M 82.202,357.883L 109.604,357.883L 109.604,346.923L 82.202,346.923zM 136.836,357.883L 164.239,357.883L 164.239,346.923L 136.836,346.923zM 82.202,321.157L 109.604,321.157L 109.604,310.196L 82.202,310.196zM 136.836,321.157L 164.239,321.157L 164.239,310.196L 136.836,310.196zM 82.202,284.43L 109.604,284.43L 109.604,273.47L 82.202,273.47zM 136.836,284.43L 164.239,284.43L 164.239,273.47L 136.836,273.47zM 82.202,247.704L 109.604,247.704L 109.604,236.742L 82.202,236.742zM 136.836,247.704L 164.239,247.704L 164.239,236.742L 136.836,236.742z" horiz-adv-x="246.327" data-tags="dquote" />
<glyph unicode="&#x24;" d="M 109.305,395.533L 136.707,395.533L 136.707,384.571L 109.305,384.571zM 82.072,358.807L 109.474,358.807L 109.474,347.846L 82.072,347.846zM 54.671,358.807L 82.073,358.807L 82.073,347.846L 54.671,347.846zM 136.707,358.807L 164.108,358.807L 164.108,347.846L 136.707,347.846zM 109.305,358.807L 136.707,358.807L 136.707,347.846L 109.305,347.846zM 164.108,358.807L 191.51,358.807L 191.51,347.846L 164.108,347.846zM 27.268,322.079L 54.671,322.079L 54.671,311.117L 27.268,311.117zM 109.305,322.079L 136.707,322.079L 136.707,311.117L 109.305,311.117zM 191.51,322.079L 218.912,322.079L 218.912,311.117L 191.51,311.117zM 27.268,285.353L 54.671,285.353L 54.671,274.392L 27.268,274.392zM 109.305,285.353L 136.707,285.353L 136.707,274.392L 109.305,274.392zM 27.268,248.628L 54.671,248.628L 54.671,237.666L 27.268,237.666zM 109.305,248.628L 136.707,248.628L 136.707,237.666L 109.305,237.666zM 82.072,211.902L 109.474,211.902L 109.474,200.939L 82.072,200.939zM 54.671,211.902L 82.073,211.902L 82.073,200.939L 54.671,200.939zM 136.707,211.902L 164.108,211.902L 164.108,200.939L 136.707,200.939zM 109.305,211.902L 136.707,211.902L 136.707,200.939L 109.305,200.939zM 164.108,211.902L 191.51,211.902L 191.51,200.939L 164.108,200.939zM 109.305,175.174L 136.707,175.174L 136.707,164.212L 109.305,164.212zM 191.51,175.174L 218.912,175.174L 218.912,164.212L 191.51,164.212zM 109.305,138.448L 136.707,138.448L 136.707,127.487L 109.305,127.487zM 191.51,138.448L 218.912,138.448L 218.912,127.487L 191.51,127.487zM 27.268,101.722L 54.671,101.722L 54.671,90.761L 27.268,90.761zM 109.305,101.722L 136.707,101.722L 136.707,90.761L 109.305,90.761zM 191.51,101.722L 218.912,101.722L 218.912,90.761L 191.51,90.761zM 82.072,64.994L 109.474,64.994L 109.474,54.033L 82.072,54.033zM 54.671,64.994L 82.073,64.994L 82.073,54.033L 54.671,54.033zM 136.707,64.994L 164.108,64.994L 164.108,54.033L 136.707,54.033zM 109.305,64.994L 136.707,64.994L 136.707,54.033L 109.305,54.033zM 164.108,64.994L 191.51,64.994L 191.51,54.033L 164.108,54.033zM 109.305,28.268L 136.707,28.268L 136.707,17.307L 109.305,17.307z" horiz-adv-x="246.327" data-tags="dollar" />
<glyph unicode="&#xb0;" d="M 82.409,395.468L 109.812,395.468L 109.812,384.506L 82.409,384.506zM 137.043,395.468L 164.445,395.468L 164.445,384.506L 137.043,384.506zM 109.642,395.468L 137.044,395.468L 137.044,384.506L 109.642,384.506zM 55.008,358.742L 82.409,358.742L 82.409,347.781L 55.008,347.781zM 164.445,358.742L 191.847,358.742L 191.847,347.781L 164.445,347.781zM 55.008,322.016L 82.409,322.016L 82.409,311.054L 55.008,311.054zM 164.445,322.016L 191.847,322.016L 191.847,311.054L 164.445,311.054zM 82.409,285.289L 109.812,285.289L 109.812,274.328L 82.409,274.328zM 137.043,285.289L 164.445,285.289L 164.445,274.328L 137.043,274.328zM 109.642,285.289L 137.044,285.289L 137.044,274.328L 109.642,274.328z" horiz-adv-x="246.327" data-tags="degree" />
<glyph unicode="&#x2d;" d="M 27.171,210.679L 54.573,210.679L 54.573,199.716L 27.171,199.716zM 81.975,210.679L 109.376,210.679L 109.376,199.716L 81.975,199.716zM 54.573,210.679L 81.975,210.679L 81.975,199.716L 54.573,199.716zM 136.609,210.679L 164.010,210.679L 164.010,199.716L 136.609,199.716zM 109.208,210.679L 136.61,210.679L 136.61,199.716L 109.208,199.716zM 191.412,210.679L 218.814,210.679L 218.814,199.716L 191.412,199.716zM 164.011,210.679L 191.413,210.679L 191.413,199.716L 164.011,199.716z" horiz-adv-x="246.327" data-tags="dash" />
<glyph unicode="&#x29;" d="M 82.436,357.883L 109.838,357.883L 109.838,346.923L 82.436,346.923zM 109.668,357.883L 137.070,357.883L 137.070,346.923L 109.668,346.923zM 137.070,321.157L 164.471,321.157L 164.471,310.196L 137.070,310.196zM 164.471,284.43L 191.874,284.43L 191.874,273.47L 164.471,273.47zM 164.471,247.704L 191.874,247.704L 191.874,236.743L 164.471,236.743zM 164.471,210.978L 191.874,210.978L 191.874,200.017L 164.471,200.017zM 164.471,174.251L 191.874,174.251L 191.874,163.29L 164.471,163.29zM 164.471,137.526L 191.874,137.526L 191.874,126.564L 164.471,126.564zM 137.070,100.798L 164.471,100.798L 164.471,89.838L 137.070,89.838zM 82.436,64.071L 109.838,64.071L 109.838,53.111L 82.436,53.111zM 109.668,64.071L 137.070,64.071L 137.070,53.111L 109.668,53.111z" horiz-adv-x="246.327" data-tags="curve-right" />
<glyph unicode="&#x28;" d="M 137.070,357.883L 164.471,357.883L 164.471,346.923L 137.070,346.923zM 109.668,357.883L 137.070,357.883L 137.070,346.923L 109.668,346.923zM 82.436,321.157L 109.838,321.157L 109.838,310.196L 82.436,310.196zM 55.034,284.43L 82.436,284.43L 82.436,273.47L 55.034,273.47zM 55.034,247.704L 82.436,247.704L 82.436,236.743L 55.034,236.743zM 55.034,210.978L 82.436,210.978L 82.436,200.017L 55.034,200.017zM 55.034,174.251L 82.436,174.251L 82.436,163.29L 55.034,163.29zM 55.034,137.526L 82.436,137.526L 82.436,126.564L 55.034,126.564zM 82.436,100.798L 109.838,100.798L 109.838,89.838L 82.436,89.838zM 137.070,64.071L 164.471,64.071L 164.471,53.111L 137.070,53.111zM 109.668,64.071L 137.070,64.071L 137.070,53.111L 109.668,53.111z" horiz-adv-x="246.327" data-tags="curve-left" />
<glyph unicode="&#x7d;" d="M 82.145,357.883L 109.547,357.883L 109.547,346.923L 82.145,346.923zM 54.743,357.883L 82.145,357.883L 82.145,346.923L 54.743,346.923zM 109.378,357.883L 136.779,357.883L 136.779,346.923L 109.378,346.923zM 136.779,321.157L 164.18,321.157L 164.18,310.196L 136.779,310.196zM 136.779,284.43L 164.18,284.43L 164.18,273.47L 136.779,273.47zM 136.779,247.704L 164.18,247.704L 164.18,236.742L 136.779,236.742zM 164.18,210.978L 191.582,210.978L 191.582,200.017L 164.18,200.017zM 136.779,174.251L 164.18,174.251L 164.18,163.29L 136.779,163.29zM 136.779,137.527L 164.18,137.527L 164.18,126.564L 136.779,126.564zM 136.779,100.798L 164.18,100.798L 164.18,89.838L 136.779,89.838zM 82.145,64.071L 109.547,64.071L 109.547,53.111L 82.145,53.111zM 54.743,64.071L 82.145,64.071L 82.145,53.111L 54.743,53.111zM 109.378,64.071L 136.779,64.071L 136.779,53.111L 109.378,53.111z" horiz-adv-x="246.327" data-tags="currly-right" />
<glyph unicode="&#x7b;" d="M 136.735,357.883L 164.137,357.883L 164.137,346.923L 136.735,346.923zM 109.333,357.883L 136.735,357.883L 136.735,346.923L 109.333,346.923zM 164.136,357.883L 191.538,357.883L 191.538,346.923L 164.136,346.923zM 82.101,321.157L 109.502,321.157L 109.502,310.196L 82.101,310.196zM 82.101,284.43L 109.502,284.43L 109.502,273.47L 82.101,273.47zM 82.101,247.704L 109.502,247.704L 109.502,236.742L 82.101,236.742zM 54.7,210.978L 82.102,210.978L 82.102,200.017L 54.7,200.017zM 82.101,174.251L 109.502,174.251L 109.502,163.29L 82.101,163.29zM 82.101,137.527L 109.502,137.527L 109.502,126.564L 82.101,126.564zM 82.101,100.798L 109.502,100.798L 109.502,89.838L 82.101,89.838zM 136.735,64.071L 164.137,64.071L 164.137,53.111L 136.735,53.111zM 109.333,64.071L 136.735,64.071L 136.735,53.111L 109.333,53.111zM 164.136,64.071L 191.538,64.071L 191.538,53.111L 164.136,53.111z" horiz-adv-x="246.327" data-tags="currly-left" />
<glyph unicode="&#x2c;" d="M 137.070,89.141L 164.471,89.141L 164.471,78.18L 137.070,78.18zM 109.668,89.141L 137.070,89.141L 137.070,78.18L 109.668,78.18zM 137.070,52.414L 164.471,52.414L 164.471,41.453L 137.070,41.453zM 109.668,52.414L 137.070,52.414L 137.070,41.453L 109.668,41.453zM 109.668,15.688L 137.070,15.688L 137.070,4.727L 109.668,4.727zM 82.436-21.036L 109.838-21.036L 109.838-32L 82.436-32z" horiz-adv-x="246.327" data-tags="comma" />
<glyph unicode="&#x5e;" d="M 109.668,357.883L 137.070,357.883L 137.070,346.923L 109.668,346.923zM 82.435,321.157L 109.838,321.157L 109.838,310.196L 82.435,310.196zM 137.068,321.157L 164.47,321.157L 164.47,310.196L 137.068,310.196zM 55.034,284.43L 82.436,284.43L 82.436,273.47L 55.034,273.47zM 164.471,284.43L 191.874,284.43L 191.874,273.47L 164.471,273.47zM 27.633,247.704L 55.034,247.704L 55.034,236.742L 27.633,236.742zM 191.874,247.704L 219.275,247.704L 219.275,236.742L 191.874,236.742z" horiz-adv-x="246.327" data-tags="carrot" />
<glyph unicode="&#x5d;" d="M 81.805,357.882L 109.207,357.882L 109.207,346.921L 81.805,346.921zM 136.439,357.882L 163.841,357.882L 163.841,346.921L 136.439,346.921zM 109.038,357.882L 136.44,357.882L 136.44,346.921L 109.038,346.921zM 136.439,321.155L 163.841,321.155L 163.841,310.195L 136.439,310.195zM 136.439,284.43L 163.841,284.43L 163.841,273.469L 136.439,273.469zM 136.439,247.702L 163.841,247.702L 163.841,236.742L 136.439,236.742zM 136.439,210.976L 163.841,210.976L 163.841,200.016L 136.439,200.016zM 136.439,174.25L 163.841,174.25L 163.841,163.289L 136.439,163.289zM 136.439,137.524L 163.841,137.524L 163.841,126.563L 136.439,126.563zM 136.439,100.798L 163.841,100.798L 163.841,89.836L 136.439,89.836zM 81.805,64.070L 109.207,64.070L 109.207,53.109L 81.805,53.109zM 136.439,64.070L 163.841,64.070L 163.841,53.109L 136.439,53.109zM 109.038,64.070L 136.44,64.070L 136.44,53.109L 109.038,53.109z" horiz-adv-x="246.327" data-tags="bracket-right" />
<glyph unicode="&#x5b;" d="M 82.014,357.882L 109.416,357.882L 109.416,346.921L 82.014,346.921zM 136.648,357.882L 164.050,357.882L 164.050,346.921L 136.648,346.921zM 109.246,357.882L 136.648,357.882L 136.648,346.921L 109.246,346.921zM 82.014,321.155L 109.416,321.155L 109.416,310.195L 82.014,310.195zM 82.014,284.43L 109.416,284.43L 109.416,273.469L 82.014,273.469zM 82.014,247.702L 109.416,247.702L 109.416,236.742L 82.014,236.742zM 82.014,210.976L 109.416,210.976L 109.416,200.016L 82.014,200.016zM 82.014,174.25L 109.416,174.25L 109.416,163.289L 82.014,163.289zM 82.014,137.524L 109.416,137.524L 109.416,126.563L 82.014,126.563zM 82.014,100.798L 109.416,100.798L 109.416,89.836L 82.014,89.836zM 82.014,64.070L 109.416,64.070L 109.416,53.109L 82.014,53.109zM 136.648,64.070L 164.050,64.070L 164.050,53.109L 136.648,53.109zM 109.246,64.070L 136.648,64.070L 136.648,53.109L 109.246,53.109z" horiz-adv-x="246.327" data-tags="bracket-left" />
<glyph unicode="&#x5c;" d="M 27.632,321.157L 55.034,321.157L 55.034,310.196L 27.632,310.196zM 55.035,284.43L 82.435,284.43L 82.435,273.47L 55.035,273.47zM 82.435,247.704L 109.837,247.704L 109.837,236.742L 82.435,236.742zM 109.668,210.978L 137.070,210.978L 137.070,200.017L 109.668,200.017zM 137.070,174.251L 164.471,174.251L 164.471,163.29L 137.070,163.29zM 164.471,137.527L 191.874,137.527L 191.874,126.564L 164.471,126.564zM 191.872,100.798L 219.275,100.798L 219.275,89.838L 191.872,89.838z" horiz-adv-x="246.327" data-tags="backslash" />
<glyph unicode="&#x40;" d="M 81.994,394.95L 109.396,394.95L 109.396,383.99L 81.994,383.99zM 136.628,394.95L 164.030,394.95L 164.030,383.99L 136.628,383.99zM 109.227,394.95L 136.629,394.95L 136.629,383.99L 109.227,383.99zM 164.030,394.95L 191.432,394.95L 191.432,383.99L 164.030,383.99zM 54.593,358.224L 81.995,358.224L 81.995,347.262L 54.593,347.262zM 191.431,358.224L 218.834,358.224L 218.834,347.262L 191.431,347.262zM 27.19,321.497L 54.592,321.497L 54.592,310.536L 27.19,310.536zM 136.628,321.497L 164.030,321.497L 164.030,310.536L 136.628,310.536zM 109.227,321.497L 136.629,321.497L 136.629,310.536L 109.227,310.536zM 191.431,321.497L 218.834,321.497L 218.834,310.536L 191.431,310.536zM 164.030,321.497L 191.432,321.497L 191.432,310.536L 164.030,310.536zM 27.19,284.771L 54.592,284.771L 54.592,273.81L 27.19,273.81zM 81.994,284.771L 109.396,284.771L 109.396,273.81L 81.994,273.81zM 191.431,284.771L 218.834,284.771L 218.834,273.81L 191.431,273.81zM 27.19,248.045L 54.592,248.045L 54.592,237.084L 27.19,237.084zM 54.593,248.045L 81.995,248.045L 81.995,237.084L 54.593,237.084zM 191.431,248.045L 218.834,248.045L 218.834,237.084L 191.431,237.084zM 27.19,211.318L 54.592,211.318L 54.592,200.358L 27.19,200.358zM 54.593,211.318L 81.995,211.318L 81.995,200.358L 54.593,200.358zM 191.431,211.318L 218.834,211.318L 218.834,200.358L 191.431,200.358zM 27.19,174.591L 54.592,174.591L 54.592,163.63L 27.19,163.63zM 81.994,174.591L 109.396,174.591L 109.396,163.63L 81.994,163.63zM 136.628,174.591L 164.030,174.591L 164.030,163.63L 136.628,163.63zM 109.227,174.591L 136.629,174.591L 136.629,163.63L 109.227,163.63zM 164.030,174.591L 191.432,174.591L 191.432,163.63L 164.030,163.63zM 27.19,137.866L 54.592,137.866L 54.592,126.905L 27.19,126.905zM 54.593,101.141L 81.995,101.141L 81.995,90.178L 54.593,90.178zM 81.994,64.411L 109.396,64.411L 109.396,53.451L 81.994,53.451zM 136.628,64.411L 164.030,64.411L 164.030,53.451L 136.628,53.451zM 109.227,64.411L 136.629,64.411L 136.629,53.451L 109.227,53.451zM 164.030,64.411L 191.432,64.411L 191.432,53.451L 164.030,53.451z" horiz-adv-x="246.327" data-tags="at" />
<glyph unicode="&#x36;" d="M 82.158,358.018L 109.559,358.018L 109.559,347.057L 82.158,347.057zM 54.756,358.018L 82.159,358.018L 82.159,347.057L 54.756,347.057zM 136.791,358.018L 164.193,358.018L 164.193,347.057L 136.791,347.057zM 109.391,358.018L 136.792,358.018L 136.792,347.057L 109.391,347.057zM 164.193,358.018L 191.595,358.018L 191.595,347.057L 164.193,347.057zM 27.354,321.278L 54.756,321.278L 54.756,310.318L 27.354,310.318zM 27.354,284.54L 54.756,284.54L 54.756,273.579L 27.354,273.579zM 27.354,247.8L 54.756,247.8L 54.756,236.84L 27.354,236.84zM 27.354,211.061L 54.756,211.061L 54.756,200.1L 27.354,200.1zM 82.158,211.061L 109.559,211.061L 109.559,200.1L 82.158,200.1zM 54.756,211.061L 82.159,211.061L 82.159,200.1L 54.756,200.1zM 136.791,211.061L 164.193,211.061L 164.193,200.1L 136.791,200.1zM 109.391,211.061L 136.792,211.061L 136.792,200.1L 109.391,200.1zM 164.193,211.061L 191.595,211.061L 191.595,200.1L 164.193,200.1zM 27.539,174.321L 54.888,174.321L 54.888,163.36L 27.539,163.36zM 191.463,174.321L 218.813,174.321L 218.813,163.36L 191.463,163.36zM 27.354,137.58L 54.756,137.58L 54.756,126.619L 27.354,126.619zM 191.595,137.58L 218.997,137.58L 218.997,126.619L 191.595,126.619zM 27.354,100.842L 54.756,100.842L 54.756,89.882L 27.354,89.882zM 191.595,100.842L 218.997,100.842L 218.997,89.882L 191.595,89.882zM 82.158,64.103L 109.559,64.103L 109.559,53.143L 82.158,53.143zM 54.756,64.103L 82.159,64.103L 82.159,53.143L 54.756,53.143zM 136.791,64.103L 164.193,64.103L 164.193,53.143L 136.791,53.143zM 109.391,64.103L 136.792,64.103L 136.792,53.143L 109.391,53.143zM 164.193,64.103L 191.595,64.103L 191.595,53.143L 164.193,53.143z" horiz-adv-x="246.327" />
<glyph unicode="&#x35;" d="M 27.354,358.018L 54.756,358.018L 54.756,347.057L 27.354,347.057zM 82.158,358.018L 109.559,358.018L 109.559,347.057L 82.158,347.057zM 54.756,358.018L 82.159,358.018L 82.159,347.057L 54.756,347.057zM 136.791,358.018L 164.193,358.018L 164.193,347.057L 136.791,347.057zM 109.391,358.018L 136.792,358.018L 136.792,347.057L 109.391,347.057zM 191.595,358.018L 218.997,358.018L 218.997,347.057L 191.595,347.057zM 164.193,358.018L 191.595,358.018L 191.595,347.057L 164.193,347.057zM 27.354,321.278L 54.756,321.278L 54.756,310.318L 27.354,310.318zM 27.354,284.54L 54.756,284.54L 54.756,273.579L 27.354,273.579zM 27.354,247.8L 54.756,247.8L 54.756,236.84L 27.354,236.84zM 82.158,247.8L 109.559,247.8L 109.559,236.84L 82.158,236.84zM 54.756,247.8L 82.159,247.8L 82.159,236.84L 54.756,236.84zM 136.791,247.8L 164.193,247.8L 164.193,236.84L 136.791,236.84zM 109.391,247.8L 136.792,247.8L 136.792,236.84L 109.391,236.84zM 164.193,247.8L 191.595,247.8L 191.595,236.84L 164.193,236.84zM 191.595,211.060L 218.997,211.060L 218.997,200.1L 191.595,200.1zM 191.595,174.321L 218.997,174.321L 218.997,163.36L 191.595,163.36zM 191.595,137.58L 218.997,137.58L 218.997,126.619L 191.595,126.619zM 27.354,100.842L 54.756,100.842L 54.756,89.882L 27.354,89.882zM 191.595,100.842L 218.997,100.842L 218.997,89.882L 191.595,89.882zM 82.158,64.102L 109.559,64.102L 109.559,53.142L 82.158,53.142zM 54.756,64.102L 82.159,64.102L 82.159,53.142L 54.756,53.142zM 136.791,64.102L 164.193,64.102L 164.193,53.142L 136.791,53.142zM 109.391,64.102L 136.792,64.102L 136.792,53.142L 109.391,53.142zM 164.193,64.102L 191.595,64.102L 191.595,53.142L 164.193,53.142z" horiz-adv-x="246.327" />
<glyph unicode="&#x34;" d="M 164.193,358.018L 191.595,358.018L 191.595,347.057L 164.193,347.057zM 136.791,321.278L 164.193,321.278L 164.193,310.318L 136.791,310.318zM 109.391,284.54L 136.792,284.54L 136.792,273.579L 109.391,273.579zM 82.158,247.8L 109.559,247.8L 109.559,236.84L 82.158,236.84zM 164.193,247.8L 191.595,247.8L 191.595,236.84L 164.193,236.84zM 54.756,211.061L 82.159,211.061L 82.159,200.1L 54.756,200.1zM 164.193,211.061L 191.595,211.061L 191.595,200.1L 164.193,200.1zM 27.354,174.321L 54.756,174.321L 54.756,163.36L 27.354,163.36zM 82.158,174.321L 109.559,174.321L 109.559,163.36L 82.158,163.36zM 54.756,174.321L 82.159,174.321L 82.159,163.36L 54.756,163.36zM 136.791,174.321L 164.193,174.321L 164.193,163.36L 136.791,163.36zM 109.391,174.321L 136.792,174.321L 136.792,163.36L 109.391,163.36zM 191.595,174.321L 218.997,174.321L 218.997,163.36L 191.595,163.36zM 164.193,174.321L 191.595,174.321L 191.595,163.36L 164.193,163.36zM 164.193,137.58L 191.595,137.58L 191.595,126.619L 164.193,126.619zM 164.193,100.842L 191.595,100.842L 191.595,89.882L 164.193,89.882zM 164.193,64.103L 191.595,64.103L 191.595,53.143L 164.193,53.143z" horiz-adv-x="246.327" />
<glyph unicode="&#x33;" d="M 82.158,358.018L 109.559,358.018L 109.559,347.057L 82.158,347.057zM 54.756,358.018L 82.159,358.018L 82.159,347.057L 54.756,347.057zM 136.791,358.018L 164.193,358.018L 164.193,347.057L 136.791,347.057zM 109.391,358.018L 136.792,358.018L 136.792,347.057L 109.391,347.057zM 164.193,358.018L 191.595,358.018L 191.595,347.057L 164.193,347.057zM 27.354,321.278L 54.756,321.278L 54.756,310.318L 27.354,310.318zM 191.595,321.278L 218.997,321.278L 218.997,310.318L 191.595,310.318zM 191.595,284.54L 218.997,284.54L 218.997,273.579L 191.595,273.579zM 191.595,247.8L 218.997,247.8L 218.997,236.84L 191.595,236.84zM 82.158,211.060L 109.559,211.060L 109.559,200.1L 82.158,200.1zM 136.791,211.060L 164.193,211.060L 164.193,200.1L 136.791,200.1zM 109.391,211.060L 136.792,211.060L 136.792,200.1L 109.391,200.1zM 164.193,211.060L 191.595,211.060L 191.595,200.1L 164.193,200.1zM 191.595,174.321L 218.997,174.321L 218.997,163.36L 191.595,163.36zM 191.595,137.58L 218.997,137.58L 218.997,126.619L 191.595,126.619zM 27.354,100.842L 54.756,100.842L 54.756,89.882L 27.354,89.882zM 191.595,100.842L 218.997,100.842L 218.997,89.882L 191.595,89.882zM 82.158,64.103L 109.559,64.103L 109.559,53.143L 82.158,53.143zM 54.756,64.103L 82.159,64.103L 82.159,53.143L 54.756,53.143zM 136.791,64.103L 164.193,64.103L 164.193,53.143L 136.791,53.143zM 109.391,64.103L 136.792,64.103L 136.792,53.143L 109.391,53.143zM 164.193,64.103L 191.595,64.103L 191.595,53.143L 164.193,53.143z" horiz-adv-x="246.327" />
<glyph unicode="&#x32;" d="M 82.158,358.018L 109.559,358.018L 109.559,347.057L 82.158,347.057zM 54.756,358.018L 82.159,358.018L 82.159,347.057L 54.756,347.057zM 136.791,358.018L 164.193,358.018L 164.193,347.057L 136.791,347.057zM 109.391,358.018L 136.792,358.018L 136.792,347.057L 109.391,347.057zM 164.193,358.018L 191.595,358.018L 191.595,347.057L 164.193,347.057zM 27.354,321.278L 54.756,321.278L 54.756,310.318L 27.354,310.318zM 191.595,321.278L 218.997,321.278L 218.997,310.318L 191.595,310.318zM 191.595,284.54L 218.997,284.54L 218.997,273.579L 191.595,273.579zM 164.193,247.8L 191.595,247.8L 191.595,236.84L 164.193,236.84zM 136.791,211.061L 164.193,211.061L 164.193,200.1L 136.791,200.1zM 109.391,174.321L 136.792,174.321L 136.792,163.36L 109.391,163.36zM 82.031,137.58L 109.433,137.58L 109.433,126.619L 82.031,126.619zM 54.756,100.842L 82.159,100.842L 82.159,89.882L 54.756,89.882zM 27.354,64.103L 54.756,64.103L 54.756,53.143L 27.354,53.143zM 82.158,64.103L 109.559,64.103L 109.559,53.143L 82.158,53.143zM 54.756,64.103L 82.159,64.103L 82.159,53.143L 54.756,53.143zM 136.791,64.103L 164.193,64.103L 164.193,53.143L 136.791,53.143zM 109.391,64.103L 136.792,64.103L 136.792,53.143L 109.391,53.143zM 191.595,64.103L 218.997,64.103L 218.997,53.143L 191.595,53.143zM 164.193,64.103L 191.595,64.103L 191.595,53.143L 164.193,53.143z" horiz-adv-x="246.327" />
<glyph unicode="&#x31;" d="M 109.39,358.018L 136.792,358.018L 136.792,347.057L 109.39,347.057zM 82.157,321.278L 109.559,321.278L 109.559,310.318L 82.157,310.318zM 109.39,321.278L 136.792,321.278L 136.792,310.318L 109.39,310.318zM 82.157,284.54L 109.559,284.54L 109.559,273.579L 82.157,273.579zM 54.756,284.54L 82.158,284.54L 82.158,273.579L 54.756,273.579zM 109.39,284.54L 136.792,284.54L 136.792,273.579L 109.39,273.579zM 109.39,247.8L 136.792,247.8L 136.792,236.84L 109.39,236.84zM 109.39,211.061L 136.792,211.061L 136.792,200.1L 109.39,200.1zM 109.39,174.321L 136.792,174.321L 136.792,163.36L 109.39,163.36zM 109.39,137.58L 136.792,137.58L 136.792,126.619L 109.39,126.619zM 109.39,100.842L 136.792,100.842L 136.792,89.882L 109.39,89.882zM 82.157,64.103L 109.559,64.103L 109.559,53.143L 82.157,53.143zM 136.79,64.103L 164.193,64.103L 164.193,53.143L 136.79,53.143zM 109.39,64.103L 136.792,64.103L 136.792,53.143L 109.39,53.143z" horiz-adv-x="246.327" />
<glyph unicode="&#x30;" d="M 82.157,358.018L 109.558,358.018L 109.558,347.057L 82.157,347.057zM 136.791,358.018L 164.193,358.018L 164.193,347.057L 136.791,347.057zM 109.39,358.018L 136.791,358.018L 136.791,347.057L 109.39,347.057zM 54.756,321.278L 82.159,321.278L 82.159,310.318L 54.756,310.318zM 164.193,321.278L 191.595,321.278L 191.595,310.318L 164.193,310.318zM 54.756,100.842L 82.159,100.842L 82.159,89.882L 54.756,89.882zM 164.193,100.842L 191.595,100.842L 191.595,89.882L 164.193,89.882zM 82.157,64.103L 109.558,64.103L 109.558,53.143L 82.157,53.143zM 136.791,64.103L 164.193,64.103L 164.193,53.143L 136.791,53.143zM 109.39,64.103L 136.791,64.103L 136.791,53.143L 109.39,53.143zM 27.353,284.54L 54.756,284.54L 54.756,273.578L 27.353,273.578zM 191.595,284.54L 218.997,284.54L 218.997,273.578L 191.595,273.578zM 27.353,247.8L 54.756,247.8L 54.756,236.84L 27.353,236.84zM 191.595,247.8L 218.997,247.8L 218.997,236.84L 191.595,236.84zM 27.353,211.061L 54.756,211.061L 54.756,200.1L 27.353,200.1zM 109.39,211.061L 136.791,211.061L 136.791,200.1L 109.39,200.1zM 191.595,211.061L 218.997,211.061L 218.997,200.1L 191.595,200.1zM 27.353,174.321L 54.756,174.321L 54.756,163.359L 27.353,163.359zM 191.595,174.321L 218.997,174.321L 218.997,163.359L 191.595,163.359zM 27.353,137.58L 54.756,137.58L 54.756,126.619L 27.353,126.619zM 191.595,137.58L 218.997,137.58L 218.997,126.619L 191.595,126.619z" horiz-adv-x="246.327" />
<glyph unicode="&#x7a;" d="M 82.104,247.293L 109.506,247.293L 109.506,236.332L 82.104,236.332zM 54.702,247.293L 82.104,247.293L 82.104,236.332L 54.702,236.332zM 136.738,247.293L 164.14,247.293L 164.14,236.332L 136.738,236.332zM 109.337,247.293L 136.739,247.293L 136.739,236.332L 109.337,236.332zM 191.542,247.293L 218.944,247.293L 218.944,236.332L 191.542,236.332zM 164.14,247.293L 191.542,247.293L 191.542,236.332L 164.14,236.332zM 164.14,210.869L 191.542,210.869L 191.542,199.908L 164.14,199.908zM 136.738,174.445L 164.14,174.445L 164.14,163.485L 136.738,163.485zM 109.337,137.377L 136.739,137.377L 136.739,126.416L 109.337,126.416zM 82.104,100.954L 109.506,100.954L 109.506,89.992L 82.104,89.992zM 82.104,63.885L 109.506,63.885L 109.506,52.924L 82.104,52.924zM 54.702,63.885L 82.104,63.885L 82.104,52.924L 54.702,52.924zM 136.738,63.885L 164.14,63.885L 164.14,52.924L 136.738,52.924zM 109.337,63.885L 136.739,63.885L 136.739,52.924L 109.337,52.924zM 191.542,63.885L 218.944,63.885L 218.944,52.924L 191.542,52.924zM 164.14,63.885L 191.542,63.885L 191.542,52.924L 164.14,52.924z" horiz-adv-x="246.327" />
<glyph unicode="&#x79;" d="M 27.3,247.295L 54.703,247.295L 54.703,236.334L 27.3,236.334zM 191.542,247.295L 218.944,247.295L 218.944,236.334L 191.542,236.334zM 27.3,210.871L 54.703,210.871L 54.703,199.91L 27.3,199.91zM 191.542,210.871L 218.944,210.871L 218.944,199.91L 191.542,199.91zM 27.3,174.448L 54.703,174.448L 54.703,163.487L 27.3,163.487zM 191.542,174.448L 218.944,174.448L 218.944,163.487L 191.542,163.487zM 54.702,137.379L 82.104,137.379L 82.104,126.418L 54.702,126.418zM 164.14,137.379L 191.542,137.379L 191.542,126.418L 164.14,126.418zM 82.104,100.311L 109.506,100.311L 109.506,89.349L 82.104,89.349zM 136.738,100.311L 164.14,100.311L 164.14,89.349L 136.738,89.349zM 109.337,63.887L 136.739,63.887L 136.739,52.926L 109.337,52.926zM 82.104,27.463L 109.506,27.463L 109.506,16.501L 82.104,16.501zM 54.702-10.244L 82.104-10.244L 82.104-21.204L 54.702-21.204z" horiz-adv-x="246.327" />
<glyph unicode="&#x78;" d="M 27.3,247.434L 54.703,247.434L 54.703,236.473L 27.3,236.473zM 164.14,247.434L 191.542,247.434L 191.542,236.473L 164.14,236.473zM 54.702,211.010L 82.104,211.010L 82.104,200.050L 54.702,200.050zM 136.738,211.010L 164.14,211.010L 164.14,200.050L 136.738,200.050zM 82.104,174.586L 109.506,174.586L 109.506,163.626L 82.104,163.626zM 109.337,174.586L 136.739,174.586L 136.739,163.626L 109.337,163.626zM 82.104,137.518L 109.506,137.518L 109.506,126.558L 82.104,126.558zM 109.337,137.518L 136.739,137.518L 136.739,126.558L 109.337,126.558zM 54.702,101.095L 82.104,101.095L 82.104,90.133L 54.702,90.133zM 136.738,101.095L 164.14,101.095L 164.14,90.133L 136.738,90.133zM 27.3,64.026L 54.703,64.026L 54.703,53.066L 27.3,53.066zM 164.14,64.026L 191.542,64.026L 191.542,53.066L 164.14,53.066z" horiz-adv-x="246.327" />
</font>
</defs>
</svg>
