<?xml version="1.0" encoding="utf-8"?>
<!-- Generator: Adobe Illustrator 15.0.2, SVG Export Plug-In . SVG Version: 6.00 Build 0)  -->
<!DOCTYPE svg PUBLIC "-//W3C//DTD SVG 1.1//EN" "http://www.w3.org/Graphics/SVG/1.1/DTD/svg11.dtd">
<svg version="1.1" id="Layer_1" xmlns="http://www.w3.org/2000/svg" xmlns:xlink="http://www.w3.org/1999/xlink" x="0px" y="0px"
	 width="382.68px" height="794.488px" viewBox="0 0 382.68 794.488" enable-background="new 0 0 382.68 794.488"
	 xml:space="preserve">
<rect x="42.585" y="146.013" fill="none" stroke="#A54B9C" stroke-miterlimit="10" width="42.521" height="17.01"/>
<rect x="0.064" y="146.013" fill="none" stroke="#A54B9C" stroke-miterlimit="10" width="42.521" height="17.01"/>
<rect x="127.626" y="146.013" fill="none" stroke="#A54B9C" stroke-miterlimit="10" width="42.521" height="17.01"/>
<rect x="85.105" y="146.013" fill="none" stroke="#A54B9C" stroke-miterlimit="10" width="42.521" height="17.01"/>
<rect x="212.403" y="146.013" fill="none" stroke="#A54B9C" stroke-miterlimit="10" width="42.521" height="17.01"/>
<rect x="169.885" y="146.013" fill="none" stroke="#A54B9C" stroke-miterlimit="10" width="42.52" height="17.01"/>
<rect x="297.444" y="146.013" fill="none" stroke="#A54B9C" stroke-miterlimit="10" width="42.521" height="17.01"/>
<rect x="254.924" y="146.013" fill="none" stroke="#A54B9C" stroke-miterlimit="10" width="42.521" height="17.01"/>
<rect x="340.096" y="146.013" fill="none" stroke="#A54B9C" stroke-miterlimit="10" width="42.521" height="17.01"/>
<rect x="42.585" y="188.532" fill="none" stroke="#A54B9C" stroke-miterlimit="10" width="42.521" height="17.009"/>
<rect x="0.064" y="188.532" fill="none" stroke="#A54B9C" stroke-miterlimit="10" width="42.521" height="17.009"/>
<rect x="127.626" y="188.532" fill="none" stroke="#A54B9C" stroke-miterlimit="10" width="42.521" height="17.009"/>
<rect x="85.105" y="188.532" fill="none" stroke="#A54B9C" stroke-miterlimit="10" width="42.521" height="17.009"/>
<rect x="212.403" y="188.532" stroke="#A54B9C" stroke-miterlimit="10" width="42.521" height="17.009"/>
<rect x="169.885" y="188.532" fill="none" stroke="#A54B9C" stroke-miterlimit="10" width="42.52" height="17.009"/>
<rect x="297.444" y="188.532" fill="none" stroke="#A54B9C" stroke-miterlimit="10" width="42.521" height="17.009"/>
<rect x="254.924" y="188.532" stroke="#A54B9C" stroke-miterlimit="10" width="42.521" height="17.009"/>
<rect x="340.096" y="188.532" fill="none" stroke="#A54B9C" stroke-miterlimit="10" width="42.521" height="17.009"/>
<rect x="42.585" y="245.052" fill="none" stroke="#A54B9C" stroke-miterlimit="10" width="42.521" height="17.01"/>
<rect x="0.064" y="245.052" fill="none" stroke="#A54B9C" stroke-miterlimit="10" width="42.521" height="17.01"/>
<rect x="127.626" y="245.052" fill="none" stroke="#A54B9C" stroke-miterlimit="10" width="42.521" height="17.01"/>
<rect x="85.105" y="245.052" fill="none" stroke="#A54B9C" stroke-miterlimit="10" width="42.521" height="17.01"/>
<rect x="212.403" y="245.052" fill="none" stroke="#A54B9C" stroke-miterlimit="10" width="42.521" height="17.01"/>
<rect x="169.885" y="245.052" stroke="#A54B9C" stroke-miterlimit="10" width="42.52" height="17.01"/>
<rect x="297.444" y="245.052" stroke="#A54B9C" stroke-miterlimit="10" width="42.521" height="17.01"/>
<rect x="254.924" y="245.052" fill="none" stroke="#A54B9C" stroke-miterlimit="10" width="42.521" height="17.01"/>
<rect x="340.096" y="245.052" fill="none" stroke="#A54B9C" stroke-miterlimit="10" width="42.521" height="17.01"/>
<rect x="42.585" y="301.573" fill="none" stroke="#A54B9C" stroke-miterlimit="10" width="42.521" height="17.008"/>
<rect x="0.064" y="301.573" fill="none" stroke="#A54B9C" stroke-miterlimit="10" width="42.521" height="17.008"/>
<rect x="127.626" y="301.573" fill="none" stroke="#A54B9C" stroke-miterlimit="10" width="42.521" height="17.008"/>
<rect x="85.105" y="301.573" fill="none" stroke="#A54B9C" stroke-miterlimit="10" width="42.521" height="17.008"/>
<rect x="212.403" y="301.573" fill="none" stroke="#A54B9C" stroke-miterlimit="10" width="42.521" height="17.008"/>
<rect x="169.885" y="301.573" stroke="#A54B9C" stroke-miterlimit="10" width="42.52" height="17.008"/>
<rect x="297.444" y="301.573" fill="none" stroke="#A54B9C" stroke-miterlimit="10" width="42.521" height="17.008"/>
<rect x="254.924" y="301.573" fill="none" stroke="#A54B9C" stroke-miterlimit="10" width="42.521" height="17.008"/>
<rect x="340.096" y="301.573" fill="none" stroke="#A54B9C" stroke-miterlimit="10" width="42.521" height="17.008"/>
<rect x="42.585" y="359.09" fill="none" stroke="#A54B9C" stroke-miterlimit="10" width="42.521" height="17.007"/>
<rect x="0.064" y="359.09" fill="none" stroke="#A54B9C" stroke-miterlimit="10" width="42.521" height="17.007"/>
<rect x="127.626" y="359.09" fill="none" stroke="#A54B9C" stroke-miterlimit="10" width="42.521" height="17.007"/>
<rect x="85.105" y="359.09" fill="none" stroke="#A54B9C" stroke-miterlimit="10" width="42.521" height="17.007"/>
<rect x="212.403" y="359.09" fill="none" stroke="#A54B9C" stroke-miterlimit="10" width="42.521" height="17.007"/>
<rect x="169.885" y="359.09" stroke="#A54B9C" stroke-miterlimit="10" width="42.52" height="17.007"/>
<rect x="297.444" y="359.09" fill="none" stroke="#A54B9C" stroke-miterlimit="10" width="42.521" height="17.007"/>
<rect x="254.924" y="359.09" fill="none" stroke="#A54B9C" stroke-miterlimit="10" width="42.521" height="17.007"/>
<rect x="340.096" y="359.09" fill="none" stroke="#A54B9C" stroke-miterlimit="10" width="42.521" height="17.007"/>
<rect x="42.585" y="416.61" fill="none" stroke="#A54B9C" stroke-miterlimit="10" width="42.521" height="17.008"/>
<rect x="0.064" y="416.61" fill="none" stroke="#A54B9C" stroke-miterlimit="10" width="42.521" height="17.008"/>
<rect x="127.626" y="416.61" stroke="#A54B9C" stroke-miterlimit="10" width="42.521" height="17.008"/>
<rect x="85.105" y="416.61" fill="none" stroke="#A54B9C" stroke-miterlimit="10" width="42.521" height="17.008"/>
<rect x="212.403" y="416.61" stroke="#A54B9C" stroke-miterlimit="10" width="42.521" height="17.008"/>
<rect x="169.885" y="416.61" stroke="#A54B9C" stroke-miterlimit="10" width="42.52" height="17.008"/>
<rect x="297.444" y="416.61" fill="none" stroke="#A54B9C" stroke-miterlimit="10" width="42.521" height="17.008"/>
<rect x="254.924" y="416.61" fill="none" stroke="#A54B9C" stroke-miterlimit="10" width="42.521" height="17.008"/>
<rect x="340.096" y="416.61" fill="none" stroke="#A54B9C" stroke-miterlimit="10" width="42.521" height="17.008"/>
<rect x="42.585" y="473.131" fill="none" stroke="#A54B9C" stroke-miterlimit="10" width="42.521" height="17.008"/>
<rect x="0.064" y="473.131" fill="none" stroke="#A54B9C" stroke-miterlimit="10" width="42.521" height="17.008"/>
<rect x="127.626" y="473.131" fill="none" stroke="#A54B9C" stroke-miterlimit="10" width="42.521" height="17.008"/>
<rect x="85.105" y="473.131" fill="none" stroke="#A54B9C" stroke-miterlimit="10" width="42.521" height="17.008"/>
<rect x="212.403" y="473.131" fill="none" stroke="#A54B9C" stroke-miterlimit="10" width="42.521" height="17.008"/>
<rect x="169.885" y="473.131" stroke="#A54B9C" stroke-miterlimit="10" width="42.52" height="17.008"/>
<rect x="297.444" y="473.131" fill="none" stroke="#A54B9C" stroke-miterlimit="10" width="42.521" height="17.008"/>
<rect x="254.924" y="473.131" fill="none" stroke="#A54B9C" stroke-miterlimit="10" width="42.521" height="17.008"/>
<rect x="340.096" y="473.131" fill="none" stroke="#A54B9C" stroke-miterlimit="10" width="42.521" height="17.008"/>
<rect x="42.585" y="530.652" fill="none" stroke="#A54B9C" stroke-miterlimit="10" width="42.521" height="17.008"/>
<rect x="0.064" y="530.652" fill="none" stroke="#A54B9C" stroke-miterlimit="10" width="42.521" height="17.008"/>
<rect x="127.626" y="530.652" fill="none" stroke="#A54B9C" stroke-miterlimit="10" width="42.521" height="17.008"/>
<rect x="85.105" y="530.652" fill="none" stroke="#A54B9C" stroke-miterlimit="10" width="42.521" height="17.008"/>
<rect x="212.403" y="530.652" fill="none" stroke="#A54B9C" stroke-miterlimit="10" width="42.521" height="17.008"/>
<rect x="169.885" y="530.652" stroke="#A54B9C" stroke-miterlimit="10" width="42.52" height="17.008"/>
<rect x="297.444" y="530.652" fill="none" stroke="#A54B9C" stroke-miterlimit="10" width="42.521" height="17.008"/>
<rect x="254.924" y="530.652" fill="none" stroke="#A54B9C" stroke-miterlimit="10" width="42.521" height="17.008"/>
<rect x="340.096" y="530.652" fill="none" stroke="#A54B9C" stroke-miterlimit="10" width="42.521" height="17.008"/>
<rect x="42.585" y="587.173" fill="none" stroke="#A54B9C" stroke-miterlimit="10" width="42.521" height="17.01"/>
<rect x="0.064" y="587.173" fill="none" stroke="#A54B9C" stroke-miterlimit="10" width="42.521" height="17.01"/>
<rect x="127.626" y="587.173" fill="none" stroke="#A54B9C" stroke-miterlimit="10" width="42.521" height="17.01"/>
<rect x="85.105" y="587.173" fill="none" stroke="#A54B9C" stroke-miterlimit="10" width="42.521" height="17.01"/>
<rect x="212.403" y="587.173" fill="none" stroke="#A54B9C" stroke-miterlimit="10" width="42.521" height="17.01"/>
<rect x="169.885" y="587.173" stroke="#A54B9C" stroke-miterlimit="10" width="42.52" height="17.01"/>
<rect x="297.444" y="587.173" fill="none" stroke="#A54B9C" stroke-miterlimit="10" width="42.521" height="17.01"/>
<rect x="254.924" y="587.173" fill="none" stroke="#A54B9C" stroke-miterlimit="10" width="42.521" height="17.01"/>
<rect x="340.096" y="587.173" fill="none" stroke="#A54B9C" stroke-miterlimit="10" width="42.521" height="17.01"/>
<rect x="42.585" y="643.694" fill="none" stroke="#A54B9C" stroke-miterlimit="10" width="42.521" height="17.008"/>
<rect x="0.064" y="643.694" fill="none" stroke="#A54B9C" stroke-miterlimit="10" width="42.521" height="17.008"/>
<rect x="127.626" y="643.694" fill="none" stroke="#A54B9C" stroke-miterlimit="10" width="42.521" height="17.008"/>
<rect x="85.105" y="643.694" fill="none" stroke="#A54B9C" stroke-miterlimit="10" width="42.521" height="17.008"/>
<rect x="212.403" y="643.694" fill="none" stroke="#A54B9C" stroke-miterlimit="10" width="42.521" height="17.008"/>
<rect x="169.885" y="643.694" stroke="#A54B9C" stroke-miterlimit="10" width="42.52" height="17.008"/>
<rect x="297.444" y="643.694" fill="none" stroke="#A54B9C" stroke-miterlimit="10" width="42.521" height="17.008"/>
<rect x="254.924" y="643.694" fill="none" stroke="#A54B9C" stroke-miterlimit="10" width="42.521" height="17.008"/>
<rect x="340.096" y="643.694" fill="none" stroke="#A54B9C" stroke-miterlimit="10" width="42.521" height="17.008"/>
<rect x="42.585" y="701.215" fill="none" stroke="#A54B9C" stroke-miterlimit="10" width="42.521" height="17.01"/>
<rect x="0.064" y="701.215" fill="none" stroke="#A54B9C" stroke-miterlimit="10" width="42.521" height="17.01"/>
<rect x="127.626" y="701.215" fill="none" stroke="#A54B9C" stroke-miterlimit="10" width="42.521" height="17.01"/>
<rect x="85.105" y="701.215" fill="none" stroke="#A54B9C" stroke-miterlimit="10" width="42.521" height="17.01"/>
<rect x="212.403" y="701.215" fill="none" stroke="#A54B9C" stroke-miterlimit="10" width="42.521" height="17.01"/>
<rect x="169.885" y="701.215" fill="none" stroke="#A54B9C" stroke-miterlimit="10" width="42.52" height="17.01"/>
<rect x="297.444" y="701.215" fill="none" stroke="#A54B9C" stroke-miterlimit="10" width="42.521" height="17.01"/>
<rect x="254.924" y="701.215" fill="none" stroke="#A54B9C" stroke-miterlimit="10" width="42.521" height="17.01"/>
<rect x="340.096" y="701.215" fill="none" stroke="#A54B9C" stroke-miterlimit="10" width="42.521" height="17.01"/>
<rect x="42.585" y="758.727" fill="none" stroke="#A54B9C" stroke-miterlimit="10" width="42.521" height="17.008"/>
<rect x="0.064" y="758.727" fill="none" stroke="#A54B9C" stroke-miterlimit="10" width="42.521" height="17.008"/>
<rect x="127.626" y="758.727" fill="none" stroke="#A54B9C" stroke-miterlimit="10" width="42.521" height="17.008"/>
<rect x="85.105" y="758.727" fill="none" stroke="#A54B9C" stroke-miterlimit="10" width="42.521" height="17.008"/>
<rect x="212.403" y="758.727" fill="none" stroke="#A54B9C" stroke-miterlimit="10" width="42.521" height="17.008"/>
<rect x="169.885" y="758.727" fill="none" stroke="#A54B9C" stroke-miterlimit="10" width="42.52" height="17.008"/>
<rect x="297.444" y="758.727" fill="none" stroke="#A54B9C" stroke-miterlimit="10" width="42.521" height="17.008"/>
<rect x="254.924" y="758.727" fill="none" stroke="#A54B9C" stroke-miterlimit="10" width="42.521" height="17.008"/>
<rect x="340.096" y="758.727" fill="none" stroke="#A54B9C" stroke-miterlimit="10" width="42.521" height="17.008"/>
</svg>
