<?xml version="1.0" encoding="utf-8"?>
<!-- Generator: Adobe Illustrator 15.0.2, SVG Export Plug-In . SVG Version: 6.00 Build 0)  -->
<!DOCTYPE svg PUBLIC "-//W3C//DTD SVG 1.1//EN" "http://www.w3.org/Graphics/SVG/1.1/DTD/svg11.dtd">
<svg version="1.1" id="Layer_1" xmlns="http://www.w3.org/2000/svg" xmlns:xlink="http://www.w3.org/1999/xlink" x="0px" y="0px"
	 width="382.68px" height="794.488px" viewBox="0 0 382.68 794.488" enable-background="new 0 0 382.68 794.488"
	 xml:space="preserve">
<rect x="42.585" y="133.015" fill="none" stroke="#A54B9C" stroke-miterlimit="10" width="42.521" height="17.01"/>
<rect x="0.064" y="133.015" fill="none" stroke="#A54B9C" stroke-miterlimit="10" width="42.521" height="17.01"/>
<rect x="127.626" y="133.015" fill="none" stroke="#A54B9C" stroke-miterlimit="10" width="42.521" height="17.01"/>
<rect x="85.105" y="133.015" fill="none" stroke="#A54B9C" stroke-miterlimit="10" width="42.521" height="17.01"/>
<rect x="212.402" y="133.015" fill="none" stroke="#A54B9C" stroke-miterlimit="10" width="42.521" height="17.01"/>
<rect x="169.884" y="133.015" fill="none" stroke="#A54B9C" stroke-miterlimit="10" width="42.521" height="17.01"/>
<rect x="297.443" y="133.015" fill="none" stroke="#A54B9C" stroke-miterlimit="10" width="42.521" height="17.01"/>
<rect x="254.924" y="133.015" fill="none" stroke="#A54B9C" stroke-miterlimit="10" width="42.521" height="17.01"/>
<rect x="340.096" y="133.015" fill="none" stroke="#A54B9C" stroke-miterlimit="10" width="42.521" height="17.01"/>
<rect x="42.585" y="189.535" fill="none" stroke="#A54B9C" stroke-miterlimit="10" width="42.521" height="17.009"/>
<rect x="0.064" y="189.535" fill="none" stroke="#A54B9C" stroke-miterlimit="10" width="42.521" height="17.009"/>
<rect x="127.626" y="189.535" fill="none" stroke="#A54B9C" stroke-miterlimit="10" width="42.521" height="17.009"/>
<rect x="85.105" y="189.535" fill="none" stroke="#A54B9C" stroke-miterlimit="10" width="42.521" height="17.009"/>
<rect x="212.402" y="189.535" fill="none" stroke="#A54B9C" stroke-miterlimit="10" width="42.521" height="17.009"/>
<rect x="169.884" y="189.535" fill="none" stroke="#A54B9C" stroke-miterlimit="10" width="42.521" height="17.009"/>
<rect x="297.443" y="189.535" fill="none" stroke="#A54B9C" stroke-miterlimit="10" width="42.521" height="17.009"/>
<rect x="254.924" y="189.535" fill="none" stroke="#A54B9C" stroke-miterlimit="10" width="42.521" height="17.009"/>
<rect x="340.096" y="189.535" fill="none" stroke="#A54B9C" stroke-miterlimit="10" width="42.521" height="17.009"/>
<rect x="42.585" y="246.054" fill="#231F20" stroke="#A54B9C" stroke-miterlimit="10" width="42.521" height="17.01"/>
<rect x="0.064" y="246.054" fill="none" stroke="#A54B9C" stroke-miterlimit="10" width="42.521" height="17.01"/>
<rect x="127.626" y="246.054" fill="none" stroke="#A54B9C" stroke-miterlimit="10" width="42.521" height="17.01"/>
<rect x="85.105" y="246.054" fill="#231F20" stroke="#A54B9C" stroke-miterlimit="10" width="42.521" height="17.01"/>
<rect x="212.402" y="246.054" fill="none" stroke="#A54B9C" stroke-miterlimit="10" width="42.521" height="17.01"/>
<rect x="169.884" y="246.054" fill="none" stroke="#A54B9C" stroke-miterlimit="10" width="42.521" height="17.01"/>
<rect x="297.443" y="246.054" fill="#231F20" stroke="#A54B9C" stroke-miterlimit="10" width="42.521" height="17.01"/>
<rect x="254.924" y="246.054" fill="#231F20" stroke="#A54B9C" stroke-miterlimit="10" width="42.521" height="17.01"/>
<rect x="340.096" y="246.054" fill="none" stroke="#A54B9C" stroke-miterlimit="10" width="42.521" height="17.01"/>
<rect x="42.585" y="303.575" fill="none" stroke="#A54B9C" stroke-miterlimit="10" width="42.521" height="17.009"/>
<rect x="0.064" y="303.575" fill="none" stroke="#A54B9C" stroke-miterlimit="10" width="42.521" height="17.009"/>
<rect x="127.626" y="303.575" fill="none" stroke="#A54B9C" stroke-miterlimit="10" width="42.521" height="17.009"/>
<rect x="85.105" y="303.575" fill="none" stroke="#A54B9C" stroke-miterlimit="10" width="42.521" height="17.009"/>
<rect x="212.402" y="303.575" fill="none" stroke="#A54B9C" stroke-miterlimit="10" width="42.521" height="17.009"/>
<rect x="169.884" y="303.575" fill="none" stroke="#A54B9C" stroke-miterlimit="10" width="42.521" height="17.009"/>
<rect x="297.443" y="303.575" fill="none" stroke="#A54B9C" stroke-miterlimit="10" width="42.521" height="17.009"/>
<rect x="254.924" y="303.575" fill="none" stroke="#A54B9C" stroke-miterlimit="10" width="42.521" height="17.009"/>
<rect x="340.096" y="303.575" fill="none" stroke="#A54B9C" stroke-miterlimit="10" width="42.521" height="17.009"/>
<rect x="42.585" y="361.093" fill="none" stroke="#A54B9C" stroke-miterlimit="10" width="42.521" height="17.007"/>
<rect x="0.064" y="361.093" fill="none" stroke="#A54B9C" stroke-miterlimit="10" width="42.521" height="17.007"/>
<rect x="127.626" y="361.093" stroke="#A54B9C" stroke-miterlimit="10" width="42.521" height="17.007"/>
<rect x="85.105" y="361.093" fill="#231F20" stroke="#A54B9C" stroke-miterlimit="10" width="42.521" height="17.007"/>
<rect x="212.402" y="361.093" fill="none" stroke="#A54B9C" stroke-miterlimit="10" width="42.521" height="17.007"/>
<rect x="169.884" y="361.093" stroke="#A54B9C" stroke-miterlimit="10" width="42.521" height="17.007"/>
<rect x="297.443" y="361.093" fill="none" stroke="#A54B9C" stroke-miterlimit="10" width="42.521" height="17.007"/>
<rect x="254.924" y="361.093" fill="none" stroke="#A54B9C" stroke-miterlimit="10" width="42.521" height="17.007"/>
<rect x="340.096" y="361.093" fill="none" stroke="#A54B9C" stroke-miterlimit="10" width="42.521" height="17.007"/>
<rect x="42.585" y="417.613" fill="none" stroke="#A54B9C" stroke-miterlimit="10" width="42.521" height="17.008"/>
<rect x="0.064" y="417.613" fill="none" stroke="#A54B9C" stroke-miterlimit="10" width="42.521" height="17.008"/>
<rect x="127.626" y="417.613" fill="none" stroke="#A54B9C" stroke-miterlimit="10" width="42.521" height="17.008"/>
<rect x="85.105" y="417.613" fill="none" stroke="#A54B9C" stroke-miterlimit="10" width="42.521" height="17.008"/>
<rect x="212.402" y="417.613" fill="none" stroke="#A54B9C" stroke-miterlimit="10" width="42.521" height="17.008"/>
<rect x="169.884" y="417.613" stroke="#A54B9C" stroke-miterlimit="10" width="42.521" height="17.008"/>
<rect x="297.443" y="417.613" fill="none" stroke="#A54B9C" stroke-miterlimit="10" width="42.521" height="17.008"/>
<rect x="254.924" y="417.613" fill="none" stroke="#A54B9C" stroke-miterlimit="10" width="42.521" height="17.008"/>
<rect x="340.096" y="417.613" fill="none" stroke="#A54B9C" stroke-miterlimit="10" width="42.521" height="17.008"/>
<rect x="42.585" y="474.134" fill="none" stroke="#A54B9C" stroke-miterlimit="10" width="42.521" height="17.008"/>
<rect x="0.064" y="474.134" fill="none" stroke="#A54B9C" stroke-miterlimit="10" width="42.521" height="17.008"/>
<rect x="127.626" y="474.134" fill="none" stroke="#A54B9C" stroke-miterlimit="10" width="42.521" height="17.008"/>
<rect x="85.105" y="474.134" fill="none" stroke="#A54B9C" stroke-miterlimit="10" width="42.521" height="17.008"/>
<rect x="212.402" y="474.134" fill="none" stroke="#A54B9C" stroke-miterlimit="10" width="42.521" height="17.008"/>
<rect x="169.884" y="474.134" stroke="#A54B9C" stroke-miterlimit="10" width="42.521" height="17.008"/>
<rect x="297.443" y="474.134" fill="none" stroke="#A54B9C" stroke-miterlimit="10" width="42.521" height="17.008"/>
<rect x="254.924" y="474.134" fill="none" stroke="#A54B9C" stroke-miterlimit="10" width="42.521" height="17.008"/>
<rect x="340.096" y="474.134" fill="none" stroke="#A54B9C" stroke-miterlimit="10" width="42.521" height="17.008"/>
<rect x="42.585" y="531.655" fill="none" stroke="#A54B9C" stroke-miterlimit="10" width="42.521" height="17.008"/>
<rect x="0.064" y="531.655" fill="none" stroke="#A54B9C" stroke-miterlimit="10" width="42.521" height="17.008"/>
<rect x="127.626" y="531.655" fill="none" stroke="#A54B9C" stroke-miterlimit="10" width="42.521" height="17.008"/>
<rect x="85.105" y="531.655" fill="none" stroke="#A54B9C" stroke-miterlimit="10" width="42.521" height="17.008"/>
<rect x="212.402" y="531.655" fill="none" stroke="#A54B9C" stroke-miterlimit="10" width="42.521" height="17.008"/>
<rect x="169.884" y="531.655" stroke="#A54B9C" stroke-miterlimit="10" width="42.521" height="17.008"/>
<rect x="297.443" y="531.655" fill="none" stroke="#A54B9C" stroke-miterlimit="10" width="42.521" height="17.008"/>
<rect x="254.924" y="531.655" fill="none" stroke="#A54B9C" stroke-miterlimit="10" width="42.521" height="17.008"/>
<rect x="340.096" y="531.655" fill="none" stroke="#A54B9C" stroke-miterlimit="10" width="42.521" height="17.008"/>
<rect x="42.585" y="589.176" fill="none" stroke="#A54B9C" stroke-miterlimit="10" width="42.521" height="17.01"/>
<rect x="0.064" y="589.176" fill="none" stroke="#A54B9C" stroke-miterlimit="10" width="42.521" height="17.01"/>
<rect x="127.626" y="589.176" fill="none" stroke="#A54B9C" stroke-miterlimit="10" width="42.521" height="17.01"/>
<rect x="85.105" y="589.176" fill="none" stroke="#A54B9C" stroke-miterlimit="10" width="42.521" height="17.01"/>
<rect x="212.402" y="589.176" fill="none" stroke="#A54B9C" stroke-miterlimit="10" width="42.521" height="17.01"/>
<rect x="169.884" y="589.176" stroke="#A54B9C" stroke-miterlimit="10" width="42.521" height="17.01"/>
<rect x="297.443" y="589.176" fill="none" stroke="#A54B9C" stroke-miterlimit="10" width="42.521" height="17.01"/>
<rect x="254.924" y="589.176" fill="none" stroke="#A54B9C" stroke-miterlimit="10" width="42.521" height="17.01"/>
<rect x="340.096" y="589.176" fill="none" stroke="#A54B9C" stroke-miterlimit="10" width="42.521" height="17.01"/>
<rect x="42.585" y="645.697" fill="none" stroke="#A54B9C" stroke-miterlimit="10" width="42.521" height="17.008"/>
<rect x="0.064" y="645.697" fill="none" stroke="#A54B9C" stroke-miterlimit="10" width="42.521" height="17.008"/>
<rect x="127.626" y="645.697" fill="#231F20" stroke="#A54B9C" stroke-miterlimit="10" width="42.521" height="17.008"/>
<rect x="85.105" y="645.697" fill="#231F20" stroke="#A54B9C" stroke-miterlimit="10" width="42.521" height="17.008"/>
<rect x="212.402" y="645.697" fill="#231F20" stroke="#A54B9C" stroke-miterlimit="10" width="42.521" height="17.008"/>
<rect x="169.884" y="645.697" fill="#231F20" stroke="#A54B9C" stroke-miterlimit="10" width="42.521" height="17.008"/>
<rect x="297.443" y="645.697" fill="none" stroke="#A54B9C" stroke-miterlimit="10" width="42.521" height="17.008"/>
<rect x="254.924" y="645.697" fill="#231F20" stroke="#A54B9C" stroke-miterlimit="10" width="42.521" height="17.008"/>
<rect x="340.096" y="645.697" fill="none" stroke="#A54B9C" stroke-miterlimit="10" width="42.521" height="17.008"/>
<rect x="42.585" y="703.217" fill="none" stroke="#A54B9C" stroke-miterlimit="10" width="42.521" height="17.01"/>
<rect x="0.064" y="703.217" fill="none" stroke="#A54B9C" stroke-miterlimit="10" width="42.521" height="17.01"/>
<rect x="127.626" y="703.217" fill="none" stroke="#A54B9C" stroke-miterlimit="10" width="42.521" height="17.01"/>
<rect x="85.105" y="703.217" fill="none" stroke="#A54B9C" stroke-miterlimit="10" width="42.521" height="17.01"/>
<rect x="212.402" y="703.217" fill="none" stroke="#A54B9C" stroke-miterlimit="10" width="42.521" height="17.01"/>
<rect x="169.884" y="703.217" fill="none" stroke="#A54B9C" stroke-miterlimit="10" width="42.521" height="17.01"/>
<rect x="297.443" y="703.217" fill="none" stroke="#A54B9C" stroke-miterlimit="10" width="42.521" height="17.01"/>
<rect x="254.924" y="703.217" fill="none" stroke="#A54B9C" stroke-miterlimit="10" width="42.521" height="17.01"/>
<rect x="340.096" y="703.217" fill="none" stroke="#A54B9C" stroke-miterlimit="10" width="42.521" height="17.01"/>
<rect x="42.585" y="759.729" fill="none" stroke="#A54B9C" stroke-miterlimit="10" width="42.521" height="17.009"/>
<rect x="0.064" y="759.729" fill="none" stroke="#A54B9C" stroke-miterlimit="10" width="42.521" height="17.009"/>
<rect x="127.626" y="759.729" fill="none" stroke="#A54B9C" stroke-miterlimit="10" width="42.521" height="17.009"/>
<rect x="85.105" y="759.729" fill="none" stroke="#A54B9C" stroke-miterlimit="10" width="42.521" height="17.009"/>
<rect x="212.402" y="759.729" fill="none" stroke="#A54B9C" stroke-miterlimit="10" width="42.521" height="17.009"/>
<rect x="169.884" y="759.729" fill="none" stroke="#A54B9C" stroke-miterlimit="10" width="42.521" height="17.009"/>
<rect x="297.443" y="759.729" fill="none" stroke="#A54B9C" stroke-miterlimit="10" width="42.521" height="17.009"/>
<rect x="254.924" y="759.729" fill="none" stroke="#A54B9C" stroke-miterlimit="10" width="42.521" height="17.009"/>
<rect x="340.096" y="759.729" fill="none" stroke="#A54B9C" stroke-miterlimit="10" width="42.521" height="17.009"/>
</svg>
