<?xml version="1.0" encoding="utf-8"?>
<!-- Generator: Adobe Illustrator 15.0.2, SVG Export Plug-In . SVG Version: 6.00 Build 0)  -->
<!DOCTYPE svg PUBLIC "-//W3C//DTD SVG 1.1//EN" "http://www.w3.org/Graphics/SVG/1.1/DTD/svg11.dtd">
<svg version="1.1" id="Layer_1" xmlns="http://www.w3.org/2000/svg" xmlns:xlink="http://www.w3.org/1999/xlink" x="0px" y="0px"
	 width="382.68px" height="794.488px" viewBox="0 0 382.68 794.488" enable-background="new 0 0 382.68 794.488"
	 xml:space="preserve">
<rect x="42.585" y="163.018" fill="none" stroke="#A54B9C" stroke-miterlimit="10" width="42.521" height="17.01"/>
<rect x="0.064" y="163.018" fill="none" stroke="#A54B9C" stroke-miterlimit="10" width="42.521" height="17.01"/>
<rect x="127.626" y="163.018" fill="none" stroke="#A54B9C" stroke-miterlimit="10" width="42.521" height="17.01"/>
<rect x="85.105" y="163.018" fill="none" stroke="#A54B9C" stroke-miterlimit="10" width="42.521" height="17.01"/>
<rect x="212.402" y="163.018" fill="none" stroke="#A54B9C" stroke-miterlimit="10" width="42.521" height="17.01"/>
<rect x="169.884" y="163.018" fill="none" stroke="#A54B9C" stroke-miterlimit="10" width="42.521" height="17.01"/>
<rect x="297.443" y="163.018" fill="none" stroke="#A54B9C" stroke-miterlimit="10" width="42.521" height="17.01"/>
<rect x="254.924" y="163.018" fill="none" stroke="#A54B9C" stroke-miterlimit="10" width="42.521" height="17.01"/>
<rect x="340.096" y="163.018" fill="none" stroke="#A54B9C" stroke-miterlimit="10" width="42.521" height="17.01"/>
<rect x="42.585" y="205.538" fill="none" stroke="#A54B9C" stroke-miterlimit="10" width="42.521" height="17.009"/>
<rect x="0.064" y="205.538" fill="none" stroke="#A54B9C" stroke-miterlimit="10" width="42.521" height="17.009"/>
<rect x="127.626" y="205.538" fill="none" stroke="#A54B9C" stroke-miterlimit="10" width="42.521" height="17.009"/>
<rect x="85.105" y="205.538" fill="none" stroke="#A54B9C" stroke-miterlimit="10" width="42.521" height="17.009"/>
<rect x="212.402" y="205.538" fill="none" stroke="#A54B9C" stroke-miterlimit="10" width="42.521" height="17.009"/>
<rect x="169.884" y="205.538" fill="none" stroke="#A54B9C" stroke-miterlimit="10" width="42.521" height="17.009"/>
<rect x="297.443" y="205.538" fill="none" stroke="#A54B9C" stroke-miterlimit="10" width="42.521" height="17.009"/>
<rect x="254.924" y="205.538" fill="none" stroke="#A54B9C" stroke-miterlimit="10" width="42.521" height="17.009"/>
<rect x="340.096" y="205.538" fill="none" stroke="#A54B9C" stroke-miterlimit="10" width="42.521" height="17.009"/>
<rect x="42.585" y="248.057" fill="#231F20" stroke="#A54B9C" stroke-miterlimit="10" width="42.521" height="17.01"/>
<rect x="0.064" y="248.057" fill="none" stroke="#A54B9C" stroke-miterlimit="10" width="42.521" height="17.01"/>
<rect x="127.626" y="248.057" fill="none" stroke="#A54B9C" stroke-miterlimit="10" width="42.521" height="17.01"/>
<rect x="85.105" y="248.057" fill="#231F20" stroke="#A54B9C" stroke-miterlimit="10" width="42.521" height="17.01"/>
<rect x="212.402" y="248.057" fill="none" stroke="#A54B9C" stroke-miterlimit="10" width="42.521" height="17.01"/>
<rect x="169.884" y="248.057" fill="none" stroke="#A54B9C" stroke-miterlimit="10" width="42.521" height="17.01"/>
<rect x="297.443" y="248.057" fill="#231F20" stroke="#A54B9C" stroke-miterlimit="10" width="42.521" height="17.01"/>
<rect x="254.924" y="248.057" fill="#231F20" stroke="#A54B9C" stroke-miterlimit="10" width="42.521" height="17.01"/>
<rect x="340.096" y="248.057" fill="none" stroke="#A54B9C" stroke-miterlimit="10" width="42.521" height="17.01"/>
<rect x="42.585" y="304.578" fill="none" stroke="#A54B9C" stroke-miterlimit="10" width="42.521" height="17.009"/>
<rect x="0.064" y="304.578" fill="none" stroke="#A54B9C" stroke-miterlimit="10" width="42.521" height="17.009"/>
<rect x="127.626" y="304.578" fill="none" stroke="#A54B9C" stroke-miterlimit="10" width="42.521" height="17.009"/>
<rect x="85.105" y="304.578" fill="none" stroke="#A54B9C" stroke-miterlimit="10" width="42.521" height="17.009"/>
<rect x="212.402" y="304.578" fill="none" stroke="#A54B9C" stroke-miterlimit="10" width="42.521" height="17.009"/>
<rect x="169.884" y="304.578" fill="none" stroke="#A54B9C" stroke-miterlimit="10" width="42.521" height="17.009"/>
<rect x="297.443" y="304.578" fill="none" stroke="#A54B9C" stroke-miterlimit="10" width="42.521" height="17.009"/>
<rect x="254.924" y="304.578" fill="none" stroke="#A54B9C" stroke-miterlimit="10" width="42.521" height="17.009"/>
<rect x="340.096" y="304.578" fill="none" stroke="#A54B9C" stroke-miterlimit="10" width="42.521" height="17.009"/>
<rect x="42.585" y="361.096" stroke="#A54B9C" stroke-miterlimit="10" width="42.521" height="17.008"/>
<rect x="0.064" y="361.096" fill="none" stroke="#A54B9C" stroke-miterlimit="10" width="42.521" height="17.008"/>
<rect x="127.626" y="361.096" fill="none" stroke="#A54B9C" stroke-miterlimit="10" width="42.521" height="17.008"/>
<rect x="85.105" y="361.096" fill="none" stroke="#A54B9C" stroke-miterlimit="10" width="42.521" height="17.008"/>
<rect x="212.402" y="361.096" fill="none" stroke="#A54B9C" stroke-miterlimit="10" width="42.521" height="17.008"/>
<rect x="169.884" y="361.096" fill="none" stroke="#A54B9C" stroke-miterlimit="10" width="42.521" height="17.008"/>
<rect x="297.443" y="361.096" stroke="#A54B9C" stroke-miterlimit="10" width="42.521" height="17.008"/>
<rect x="254.924" y="361.096" fill="none" stroke="#A54B9C" stroke-miterlimit="10" width="42.521" height="17.008"/>
<rect x="340.096" y="361.096" fill="none" stroke="#A54B9C" stroke-miterlimit="10" width="42.521" height="17.008"/>
<rect x="42.585" y="417.617" stroke="#A54B9C" stroke-miterlimit="10" width="42.521" height="17.008"/>
<rect x="0.064" y="417.617" fill="none" stroke="#A54B9C" stroke-miterlimit="10" width="42.521" height="17.008"/>
<rect x="127.626" y="417.617" fill="none" stroke="#A54B9C" stroke-miterlimit="10" width="42.521" height="17.008"/>
<rect x="85.105" y="417.617" fill="none" stroke="#A54B9C" stroke-miterlimit="10" width="42.521" height="17.008"/>
<rect x="212.402" y="417.617" fill="none" stroke="#A54B9C" stroke-miterlimit="10" width="42.521" height="17.008"/>
<rect x="169.884" y="417.617" fill="none" stroke="#A54B9C" stroke-miterlimit="10" width="42.521" height="17.008"/>
<rect x="297.443" y="417.617" stroke="#A54B9C" stroke-miterlimit="10" width="42.521" height="17.008"/>
<rect x="254.924" y="417.617" fill="none" stroke="#A54B9C" stroke-miterlimit="10" width="42.521" height="17.008"/>
<rect x="340.096" y="417.617" fill="none" stroke="#A54B9C" stroke-miterlimit="10" width="42.521" height="17.008"/>
<rect x="42.585" y="474.136" stroke="#A54B9C" stroke-miterlimit="10" width="42.521" height="17.008"/>
<rect x="0.064" y="474.136" fill="none" stroke="#A54B9C" stroke-miterlimit="10" width="42.521" height="17.008"/>
<rect x="127.626" y="474.136" fill="none" stroke="#A54B9C" stroke-miterlimit="10" width="42.521" height="17.008"/>
<rect x="85.105" y="474.136" fill="none" stroke="#A54B9C" stroke-miterlimit="10" width="42.521" height="17.008"/>
<rect x="212.402" y="474.136" fill="none" stroke="#A54B9C" stroke-miterlimit="10" width="42.521" height="17.008"/>
<rect x="169.884" y="474.136" fill="none" stroke="#A54B9C" stroke-miterlimit="10" width="42.521" height="17.008"/>
<rect x="297.443" y="474.136" stroke="#A54B9C" stroke-miterlimit="10" width="42.521" height="17.008"/>
<rect x="254.924" y="474.136" fill="none" stroke="#A54B9C" stroke-miterlimit="10" width="42.521" height="17.008"/>
<rect x="340.096" y="474.136" fill="none" stroke="#A54B9C" stroke-miterlimit="10" width="42.521" height="17.008"/>
<rect x="42.585" y="531.657" fill="none" stroke="#A54B9C" stroke-miterlimit="10" width="42.521" height="17.008"/>
<rect x="0.064" y="531.657" fill="none" stroke="#A54B9C" stroke-miterlimit="10" width="42.521" height="17.008"/>
<rect x="127.626" y="531.657" fill="none" stroke="#A54B9C" stroke-miterlimit="10" width="42.521" height="17.008"/>
<rect x="85.105" y="531.657" stroke="#A54B9C" stroke-miterlimit="10" width="42.521" height="17.008"/>
<rect x="212.402" y="531.657" fill="none" stroke="#A54B9C" stroke-miterlimit="10" width="42.521" height="17.008"/>
<rect x="169.884" y="531.657" fill="none" stroke="#A54B9C" stroke-miterlimit="10" width="42.521" height="17.008"/>
<rect x="297.443" y="531.657" fill="none" stroke="#A54B9C" stroke-miterlimit="10" width="42.521" height="17.008"/>
<rect x="254.924" y="531.657" stroke="#A54B9C" stroke-miterlimit="10" width="42.521" height="17.008"/>
<rect x="340.096" y="531.657" fill="none" stroke="#A54B9C" stroke-miterlimit="10" width="42.521" height="17.008"/>
<rect x="42.585" y="589.177" fill="none" stroke="#A54B9C" stroke-miterlimit="10" width="42.521" height="17.011"/>
<rect x="0.064" y="589.177" fill="none" stroke="#A54B9C" stroke-miterlimit="10" width="42.521" height="17.011"/>
<rect x="127.626" y="589.177" stroke="#A54B9C" stroke-miterlimit="10" width="42.521" height="17.011"/>
<rect x="85.105" y="589.177" fill="none" stroke="#A54B9C" stroke-miterlimit="10" width="42.521" height="17.011"/>
<rect x="212.402" y="589.177" stroke="#A54B9C" stroke-miterlimit="10" width="42.521" height="17.011"/>
<rect x="169.884" y="589.177" fill="none" stroke="#A54B9C" stroke-miterlimit="10" width="42.521" height="17.011"/>
<rect x="297.443" y="589.177" fill="none" stroke="#A54B9C" stroke-miterlimit="10" width="42.521" height="17.011"/>
<rect x="254.924" y="589.177" fill="none" stroke="#A54B9C" stroke-miterlimit="10" width="42.521" height="17.011"/>
<rect x="340.096" y="589.177" fill="none" stroke="#A54B9C" stroke-miterlimit="10" width="42.521" height="17.011"/>
<rect x="42.585" y="645.697" fill="none" stroke="#A54B9C" stroke-miterlimit="10" width="42.521" height="17.008"/>
<rect x="0.064" y="645.697" fill="none" stroke="#A54B9C" stroke-miterlimit="10" width="42.521" height="17.008"/>
<rect x="127.626" y="645.697" fill="none" stroke="#A54B9C" stroke-miterlimit="10" width="42.521" height="17.008"/>
<rect x="85.105" y="645.697" fill="none" stroke="#A54B9C" stroke-miterlimit="10" width="42.521" height="17.008"/>
<rect x="212.402" y="645.697" fill="none" stroke="#A54B9C" stroke-miterlimit="10" width="42.521" height="17.008"/>
<rect x="169.884" y="645.697" stroke="#A54B9C" stroke-miterlimit="10" width="42.521" height="17.008"/>
<rect x="297.443" y="645.697" fill="none" stroke="#A54B9C" stroke-miterlimit="10" width="42.521" height="17.008"/>
<rect x="254.924" y="645.697" fill="none" stroke="#A54B9C" stroke-miterlimit="10" width="42.521" height="17.008"/>
<rect x="340.096" y="645.697" fill="none" stroke="#A54B9C" stroke-miterlimit="10" width="42.521" height="17.008"/>
<rect x="42.585" y="702.217" fill="none" stroke="#A54B9C" stroke-miterlimit="10" width="42.521" height="17.01"/>
<rect x="0.064" y="702.217" fill="none" stroke="#A54B9C" stroke-miterlimit="10" width="42.521" height="17.01"/>
<rect x="127.626" y="702.217" stroke="#A54B9C" stroke-miterlimit="10" width="42.521" height="17.01"/>
<rect x="85.105" y="702.217" fill="none" stroke="#A54B9C" stroke-miterlimit="10" width="42.521" height="17.01"/>
<rect x="212.402" y="702.217" fill="none" stroke="#A54B9C" stroke-miterlimit="10" width="42.521" height="17.01"/>
<rect x="169.884" y="702.217" fill="none" stroke="#A54B9C" stroke-miterlimit="10" width="42.521" height="17.01"/>
<rect x="297.443" y="702.217" fill="none" stroke="#A54B9C" stroke-miterlimit="10" width="42.521" height="17.01"/>
<rect x="254.924" y="702.217" fill="none" stroke="#A54B9C" stroke-miterlimit="10" width="42.521" height="17.01"/>
<rect x="340.096" y="702.217" fill="none" stroke="#A54B9C" stroke-miterlimit="10" width="42.521" height="17.01"/>
<rect x="42.585" y="760.729" fill="none" stroke="#A54B9C" stroke-miterlimit="10" width="42.521" height="17.008"/>
<rect x="0.064" y="760.729" fill="none" stroke="#A54B9C" stroke-miterlimit="10" width="42.521" height="17.008"/>
<rect x="127.626" y="760.729" fill="none" stroke="#A54B9C" stroke-miterlimit="10" width="42.521" height="17.008"/>
<rect x="85.105" y="760.729" stroke="#A54B9C" stroke-miterlimit="10" width="42.521" height="17.008"/>
<rect x="212.402" y="760.729" fill="none" stroke="#A54B9C" stroke-miterlimit="10" width="42.521" height="17.008"/>
<rect x="169.884" y="760.729" fill="none" stroke="#A54B9C" stroke-miterlimit="10" width="42.521" height="17.008"/>
<rect x="297.443" y="760.729" fill="none" stroke="#A54B9C" stroke-miterlimit="10" width="42.521" height="17.008"/>
<rect x="254.924" y="760.729" fill="none" stroke="#A54B9C" stroke-miterlimit="10" width="42.521" height="17.008"/>
<rect x="340.096" y="760.729" fill="none" stroke="#A54B9C" stroke-miterlimit="10" width="42.521" height="17.008"/>
</svg>
